<svg xmlns="http://www.w3.org/2000/svg" id="Слой_1" data-name="Слой 1" viewBox="0 0 1510.03 339.03"><defs><style>.cls-1{fill:#000;}.cls-2{fill:#ed1c24;}</style></defs><title>Монтажная область 1</title><path class="cls-2" d="M0,103.79H47.69V90.38h0V68.65h0V55.24H0V66.06H0V92.8H0ZM34.48,90.38H13.17V68.65H34.48Z"/><path class="cls-2" d="M131,55.24H69v69H0v76.31H145.28V55.24ZM14.3,186.21V138.51H69v47.69Zm116.67,0H83.28V138.51H131Zm-47.69-62V69.53H131V124.2Z"/><path class="cls-1" d="M213.53,200.52V55.33h16.88V200.52Z"/><path class="cls-1" d="M393.62,200.45H374.35L295.9,78.62s-.1,27.38-.1,39.3v82.53H280.21V55.26h19.07l78.65,121.37s-.23-33.88-.1-38V55.26h15.79Z"/><path class="cls-1" d="M488.59,200.52H471.71V70.32h-46v-15H534.57v15h-46Z"/><path class="cls-1" d="M647.52,200.52H566.59V55.33h80.94v15H583.47V117.1h60.18V132H583.47v53.43h64.05Z"/><path class="cls-1" d="M706.75,140.14v60.38H689.87V55.33h39.82q26.71,0,39.48,10.23t12.76,30.79q0,28.8-29.2,38.93l39.43,65.25h-20L737,140.14Zm0-14.5h23.14q17.88,0,26.22-7.1t8.34-21.3q0-14.4-8.49-20.76T728.7,70.12H706.75Z"/><path class="cls-1" d="M908.69,55.33h18.17L874.52,200.52H857.84l-52-145.19h17.88L857,149.27a263.86,263.86,0,0,1,9.14,31.48,262.73,262.73,0,0,1,9.34-32.08Z"/><path class="cls-1" d="M1081.05,127.72q0,33.83-17.11,53.21t-47.57,19.38q-31.14,0-48.05-19T951.4,127.53q0-34.41,17-53.36t48.2-18.94q30.36,0,47.43,19.28T1081.05,127.72Zm-113.65,0q0,29.44,12.54,44.66t36.43,15.22q24.09,0,36.38-15.17T1065,127.72q0-29.24-12.24-44.36t-36.23-15.12q-24.09,0-36.63,15.22T967.41,127.72Z"/><path class="cls-1" d="M1125.56,200.52V55.33h16.88v129.9h64.05v15.29Z"/><path class="cls-1" d="M1304.83,124.54h47.94v68.59a153.83,153.83,0,0,1-22.77,5.4,173.52,173.52,0,0,1-26.82,1.83q-32,0-49.87-19.05t-17.85-53.39q0-22,8.83-38.54a59.7,59.7,0,0,1,25.42-25.27q16.59-8.73,38.87-8.73a106.25,106.25,0,0,1,42.06,8.3l-6.37,14.47q-19.1-8.1-36.75-8.1-25.76,0-40.22,15.34t-14.47,42.54q0,28.56,13.94,43.31T1307.72,186a121.59,121.59,0,0,0,28.65-3.38V139.21h-31.54Z"/><path class="cls-1" d="M1490.41,200.52l-18-46h-58l-17.81,46h-17l57.2-145.28h14.15l56.91,145.28Zm-23.26-61.16-16.82-44.83q-3.27-8.51-6.73-20.88a187.76,187.76,0,0,1-6.23,20.88l-17,44.83Z"/></svg>
