<svg xmlns="http://www.w3.org/2000/svg" width="14" height="15" viewBox="0 0 14 15"><path fill="#3b4256" d="M13.78 11.58a5.05 5.05 0 0 0-2-2.07c-.33-.2-.65-.3-.97-.3-.12 0-.24.02-.37.05-.4.1-.78.29-1.18.58a.74.74 0 0 1-.45.14c-.21 0-.44-.08-.6-.2A14.39 14.39 0 0 1 5.23 6.8c-.17-.22-.3-.72-.05-1.05.29-.4.48-.78.57-1.19.11-.43.03-.87-.24-1.34a5.06 5.06 0 0 0-2.07-2A1.84 1.84 0 0 0 2.6 1c-.48 0-.93.2-1.3.6-.34.36-.64.75-.98 1.21-.32.43-.3.92-.27 1.35.04.56.24 1.2.62 2 .65 1.32 1.57 2.59 2.8 3.86L5 11.55a14.7 14.7 0 0 0 3.86 2.81c.78.38 1.43.59 1.98.63h.36c.29 0 .66-.02 1-.27.46-.35.84-.65 1.2-.99.63-.6.77-1.4.38-2.15z"/></svg>