<svg xmlns="http://www.w3.org/2000/svg" width="27" height="14" viewBox="0 0 27 14"><path fill="#fff" d="M26.53 13.99l.03-.01.02-.01.03-.01.03-.01.02-.01.03-.01.02-.02.03-.01.02-.02.03-.02.03-.03v-.01h.01l.04-.04.01-.02.02-.03.02-.02.01-.03.01-.03.01-.02.01-.03.01-.03.01-.02v-.03l.01-.04v-.02a.6.6 0 0 0 .01-.06V.6a.6.6 0 0 0-.59-.6H7.6h-.05l-.02.01h-.03l-.03.01h-.03l-.02.01-.03.01-.03.01-.02.02-.03.01-.02.02-.02.01-.03.02-.02.02-.02.02-.02.02-.01.02h-.01l-.02.03-.02.02-.01.03-.02.02-.01.03-.01.03-.01.02-.01.03-.01.03v.03l-.01.03v.06L7 .6V4.37c0 .34.26.61.58.61a.6.6 0 0 0 .59-.61l.37-2.44 5.21 4.71a.38.38 0 0 0-.08.07l-5.13 5.24V8.02a.6.6 0 0 0-.58-.6.6.6 0 0 0-.59.6v.73H4.36a.6.6 0 0 0-.59.6c0 .33.26.6.59.6h3.02v3.45c0 .33.27.6.59.6h18.5l.03-.01h.03zM20.7 6.71l-.01-.01 3.86-3.35a.6.6 0 0 0 .06-.84.58.58 0 0 0-.82-.07L17.2 8.16 9.51 1.2h16.32v10.75zm-6.19.85c.04-.05.08-.09.1-.14l2.2 1.98a.58.58 0 0 0 .76.01l2.23-1.94a.9.9 0 0 0 .07.09L25 12.8H9.38zM.58 7.01h9.83c.33 0 .59-.23.59-.51s-.26-.5-.59-.5H.58C.26 6 0 6.22 0 6.5s.26.51.58.51zm.94-4.02h3.97c.29 0 1.15.26 1.15-.07s-.86-.91-1.15-.91H1.52c-.3 0-.53.22-.53.49s.24.49.53.49zM4.46 11H.53c-.3 0-.53.22-.53.5s.24.51.53.51h3.93c.3 0 .54-.23.54-.51s-.24-.5-.54-.5z"/></svg>