<svg xmlns="http://www.w3.org/2000/svg" width="31" height="31" viewBox="0 0 31 31"><path fill="#4099ff" d="M3 0h25a3 3 0 0 1 3 3v25a3 3 0 0 1-3 3H3a3 3 0 0 1-3-3V3a3 3 0 0 1 3-3z"/><path fill="#fff" d="M22.85 15.78c1.06-.09 1.79-.57 2.07-1.22-.39.23-1.58.49-2.24.24l-.11-.43c-.5-1.83-2.22-3.31-4.03-3.13l.45-.16c.19-.07 1.36-.26 1.18-.67-.16-.36-1.58.27-1.85.35.35-.13.94-.36 1-.76a2.8 2.8 0 0 0-1.48.7.97.97 0 0 0 .28-.56c-1.44.92-2.29 2.77-2.97 4.56a7.11 7.11 0 0 0-1.44-1.15c-1.2-.64-2.63-1.3-4.87-2.13-.07.74.36 1.72 1.62 2.37-.27-.04-.77.05-1.17.14.16.85.69 1.54 2.13 1.88-.66.04-1 .19-1.3.51.3.59 1.02 1.28 2.34 1.14-1.46.62-.6 1.78.59 1.61a5.07 5.07 0 0 1-7.05.18c4.78 6.48 15.18 3.83 16.73-2.4 1.16.01 1.85-.4 2.27-.85a4.7 4.7 0 0 1-2.15-.22z"/></svg>