<svg xmlns="http://www.w3.org/2000/svg" width="31" height="31" viewBox="0 0 31 31"><path fill="#4e83b7" d="M3 0h25a3 3 0 0 1 3 3v25a3 3 0 0 1-3 3H3a3 3 0 0 1-3-3V3a3 3 0 0 1 3-3z"/><path fill="#fff" d="M13.34 10.22a9.74 9.74 0 0 1 2.78.27c.5.84.26 2.44.26 3.71 0 .76-.05 1.5.69 1.51.21-.29.58-.47.8-.77.47-.66.91-1.4 1.29-2.13.25-.48.57-1.71.95-1.97.2-.16.78-.08 1.11-.08l2.24-.04c.45 0 .92.01 1.03.35.13.39-.3 1.03-.42 1.24-.59 1.09-1.32 1.99-2.01 2.97-.21.3-.89.91-.73 1.51.13.48.68.89 1.03 1.16l.38.43c.44.45.85.87 1.22 1.39.18.25.75.88.46 1.32-.21.57-1.68.38-2.44.38-.56 0-1.18.13-1.64-.04-.92-.34-1.58-1.19-2.13-1.93-.19-.26-.53-.39-.76-.62-.75.01-.89.55-1.03 1.16-.09.37.06.85-.11 1.12-.12.18-.37.26-.61.31h-.8a5.7 5.7 0 0 1-3.12-.73c-.57-.35-1.09-.66-1.6-1.05-.42-.31-.76-.8-1.07-1.23-.5-.71-1.09-1.38-1.56-2.13-.37-.59-.63-1.21-.99-1.82-.42-.71-.76-1.44-1.1-2.24-.18-.41-.45-.69-.46-1.28.44-.28.78-.27 1.52-.27.8 0 2.18-.18 2.52.31.23.35.32.81.49 1.2.36.83.85 1.7 1.33 2.44.3.45.58 1.07 1.3 1.08.03-.03.1-.06.15-.08.38-.82.65-3.35.08-4.21-.18-.26-.86-.35-.92-.58.26-.2.43-.44.8-.54.26-.08.87.01 1.07-.12z"/></svg>