<svg xmlns="http://www.w3.org/2000/svg" width="31" height="31" viewBox="0 0 31 31"><path fill="#cd332d" d="M3 0h25a3 3 0 0 1 3 3v25a3 3 0 0 1-3 3H3a3 3 0 0 1-3-3V3a3 3 0 0 1 3-3z"/><path fill="#fff" d="M21.38 25H10.62C9.18 25 8 23.9 8 22.56v-5.61c0-1.34 1.18-2.44 2.62-2.44h10.76c1.44 0 2.62 1.1 2.62 2.44v5.61C24 23.9 22.82 25 21.38 25zm-8.71-8.61l-3.56-.01v.86h1.11v5.93h1.11v-5.91h1.34zm2.67 1.75h-1.12v3.15c0 .46.03.69 0 .77-.09.24-.5.5-.65.02-.03-.08-.01-.33-.01-.77v-3.17h-1.11v3.13c0 .47-.01.83.01.99.02.29.01.62.28.81.5.36 1.46-.05 1.7-.56v.65h.9zm3.55.99c0-1-.75-1.6-1.78-.79v-1.95H16v6.73l.91-.01.08-.42c1.17 1.06 1.91.33 1.91-.94zm3.49 2.27l-.84.01V21.98c0 .25-.2.45-.45.45h-.17a.45.45 0 0 1-.45-.45v-1.21h1.91v-.71c0-.52-.02-1.04-.06-1.34-.14-.94-1.47-1.09-2.14-.61-.22.15-.38.35-.47.62-.1.27-.14.64-.14 1.11v1.57c0 2.6 3.19 2.23 2.81-.01zm-1.4-2.6h.07c.27 0 .5.22.5.49l-.01.61h-1.06l.01-.61a.5.5 0 0 1 .49-.49zm-3.4 3.54c-.27 0-.48-.18-.48-.4V19c0-.22.21-.4.48-.4s.49.18.49.4v2.94c0 .22-.22.4-.49.4zm1.98-9.5a1 1 0 0 1-.31.4.73.73 0 0 1-.43.13.7.7 0 0 1-.45-.13.67.67 0 0 1-.27-.33 1.58 1.58 0 0 1-.11-.44l-.02-.89V8.05h1.02v4.07c0 .22.18.4.41.4a.4.4 0 0 0 .4-.4V8.05h.98v5.23h-1.24zm-2.59.02c-.13.2-.29.35-.48.44a1.87 1.87 0 0 1-1.39.02.98.98 0 0 1-.46-.36 1.49 1.49 0 0 1-.23-.59 5.3 5.3 0 0 1-.07-1.03V9.96c0-.5.04-.89.13-1.17.08-.28.23-.51.45-.68.22-.17.5-.26.84-.26.29 0 .53.06.74.17.21.11.37.25.48.43.11.17.19.35.23.54.04.19.06.47.06.85v1.32c0 .49-.02.84-.06 1.07-.04.23-.12.44-.24.63zm-.67-3.6c0-.3-.23-.54-.5-.54s-.49.24-.49.54v2.77c0 .3.22.54.49.54s.5-.24.5-.54zm-3.25.17l1.38-3.42h-1.28l-.73 2.54L11.67 6H10.4l1.48 3.44v4h1.17z"/></svg>