<?xml version="1.0" standalone="no"?>
<!DOCTYPE svg PUBLIC "-//W3C//DTD SVG 1.1//EN" "http://www.w3.org/Graphics/SVG/1.1/DTD/svg11.dtd" >
<svg xmlns="http://www.w3.org/2000/svg">
<metadata></metadata>
<defs>
<font id="segoe_uisemibold_italic" horiz-adv-x="789" >
<font-face units-per-em="2048" ascent="1638" descent="-410" />
<missing-glyph horiz-adv-x="563" />
<glyph horiz-adv-x="2048" />
<glyph horiz-adv-x="2048" />
<glyph unicode="&#xd;" horiz-adv-x="149" />
<glyph unicode=" "  horiz-adv-x="563" />
<glyph unicode="&#x09;" horiz-adv-x="563" />
<glyph unicode="&#xa0;" horiz-adv-x="563" />
<glyph unicode="!" horiz-adv-x="681" d="M415 424h-196l186 1010h252zM409 121q0 -59 -42.5 -100.5t-107.5 -41.5q-61 0 -103 38.5t-42 94.5q0 61 43.5 102t108.5 41q59 0 101 -38.5t42 -95.5z" />
<glyph unicode="&#x22;" horiz-adv-x="888" d="M807 997h-160l-20 446h200zM468 997h-160l-20 446h200z" />
<glyph unicode="#" horiz-adv-x="1190" d="M1182 907h-222l-59 -273h243l-35 -144h-237l-83 -371h-164l80 371h-239l-79 -371h-163l78 371h-225l29 144h227l57 272h-240l28 144h241l79 379h165l-77 -379h239l81 379h163l-78 -379h222zM555 907l-61 -273h243l59 273h-241z" />
<glyph unicode="$" horiz-adv-x="1142" d="M1055 1178q-125 67 -263 84l-101 -474q299 -168 299 -382q0 -123 -54.5 -216t-159 -146t-255.5 -58l-43 -195h-123l41 198q-84 5 -181 31.5t-147 51.5l41 207q58 -37 153 -69t172 -40l98 456q-124 74 -184 132.5t-91 127t-31 152.5q0 117 58 209t167.5 145t254.5 55 l36 171h125l-38 -176q138 -11 266 -65zM667 1262q-104 -6 -162.5 -65t-58.5 -144q0 -56 28.5 -102.5t104.5 -99.5zM771 380q0 50 -28.5 92.5t-98.5 91.5l-84 -395q96 5 153.5 63.5t57.5 147.5z" />
<glyph unicode="%" horiz-adv-x="1732" d="M1638 424q0 -115 -50.5 -219t-140 -164.5t-202.5 -60.5q-99 0 -167 39t-104 108.5t-36 154.5q0 117 55.5 224.5t145.5 162.5t200 55q141 0 220 -81t79 -219zM383 0h-197l1234 1434h197zM870 1155q0 -122 -54.5 -228t-143.5 -161.5t-196 -55.5q-99 0 -166.5 38.5 t-103.5 107.5t-36 158q0 115 54 221t144 162.5t203 56.5q139 0 219 -80t80 -219zM1463 420q0 74 -34 117.5t-96 43.5t-112 -42t-79 -114t-29 -144t36 -115.5t101 -43.5q90 0 151.5 88t61.5 210zM695 1150q0 78 -35.5 120t-94.5 42q-62 0 -111.5 -41.5t-79 -112.5t-29.5 -145 t37 -117.5t100 -43.5q59 0 108.5 41.5t77 110t27.5 146.5z" />
<glyph unicode="&#x26;" horiz-adv-x="1480" d="M1409 761q-65 -278 -275 -492l198 -269h-274l-95 130q-206 -156 -469 -156q-132 0 -227 47.5t-144 131.5t-49 188q0 152 97 261.5t321 197.5q-97 146 -97 287q0 103 52 188t149 134t223 49q111 0 194.5 -39t128 -108.5t44.5 -156.5q0 -131 -95 -226.5t-300 -176.5 l236 -326q122 143 166 336h216zM965 1140q0 65 -42 104.5t-114 39.5q-85 0 -138.5 -52t-53.5 -136q0 -103 77 -210q159 67 215 123t56 131zM862 275l-79 108l-198 277q-145 -60 -210 -129t-65 -164q0 -94 61.5 -152.5t162.5 -58.5q177 0 328 119z" />
<glyph unicode="'" horiz-adv-x="531" d="M460 998h-157l-20 445h199z" />
<glyph unicode="(" horiz-adv-x="690" d="M884 1434q-278 -283 -405.5 -560.5t-127.5 -575.5q0 -162 39.5 -323t111.5 -282h-193q-79 125 -123.5 290.5t-44.5 326.5q0 314 129 592.5t398 531.5h216z" />
<glyph unicode=")" horiz-adv-x="690" d="M553 816q0 -315 -129.5 -592t-398.5 -531h-217q277 279 406 556.5t129 577.5q0 163 -40 323t-112 284h193q76 -119 122.5 -285.5t46.5 -332.5z" />
<glyph unicode="*" horiz-adv-x="894" d="M641 1032l195 -227l-148 -101l-147 259l-147 -259l-146 101l195 227l-275 46l57 164l256 -104l-33 296h186l-33 -296l257 104l57 -164z" />
<glyph unicode="+" horiz-adv-x="1426" d="M819 507v-394h-167v394h-395v169h395v394h167v-394h394v-169h-394z" />
<glyph unicode="," horiz-adv-x="500" d="M100 -259h-194l217 498h230z" />
<glyph unicode="-" horiz-adv-x="823" d="M672 471h-547l38 175h547z" />
<glyph unicode="." horiz-adv-x="500" d="M313 116q0 -61 -43.5 -100.5t-106.5 -39.5q-62 0 -103.5 38t-41.5 95q0 60 43.5 101t108.5 41q61 0 102 -39t41 -96z" />
<glyph unicode="/" horiz-adv-x="860" d="M48 -238h-243l1047 1672h242z" />
<glyph unicode="0" horiz-adv-x="1170" d="M1149 1019q0 -288 -88.5 -538.5t-235.5 -378t-333 -127.5q-182 0 -288.5 128.5t-106.5 354.5q0 265 89 503.5t239.5 367.5t340.5 129q178 0 280.5 -116.5t102.5 -322.5zM911 1018q0 122 -42.5 186t-120.5 64q-107 0 -194.5 -106t-152.5 -325t-65 -398q0 -127 46 -199.5 t130 -72.5q113 0 196.5 118.5t143 331t59.5 401.5z" />
<glyph unicode="1" horiz-adv-x="843" d="M232 0l255 1196l-336 -81l45 207l586 136l-308 -1458h-242z" />
<glyph unicode="2" horiz-adv-x="1040" d="M798 1078q0 85 -54 134.5t-156 49.5q-99 0 -196 -40t-178 -103l52 236q156 103 385 103q183 0 287 -90.5t104 -246.5q0 -117 -39 -208t-120.5 -171t-281.5 -205q-200 -123 -273 -193.5t-87 -139.5h635l-43 -204h-897l19 89q23 113 78.5 203.5t146.5 173.5t280 202 q132 83 204 146t103 123t31 141z" />
<glyph unicode="3" horiz-adv-x="988" d="M996 1127q0 -156 -101.5 -259t-277.5 -132v-4q127 -22 197 -106t70 -205q0 -132 -67 -233.5t-195.5 -157t-306.5 -55.5q-97 0 -195.5 21t-178.5 61l46 206q65 -42 156.5 -69.5t170.5 -27.5q157 0 243 66t86 188q0 102 -77 162t-239 60h-116l41 191h135q172 0 269.5 66.5 t97.5 186.5q0 87 -59 134.5t-161 47.5q-158 0 -314 -78l45 210q161 58 335 58q182 0 289 -89.5t107 -241.5z" />
<glyph unicode="4" horiz-adv-x="1154" d="M1115 1434l-197 -926h213l-41 -193h-213l-67 -315h-225l67 315h-649l41 195q234 212 459.5 462.5t374.5 461.5h237zM693 508l127 594q-230 -293 -538 -594h411z" />
<glyph unicode="5" horiz-adv-x="1020" d="M504 881q204 0 317.5 -102t113.5 -284q0 -147 -76.5 -270.5t-211 -186.5t-311.5 -63q-92 0 -191.5 17t-151.5 46l46 208q51 -34 138.5 -57t162.5 -23q111 0 190 39.5t121 106.5t42 150q0 110 -67 168.5t-220 58.5q-136 0 -248 -14l187 759h730l-43 -203h-524l-90 -354z " />
<glyph unicode="6" horiz-adv-x="1115" d="M1101 1208q-97 60 -235 60q-122 0 -224 -67t-176 -190.5t-108 -279.5h4q53 80 142.5 129t191.5 49q164 0 258.5 -103t94.5 -289q0 -149 -67 -277t-180.5 -196t-255.5 -68q-208 0 -325 137t-117 384q0 267 102 490.5t281 347t397 123.5q152 0 261 -43zM814 496 q0 109 -55.5 167.5t-153.5 58.5q-116 0 -189.5 -85.5t-73.5 -207.5q0 -121 58 -190.5t157 -69.5q111 0 184 94t73 233z" />
<glyph unicode="7" horiz-adv-x="1027" d="M343 0h-258q97 270 291 590.5t456 640.5h-689l44 203h956l-29 -139q-323 -416 -500.5 -722t-270.5 -573z" />
<glyph unicode="8" horiz-adv-x="1142" d="M42 356q0 155 97 267.5t268 153.5q-155 97 -155 274q0 114 59.5 207.5t170.5 146.5t260 53q185 0 293 -91.5t108 -243.5q0 -137 -80 -232.5t-222 -137.5q93 -41 147 -121t54 -189q0 -128 -70 -236t-196 -169t-283 -61q-214 0 -332.5 100.5t-118.5 278.5zM290 370 q0 -96 58.5 -151.5t161.5 -55.5q121 0 202.5 82.5t81.5 207.5q0 94 -57.5 151t-150.5 57q-128 0 -212 -83t-84 -208zM486 1029q0 -81 48 -129.5t129 -48.5q96 0 169 71t73 172q0 81 -48.5 129.5t-133.5 48.5q-105 0 -171 -69t-66 -174z" />
<glyph unicode="9" horiz-adv-x="1124" d="M1095 941q0 -190 -54.5 -367.5t-155 -312t-243.5 -210t-332 -75.5q-87 0 -154 13t-102 30l34 206q99 -58 233 -58q197 0 334 142t186 388h-4q-124 -180 -325 -180q-113 0 -195.5 51.5t-127 144t-44.5 204.5q0 151 70 281t184.5 195.5t259.5 65.5q204 0 320 -139.5 t116 -378.5zM860 1001q0 116 -58.5 190t-152.5 74q-78 0 -138.5 -44t-93.5 -119t-33 -162q0 -110 55.5 -174t149.5 -64q80 0 141 38.5t95.5 108t34.5 152.5z" />
<glyph unicode=":" horiz-adv-x="500" d="M479 907q0 -61 -43.5 -101t-108.5 -40q-63 0 -103 39t-40 94q0 62 43.5 102t107.5 40q60 0 102 -38.5t42 -95.5zM313 116q0 -61 -43.5 -100.5t-106.5 -39.5q-62 0 -103.5 38t-41.5 95q0 60 43.5 101t108.5 41q61 0 102 -39t41 -96z" />
<glyph unicode=";" horiz-adv-x="500" d="M479 907q0 -61 -43.5 -101t-108.5 -40q-63 0 -103 39t-40 94q0 62 43.5 102t107.5 40q60 0 102 -38.5t42 -95.5zM73 -259h-193l216 498h231z" />
<glyph unicode="&#x3c;" horiz-adv-x="1426" d="M233 531v112l897 463v-194l-654 -321v-4l654 -291v-192z" />
<glyph unicode="=" horiz-adv-x="1426" d="M257 721v170h956v-170h-956zM257 291v169h956v-169h-956z" />
<glyph unicode="&#x3e;" horiz-adv-x="1426" d="M318 104v193l656 289v5l-656 320v195l897 -463v-110z" />
<glyph unicode="?" horiz-adv-x="900" d="M958 1139q0 -120 -66.5 -219.5t-210.5 -194.5q-102 -67 -147.5 -134t-64.5 -173h-206q32 158 83.5 245t154.5 157q124 86 172.5 148.5t48.5 132.5q0 76 -54.5 122t-139.5 46q-156 0 -293 -90l43 223q144 64 306 64q171 0 272.5 -88.5t101.5 -238.5zM465 121 q0 -60 -43.5 -101t-108.5 -41q-60 0 -101.5 38.5t-41.5 94.5q0 61 42 102t109 41q60 0 102 -39.5t42 -94.5z" />
<glyph unicode="@" horiz-adv-x="1960" d="M1842 804q0 -171 -64 -315.5t-178.5 -226.5t-258.5 -82q-99 0 -157.5 47t-58.5 122q0 17 5 44h-5q-57 -103 -128.5 -157.5t-167.5 -54.5q-113 0 -182.5 87.5t-69.5 232.5q0 153 67.5 288.5t177 211t237.5 75.5q72 0 123.5 -31t71.5 -87h4l28 102h178q-163 -554 -163 -644 q0 -51 20 -70.5t62 -19.5q75 0 143 64t108 170.5t40 221.5q0 158 -67 275t-196.5 181.5t-314.5 64.5q-204 0 -375 -97.5t-267.5 -271t-96.5 -387.5q0 -281 161.5 -434t460.5 -153q132 0 269.5 25.5t212.5 63.5l-30 -160q-64 -31 -194 -53.5t-272 -22.5q-368 0 -577 195.5 t-209 535.5q0 261 122.5 470t337.5 324t475 115q224 0 388.5 -81t252 -229.5t87.5 -338.5zM1196 797q0 66 -35.5 102t-92.5 36q-81 0 -149.5 -58t-110 -159t-41.5 -212q0 -86 36 -132t92 -46q57 0 108 38.5t92.5 109.5t71 167.5t29.5 153.5z" />
<glyph unicode="A" horiz-adv-x="1367" d="M992 0l-53 360h-561l-200 -360h-281l840 1434h281l227 -1434h-253zM839 1149v35l2 35h-5q-20 -60 -47 -110l-308 -549h432l-70 540q-4 18 -4 49z" />
<glyph unicode="B" horiz-adv-x="1250" d="M1211 1117q0 -143 -87 -240.5t-248 -128.5v-4q122 -19 191.5 -97t69.5 -194q0 -208 -153 -330.5t-419 -122.5h-504l304 1434h452q185 0 289.5 -83.5t104.5 -233.5zM952 1069q0 84 -54 127t-154 43h-171l-87 -402h170q140 0 218 61.5t78 170.5zM877 446q0 90 -62.5 143 t-189.5 53h-180l-94 -447h206q156 0 238 65.5t82 185.5z" />
<glyph unicode="C" horiz-adv-x="1304" d="M1319 1141q-167 100 -347 100q-174 0 -309.5 -79.5t-209.5 -220.5t-74 -318q0 -206 113.5 -319.5t307.5 -113.5q99 0 186 22t181 73l-53 -240q-161 -70 -373 -70q-187 0 -328.5 77.5t-217 220t-75.5 328.5q0 250 107.5 447.5t303.5 303.5t454 106q202 0 386 -78z" />
<glyph unicode="D" horiz-adv-x="1500" d="M1450 854q0 -255 -108 -452t-303 -299.5t-461 -102.5h-517l305 1434h452q290 0 461 -155t171 -425zM1191 835q0 192 -111 291.5t-322 99.5h-188l-217 -1019h232q182 0 320 78t212 222.5t74 327.5z" />
<glyph unicode="E" horiz-adv-x="1053" d="M1097 1226h-527l-86 -406h490l-45 -208h-489l-87 -405h561l-43 -207h-810l304 1434h777z" />
<glyph unicode="F" horiz-adv-x="1034" d="M1099 1222h-529l-90 -418h490l-46 -210h-489l-125 -594h-249l304 1434h779z" />
<glyph unicode="G" horiz-adv-x="1430" d="M1360 1135q-74 51 -177.5 81.5t-214.5 30.5q-174 0 -307.5 -77.5t-206 -218.5t-72.5 -323q0 -206 110.5 -325t301.5 -119q108 0 201 34l74 354h-312l44 204h559l-148 -694q-206 -108 -450 -108q-192 0 -337.5 79.5t-223 225t-77.5 332.5q0 245 106 440t300.5 301 t455.5 106q215 0 422 -88z" />
<glyph unicode="H" horiz-adv-x="1507" d="M1220 0h-248l129 613h-661l-129 -613h-250l304 1434h250l-129 -601h662l129 601h248z" />
<glyph unicode="I" horiz-adv-x="597" d="M310 0h-249l303 1434h250z" />
<glyph unicode="J" horiz-adv-x="808" d="M95 -25q-43 0 -104 12.5t-87 26.5l43 229q24 -20 69 -37t87 -17q115 0 186 83.5t111 268.5l190 893h248l-190 -894q-63 -290 -199.5 -427.5t-353.5 -137.5z" />
<glyph unicode="K" horiz-adv-x="1280" d="M1427 1434l-713 -705l443 -729h-301l-349 615q-25 43 -41 89h-4l-152 -704h-249l304 1434h250l-142 -670h4l48 56l591 614h311z" />
<glyph unicode="L" horiz-adv-x="998" d="M861 0h-800l304 1434h250l-260 -1223h550z" />
<glyph unicode="M" horiz-adv-x="1728" d="M1440 0h-228l193 910q28 126 76 296h-6q-51 -113 -161 -259l-406 -545h-154l-164 527q-18 55 -33 135t-17 142h-7q-35 -221 -52 -297l-194 -909h-226l304 1434h292l187 -590q30 -95 35 -179h5q55 120 113 198l429 571h319z" />
<glyph unicode="N" horiz-adv-x="1587" d="M1301 0h-240l-489 1030q-6 13 -20.5 50t-17.5 53h-6l-9 -68l-12 -73l-211 -992h-235l303 1434h261l479 -1025q23 -51 33 -84h4q5 69 19 133l208 976h237z" />
<glyph unicode="O" horiz-adv-x="1549" d="M1499 847q0 -232 -98.5 -434.5t-272.5 -320t-413 -117.5q-175 0 -309.5 77t-208 218t-73.5 319q0 188 59 348t171.5 281.5t252 180.5t304.5 59q173 0 307.5 -75.5t207.5 -215t73 -320.5zM1239 838q0 186 -95.5 294.5t-258.5 108.5q-136 0 -253.5 -85.5t-183 -240.5 t-65.5 -325q0 -183 93.5 -291.5t258.5 -108.5q143 0 257.5 84t180.5 241t66 323z" />
<glyph unicode="P" horiz-adv-x="1234" d="M1246 1041q0 -156 -73 -274.5t-212 -183.5t-332 -65h-210l-109 -518h-249l304 1434h432q210 0 329.5 -104t119.5 -289zM987 1023q0 96 -65 153.5t-189 57.5h-161l-110 -518h175q164 0 257 81t93 226z" />
<glyph unicode="Q" horiz-adv-x="1549" d="M1499 843q0 -195 -73 -376.5t-203.5 -302.5t-295.5 -160l306 -361h-320l-228 333q-170 7 -297 86t-195.5 216.5t-68.5 307.5q0 240 103.5 445t284 316t402.5 111q266 0 425.5 -168.5t159.5 -446.5zM1239 835q0 190 -95 298t-254 108q-142 0 -258.5 -87t-182.5 -238 t-66 -327q0 -184 94.5 -291.5t257.5 -107.5q143 0 256.5 83.5t180.5 236.5t67 325z" />
<glyph unicode="R" horiz-adv-x="1251" d="M1237 1074q0 -176 -117 -290t-308 -135v-4q113 -37 156 -209l110 -436h-265l-92 398q-21 92 -68.5 136.5t-128.5 44.5h-90l-124 -579h-249l304 1434h443q202 0 315.5 -95t113.5 -265zM977 1038q0 90 -55.5 144.5t-170.5 54.5h-178l-98 -460h165q158 0 247.5 70.5 t89.5 190.5z" />
<glyph unicode="S" horiz-adv-x="1059" d="M1029 1160q-63 43 -151.5 69t-167.5 26q-77 0 -131 -26.5t-82.5 -70t-28.5 -95.5q0 -72 42 -128.5t161 -135.5q154 -103 213.5 -194.5t59.5 -204.5q0 -125 -63.5 -225.5t-178.5 -150t-272 -49.5q-102 0 -210 26.5t-187 69.5l42 229q76 -56 173 -89t189 -33 q119 0 184 51.5t65 145.5q0 72 -46 126t-174 135q-136 86 -197.5 182.5t-61.5 213.5q0 121 62 219t176 152.5t270 54.5q175 0 358 -72z" />
<glyph unicode="T" horiz-adv-x="1139" d="M1246 1226h-406l-259 -1226h-248l259 1226h-413l45 208h1067z" />
<glyph unicode="U" horiz-adv-x="1446" d="M650 -25q-226 0 -358.5 127.5t-132.5 341.5q0 104 24 215l167 775h249l-167 -771q-27 -135 -27 -196q0 -129 74 -203t200 -74q150 0 236.5 90.5t128.5 286.5l187 867h249l-185 -861q-48 -224 -127.5 -350t-205.5 -187t-312 -61z" />
<glyph unicode="V" horiz-adv-x="1326" d="M667 0h-262l-199 1434h252l128 -1058q5 -47 5 -82l-3 -50h6q20 62 59 134l569 1056h275z" />
<glyph unicode="W" horiz-adv-x="1983" d="M1456 0h-261l-78 1016q0 49 12 130h-4q-25 -81 -57 -149l-500 -997h-276l-93 1434h259l42 -1022v-15q0 -57 -12 -135h5q6 21 29 77.5t32 73.5l509 1021h248l69 -1047v-17q0 -61 -6 -107h4q13 50 54 145l462 1026h262z" />
<glyph unicode="X" horiz-adv-x="1275" d="M843 714l293 -714h-280l-157 447q-21 60 -39 147h-4l-9 -18q-21 -50 -40 -73l-399 -503h-307l626 736l-290 698h288l144 -435q36 -107 38 -146h5l8 17q23 50 41 73l391 491h289z" />
<glyph unicode="Y" horiz-adv-x="1190" d="M602 0h-249l112 527l-263 907h266l146 -603l10 -54l5 -46h4q31 68 51 97l413 606h278l-662 -902z" />
<glyph unicode="Z" horiz-adv-x="1205" d="M333 207h750l-44 -207h-1113l24 118l998 1108h-702l44 208h1064l-25 -112z" />
<glyph unicode="[" horiz-adv-x="690" d="M805 1274h-221l-306 -1440h220l-34 -160h-420l374 1760h420z" />
<glyph unicode="\" horiz-adv-x="843" d="M511 -239l-347 1673h210l343 -1673h-206z" />
<glyph unicode="]" horiz-adv-x="690" d="M273 -326h-419l34 160h218l307 1439h-220l33 161h421z" />
<glyph unicode="^" horiz-adv-x="1426" d="M1054 617l-310 602h-6l-287 -602h-195l426 841h114l454 -841h-196z" />
<glyph unicode="_" horiz-adv-x="850" d="M-174 -297l24 119h850l-24 -119h-850z" />
<glyph unicode="`" horiz-adv-x="807" d="M539 1202l-249 326h208l208 -326h-167z" />
<glyph unicode="a" horiz-adv-x="1162" d="M935 0h-245q0 25 6 91.5t12 102.5h-4q-63 -92 -108.5 -133.5t-98.5 -63.5t-120 -22q-146 0 -227 103t-81 285q0 186 87.5 354t234 250t341.5 82q161 0 383 -48l-141 -668q-15 -71 -27 -174.5t-12 -158.5zM843 853q-62 15 -137 15q-114 0 -201 -59.5t-140 -180.5t-53 -253 q0 -100 38.5 -154.5t112.5 -54.5q108 0 194.5 113t126.5 299z" />
<glyph unicode="b" horiz-adv-x="1162" d="M1092 666q0 -190 -84.5 -356.5t-229 -250.5t-331.5 -84q-105 0 -213.5 27.5t-183.5 74.5l305 1439h243l-100 -471l-46 -197h5q72 105 152.5 153t176.5 48q145 0 225.5 -101t80.5 -282zM850 646q0 212 -161 212q-102 0 -190.5 -111.5t-121.5 -270.5l-60 -285 q65 -35 163 -35q106 0 189.5 66t132 183t48.5 241z" />
<glyph unicode="c" horiz-adv-x="919" d="M882 782q-38 32 -94.5 54t-124.5 22q-95 0 -173.5 -56t-128.5 -161.5t-50 -221.5q0 -124 55.5 -188.5t158.5 -64.5q62 0 131.5 25t124.5 61l-42 -203q-142 -74 -282 -74q-182 0 -285 111.5t-103 308.5q0 178 77 330.5t214.5 238t311.5 85.5q73 0 145 -17.5t112 -44.5z " />
<glyph unicode="d" horiz-adv-x="1162" d="M935 0h-245q0 47 18 191h-4q-73 -112 -149.5 -164t-175.5 -52q-147 0 -228.5 101.5t-81.5 285.5q0 187 83.5 349.5t229 250t330.5 87.5q88 0 168 -18l104 485h238l-250 -1190q-12 -51 -24.5 -157t-12.5 -169zM843 850q-70 18 -136 18q-115 0 -202 -60t-140 -180.5 t-53 -250.5q0 -104 39.5 -157.5t114.5 -53.5q105 0 191 113t129 307z" />
<glyph unicode="e" horiz-adv-x="1031" d="M1004 772q0 -185 -172 -272.5t-522 -91.5l-2 -11v-20q0 -104 62 -161.5t173 -57.5q76 0 162.5 27.5t158.5 70.5l-40 -199q-151 -82 -333 -82q-199 0 -310.5 111t-111.5 313q0 174 76 325.5t212 238t298 86.5q161 0 255 -76t94 -201zM770 766q0 50 -36.5 79.5t-100.5 29.5 q-106 0 -192 -87t-113 -214q442 0 442 192z" />
<glyph unicode="f" horiz-adv-x="686" d="M881 1322q-56 27 -124 27q-77 0 -118.5 -46t-61.5 -141l-30 -138h237l-41 -186h-240l-252 -1178h-241l253 1178h-175l41 186h174l37 168q40 181 145 264.5t274 83.5q90 0 160 -24z" />
<glyph unicode="g" horiz-adv-x="1162" d="M283 -481q-165 0 -317 76l43 204q143 -93 292 -93q155 0 246 85t130 273l26 125h-4q-75 -117 -151.5 -165.5t-169.5 -48.5q-144 0 -226.5 100.5t-82.5 284.5q0 190 83.5 351.5t228.5 249.5t329 88q163 0 405 -46l-191 -905q-46 -217 -125 -337t-205.5 -181t-310.5 -61z M843 853q-62 15 -152 15q-104 0 -192 -66t-137.5 -179t-49.5 -246q0 -103 40 -157t109 -54q70 0 133 48t115 149t75 212z" />
<glyph unicode="h" horiz-adv-x="1183" d="M1093 773q0 -54 -30 -197l-122 -576h-242l124 592q20 107 20 131q0 135 -122 135q-65 0 -137.5 -51.5t-128 -135.5t-73.5 -171l-107 -500h-243l323 1516h242l-152 -711h4q83 116 184 180t202 64q128 0 193 -72.5t65 -203.5z" />
<glyph unicode="i" horiz-adv-x="590" d="M586 1371q0 -60 -43 -99.5t-105 -39.5q-60 0 -101.5 36t-41.5 95q0 61 44 99t106 38q58 0 99.5 -36.5t41.5 -92.5zM314 -17q-110 0 -167.5 55.5t-57.5 158.5q0 52 11 102l149 725h243l-136 -645q-21 -100 -21 -129q0 -76 87 -76q51 0 91 16l-38 -184q-86 -23 -161 -23z " />
<glyph unicode="j" horiz-adv-x="515" d="M586 1371q0 -60 -43 -99.5t-105 -39.5q-60 0 -101.5 36t-41.5 95q0 61 44 99t106 38q58 0 99.5 -36.5t41.5 -92.5zM-184 -481q-119 0 -183 31l40 198q23 -16 58.5 -27.5t60.5 -11.5q89 0 149.5 74.5t94.5 234.5l214 1006h242l-215 -1010q-56 -257 -169.5 -376 t-291.5 -119z" />
<glyph unicode="k" horiz-adv-x="1077" d="M631 546l313 -546h-271l-281 536h-4l-114 -536h-242l323 1516h242l-199 -931h4l459 439h294z" />
<glyph unicode="l" horiz-adv-x="590" d="M314 -17q-111 0 -169 55t-58 156q0 67 38 241.5t230 1080.5h243l-242 -1137q-21 -100 -21 -129q0 -76 87 -76q51 0 91 16l-38 -184q-77 -23 -161 -23z" />
<glyph unicode="m" horiz-adv-x="1811" d="M1722 773q0 -50 -31 -197l-123 -576h-240l125 592q20 107 20 131q0 135 -119 135q-92 0 -195 -112.5t-130 -241.5l-106 -504h-242l126 592q20 107 20 131q0 135 -119 135q-61 0 -131 -53t-124 -137.5t-70 -164.5l-108 -503h-243l155 716q36 172 53 308h236 q-8 -85 -31 -220h4q79 116 177 180.5t195 64.5q235 0 252 -250q84 122 185.5 186t207.5 64q128 0 192 -71.5t64 -204.5z" />
<glyph unicode="n" horiz-adv-x="1188" d="M1098 774q0 -51 -31 -198l-122 -576h-242l124 592q20 107 20 131q0 60 -31.5 97.5t-89.5 37.5q-64 0 -136.5 -50.5t-128.5 -135.5t-74 -169l-107 -503h-244l155 716q36 172 53 308h236q-8 -85 -31 -220h4q80 117 182.5 181t203.5 64q124 0 191.5 -71t67.5 -204z" />
<glyph unicode="o" horiz-adv-x="1137" d="M1067 631q0 -186 -74.5 -339.5t-206 -235t-303.5 -81.5q-193 0 -303.5 111t-110.5 307q0 186 74.5 338t205.5 235t304 83q190 0 302 -111.5t112 -306.5zM823 625q0 107 -49.5 170t-137.5 63q-91 0 -165 -62.5t-116.5 -169.5t-42.5 -229q0 -108 50.5 -169.5t137.5 -61.5 q93 0 167.5 62.5t115 169.5t40.5 227z" />
<glyph unicode="p" horiz-adv-x="1162" d="M1092 668q0 -187 -82 -351t-224.5 -253t-319.5 -89q-102 0 -194 29l-101 -477h-243l248 1170q12 52 25.5 157t16.5 170h239q0 -26 -8 -92.5t-14 -102.5h4q137 220 348 220q145 0 225 -102t80 -279zM850 646q0 106 -41 159t-117 53q-70 0 -135 -51t-117.5 -152t-74.5 -206 l-58 -266q21 -8 73 -17.5t92 -9.5q107 0 193.5 67t135.5 181.5t49 241.5z" />
<glyph unicode="q" horiz-adv-x="1162" d="M803 -473h-241l95 451q21 95 48 199h-4q-136 -202 -322 -202q-146 0 -228 101.5t-82 286.5q0 190 87.5 356t234 248t334.5 82q190 0 389 -55zM842 849q-69 19 -139 19q-111 0 -198 -60.5t-140 -180.5t-53 -248q0 -106 39.5 -159.5t113.5 -53.5q106 0 192 109.5t126 292.5 z" />
<glyph unicode="r" horiz-adv-x="773" d="M798 791q-61 32 -118 32q-104 0 -189.5 -105t-122.5 -280l-93 -438h-242l142 666q51 249 60 358h238q-10 -97 -28 -216h4q63 114 132.5 177.5t162.5 63.5q38 0 101 -15z" />
<glyph unicode="s" horiz-adv-x="854" d="M771 806q-44 26 -104.5 45t-120.5 19q-84 0 -125.5 -35.5t-41.5 -91.5q0 -50 34 -83t98 -68q130 -73 177.5 -139t47.5 -155q0 -97 -50.5 -169t-147.5 -113t-237 -41q-76 0 -161 17t-130 41l40 198q55 -33 130.5 -56t145.5 -23q88 0 131 33t43 91q0 45 -29.5 78t-114.5 79 q-113 61 -164.5 129t-51.5 160q0 94 48.5 168.5t140 116.5t217.5 42q75 0 146.5 -13.5t120.5 -33.5z" />
<glyph unicode="t" horiz-adv-x="715" d="M733 838h-249l-98 -463q-18 -87 -18 -117q0 -46 21 -66.5t69 -20.5q46 0 140 36l-40 -189q-100 -39 -198 -39q-237 0 -237 231q0 58 21 152l100 476h-164l44 186h159l53 245l254 67l-65 -312h251z" />
<glyph unicode="u" horiz-adv-x="1184" d="M941 0h-240l31 217h-4q-81 -114 -181 -178t-204 -64q-127 0 -194 72.5t-67 203.5q0 49 31 196l122 577h242l-125 -589q-21 -112 -21 -134q0 -60 30 -95t90 -35q69 0 141.5 51t128.5 137.5t74 172.5l105 492h242l-147 -688q-39 -186 -54 -336z" />
<glyph unicode="v" horiz-adv-x="1030" d="M520 0h-246l-148 1024h240l66 -606q11 -88 11 -168l-1 -29h4q43 102 92 196l321 607h267z" />
<glyph unicode="w" horiz-adv-x="1551" d="M1112 0h-245l-40 644l-2 67q0 32 6 71h-4q-13 -54 -45 -117l-334 -665h-248l-79 1024h230l25 -716v-12q0 -47 -7 -94h6q25 72 31 86.5t366 735.5h225l37 -760q0 -20 -6 -64h7q8 35 49 124l308 700h237z" />
<glyph unicode="x" horiz-adv-x="1027" d="M669 507l232 -507h-266l-110 293l-32 97h-5q-21 -32 -39.5 -58.5t-260.5 -331.5h-283l458 514l-224 510h266l104 -298q18 -51 29 -102h4q14 21 33 48t274 352h273z" />
<glyph unicode="y" horiz-adv-x="1046" d="M-27 -481q-70 0 -133 21l42 194q39 -24 100 -24q126 0 214 135l103 160l-193 1019h251l96 -705l4 -65l-2 -42h5q25 64 48 106l383 706h257l-689 -1154q-114 -191 -226.5 -271t-259.5 -80z" />
<glyph unicode="z" horiz-adv-x="960" d="M316 186h529l-40 -186h-886l19 93l707 745h-494l40 186h835l-23 -105z" />
<glyph unicode="{" horiz-adv-x="690" d="M304 539v-4q93 -49 93 -185q0 -51 -11 -104l-52 -237q-10 -43 -10 -80q0 -59 31.5 -86.5t97.5 -29.5l-32 -154q-145 0 -221.5 63t-76.5 185q0 47 12 101l56 261q9 40 9 74q0 126 -123 132l33 150q81 3 128 47t67 142l57 270q27 125 80 201t133.5 111.5t221.5 37.5 l-32 -157q-86 0 -133 -45.5t-67 -144.5l-58 -265q-53 -237 -203 -283z" />
<glyph unicode="|" horiz-adv-x="580" d="M201 -481v2048h199v-2048h-199z" />
<glyph unicode="}" horiz-adv-x="690" d="M-109 -339l33 156q81 0 130 43.5t71 147.5l55 264q23 112 74.5 186t130.5 98v4q-94 51 -94 185q0 54 12 105l50 235q10 44 10 79q0 59 -31 87t-97 30l32 154q298 -4 298 -246q0 -49 -12 -103l-56 -260q-9 -42 -9 -74q0 -129 123 -133l-33 -150q-81 -2 -127.5 -47 t-67.5 -142l-58 -269q-27 -126 -81.5 -202.5t-135 -112t-217.5 -35.5z" />
<glyph unicode="~" horiz-adv-x="1426" d="M1239 761q-6 -160 -85.5 -248.5t-210.5 -88.5q-54 0 -104.5 16.5t-156.5 81.5q-36 23 -76.5 44t-82.5 21q-64 0 -99 -45t-37 -123h-171q7 158 85.5 248t213.5 90q59 0 115.5 -19.5t177.5 -98.5q42 -28 71.5 -38.5t60.5 -10.5q56 0 91.5 47.5t37.5 123.5h170z" />
<glyph unicode="&#xa2;" horiz-adv-x="1142" d="M1032 952q-61 59 -171 77l-145 -678q112 13 215 84l-43 -207q-88 -55 -211 -69l-43 -202h-145l42 200q-164 19 -256.5 130.5t-92.5 284.5q0 269 159 452.5t418 199.5l41 193h144l-42 -199q125 -17 176 -53zM716 1024q-138 -31 -216.5 -149t-78.5 -276q0 -99 43 -157.5 t111 -79.5z" />
<glyph unicode="&#xa3;" horiz-adv-x="1142" d="M1117 1202q-84 61 -196 61q-207 0 -264 -275l-39 -186h280l-39 -179h-279l-32 -143q-46 -202 -217 -289h657l-40 -191h-937l40 182q115 30 179 102.5t88 185.5l33 153h-185l37 179h186l47 222q45 209 177 321.5t324 112.5q71 0 130 -13.5t94 -31.5z" />
<glyph unicode="&#xa5;" horiz-adv-x="1142" d="M800 785h268l-34 -164h-320l-39 -180h320l-34 -164h-319l-61 -277h-235l59 277h-327l34 164h327l39 180h-329l36 164h273l-210 649h244l126 -508l23 -103h5q15 27 31.5 55t366.5 556h250z" />
<glyph unicode="&#xa8;" horiz-adv-x="807" d="M894 1321q0 -50 -35 -84.5t-91 -34.5t-91 35t-35 84q0 51 36 83.5t89 32.5q54 0 90.5 -33t36.5 -83zM473 1321q0 -51 -37.5 -85t-89.5 -34q-51 0 -89 33.5t-38 85.5q0 49 36 82.5t91 33.5q54 0 90.5 -33t36.5 -83z" />
<glyph unicode="&#xa9;" horiz-adv-x="1827" d="M1709 719q0 -206 -100.5 -378t-275 -269t-384.5 -97t-383 92.5t-273 262.5t-100 383q0 207 99.5 377.5t274.5 269t388 98.5q209 0 383 -94.5t272.5 -265t98.5 -379.5zM1597 715q0 178 -83.5 326.5t-233 233t-328.5 84.5q-183 0 -332.5 -84.5t-232.5 -233.5t-83 -326 q0 -181 86 -330.5t235.5 -233t326.5 -83.5q178 0 328.5 88t233.5 235.5t83 323.5zM1255 280q-127 -68 -271 -68q-136 0 -248.5 63t-176 173.5t-63.5 245.5q0 155 65.5 275t184.5 185t268 65q130 0 238 -54v-193q-42 34 -108.5 54t-140.5 20q-88 0 -160.5 -41.5t-113 -118 t-40.5 -177.5q0 -147 90.5 -238t230.5 -91q70 0 139 23.5t106 52.5v-176z" />
<glyph unicode="&#xab;" horiz-adv-x="1126" d="M764 199l-242 338l369 342h230l-383 -356l235 -324h-209zM314 199l-243 338l370 342h230l-383 -356l235 -324h-209z" />
<glyph unicode="&#xad;" horiz-adv-x="823" d="M672 471h-547l38 175h547z" />
<glyph unicode="&#xae;" horiz-adv-x="1808" d="M904 255q-251 0 -428.5 175t-177.5 423q0 247 177.5 424t428.5 177q250 0 428 -177t178 -424q0 -248 -178 -423t-428 -175zM905 1354q-206 0 -352.5 -148t-146.5 -354t146.5 -351.5t352.5 -145.5q207 0 352 145.5t145 351.5t-145 354t-352 148zM1214 483h-177l-73 174 q-56 130 -121 130h-44v-304h-144v752h226q141 0 217 -55t76 -150q0 -77 -46.5 -131.5t-137.5 -73.5v-3q63 -13 125 -139zM799 1115v-214h82q139 0 139 108q0 55 -37.5 80.5t-117.5 25.5h-66z" />
<glyph unicode="&#xb2;" d="M155 884l29 133l299 243q109 87 146 141t37 107q0 39 -28 64t-79 25q-97 0 -221 -82l40 180q102 59 229 59q116 0 181.5 -59.5t65.5 -158.5q0 -63 -27.5 -118t-81 -110.5t-171.5 -144.5l-164 -125l-2 -4h358l-33 -150h-578z" />
<glyph unicode="&#xb3;" d="M780 1127q0 -76 -42 -136t-121 -94t-192 -34q-69 0 -145 14.5t-107 32.5l33 154q34 -22 99.5 -39.5t122.5 -17.5q83 0 130 34.5t47 91.5q0 112 -178 112h-95l32 144h96q89 0 144 37t55 93q0 39 -29.5 64.5t-95.5 25.5q-98 0 -195 -52l34 159q40 16 98 27t113 11 q117 0 185 -55.5t68 -148.5q0 -86 -57.5 -143.5t-153.5 -80.5v-4q154 -38 154 -195z" />
<glyph unicode="&#xb4;" horiz-adv-x="807" d="M532 1202h-179l302 326h225z" />
<glyph unicode="&#xb8;" horiz-adv-x="807" d="M473 -234q0 -98 -84.5 -155t-231.5 -57q-30 0 -99 6l25 113q35 -7 75 -7q77 0 116 23t39 62q0 70 -115 70l-51 -3l41 182h125l-21 -93q84 -2 132.5 -39.5t48.5 -101.5z" />
<glyph unicode="&#xb9;" d="M202 884l31 143h178l116 533l-204 -48l33 153l385 89l-157 -727h181l-30 -143h-533z" />
<glyph unicode="&#xbb;" horiz-adv-x="1126" d="M685 202h-230l384 355l-236 325h208l244 -338zM235 202h-230l384 355l-236 325h209l242 -338z" />
<glyph unicode="&#xc6;" horiz-adv-x="1842" d="M1875 1225h-530l-86 -405h491l-44 -208h-491l-87 -405h561l-42 -207h-810l77 360h-492l-261 -360h-293l1075 1434h976zM1043 1227l-470 -656h385l138 656h-53z" />
<glyph unicode="&#xe6;" horiz-adv-x="1726" d="M1701 772q0 -184 -172.5 -272.5t-524.5 -91.5l-1 -28q0 -104 61.5 -163t174.5 -59q76 0 162.5 27.5t158.5 70.5l-39 -199q-154 -82 -333 -82q-157 0 -258 76t-130 214h-4q-185 -290 -421 -290q-143 0 -224.5 99.5t-81.5 276.5q0 133 52.5 268.5t142.5 231t214.5 147 t278.5 51.5q167 0 326 -69q120 69 274 69q155 0 249.5 -76t94.5 -201zM1465 765q0 51 -38 80.5t-100 29.5q-107 0 -191 -83.5t-112 -216.5q441 0 441 190zM906 837q-70 31 -155 31q-124 0 -221.5 -64.5t-158 -189.5t-60.5 -251q0 -89 31 -143t94 -54q92 0 183 106.5 t170 315.5q65 173 117 249z" />
<glyph unicode="&#x127;" horiz-adv-x="1183" d="M1093 773q0 -54 -30 -197l-122 -576h-242l124 592q20 107 20 131q0 135 -122 135q-65 0 -137.5 -51.5t-128 -135.5t-73.5 -171l-107 -500h-243l254 1190h-123l30 146h124l38 180h242l-39 -180h330l-30 -146h-330l-83 -385h4q83 116 184 180t202 64q128 0 193 -72.5 t65 -203.5z" />
<glyph unicode="&#x131;" horiz-adv-x="590" d="M314 -17q-111 0 -169 55t-58 156q0 67 26 184l136 646h243l-136 -645q-21 -100 -21 -129q0 -76 87 -76q51 0 91 16l-38 -184q-77 -23 -161 -23z" />
<glyph unicode="&#x237;" horiz-adv-x="515" d="M-184 -481q-119 0 -183 31l40 198q23 -16 58.5 -27.5t60.5 -11.5q89 0 149.5 74.5t94.5 234.5l214 1006h242l-215 -1010q-56 -257 -169.5 -376t-291.5 -119z" />
<glyph unicode="&#x275;" horiz-adv-x="1137" d="M1067 631q0 -186 -74.5 -339.5t-206 -235t-303.5 -81.5q-193 0 -303.5 111t-110.5 307q0 186 74.5 338t205.5 235t304 83q190 0 302 -111.5t112 -306.5zM500 166q100 0 178 71t116 197h-480l-2 -17v-17q0 -109 50 -171.5t138 -62.5zM822 601l1 12v12q0 107 -49.5 170 t-137.5 63q-94 0 -171 -66.5t-119 -190.5h476z" />
<glyph unicode="&#x292;" horiz-adv-x="960" d="M-150 -181q72 -50 171.5 -79.5t186.5 -29.5q199 0 302 85t103 239q0 242 -345 242h-98l19 91l463 470h-553l39 187h864l-24 -111l-472 -477q161 -24 258 -126.5t97 -252.5q0 -252 -175.5 -394.5t-476.5 -142.5q-249 0 -405 86z" />
<glyph unicode="&#x2c6;" horiz-adv-x="807" d="M698 1202l-115 211l-205 -211h-166l293 329h191l157 -329h-155z" />
<glyph unicode="&#x2c9;" horiz-adv-x="807" d="M808 1202h-547l27 140h547z" />
<glyph unicode="&#x2da;" horiz-adv-x="807" d="M795 1376q0 -92 -65.5 -151t-159.5 -59t-156.5 56t-62.5 147q0 94 64 152t160 58q98 0 159 -56t61 -147zM679 1374q0 45 -30.5 73.5t-78.5 28.5q-45 0 -74.5 -30t-29.5 -72q0 -48 28 -76.5t76 -28.5q47 0 78 29.5t31 75.5z" />
<glyph unicode="&#x2dc;" horiz-adv-x="807" d="M921 1472q-12 -114 -78.5 -182.5t-159.5 -68.5q-50 0 -83.5 13.5t-60.5 30t-51 30t-54 13.5q-51 0 -78.5 -32t-33.5 -74h-125q10 111 78 181.5t168 70.5q46 0 78 -14t58 -31t51 -31t59 -14q43 0 71.5 30t35.5 78h125z" />
<glyph unicode="&#x2dd;" horiz-adv-x="807" d="M706 1202h-158l243 325h199zM387 1202h-159l245 325h194z" />
<glyph unicode="&#x30f;" horiz-adv-x="0" d="M339 1202h-149l-214 318h187zM31 1202h-148l-221 318h192z" />
<glyph unicode="&#x393;" horiz-adv-x="1026" d="M1120 1223h-552l-260 -1223h-247l305 1434h799z" />
<glyph unicode="&#x3a0;" horiz-adv-x="1494" d="M1210 0h-249l258 1214h-653l-257 -1214h-248l303 1434h1149z" />
<glyph unicode="&#x3f4;" horiz-adv-x="1549" d="M1499 847q0 -244 -103.5 -448.5t-280.5 -314t-400 -109.5q-175 0 -309.5 77t-208 218t-73.5 319q0 238 100 441t279.5 315.5t407.5 112.5q173 0 307.5 -75.5t207.5 -215t73 -320.5zM383 590q0 -183 93.5 -291.5t258.5 -108.5t296.5 118t175.5 309h-824v-27zM885 1241 q-163 0 -294 -119.5t-177 -307.5h824q0 203 -93 315t-260 112z" />
<glyph unicode="&#x400;" horiz-adv-x="1053" d="M1097 1226h-527l-86 -406h490l-45 -208h-489l-87 -405h561l-43 -207h-810l304 1434h777zM733 1566l-249 326h208l208 -326h-167z" />
<glyph unicode="&#x401;" horiz-adv-x="1053" d="M1097 1226h-527l-86 -406h490l-45 -208h-489l-87 -405h561l-43 -207h-810l304 1434h777zM1119 1684q0 -50 -35 -84.5t-91 -34.5t-91 35t-35 84q0 51 36 83.5t89 32.5q54 0 90.5 -33t36.5 -83zM698 1684q0 -51 -37.5 -85t-89.5 -34q-51 0 -89 33.5t-38 85.5q0 49 36 82.5 t91 33.5q54 0 90.5 -33t36.5 -83z" />
<glyph unicode="&#x402;" horiz-adv-x="1512" d="M912 -17q-54 0 -109 9t-83 21l40 189q60 -29 141 -29q116 0 178.5 65.5t62.5 188.5q0 103 -65 164t-190 61h-197l-139 -652h-247l261 1226h-355l43 208h1070l-43 -208h-468l-81 -382h242q121 0 219 -48t151.5 -136.5t53.5 -204.5q0 -218 -128 -345t-357 -127z" />
<glyph unicode="&#x403;" horiz-adv-x="1026" d="M1120 1223h-552l-260 -1223h-247l305 1434h799zM824 1570h-179l302 326h225z" />
<glyph unicode="&#x404;" horiz-adv-x="1279" d="M1303 1147q-141 93 -352 93q-212 0 -357.5 -114t-185.5 -303h614l-42 -203h-596l-2 -46q0 -115 46.5 -201.5t137 -135t221.5 -48.5q183 0 348 87l-49 -238q-84 -35 -168.5 -49t-189.5 -14q-288 0 -447.5 164t-159.5 458q0 256 108 454.5t299 302.5t449 104q195 0 374 -72 z" />
<glyph unicode="&#x405;" horiz-adv-x="1059" d="M1029 1160q-63 43 -151.5 69t-167.5 26q-77 0 -131 -26.5t-82.5 -70t-28.5 -95.5q0 -72 42 -128.5t161 -135.5q154 -103 213.5 -194.5t59.5 -204.5q0 -125 -63.5 -225.5t-178.5 -150t-272 -49.5q-102 0 -210 26.5t-187 69.5l42 229q76 -56 173 -89t189 -33 q119 0 184 51.5t65 145.5q0 72 -46 126t-174 135q-136 86 -197.5 182.5t-61.5 213.5q0 121 62 219t176 152.5t270 54.5q175 0 358 -72z" />
<glyph unicode="&#x406;" horiz-adv-x="597" d="M310 0h-249l303 1434h250z" />
<glyph unicode="&#x407;" horiz-adv-x="597" d="M310 0h-249l303 1434h250zM856 1686q0 -50 -35 -84.5t-91 -34.5t-91 35t-35 84q0 51 36 83.5t89 32.5q54 0 90.5 -33t36.5 -83zM435 1686q0 -51 -37.5 -85t-89.5 -34q-51 0 -89 33.5t-38 85.5q0 49 36 82.5t91 33.5q54 0 90.5 -33t36.5 -83z" />
<glyph unicode="&#x408;" horiz-adv-x="808" d="M95 -25q-43 0 -104 12.5t-87 26.5l43 229q24 -20 69 -37t87 -17q115 0 186 83.5t111 268.5l190 893h248l-190 -894q-63 -290 -199.5 -427.5t-353.5 -137.5z" />
<glyph unicode="&#x409;" horiz-adv-x="2024" d="M1325 839h172q209 0 329.5 -103.5t120.5 -284.5q0 -216 -150 -333.5t-434 -117.5h-464l258 1220h-354q-168 -497 -277 -766t-215 -370.5t-261 -101.5q-93 0 -145 18l44 208q34 -17 83 -17q90 0 160 95t182 382.5t270 765.5h808zM1684 439q0 206 -255 206h-146l-95 -450 h166q166 0 248 63t82 181z" />
<glyph unicode="&#x40a;" horiz-adv-x="2057" d="M1052 620h-611l-130 -620h-251l304 1434h250l-127 -595h612l126 595h249l-127 -595h172q209 0 329.5 -104t120.5 -284q0 -216 -150 -333.5t-434 -117.5h-464zM1706 439q0 205 -256 205h-146l-94 -449h166q166 0 248 63t82 181z" />
<glyph unicode="&#x40b;" horiz-adv-x="1580" d="M554 0h-250l261 1226h-385l44 208h1070l-44 -208h-437l-80 -378h291q189 0 290.5 -77t101.5 -228q0 -74 -21 -170l-78 -373h-249l75 361q13 59 13 131q0 75 -45.5 109t-136.5 34h-286z" />
<glyph unicode="&#x40c;" horiz-adv-x="1280" d="M1427 1434l-713 -705l443 -729h-301l-349 615q-25 43 -41 89h-4l-152 -704h-249l304 1434h250l-142 -670h4l48 56l591 614h311zM910 1566h-179l302 326h225z" />
<glyph unicode="&#x40d;" horiz-adv-x="1563" d="M1277 0h-232l187 888q24 109 43 181h-4q-28 -34 -53 -63t-935 -1006h-222l303 1434h232l-190 -906q-16 -78 -34 -135h4l22 26l77 86l867 929h239zM953 1566l-249 326h208l208 -326h-167z" />
<glyph unicode="&#x40e;" horiz-adv-x="1194" d="M177 -25q-55 0 -109 12t-80 27l44 215q29 -18 69 -29t77 -11q76 0 144 53.5t156 183.5l-260 1008h268l138 -641q11 -47 21 -143h4q36 76 69 131l396 653h277l-662 -1029q-123 -191 -201.5 -273t-161.5 -119.5t-189 -37.5zM1254 1890q-51 -154 -169.5 -240t-274.5 -86 q-153 0 -250 90.5t-101 235.5h201q2 -84 44.5 -133t120.5 -49q76 0 135.5 47.5t89.5 134.5h204z" />
<glyph unicode="&#x40f;" horiz-adv-x="1516" d="M60 0l303 1434h249l-259 -1217h675l258 1217h249l-304 -1434h-455l-80 -386h-228l83 386h-491z" />
<glyph unicode="&#x410;" horiz-adv-x="1367" d="M992 0l-53 360h-561l-200 -360h-281l840 1434h281l227 -1434h-253zM839 1149v35l2 35h-5q-20 -60 -47 -110l-308 -549h432l-70 540q-4 18 -4 49z" />
<glyph unicode="&#x411;" horiz-adv-x="1244" d="M1168 1223h-600l-81 -385h227q209 0 329.5 -104t120.5 -283q0 -216 -150 -333.5t-434 -117.5h-519l304 1434h849zM901 439q0 205 -256 205h-201l-94 -449h221q166 0 248 63t82 181z" />
<glyph unicode="&#x412;" horiz-adv-x="1250" d="M1211 1117q0 -143 -87 -240.5t-248 -128.5v-4q122 -19 191.5 -97t69.5 -194q0 -208 -153 -330.5t-419 -122.5h-504l304 1434h452q185 0 289.5 -83.5t104.5 -233.5zM952 1069q0 84 -54 127t-154 43h-171l-87 -402h170q140 0 218 61.5t78 170.5zM877 446q0 90 -62.5 143 t-189.5 53h-180l-94 -447h206q156 0 238 65.5t82 185.5z" />
<glyph unicode="&#x413;" horiz-adv-x="1026" d="M1120 1223h-552l-260 -1223h-247l305 1434h799z" />
<glyph unicode="&#x414;" horiz-adv-x="1501" d="M1187 217h216l-129 -603h-228l83 386h-971l-81 -386h-227l128 603h118q197 193 330.5 470t247.5 747h771zM840 1215q-184 -717 -461 -998h559l212 998h-310z" />
<glyph unicode="&#x415;" horiz-adv-x="1053" d="M1097 1226h-527l-86 -406h490l-45 -208h-489l-87 -405h561l-43 -207h-810l304 1434h777z" />
<glyph unicode="&#x416;" horiz-adv-x="1778" d="M1268 734l391 -734h-280l-320 657q-9 23 -16 54h-4l-152 -711h-231l149 702h-5l-41 -55l-584 -647h-293l708 744l-370 690h272l301 -629l19 -53h4l144 682h230l-143 -676h4q11 21 35 47l568 629h284z" />
<glyph unicode="&#x417;" horiz-adv-x="1123" d="M1113 1121q0 -151 -98.5 -253t-272.5 -128v-4q119 -23 189 -109.5t70 -211.5q0 -129 -73 -232.5t-202.5 -155.5t-306.5 -52q-259 0 -435 91l46 225q82 -54 190.5 -85t205.5 -31q156 0 241.5 65t85.5 183q0 213 -291 213h-166l41 205h169q181 0 269.5 64t88.5 180 q0 82 -59 127.5t-163 45.5q-79 0 -184 -29.5t-169 -62.5l39 220q79 32 182.5 52t193.5 20q191 0 300 -90t109 -247z" />
<glyph unicode="&#x418;" horiz-adv-x="1563" d="M1277 0h-232l187 888q24 109 43 181h-4q-28 -34 -53 -63t-935 -1006h-222l303 1434h232l-190 -906q-16 -78 -34 -135h4l22 26l77 86l867 929h239z" />
<glyph unicode="&#x419;" horiz-adv-x="1563" d="M1277 0h-232l187 888q24 109 43 181h-4q-28 -34 -53 -63t-935 -1006h-222l303 1434h232l-190 -906q-16 -78 -34 -135h4l22 26l77 86l867 929h239zM1428 1890q-51 -154 -169.5 -240t-274.5 -86q-153 0 -250 90.5t-101 235.5h201q2 -84 44.5 -133t120.5 -49 q76 0 135.5 47.5t89.5 134.5h204z" />
<glyph unicode="&#x41a;" horiz-adv-x="1280" d="M1427 1434l-713 -705l443 -729h-301l-349 615q-25 43 -41 89h-4l-152 -704h-249l304 1434h250l-142 -670h4l48 56l591 614h311z" />
<glyph unicode="&#x41b;" horiz-adv-x="1450" d="M1147 0h-249l259 1220h-354q-198 -585 -299 -819t-203.5 -326.5t-250.5 -92.5q-93 0 -145 18l44 208q34 -17 83 -17q63 0 114 43.5t108.5 155.5t169.5 413t220 631h808z" />
<glyph unicode="&#x41c;" horiz-adv-x="1728" d="M1440 0h-228l193 910q28 126 76 296h-6q-51 -113 -161 -259l-406 -545h-154l-164 527q-18 55 -33 135t-17 142h-7q-35 -221 -52 -297l-194 -909h-226l304 1434h292l187 -590q30 -95 35 -179h5q55 120 113 198l429 571h319z" />
<glyph unicode="&#x41d;" horiz-adv-x="1507" d="M1220 0h-248l129 613h-661l-129 -613h-250l304 1434h250l-129 -601h662l129 601h248z" />
<glyph unicode="&#x41e;" horiz-adv-x="1549" d="M1499 847q0 -232 -98.5 -434.5t-272.5 -320t-413 -117.5q-175 0 -309.5 77t-208 218t-73.5 319q0 188 59 348t171.5 281.5t252 180.5t304.5 59q173 0 307.5 -75.5t207.5 -215t73 -320.5zM1239 838q0 186 -95.5 294.5t-258.5 108.5q-136 0 -253.5 -85.5t-183 -240.5 t-65.5 -325q0 -183 93.5 -291.5t258.5 -108.5q143 0 257.5 84t180.5 241t66 323z" />
<glyph unicode="&#x41f;" horiz-adv-x="1494" d="M1210 0h-249l258 1214h-653l-257 -1214h-248l303 1434h1149z" />
<glyph unicode="&#x420;" horiz-adv-x="1234" d="M1246 1041q0 -156 -73 -274.5t-212 -183.5t-332 -65h-210l-109 -518h-249l304 1434h432q210 0 329.5 -104t119.5 -289zM987 1023q0 96 -65 153.5t-189 57.5h-161l-110 -518h175q164 0 257 81t93 226z" />
<glyph unicode="&#x421;" horiz-adv-x="1304" d="M1319 1141q-167 100 -347 100q-174 0 -309.5 -79.5t-209.5 -220.5t-74 -318q0 -206 113.5 -319.5t307.5 -113.5q99 0 186 22t181 73l-53 -240q-161 -70 -373 -70q-187 0 -328.5 77.5t-217 220t-75.5 328.5q0 250 107.5 447.5t303.5 303.5t454 106q202 0 386 -78z" />
<glyph unicode="&#x422;" horiz-adv-x="1139" d="M1246 1226h-406l-259 -1226h-248l259 1226h-413l45 208h1067z" />
<glyph unicode="&#x423;" horiz-adv-x="1194" d="M177 -25q-55 0 -109 12t-80 27l44 215q29 -18 69 -29t77 -11q76 0 144 53.5t156 183.5l-260 1008h268l138 -641q11 -47 21 -143h4q36 76 69 131l396 653h277l-662 -1029q-123 -191 -201.5 -273t-161.5 -119.5t-189 -37.5z" />
<glyph unicode="&#x424;" horiz-adv-x="1672" d="M1640 795q0 -173 -90.5 -317t-246 -217.5t-359.5 -73.5h-64l-46 -222h-238l47 222h-38q-234 0 -362 131t-128 374q0 162 94 303.5t251 216t355 74.5h64l39 182h231l-39 -182h38q227 0 359.5 -130t132.5 -361zM1391 795q0 149 -71 227t-204 78h-45l-151 -727h36 q132 0 230 54.5t151.5 151.5t53.5 216zM785 1100q-124 0 -219 -53.5t-147.5 -148t-52.5 -206.5q0 -153 70.5 -236t201.5 -83h45l152 727h-50z" />
<glyph unicode="&#x425;" horiz-adv-x="1275" d="M843 714l293 -714h-280l-157 447q-21 60 -39 147h-4l-9 -18q-21 -50 -40 -73l-399 -503h-307l626 736l-290 698h288l144 -435q36 -107 38 -146h5l8 17q23 50 41 73l391 491h289z" />
<glyph unicode="&#x426;" horiz-adv-x="1587" d="M1278 219h199l-128 -605h-227l83 386h-1145l304 1434h249l-259 -1215h675l258 1215h249z" />
<glyph unicode="&#x427;" horiz-adv-x="1410" d="M1127 0h-249l124 590q-226 -110 -433 -110q-170 0 -262.5 80t-92.5 226q0 54 20 141l105 507h249l-108 -504q-12 -60 -12 -96q0 -65 45 -104.5t143 -39.5q179 0 391 107l134 637h249z" />
<glyph unicode="&#x428;" horiz-adv-x="1930" d="M1661 0h-1601l303 1434h249l-257 -1215h426l256 1215h250l-256 -1215h426l258 1215h249z" />
<glyph unicode="&#x429;" horiz-adv-x="2017" d="M1705 219h202l-129 -605h-228l82 386h-1572l304 1434h249l-259 -1215h427l258 1215h248l-256 -1215h425l259 1215h249z" />
<glyph unicode="&#x42a;" horiz-adv-x="1500" d="M1435 454q0 -220 -150.5 -337t-433.5 -117h-519l259 1223h-394l45 211h642l-127 -596h223q212 0 333.5 -101.5t121.5 -282.5zM1172 442q0 202 -258 202h-199l-94 -449h219q332 0 332 247z" />
<glyph unicode="&#x42b;" horiz-adv-x="1730" d="M1445 0h-249l303 1434h249zM486 838h172q210 0 330.5 -103.5t120.5 -283.5q0 -216 -150 -333.5t-434 -117.5h-464l304 1434h249zM846 439q0 205 -256 205h-146l-94 -449h166q166 0 248 63t82 181z" />
<glyph unicode="&#x42c;" horiz-adv-x="1244" d="M487 838h227q209 0 329.5 -104t120.5 -283q0 -216 -150 -333.5t-434 -117.5h-519l304 1434h248zM901 439q0 205 -256 205h-201l-94 -449h221q166 0 248 63t82 181z" />
<glyph unicode="&#x42d;" horiz-adv-x="1298" d="M1254 865q0 -260 -108 -467.5t-300.5 -315t-452.5 -107.5q-216 0 -374 66l47 230q164 -82 334 -82q217 0 367.5 115t193.5 316h-616l42 203h598q4 23 4 63q0 163 -107.5 259t-296.5 96q-183 0 -331 -69l45 231q151 55 337 55q291 0 454.5 -158.5t163.5 -434.5z" />
<glyph unicode="&#x42e;" horiz-adv-x="2052" d="M1450 1458q171 0 295 -76.5t190.5 -217t66.5 -326.5q0 -243 -98 -445.5t-265 -310t-381 -107.5q-164 0 -287.5 70t-193.5 213t-70 307v35l1 34h-264l-133 -634h-251l304 1434h250l-124 -581h247q71 284 260 444.5t453 160.5zM1741 828q0 195 -85 303.5t-230 108.5 q-133 0 -235 -80t-163 -233t-61 -324q0 -195 82.5 -304t234.5 -109q131 0 234 80.5t163 234t60 323.5z" />
<glyph unicode="&#x42f;" horiz-adv-x="1271" d="M1288 1434l-304 -1434h-246l123 579h-110q-98 0 -169 -52t-130 -147l-236 -380h-283l272 419q125 192 289 245v4q-116 26 -186 112.5t-70 207.5q0 136 66.5 237t194.5 155t308 54h481zM822 1237q-153 0 -237 -67t-84 -191q0 -92 65 -147t182 -55h154l100 460h-180z" />
<glyph unicode="&#x430;" horiz-adv-x="1162" d="M935 0h-245q0 25 6 91.5t12 102.5h-4q-63 -92 -108.5 -133.5t-98.5 -63.5t-120 -22q-146 0 -227 103t-81 285q0 186 87.5 354t234 250t341.5 82q161 0 383 -48l-141 -668q-15 -71 -27 -174.5t-12 -158.5zM843 853q-62 15 -137 15q-114 0 -201 -59.5t-140 -180.5t-53 -253 q0 -100 38.5 -154.5t112.5 -54.5q108 0 194.5 113t126.5 299z" />
<glyph unicode="&#x431;" horiz-adv-x="1153" d="M375 857h4q152 167 362 167q157 0 248.5 -108t91.5 -292t-73 -335t-201 -232.5t-297 -81.5q-203 0 -314 129t-111 368q0 235 73 460.5t200 354.5q58 59 122 99.5t140.5 67t183 43t393.5 31.5l-47 -213q-264 -11 -360.5 -24.5t-163.5 -38.5t-110.5 -65.5t-78.5 -122 t-62 -207.5zM837 606q0 115 -51 173t-141 58q-81 0 -162 -48t-140 -128q-22 -88 -22 -208q0 -138 52.5 -212.5t150.5 -74.5q89 0 160.5 59.5t112 163t40.5 217.5z" />
<glyph unicode="&#x432;" horiz-adv-x="1083" d="M1028 810q0 -104 -70.5 -176.5t-199.5 -97.5q103 -9 162 -61.5t59 -146.5q0 -99 -66.5 -184t-181 -127t-261.5 -42q-214 0 -306 86.5t-92 281.5q0 203 72 369t211.5 251.5t333.5 85.5q109 0 185 -30.5t115 -84t39 -124.5zM794 774q0 49 -34.5 80.5t-103.5 31.5 q-115 0 -198.5 -77t-116.5 -212q211 7 290 25t121 53.5t42 98.5zM745 327q0 68 -51.5 97.5t-149.5 29.5t-233 -18q-9 -41 -9 -96q0 -102 44.5 -148t148.5 -46q110 0 180 51t70 130z" />
<glyph unicode="&#x433;" horiz-adv-x="895" d="M852 789q0 -78 -33.5 -137t-99 -103.5t-192.5 -90.5q-150 -55 -190 -78.5t-61 -51.5t-21 -67q0 -47 39 -77t122 -30q75 0 159.5 24.5t160.5 66.5l-44 -214q-136 -56 -320 -56q-167 0 -257.5 73.5t-90.5 203.5q0 84 38 146t108 108t218 97q139 50 183 86.5t44 86.5 q0 45 -37 70t-110 25q-67 0 -145 -19.5t-131 -47.5l40 198q59 21 138 34t152 13q158 0 244 -68.5t86 -191.5z" />
<glyph unicode="&#x434;" horiz-adv-x="1165" d="M1131 1007q0 -299 -86 -543t-236 -366.5t-351 -122.5q-182 0 -285.5 106.5t-103.5 298.5q0 174 73.5 328t194.5 235.5t271 81.5q96 0 167.5 -45t106.5 -123h4q3 18 7.5 67t4.5 76q0 160 -62 242.5t-201 82.5q-63 0 -146 -21t-136 -53l47 217q42 21 115.5 34.5t144.5 13.5 q471 0 471 -509zM851 677q-23 76 -81 121.5t-131 45.5q-88 0 -161.5 -59t-120 -172t-46.5 -225q0 -102 45 -162t133 -60q132 0 229 138t133 373z" />
<glyph unicode="&#x435;" horiz-adv-x="1031" d="M1004 772q0 -185 -172 -272.5t-522 -91.5l-2 -11v-20q0 -104 62 -161.5t173 -57.5q76 0 162.5 27.5t158.5 70.5l-40 -199q-151 -82 -333 -82q-199 0 -310.5 111t-111.5 313q0 174 76 325.5t212 238t298 86.5q161 0 255 -76t94 -201zM770 766q0 50 -36.5 79.5t-100.5 29.5 q-106 0 -192 -87t-113 -214q442 0 442 192z" />
<glyph unicode="&#x436;" horiz-adv-x="1559" d="M1125 515l307 -515h-261l-274 504h-4l-107 -504h-229l108 506h-4l-489 -506h-281l551 534l-294 490h252l268 -483h4l102 483h230l-104 -485h4l473 485h271z" />
<glyph unicode="&#x437;" horiz-adv-x="950" d="M900 797q0 -109 -74.5 -177t-216.5 -90v-4q105 -11 165 -74t60 -154q0 -99 -55.5 -170.5t-164.5 -111.5t-268 -40q-104 0 -206 18t-164 48l35 200q154 -85 316 -85q130 0 199.5 40t69.5 109q0 140 -248 140h-167l31 163h164q136 0 210.5 38.5t74.5 108.5q0 60 -53.5 90 t-145.5 30q-160 0 -319 -77l38 193q164 57 349 57q178 0 274 -63.5t96 -188.5z" />
<glyph unicode="&#x438;" horiz-adv-x="1184" d="M941 0h-240l31 217h-4q-81 -114 -181 -178t-204 -64q-127 0 -194 72.5t-67 203.5q0 49 31 196l122 577h242l-125 -589q-21 -112 -21 -134q0 -60 30 -95t90 -35q69 0 141.5 51t128.5 137.5t74 172.5l105 492h242l-147 -688q-39 -186 -54 -336z" />
<glyph unicode="&#x439;" horiz-adv-x="1184" d="M941 0h-240l31 217h-4q-81 -114 -181 -178t-204 -64q-127 0 -194 72.5t-67 203.5q0 49 31 196l122 577h242l-125 -589q-21 -112 -21 -134q0 -60 30 -95t90 -35q69 0 141.5 51t128.5 137.5t74 172.5l105 492h242l-147 -688q-39 -186 -54 -336zM1162 1529 q-51 -154 -169.5 -240t-274.5 -86q-153 0 -250 90.5t-101 235.5h201q2 -84 44.5 -133t120.5 -49q76 0 135.5 47.5t89.5 134.5h204z" />
<glyph unicode="&#x43a;" horiz-adv-x="1072" d="M629 537l315 -537h-271l-282 528h-5l-112 -528h-242l218 1024h241l-94 -448h4l460 448h294z" />
<glyph unicode="&#x43b;" horiz-adv-x="1167" d="M916 0h-242l178 838h-216q-124 -396 -205 -553.5t-177.5 -228t-231.5 -70.5q-25 0 -64.5 5t-51.5 10l33 187q25 -9 64 -9q82 0 149.5 76.5t136 244t174.5 524.5h670z" />
<glyph unicode="&#x43c;" horiz-adv-x="1503" d="M1248 0h-229l174 820q-7 -23 -100 -189l-362 -631h-212l-98 631q-13 81 -20 188l-174 -819h-195l217 1024h289l99 -626q12 -74 22 -192q21 43 51.5 98.5t410.5 719.5h344z" />
<glyph unicode="&#x43d;" horiz-adv-x="1203" d="M953 0h-242l94 445h-440l-93 -445h-243l217 1024h243l-86 -400h440l85 400h242z" />
<glyph unicode="&#x43e;" horiz-adv-x="1137" d="M1067 631q0 -186 -74.5 -339.5t-206 -235t-303.5 -81.5q-193 0 -303.5 111t-110.5 307q0 186 74.5 338t205.5 235t304 83q190 0 302 -111.5t112 -306.5zM823 625q0 107 -49.5 170t-137.5 63q-91 0 -165 -62.5t-116.5 -169.5t-42.5 -229q0 -108 50.5 -169.5t137.5 -61.5 q93 0 167.5 62.5t115 169.5t40.5 227z" />
<glyph unicode="&#x43f;" horiz-adv-x="1188" d="M1098 774q0 -51 -31 -198l-122 -576h-242l124 592q20 107 20 131q0 60 -31.5 97.5t-89.5 37.5q-64 0 -136.5 -50.5t-128.5 -135.5t-74 -169l-107 -503h-244l155 716q36 172 53 308h236q-8 -85 -31 -220h4q80 117 182.5 181t203.5 64q124 0 191.5 -71t67.5 -204z" />
<glyph unicode="&#x440;" horiz-adv-x="1162" d="M1092 668q0 -187 -82 -351t-224.5 -253t-319.5 -89q-102 0 -194 29l-101 -477h-243l248 1170q12 52 25.5 157t16.5 170h239q0 -26 -8 -92.5t-14 -102.5h4q137 220 348 220q145 0 225 -102t80 -279zM850 646q0 106 -41 159t-117 53q-70 0 -135 -51t-117.5 -152t-74.5 -206 l-58 -266q21 -8 73 -17.5t92 -9.5q107 0 193.5 67t135.5 181.5t49 241.5z" />
<glyph unicode="&#x441;" horiz-adv-x="919" d="M882 782q-38 32 -94.5 54t-124.5 22q-95 0 -173.5 -56t-128.5 -161.5t-50 -221.5q0 -124 55.5 -188.5t158.5 -64.5q62 0 131.5 25t124.5 61l-42 -203q-142 -74 -282 -74q-182 0 -285 111.5t-103 308.5q0 178 77 330.5t214.5 238t311.5 85.5q73 0 145 -17.5t112 -44.5z " />
<glyph unicode="&#x442;" horiz-adv-x="1811" d="M1722 773q0 -50 -31 -197l-123 -576h-240l125 592q20 107 20 131q0 135 -119 135q-92 0 -195 -112.5t-130 -241.5l-106 -504h-242l126 592q20 107 20 131q0 135 -119 135q-61 0 -131 -53t-124 -137.5t-70 -164.5l-108 -503h-243l155 716q36 172 53 308h236 q-8 -85 -31 -220h4q79 116 177 180.5t195 64.5q235 0 252 -250q84 122 185.5 186t207.5 64q128 0 192 -71.5t64 -204.5z" />
<glyph unicode="&#x443;" horiz-adv-x="1046" d="M-27 -481q-70 0 -133 21l42 194q39 -24 100 -24q126 0 214 135l103 160l-193 1019h251l96 -705l4 -65l-2 -42h5q25 64 48 106l383 706h257l-689 -1154q-114 -191 -226.5 -271t-259.5 -80z" />
<glyph unicode="&#x444;" horiz-adv-x="1678" d="M889 204q17 -22 56 -38.5t91 -16.5q95 0 169 63t117.5 177.5t43.5 246.5q0 106 -40.5 165t-111.5 59q-108 0 -198 -70zM825 992l49 209q39 164 131.5 245t253.5 81q82 0 155 -21l-31 -177q-51 20 -98 20q-155 0 -196 -210l-33 -163l4 1q110 71 241 71q142 0 224.5 -105.5 t82.5 -284.5q0 -193 -69.5 -350.5t-195.5 -245t-290 -87.5q-59 0 -115 14.5t-84 40.5l-22 -96q-49 -215 -150.5 -312.5t-267.5 -97.5q-34 0 -78 6t-65 14l32 174q11 -6 40 -13t54 -7q75 0 123.5 53.5t80.5 185.5l25 108q-80 -42 -132.5 -56t-115.5 -14q-141 0 -225 107.5 t-84 281.5q0 192 70 350.5t196 246t291 87.5q63 0 118 -16t81 -40zM789 818q-17 22 -58 38.5t-88 16.5q-96 0 -171 -65.5t-117 -179.5t-42 -242q0 -102 40 -162.5t112 -60.5q111 0 196 68z" />
<glyph unicode="&#x445;" horiz-adv-x="1027" d="M669 507l232 -507h-266l-110 293l-32 97h-5q-21 -32 -39.5 -58.5t-260.5 -331.5h-283l458 514l-224 510h266l104 -298q18 -51 29 -102h4q14 21 33 48t274 352h273z" />
<glyph unicode="&#x446;" horiz-adv-x="1228" d="M732 223q-84 -118 -186 -183t-203 -65q-127 0 -194 72.5t-67 203.5q0 49 31 196l122 577h242l-125 -589q-21 -112 -21 -134q0 -60 30 -95t90 -35q69 0 141.5 51t128.5 137.5t74 172.5l105 492h242l-147 -688q-11 -44 -11 -95q0 -67 82 -67l73 4l-131 -559h-213l110 375 q-91 0 -134 29.5t-43 93.5q0 52 10 106h-6z" />
<glyph unicode="&#x447;" horiz-adv-x="1148" d="M1115 1024l-218 -1024h-243l83 394q-173 -104 -337 -104q-127 0 -202.5 69.5t-75.5 188.5q0 34 5 68t86 408h236l-73 -338q-12 -55 -12 -88q0 -57 36 -91t105 -34q72 0 134.5 24t131.5 65l100 462h244z" />
<glyph unicode="&#x448;" horiz-adv-x="1785" d="M1540 0h-241l9 64l28 175h-4q-93 -129 -193.5 -196.5t-197.5 -67.5q-112 0 -167 64.5t-59 209.5q-87 -130 -194.5 -202t-211.5 -72q-227 0 -227 268q0 65 26 185l125 596h243l-122 -577q-23 -109 -23 -148q0 -132 109 -132q58 0 126.5 54t123 141t72.5 171l106 491h240 l-121 -577q-22 -100 -22 -157q0 -122 107 -122q58 0 125.5 51.5t122.5 138.5t75 177l105 489h244l-153 -713q-22 -105 -35.5 -193.5t-15.5 -117.5z" />
<glyph unicode="&#x449;" horiz-adv-x="1828" d="M1335 242q-91 -129 -194 -198t-200 -69q-112 0 -167 64.5t-59 209.5q-87 -130 -194.5 -202t-211.5 -72q-227 0 -227 268q0 65 26 185l125 596h243l-122 -577q-23 -109 -23 -148q0 -132 109 -132q58 0 126.5 54t123 141t72.5 171l106 491h240l-121 -577q-22 -100 -22 -157 q0 -122 107 -122q58 0 127.5 53.5t124 140.5t71.5 173l105 489h244l-148 -685q-13 -57 -13 -98q0 -67 82 -67l73 4l-131 -559h-213l110 374q-91 0 -134 30t-43 94q0 54 13 124z" />
<glyph unicode="&#x44a;" horiz-adv-x="1292" d="M1204 367q0 -112 -59 -201.5t-169.5 -140t-261.5 -50.5q-214 0 -311.5 83.5t-97.5 261.5q0 108 34 271l53 253l-254 -6h-72l39 186h566l-87 -411q142 43 278 43q166 0 254 -73.5t88 -215.5zM969 343q0 145 -176 145q-109 0 -242 -39q-13 -61 -13 -131q0 -88 45.5 -129.5 t142.5 -41.5q109 0 176 55t67 141z" />
<glyph unicode="&#x44b;" horiz-adv-x="1542" d="M1507 1024l-217 -1024h-241l217 1024h241zM957 367q0 -113 -56.5 -202.5t-162.5 -139.5t-249 -50q-204 0 -298 84.5t-94 262.5q0 70 14.5 159.5t110.5 542.5h242l-87 -411q129 43 259 43q155 0 238 -73.5t83 -215.5zM721 343q0 145 -159 145q-99 0 -219 -39 q-13 -91 -13 -135q0 -86 42.5 -126.5t129.5 -40.5q100 0 159.5 55t59.5 141z" />
<glyph unicode="&#x44c;" horiz-adv-x="1084" d="M997 367q0 -112 -59 -201.5t-169.5 -140t-261.5 -50.5q-212 0 -310.5 82.5t-98.5 262.5q0 78 14.5 171.5t59.5 295.5l50 237h242l-87 -411q142 43 278 43q166 0 254 -73.5t88 -215.5zM762 343q0 145 -176 145q-109 0 -242 -39q-13 -61 -13 -131q0 -85 42.5 -128 t145.5 -43q109 0 176 55t67 141z" />
<glyph unicode="&#x44d;" horiz-adv-x="951" d="M884 630q0 -191 -73.5 -341t-210.5 -232t-320 -82q-85 0 -167 16.5t-118 41.5l35 204q33 -26 103.5 -48t135.5 -22q146 0 240 70t126 204h-456l32 160h442l3 34q0 107 -67 165t-191 58q-128 0 -260 -73l45 215q127 49 290 49q193 0 302 -112t109 -307z" />
<glyph unicode="&#x44e;" horiz-adv-x="1618" d="M1156 1049q191 0 292 -111.5t101 -308.5q0 -188 -72.5 -343.5t-195.5 -233t-286 -77.5q-188 0 -292.5 112t-104.5 301l4 57h-237l-93 -445h-243l217 1024h243l-86 -400h226q56 201 195 313t332 112zM1305 624q0 111 -44 172.5t-132 61.5q-79 0 -144 -56t-105 -167 t-40 -236q0 -113 47 -173.5t130 -60.5q86 0 151 62t101 167.5t36 229.5z" />
<glyph unicode="&#x44f;" horiz-adv-x="1104" d="M854 0h-242l85 398h-117q-62 0 -113.5 -38.5t-101.5 -119.5l-147 -240h-273l180 273q49 75 106.5 122.5t137.5 69.5q-93 20 -150.5 87t-57.5 153q0 160 113.5 239.5t329.5 79.5h467zM628 861q-223 0 -223 -166q0 -67 49 -103.5t134 -36.5h141l65 306h-166z" />
<glyph unicode="&#x450;" horiz-adv-x="1031" d="M1004 772q0 -185 -172 -272.5t-522 -91.5l-2 -11v-20q0 -104 62 -161.5t173 -57.5q76 0 162.5 27.5t158.5 70.5l-40 -199q-151 -82 -333 -82q-199 0 -310.5 111t-111.5 313q0 174 76 325.5t212 238t298 86.5q161 0 255 -76t94 -201zM770 766q0 50 -36.5 79.5t-100.5 29.5 q-106 0 -192 -87t-113 -214q442 0 442 192zM679 1202l-249 326h208l208 -326h-167z" />
<glyph unicode="&#x451;" horiz-adv-x="1031" d="M1004 772q0 -185 -172 -272.5t-522 -91.5l-2 -11v-20q0 -104 62 -161.5t173 -57.5q76 0 162.5 27.5t158.5 70.5l-40 -199q-151 -82 -333 -82q-199 0 -310.5 111t-111.5 313q0 174 76 325.5t212 238t298 86.5q161 0 255 -76t94 -201zM770 766q0 50 -36.5 79.5t-100.5 29.5 q-106 0 -192 -87t-113 -214q442 0 442 192zM1012 1321q0 -50 -35 -84.5t-91 -34.5t-91 35t-35 84q0 51 36 83.5t89 32.5q54 0 90.5 -33t36.5 -83zM591 1321q0 -51 -37.5 -85t-89.5 -34q-51 0 -89 33.5t-38 85.5q0 49 36 82.5t91 33.5q54 0 90.5 -33t36.5 -83z" />
<glyph unicode="&#x452;" horiz-adv-x="1199" d="M1101 674q0 -211 -51.5 -428t-137.5 -370.5t-203.5 -236t-259.5 -82.5q-90 0 -145 22l39 189q47 -26 99 -26q77 0 147.5 66t129.5 199.5t96.5 309.5t37.5 302q0 215 -141 215q-90 0 -186 -99t-139 -228q-21 -51 -49 -206l-62 -301h-243l253 1190h-124l32 146h123l39 180 h241l-39 -180h341l-32 -146h-340l-90 -430h4q90 128 192.5 196t209.5 68q123 0 190.5 -94t67.5 -256z" />
<glyph unicode="&#x453;" horiz-adv-x="895" d="M852 789q0 -78 -33.5 -137t-99 -103.5t-192.5 -90.5q-150 -55 -190 -78.5t-61 -51.5t-21 -67q0 -47 39 -77t122 -30q75 0 159.5 24.5t160.5 66.5l-44 -214q-136 -56 -320 -56q-167 0 -257.5 73.5t-90.5 203.5q0 84 38 146t108 108t218 97q139 50 183 86.5t44 86.5 q0 45 -37 70t-110 25q-67 0 -145 -19.5t-131 -47.5l40 198q59 21 138 34t152 13q158 0 244 -68.5t86 -191.5zM653 1202h-179l302 326h225z" />
<glyph unicode="&#x454;" horiz-adv-x="920" d="M929 987l-47 -205q-38 32 -94.5 54t-124.5 22q-107 0 -193.5 -71t-123.5 -186h425l-32 -160h-427l-1 -14v-13q0 -123 55.5 -185.5t158.5 -62.5q62 0 131.5 25t124.5 61l-42 -203q-142 -74 -282 -74q-182 0 -285 111.5t-103 308.5q0 178 77 330.5t214.5 238t311.5 85.5 q73 0 145 -17.5t112 -44.5z" />
<glyph unicode="&#x455;" horiz-adv-x="854" d="M771 806q-44 26 -104.5 45t-120.5 19q-84 0 -125.5 -35.5t-41.5 -91.5q0 -50 34 -83t98 -68q130 -73 177.5 -139t47.5 -155q0 -97 -50.5 -169t-147.5 -113t-237 -41q-76 0 -161 17t-130 41l40 198q55 -33 130.5 -56t145.5 -23q88 0 131 33t43 91q0 45 -29.5 78t-114.5 79 q-113 61 -164.5 129t-51.5 160q0 94 48.5 168.5t140 116.5t217.5 42q75 0 146.5 -13.5t120.5 -33.5z" />
<glyph unicode="&#x456;" horiz-adv-x="590" d="M586 1371q0 -60 -43 -99.5t-105 -39.5q-60 0 -101.5 36t-41.5 95q0 61 44 99t106 38q58 0 99.5 -36.5t41.5 -92.5zM314 -17q-110 0 -167.5 55.5t-57.5 158.5q0 52 11 102l149 725h243l-136 -645q-21 -100 -21 -129q0 -76 87 -76q51 0 91 16l-38 -184q-86 -23 -161 -23z " />
<glyph unicode="&#x457;" horiz-adv-x="590" d="M314 -17q-111 0 -169 55t-58 156q0 67 26 184l136 646h243l-136 -645q-21 -100 -21 -129q0 -76 87 -76q51 0 91 16l-38 -184q-77 -23 -161 -23zM754 1321q0 -50 -35 -84.5t-91 -34.5t-91 35t-35 84q0 51 36 83.5t89 32.5q54 0 90.5 -33t36.5 -83zM333 1321 q0 -51 -37.5 -85t-89.5 -34q-51 0 -89 33.5t-38 85.5q0 49 36 82.5t91 33.5q54 0 90.5 -33t36.5 -83z" />
<glyph unicode="&#x458;" horiz-adv-x="515" d="M586 1371q0 -60 -43 -99.5t-105 -39.5q-60 0 -101.5 36t-41.5 95q0 61 44 99t106 38q58 0 99.5 -36.5t41.5 -92.5zM-184 -481q-119 0 -183 31l40 198q23 -16 58.5 -27.5t60.5 -11.5q89 0 149.5 74.5t94.5 234.5l214 1006h242l-215 -1010q-56 -257 -169.5 -376 t-291.5 -119z" />
<glyph unicode="&#x459;" horiz-adv-x="1714" d="M1628 367q0 -113 -56.5 -202.5t-162.5 -139.5t-249 -50q-204 0 -298 84.5t-94 262.5q0 106 31 249l55 267h-238q-70 -223 -128 -384t-123 -264.5t-146.5 -153t-196.5 -49.5q-34 0 -70 4.5t-46 9.5l34 187q25 -9 63 -9q82 0 149.5 76.5t136 244t174.5 524.5h672l-87 -411 q129 43 259 43q155 0 238 -73.5t83 -215.5zM1392 343q0 145 -159 145q-99 0 -219 -39q-13 -91 -13 -135q0 -86 42.5 -126.5t129.5 -40.5q100 0 159.5 55t59.5 141z" />
<glyph unicode="&#x45a;" horiz-adv-x="1701" d="M1613 367q0 -113 -56.5 -202.5t-162.5 -139.5t-249 -50q-204 0 -297.5 84.5t-93.5 262.5q0 54 9 126h-394l-94 -448h-243l217 1024h243l-87 -405h389l84 405h242l-87 -411q132 43 260 43q155 0 237.5 -73.5t82.5 -215.5zM1378 343q0 145 -160 145q-101 0 -218 -39 q-3 -15 -8 -60t-5 -75q0 -86 42 -126.5t129 -40.5q100 0 160 55.5t60 140.5z" />
<glyph unicode="&#x45b;" horiz-adv-x="1183" d="M1093 773q0 -54 -30 -197l-122 -576h-242l124 592q20 107 20 131q0 135 -122 135q-65 0 -137.5 -51.5t-128 -135.5t-73.5 -171l-107 -500h-243l254 1190h-123l30 146h124l38 180h242l-39 -180h330l-30 -146h-330l-83 -385h4q83 116 184 180t202 64q128 0 193 -72.5 t65 -203.5z" />
<glyph unicode="&#x45c;" horiz-adv-x="1072" d="M629 537l315 -537h-271l-282 528h-5l-112 -528h-242l218 1024h241l-94 -448h4l460 448h294zM729 1202h-179l302 326h225z" />
<glyph unicode="&#x45d;" horiz-adv-x="1184" d="M941 0h-240l31 217h-4q-81 -114 -181 -178t-204 -64q-127 0 -194 72.5t-67 203.5q0 49 31 196l122 577h242l-125 -589q-21 -112 -21 -134q0 -60 30 -95t90 -35q69 0 141.5 51t128.5 137.5t74 172.5l105 492h242l-147 -688q-39 -186 -54 -336zM728 1202l-249 326h208 l208 -326h-167z" />
<glyph unicode="&#x45e;" horiz-adv-x="1046" d="M-27 -481q-70 0 -133 21l42 194q39 -24 100 -24q126 0 214 135l103 160l-193 1019h251l96 -705l4 -65l-2 -42h5q25 64 48 106l383 706h257l-689 -1154q-114 -191 -226.5 -271t-259.5 -80zM1080 1528q-51 -154 -169.5 -240t-274.5 -86q-153 0 -250 90.5t-101 235.5h201 q2 -84 44.5 -133t120.5 -49q76 0 135.5 47.5t89.5 134.5h204z" />
<glyph unicode="&#x45f;" horiz-adv-x="1184" d="M573 -82l-91 -389h-209l109 389h191zM941 0h-240l31 217h-4q-81 -114 -181 -178t-204 -64q-127 0 -194 72.5t-67 203.5q0 49 31 196l122 577h242l-125 -589q-21 -112 -21 -134q0 -60 30 -95t90 -35q69 0 141.5 51t128.5 137.5t74 172.5l105 492h242l-147 -688 q-39 -186 -54 -336z" />
<glyph unicode="&#x460;" horiz-adv-x="2399" d="M1113 46q-180 -71 -370 -71q-184 0 -325.5 80t-217.5 225.5t-76 328.5q0 250 101 448.5t281 304.5t413 106q188 0 320 -65l-43 -230q-60 37 -136.5 59.5t-148.5 22.5q-155 0 -276.5 -80t-186 -223.5t-64.5 -323.5q0 -205 106.5 -324.5t290.5 -119.5q125 0 225 45l74 346 h-302l43 205h848l-42 -205h-302l-72 -336q108 -50 245 -50q273 0 431 179.5t158 484.5q0 178 -94 282.5t-249 104.5q-91 0 -173 -18.5t-131 -44.5l47 233q131 48 280 48q176 0 308.5 -73t203 -207.5t70.5 -309.5q0 -262 -109 -470t-299.5 -315.5t-442.5 -107.5 q-108 0 -209.5 19.5t-175.5 51.5z" />
<glyph unicode="&#x461;" horiz-adv-x="1457" d="M1554 1024l-557 -1024h-233l-86 397l-245 -397h-209q-63 275 -91 451.5t-28 299.5q0 103 21 273h229q-21 -145 -21 -259q0 -175 64 -504l228 354q-11 103 -11 182q0 117 16 227h239q-12 -94 -12 -224q0 -212 71 -539l392 763h233z" />
<glyph unicode="&#x462;" horiz-adv-x="1380" d="M698 1310h306l-41 -195h-307l-58 -277h228q209 0 329.5 -103.5t120.5 -283.5q0 -218 -150.5 -334.5t-432.5 -116.5h-519l236 1115h-277l41 195h278l26 124h246zM1014 439q0 205 -256 205h-201l-94 -449h221q167 0 248.5 63t81.5 181z" />
<glyph unicode="&#x463;" horiz-adv-x="1171" d="M148 0l253 1190h-259l30 147h259l40 179h239l-39 -179h276l-30 -147h-276l-115 -542h222q159 0 253.5 -76t94.5 -209q0 -168 -114 -265.5t-305 -97.5h-529zM490 478l-66 -308h203q101 0 159 43.5t58 136.5q0 63 -43 95.5t-117 32.5h-194z" />
<glyph unicode="&#x464;" horiz-adv-x="1912" d="M1931 1147q-141 93 -352 93q-212 0 -357.5 -114t-185.5 -303h614l-42 -203h-597l-1 -9v-10q0 -200 105 -306t300 -106q183 0 348 87l-49 -238q-84 -35 -168.5 -49t-189.5 -14q-264 0 -419.5 139.5t-178.5 390.5q-9 52 -9 109h-312l-130 -614h-246l305 1434h246l-132 -617 h291q40 195 153 340.5t286.5 223t394.5 77.5q195 0 374 -72z" />
<glyph unicode="&#x465;" horiz-adv-x="1471" d="M1481 987l-47 -205q-38 32 -94.5 54t-124.5 22q-106 0 -189.5 -66.5t-129.5 -190.5h426l-31 -160h-425l-3 -27q0 -123 55 -185.5t158 -62.5q62 0 130.5 24t126.5 62l-42 -203q-144 -74 -283 -74q-181 0 -284 112t-103 308l3 37h-252l-92 -432h-240l217 1024h240l-89 -423 h241q60 208 214.5 328t360.5 120q72 0 143 -17.5t114 -44.5z" />
<glyph unicode="&#x466;" horiz-adv-x="1413" d="M1255 0h-244l-85 558l-157 -153l-86 -405h-211l86 403l-86 160l-326 -563h-267l852 1434h293zM895 772l-44 337q-4 34 -4 70l3 72h-6q-23 -72 -62 -141l-192 -341l106 -195z" />
<glyph unicode="&#x467;" horiz-adv-x="1089" d="M981 0h-223l-57 356l-104 -95l-56 -261h-181l55 261l-62 100l-211 -361h-234l632 1024h255zM673 531l-31 216q-6 39 -6 66l6 64h-6q-23 -75 -49 -119l-136 -233l82 -124z" />
<glyph unicode="&#x468;" horiz-adv-x="1911" d="M1771 0h-244l-85 558l-157 -153l-86 -405h-211l86 403l-86 160l-326 -563h-267l374 628h-328l-134 -628h-246l305 1434h246l-128 -600h406l357 600h293zM1411 772l-44 337q-4 34 -4 70l3 72h-6q-23 -72 -62 -141l-192 -341l106 -195z" />
<glyph unicode="&#x469;" horiz-adv-x="1536" d="M1423 0h-222l-58 356l-104 -95l-55 -261h-182l56 261l-62 100l-212 -361h-233l273 442h-254l-93 -442h-240l217 1024h240l-87 -412h321l255 412h255zM1115 531l-30 216q-6 39 -6 66q0 26 6 64h-7q-24 -79 -48 -119l-137 -233l83 -124z" />
<glyph unicode="&#x46a;" horiz-adv-x="1567" d="M1169 0q-3 185 -28.5 297t-80 175.5t-157.5 97.5l-121 -570h-246l119 562q-99 -42 -167 -85t-115.5 -93t-95 -127.5t-125.5 -256.5h-248q122 273 206.5 392.5t196 200t282.5 146.5l-261 695h1284l-570 -695q143 -66 217 -146t107.5 -203.5t43.5 -389.5h-241zM1178 1239 h-519l136 -381q15 -43 17 -98h4q35 68 58 96z" />
<glyph unicode="&#x46b;" horiz-adv-x="1239" d="M897 0q-3 139 -21 208t-58.5 113t-115.5 75l-84 -396h-215l83 392q-131 -47 -208.5 -132.5t-150.5 -259.5h-217q82 179 150 274.5t152.5 156.5t215.5 108l-216 485h1041l-431 -485q105 -44 165.5 -107.5t88.5 -158.5t33 -273h-212zM858 860h-341l80 -220 q8 -20 14.5 -37.5t8.5 -45.5l37 53z" />
<glyph unicode="&#x46c;" horiz-adv-x="2055" d="M1672 0q-5 220 -30.5 318t-81 158t-154.5 94l-121 -570h-246l119 562q-99 -42 -167 -85t-115.5 -93t-95 -127.5t-125.5 -256.5h-248q98 219 160.5 321.5t134 177t166.5 132.5h-427l-134 -631h-246l305 1434h246l-128 -600h572l-225 600h1284l-570 -695 q101 -47 168 -102.5t108 -126t62.5 -171.5t29.5 -339h-241zM1681 1239h-519l136 -381q15 -43 17 -98h4q26 56 58 96z" />
<glyph unicode="&#x46d;" horiz-adv-x="1683" d="M1346 0q-3 139 -21 208t-58.5 113t-115.5 75l-84 -396h-215l83 392q-131 -47 -208.5 -132.5t-150.5 -259.5h-217q82 179 157 281.5t167 163.5h-312l-95 -445h-240l217 1024h240l-86 -408h436l-182 408h1041l-431 -485q105 -44 165.5 -107.5t88.5 -158.5t33 -273h-212z M1307 860h-341l80 -220q8 -20 14.5 -37.5t8.5 -45.5l37 53z" />
<glyph unicode="&#x46e;" horiz-adv-x="1125" d="M1122 1726l-256 -289q121 -34 184 -117t63 -199q0 -151 -98.5 -253t-272.5 -128v-4q121 -23 197.5 -111t76.5 -213q0 -128 -58 -225t-170.5 -151t-266.5 -54q-40 0 -110 7t-116 7q-55 0 -92 -30t-37 -85q0 -49 30.5 -77.5t93.5 -28.5q42 0 198 34q155 33 188 33 q195 0 195 -173q0 -37 -9 -79h-219l1 12v9q0 41 -59 41l-28 -4q-272 -64 -337 -64q-134 0 -209.5 77.5t-75.5 209.5q0 154 93.5 239.5t259.5 85.5l102 -6q79 -7 114 -7q131 0 197.5 60.5t66.5 171.5q0 104 -83 162.5t-223 58.5h-166l41 205h169q181 0 269.5 64t88.5 180 q0 80 -62 126.5t-160 46.5q-79 0 -184 -29.5t-169 -62.5l39 220q153 57 281 67l-128 273h160l115 -208l204 208h162z" />
<glyph unicode="&#x46f;" horiz-adv-x="942" d="M940 1312l-251 -279q216 -51 216 -236q0 -110 -75 -178.5t-216 -89.5v-4q106 -12 165.5 -74t59.5 -153q0 -156 -107 -235.5t-305 -79.5l-116 2q-104 0 -149.5 -31.5t-45.5 -93.5q0 -43 18.5 -68t69.5 -25q57 0 161 37q96 33 166 33q85 0 127 -44t42 -124q0 -36 -9 -79 h-198l3 24q0 41 -46 41q-41 0 -130 -35q-90 -35 -188 -35q-101 0 -161.5 68t-60.5 181q0 152 92 240t253 88l130 -3q106 0 161 38.5t55 108.5t-67 105t-220 35h-118l31 163h154q136 0 208.5 40t72.5 112q0 57 -52 86t-143 29q-66 0 -150.5 -19t-168.5 -58l38 193 q103 39 239 51l-126 269h160l115 -208l204 208h162z" />
<glyph unicode="&#x470;" horiz-adv-x="1657" d="M958 373h-65l-78 -373h-223l79 373h-80q-186 0 -268.5 101.5t-86.5 353.5l-10 606h221l13 -642q2 -120 42.5 -164t144.5 -44h68l181 850h223l-181 -850h59q158 0 246.5 81.5t125.5 255.5l109 513h226l-113 -533q-57 -275 -205.5 -401.5t-427.5 -126.5z" />
<glyph unicode="&#x471;" horiz-adv-x="1570" d="M811 -25h-51l-97 -456h-220l96 458h-21q-131 0 -205 48.5t-109.5 151.5t-45.5 361l-19 486h227l22 -599q4 -141 48.5 -199t143.5 -58l216 1009h220l-215 -1009h33q156 0 244.5 94t129.5 293l100 469h233l-86 -409q-69 -330 -225.5 -485t-418.5 -155z" />
<glyph unicode="&#x472;" horiz-adv-x="1549" d="M1501 845q0 -243 -104.5 -448.5t-281 -313.5t-400.5 -108q-177 0 -311.5 77t-207.5 217.5t-73 320.5q0 240 102.5 443.5t281.5 314t404 110.5q176 0 310 -76t207 -216.5t73 -320.5zM1240 828v9q0 189 -95.5 296.5t-257.5 107.5q-168 0 -297 -119.5t-179 -318.5 q200 62 263 62q64 0 180 -55q118 -57 152 -57q47 0 233 66zM622 669q-35 0 -239 -63q0 -195 92.5 -305t260.5 -110q166 0 293.5 114.5t179.5 317.5q-185 -65 -252 -65q-70 0 -177 55q-111 56 -158 56z" />
<glyph unicode="&#x473;" horiz-adv-x="1137" d="M1067 631q0 -186 -74.5 -339.5t-206 -235t-303.5 -81.5q-193 0 -303.5 111t-110.5 307q0 186 74.5 338t205.5 235t304 83q190 0 302 -111.5t112 -306.5zM823 603v22q0 107 -49.5 170t-137.5 63q-97 0 -173.5 -69t-115.5 -186q96 29 133 29q47 0 126 -40q77 -41 107 -41 q23 0 109 30zM431 464q-19 0 -117 -32l-2 -15v-15q0 -110 50 -173t138 -63q98 0 173 66.5t114 178.5q-86 -27 -122 -27q-40 0 -116 40q-79 40 -118 40z" />
<glyph unicode="&#x474;" horiz-adv-x="1604" d="M1489 1150l3 37q0 29 -17.5 48t-46.5 19q-35 0 -64 -28.5t-61 -88.5l-620 -1137h-277l-200 1434h252l55 -503q26 -250 58 -502q12 -84 12 -135l-3 -63h5l18 45l25 54l395 758q113 214 208 292t218 78q112 0 186.5 -65.5t74.5 -170.5q0 -39 -5 -72h-216z" />
<glyph unicode="&#x475;" horiz-adv-x="1323" d="M1151 762l2 27q0 31 -15.5 48t-42.5 17q-32 0 -62 -29t-67 -93l-419 -732h-264l-157 1024h244l72 -688l5 -91q0 -37 -4 -71h4q21 67 68 157l235 445q75 145 162 208.5t203 63.5q121 0 187.5 -59t66.5 -166l-4 -61h-214z" />
<glyph unicode="&#x476;" horiz-adv-x="1604" d="M1489 1150l3 37q0 29 -17.5 48t-46.5 19q-35 0 -64 -28.5t-61 -88.5l-620 -1137h-277l-200 1434h252l55 -503q26 -250 58 -502q12 -84 12 -135l-3 -63h5l18 45l25 54l395 758q113 214 208 292t218 78q112 0 186.5 -65.5t74.5 -170.5q0 -39 -5 -72h-216zM1114 1565h-149 l-214 318h187zM806 1565h-148l-221 318h192z" />
<glyph unicode="&#x477;" horiz-adv-x="1323" d="M1151 762l2 27q0 31 -15.5 48t-42.5 17q-32 0 -62 -29t-67 -93l-419 -732h-264l-157 1024h244l72 -688l5 -91q0 -37 -4 -71h4q21 67 68 157l235 445q75 145 162 208.5t203 63.5q121 0 187.5 -59t66.5 -166l-4 -61h-214zM977 1202h-149l-214 318h187zM669 1202h-148 l-221 318h192z" />
<glyph unicode="&#x478;" horiz-adv-x="2813" d="M125 625q0 247 104.5 450t289 317t410.5 114l34 -1l-11 -78q253 -22 396.5 -183.5t143.5 -421.5q0 -250 -103 -459.5t-282 -320.5t-406 -111h-21l-20 1l13 82q-253 18 -400.5 181.5t-147.5 429.5zM921 1288q-156 0 -276.5 -80t-190.5 -231.5t-70 -342.5 q0 -183 83.5 -286.5t237.5 -115.5l-12 -86l27 -1q146 0 261.5 85.5t183 244.5t67.5 338q0 169 -80.5 272t-231.5 120l12 83h-11zM1545 -431l-59 122l102 57q90 53 144 140l64 103l-184 1033h251l87 -684q6 -50 6 -97l-3 -43h5q18 59 55 131l204 405q89 176 176 244t207 68 q121 0 189.5 -60t68.5 -166l-5 -64h-212l2 33q-2 63 -62 63q-33 0 -63.5 -30t-65.5 -92l-422 -745q-119 -212 -235.5 -309.5t-249.5 -108.5z" />
<glyph unicode="&#x479;" horiz-adv-x="2419" d="M87 426q0 182 82.5 336t225 235.5t320.5 81.5l-5 -66q201 0 312 -106t111 -295q0 -188 -81 -346t-221.5 -242t-322.5 -84l5 66q-199 0 -312.5 112.5t-113.5 307.5zM331 429q0 -108 55 -170.5t153 -62.5l-5 -66q102 0 182.5 62.5t126 174t45.5 239.5q0 214 -205 216l5 66 q-100 0 -182 -61.5t-128.5 -169t-46.5 -228.5zM1173 -401l-59 122l102 57q90 53 144 140l64 103l-184 1033h251l87 -684q6 -50 6 -97l-3 -43h5q18 59 55 131l204 405q89 176 176 244t207 68q121 0 189.5 -60t68.5 -166l-5 -64h-212l2 33q-2 63 -62 63q-33 0 -63.5 -30 t-65.5 -92l-422 -745q-119 -212 -235.5 -309.5t-249.5 -108.5z" />
<glyph unicode="&#x47a;" horiz-adv-x="1754" d="M738 -92q-88 0 -128 76q-222 29 -354 183t-132 392t103.5 442.5t287 323.5t415.5 130q68 77 161 77q91 0 128 -84q224 -31 354 -185.5t130 -388.5q0 -243 -106.5 -448.5t-289.5 -322t-413 -125.5q-62 -70 -156 -70zM811 265q81 0 120 -70q144 13 261 105t184 244t67 318 q0 162 -75 253.5t-205 116.5q-62 -57 -144 -57q-78 0 -121 62q-144 -11 -261.5 -103.5t-185 -244t-67.5 -319.5q0 -161 74 -252.5t203 -116.5q67 64 150 64z" />
<glyph unicode="&#x47b;" horiz-adv-x="1367" d="M822 1121q95 0 123 -79q166 -22 259 -129.5t93 -282.5q0 -172 -73 -318.5t-207.5 -234t-311.5 -97.5q-63 -72 -149 -72t-121 73q-177 21 -271.5 129t-94.5 285t73.5 323t209 231.5t314.5 95.5q64 76 156 76zM752 791q-73 0 -112 63q-92 -9 -166.5 -71.5t-117 -167 t-42.5 -219.5q0 -188 169 -223q62 64 143 64q80 0 115 -66q133 17 221.5 148.5t88.5 307.5q0 186 -163 223q-61 -59 -136 -59z" />
<glyph unicode="&#x47c;" horiz-adv-x="2372" d="M1155 283q72 -43 167.5 -68.5t175.5 -25.5q273 0 431 179.5t158 484.5q0 178 -94 282.5t-249 104.5q-91 0 -173 -18.5t-131 -44.5l47 233q131 48 280 48q176 0 308.5 -73t203 -207.5t70.5 -309.5q0 -260 -108 -467.5t-299 -316t-444 -108.5q-107 0 -205 21t-168 55 q-175 -76 -382 -76q-184 0 -325.5 80t-217.5 225t-76 328q0 250 101 448.5t281 304.5t413 106q188 0 320 -65l-43 -230q-60 37 -136.5 59.5t-148.5 22.5q-154 0 -274.5 -79t-186.5 -222.5t-66 -325.5q0 -205 106.5 -324.5t290.5 -119.5q75 0 180 27.5t194 71.5zM1368 1810 q54 0 82.5 -27.5t28.5 -73.5q0 -79 -69 -140t-179 -81l-20 70q36 8 69 25.5t46 40.5q-83 4 -83 81q0 53 36.5 79t88.5 26zM1805 1966l-33 -158h-41q-68 0 -129.5 19t-117.5 42t-106 42t-94 19q-42 0 -74 -34.5t-43 -87.5h-146q28 133 101.5 206.5t176.5 73.5q60 0 117.5 -19 t115 -42t115.5 -42t120 -19h38z" />
<glyph unicode="&#x47d;" horiz-adv-x="1819" d="M819 57q-147 -81 -339 -81q-189 0 -300 116.5t-111 307.5q0 182 78.5 331t222 233t324.5 84q131 0 223 -51l-47 -201q-35 28 -89 43.5t-113 15.5q-104 0 -184 -57.5t-125 -161.5t-45 -224q0 -115 59.5 -180.5t181.5 -65.5q72 0 151.5 24.5t151.5 69.5q109 -94 258 -94 q113 0 201.5 58.5t137.5 162t49 228.5q0 115 -56 177.5t-162 62.5q-117 0 -222 -59l43 206q112 46 245 46q185 0 290 -109.5t105 -304.5q0 -184 -77.5 -335.5t-218 -237t-318.5 -85.5q-201 0 -314 81zM1504 1596l-33 -158h-41q-68 0 -129.5 19t-117.5 42t-106 42t-94 19 q-42 0 -74 -34.5t-43 -87.5h-146q28 133 101.5 206.5t176.5 73.5q60 0 117.5 -19t115 -42t115.5 -42t120 -19h38zM1067 1440q54 0 82.5 -27.5t28.5 -73.5q0 -79 -69 -140t-179 -81l-20 70q36 8 69 25.5t46 40.5q-83 4 -83 81q0 53 36.5 79t88.5 26z" />
<glyph unicode="&#x47e;" horiz-adv-x="2399" d="M1113 46q-180 -71 -370 -71q-184 0 -325.5 80t-217.5 225.5t-76 328.5q0 250 101 448.5t281 304.5t413 106q188 0 320 -65l-43 -230q-60 37 -136.5 59.5t-148.5 22.5q-155 0 -276.5 -80t-186 -223.5t-64.5 -323.5q0 -205 106.5 -324.5t290.5 -119.5q125 0 225 45l74 346 h-302l43 205h848l-42 -205h-302l-72 -336q108 -50 245 -50q273 0 431 179.5t158 484.5q0 178 -94 282.5t-249 104.5q-91 0 -173 -18.5t-131 -44.5l47 233q131 48 280 48q176 0 308.5 -73t203 -207.5t70.5 -309.5q0 -262 -109 -470t-299.5 -315.5t-442.5 -107.5 q-108 0 -209.5 19.5t-175.5 51.5zM1894 1775l-145 -215h-47l-26 100h-208l-69 -100h-47l-26 100h-208l-68 -100h-47l-54 215h945z" />
<glyph unicode="&#x47f;" horiz-adv-x="1457" d="M1554 1024l-557 -1024h-233l-86 397l-245 -397h-209q-63 275 -91 451.5t-28 299.5q0 103 21 273h229q-21 -145 -21 -259q0 -175 64 -504l228 354q-11 103 -11 182q0 117 16 227h239q-12 -94 -12 -224q0 -212 71 -539l392 763h233zM1326 1430l-145 -215h-47l-26 100h-208 l-69 -100h-47l-26 100h-208l-68 -100h-47l-54 215h945z" />
<glyph unicode="&#x480;" horiz-adv-x="1255" d="M780 -410h-245l84 397q-229 34 -362 197t-133 417q0 251 108.5 449t303.5 303t452 105q202 0 386 -78l-52 -239q-91 55 -175 77.5t-172 22.5q-173 0 -308.5 -79t-209.5 -220.5t-74 -318.5q0 -206 113 -319.5t308 -113.5q57 0 105 8z" />
<glyph unicode="&#x481;" horiz-adv-x="919" d="M305 -410l83 392q-154 22 -236.5 131t-82.5 282q0 178 77 330.5t214.5 238t311.5 85.5q73 0 145 -17.5t112 -44.5l-47 -205q-38 32 -94.5 54t-124.5 22q-95 0 -173.5 -56t-128.5 -161.5t-50 -221.5t58 -184.5t156 -68.5q70 0 145 17l-127 -593h-238z" />
<glyph unicode="&#x482;" horiz-adv-x="1044" d="M1080 887l-89 -135l-252 120l-230 -361l250 -120l-90 -136l-248 119l-239 -374h-177l281 439l-242 116l88 138l241 -117l231 361l-240 114l90 139l239 -116l229 361h178l-272 -425z" />
<glyph unicode="&#x483;" horiz-adv-x="818" d="M270 1297q-26 -79 -109 -79q-38 0 -63.5 26.5t-25.5 68.5q0 48 37.5 82t88.5 34h351q32 80 111 80q36 0 63 -25.5t27 -69.5q0 -50 -38 -83.5t-93 -33.5h-349z" />
<glyph unicode="&#x484;" horiz-adv-x="855" d="M624 1218q-20 129 -114 129q-49 0 -158 -64q-110 -65 -182 -65h-105l36 171h80q62 0 176 48q110 47 189 47q179 0 221 -266h-143z" />
<glyph unicode="&#x485;" horiz-adv-x="0" d="M313 1158q-72 30 -116 94t-44 134q0 84 44 132.5t117 48.5q47 0 74.5 -27t27.5 -69q0 -53 -38.5 -80.5t-98.5 -32.5q5 -42 29 -71t70 -52z" />
<glyph unicode="&#x486;" horiz-adv-x="0" d="M131 1227q117 51 150 138q-36 5 -61.5 29.5t-25.5 66.5q0 48 32.5 76.5t89.5 28.5q51 0 86.5 -32t35.5 -92q0 -184 -274 -284z" />
<glyph unicode="&#x487;" horiz-adv-x="868" d="M972 1374l-33 -157h-41q-62 0 -124.5 19t-121 42t-110 42t-91.5 19q-42 0 -74 -34.5t-43 -87.5h-146q28 133 101 206t177 73q57 0 116 -19t118.5 -42t118.5 -42t115 -19h38z" />
<glyph unicode="&#x488;" horiz-adv-x="2018" d="M1193 1168h-98q-7 104 -102 104q-90 0 -103 -104h-98q8 89 64 144t139 55q87 0 140.5 -53.5t57.5 -145.5zM1835 917h-99q-7 106 -99 106q-89 0 -102 -106h-101q8 89 63 144.5t140 55.5q88 0 141 -56t57 -144zM568 917h-98q-7 106 -101 106q-88 0 -101 -106h-100 q8 91 63.5 145.5t137.5 54.5q87 0 141 -54t58 -146zM1976 436h-99q-8 104 -99 104q-88 0 -102 -104h-100q8 91 63.5 144.5t138.5 53.5q87 0 140.5 -53t57.5 -145zM437 436h-98q-8 104 -102 104q-88 0 -102 -104h-98q8 88 62.5 143t139.5 55q87 0 140.5 -53t57.5 -145z M1835 -48h-99q-8 104 -99 104q-88 0 -102 -104h-101q8 87 62 143t141 56q88 0 141.5 -56t56.5 -143zM568 -48h-98q-8 104 -101 104q-87 0 -101 -104h-100q8 90 63 144.5t138 54.5q86 0 140.5 -54t58.5 -145zM1193 -302h-98q-8 105 -102 105q-90 0 -103 -105h-98 q8 89 63.5 144t139.5 55q87 0 140.5 -53.5t57.5 -145.5z" />
<glyph unicode="&#x489;" horiz-adv-x="1944" d="M1130 1434l-93 -353h-163l131 353h125zM618 955l-115 -116l-157 343l89 88zM1737 1056l-314 -183l-115 116l341 157zM411 406l-353 130v126l353 -93v-163zM1901 361l-352 93v163l352 -130v-126zM1614 -158l-90 -88l-183 314l116 116zM652 35l-342 -157l-88 89l314 183z M1085 -58l-130 -352h-126l93 352h163z" />
<glyph unicode="&#x48a;" horiz-adv-x="1660" d="M1275 1069h-4q-28 -34 -53 -63t-935 -1006h-222l303 1434h232l-190 -906q-16 -78 -34 -135h4l22 26l77 86l867 929h239l-261 -1228h240l-335 -592h-246l260 386h-194l187 888q24 109 43 181zM1428 1890q-51 -154 -169.5 -240t-274.5 -86q-153 0 -250 90.5t-101 235.5h201 q2 -84 44.5 -133t120.5 -49q76 0 135.5 47.5t89.5 134.5h204z" />
<glyph unicode="&#x48b;" horiz-adv-x="1274" d="M1162 1528q-51 -154 -169.5 -240t-274.5 -86q-153 0 -250 90.5t-101 235.5h201q2 -84 44.5 -133t120.5 -49q76 0 135.5 47.5t89.5 134.5h204zM1172 182l-304 -555h-231l247 373h-183l31 217h-4q-81 -114 -181 -178t-204 -64q-127 0 -194 72.5t-67 203.5q0 49 31 196 l122 577h242l-125 -589q-21 -112 -21 -134q0 -60 30 -95t90 -35q69 0 141.5 51t128.5 137.5t74 172.5l105 492h242l-147 -688l-29 -154h206z" />
<glyph unicode="&#x48c;" horiz-adv-x="1278" d="M595 1310h186l-41 -195h-185l-59 -277h228q209 0 329.5 -104t120.5 -283q0 -216 -150 -333.5t-434 -117.5h-519l237 1115h-175l42 195h174l27 124h246zM911 439q0 205 -256 205h-201l-94 -449h221q166 0 248 63t82 181z" />
<glyph unicode="&#x48d;" horiz-adv-x="1061" d="M38 0l257 1206h-118l31 146h117l36 164h240l-36 -164h123l-30 -146h-124l-118 -558h222q160 0 254 -75.5t94 -209.5q0 -168 -114 -265.5t-305 -97.5h-529zM380 478l-66 -308h203q217 0 217 180q0 63 -42.5 95.5t-117.5 32.5h-194z" />
<glyph unicode="&#x48e;" horiz-adv-x="1219" d="M1246 1041q0 -157 -75.5 -277.5t-214.5 -183.5l57 -123l-150 -79l-72 153q-71 -13 -162 -13h-210l-109 -518h-249l304 1434h432q210 0 329.5 -104t119.5 -289zM987 1023q0 96 -65 153.5t-189 57.5h-161l-110 -518h175q35 0 67 4l-78 168l151 80l88 -191q122 85 122 246z " />
<glyph unicode="&#x48f;" horiz-adv-x="1162" d="M1092 668q0 -181 -78 -342t-210 -250l77 -177l-157 -78l-80 181q-93 -27 -178 -27q-102 0 -194 29l-101 -477h-242l247 1170q12 57 27 169.5t15 157.5h239q0 -26 -8 -92.5t-14 -102.5h4q137 220 348 220q145 0 225 -102t80 -279zM850 646q0 106 -41 159t-117 53 q-75 0 -140.5 -54.5t-115 -150t-71.5 -204.5l-58 -266q28 -11 79.5 -19t98.5 -8q24 0 43.5 5.5t42.5 11.5l-72 166l158 77l62 -143q61 69 96 168.5t35 204.5z" />
<glyph unicode="&#x490;" horiz-adv-x="1009" d="M1119 1223h-550l-261 -1223h-248l305 1434h581l59 275h216z" />
<glyph unicode="&#x491;" horiz-adv-x="854" d="M849 838h-401l-178 -838h-241l218 1024h441l57 270h201z" />
<glyph unicode="&#x492;" horiz-adv-x="1069" d="M1153 1225h-554l-85 -399h344l-43 -208h-345l-131 -618h-246l132 618h-232l43 208h233l129 608h800z" />
<glyph unicode="&#x493;" horiz-adv-x="879" d="M919 838h-379l-54 -253h245l-39 -185h-245l-85 -400h-240l85 400h-202l38 185h203l93 439h619z" />
<glyph unicode="&#x494;" horiz-adv-x="1252" d="M35 -124q145 -82 322 -82q227 0 362.5 143t135.5 382q0 160 -99 250t-269 90h-41l-140 -659h-246l305 1434h787l-45 -211h-541l-74 -348h41q172 0 306.5 -65t208 -185t73.5 -279q0 -224 -95 -398t-270 -269.5t-400 -95.5q-106 0 -208 19.5t-161 46.5z" />
<glyph unicode="&#x495;" horiz-adv-x="1071" d="M-4 -146q137 -78 294 -78q185 0 292 109t107 290q0 132 -78.5 196.5t-222.5 64.5h-26l-93 -436h-241l218 1024h649l-38 -186h-410l-45 -210h33q224 0 362 -125t138 -330q0 -266 -175.5 -424.5t-471.5 -158.5q-210 0 -334 68z" />
<glyph unicode="&#x496;" horiz-adv-x="1805" d="M1268 734l281 -521h187l-128 -600h-227l84 387h-86l-320 657q-9 23 -16 54h-4l-152 -711h-231l149 702h-5l-41 -55l-584 -647h-293l708 744l-370 690h272l301 -629l19 -53h4l144 682h230l-143 -676h4q11 21 35 47l568 629h284z" />
<glyph unicode="&#x497;" horiz-adv-x="1581" d="M1125 515l207 -339h169l-119 -558h-209l92 382h-94l-274 504h-4l-107 -504h-229l108 506h-4l-489 -506h-280l550 534l-294 490h252l268 -483h4l102 483h230l-104 -485h4l473 485h271z" />
<glyph unicode="&#x498;" horiz-adv-x="1123" d="M1113 1121q0 -151 -98.5 -253t-272.5 -128v-4q119 -23 189 -109.5t70 -211.5q0 -117 -57.5 -210.5t-168.5 -154t-270 -72.5q49 -74 49 -145q0 -98 -63 -158.5t-173 -60.5q-76 0 -135 25l28 125q43 -25 95 -25q48 0 73 27t25 75q0 57 -38 135q-228 10 -382 90l46 225 q82 -54 190.5 -85t205.5 -31q156 0 241.5 65t85.5 183q0 213 -291 213h-166l41 205h169q181 0 269.5 64t88.5 180q0 82 -59 127.5t-163 45.5q-79 0 -184 -29.5t-169 -62.5l39 220q79 32 182.5 52t193.5 20q191 0 300 -90t109 -247z" />
<glyph unicode="&#x499;" horiz-adv-x="950" d="M900 797q0 -109 -74.5 -177t-216.5 -90v-4q105 -11 165 -74t60 -154q0 -137 -105 -220.5t-296 -97.5q49 -76 49 -147q0 -98 -63 -158.5t-173 -60.5q-76 0 -135 25l28 125q43 -25 95 -25q48 0 73 27t25 75q0 58 -38 136q-102 5 -186.5 23.5t-131.5 41.5l35 200 q154 -85 316 -85q130 0 199.5 40t69.5 109q0 140 -248 140h-167l31 163h164q136 0 210.5 38.5t74.5 108.5q0 60 -53.5 90t-145.5 30q-160 0 -319 -77l38 193q164 57 349 57q178 0 274 -63.5t96 -188.5z" />
<glyph unicode="&#x49a;" horiz-adv-x="1289" d="M1427 1434l-713 -705l320 -516h187l-126 -599h-226l83 386h-96l-137 234q-222 372 -258 464h-4l-147 -698h-249l304 1434h250l-142 -670h4l48 56q331 340 591 614h311z" />
<glyph unicode="&#x49b;" horiz-adv-x="1111" d="M629 537l216 -361h165l-119 -558h-209l92 382h-101l-282 528h-5l-112 -528h-242l218 1024h241l-94 -448h4l460 448h294z" />
<glyph unicode="&#x49c;" horiz-adv-x="1263" d="M1427 1434l-713 -705q62 -108 304 -498l139 -231h-301l-276 471l-51 -242h-85l74 352l-30 54l-27 63h-4l-147 -698h-249l304 1434h250l-142 -670h4l48 56l56 58l71 332h85l-46 -216l425 440h311z" />
<glyph unicode="&#x49d;" horiz-adv-x="1077" d="M630 537l314 -537h-271l-173 319l-43 -205h-80l66 315l-52 99h-5l-112 -528h-242l218 1024h241l-94 -448h4l93 90l49 229h80l-27 -127l265 256h294z" />
<glyph unicode="&#x49e;" horiz-adv-x="1263" d="M1427 1434l-713 -705l443 -729h-301l-395 698h-4l-147 -698h-249l244 1149h-151l36 171h151l24 114h250l-24 -114h200l-36 -171h-200l-82 -385h4l48 56l591 614h311z" />
<glyph unicode="&#x49f;" horiz-adv-x="1077" d="M631 546l313 -546h-271l-281 536h-4l-114 -536h-242l254 1190h-118l31 147h118l38 179h242l-39 -179h328l-31 -147h-328l-129 -605h4l459 439h294z" />
<glyph unicode="&#x4a0;" horiz-adv-x="1547" d="M1694 1434l-713 -705l442 -729h-301l-367 635q-11 20 -27 63h-4l-147 -698h-249l259 1224h-408l45 210h658l-142 -670h4l48 56l590 614h312z" />
<glyph unicode="&#x4a1;" horiz-adv-x="1247" d="M799 537l315 -537h-271l-282 528h-5l-112 -528h-242l178 838h-313l39 186h555l-94 -448h4l460 448h294z" />
<glyph unicode="&#x4a2;" horiz-adv-x="1579" d="M1527 1434l-260 -1220h197l-128 -600h-226l82 386h-220l130 614h-663l-128 -614h-251l304 1434h250l-128 -600h663l128 600h250z" />
<glyph unicode="&#x4a3;" horiz-adv-x="1246" d="M991 181h158l-120 -563h-209l91 382h-200l94 445h-440l-93 -445h-243l217 1024h243l-86 -400h440l85 400h242z" />
<glyph unicode="&#x4a4;" horiz-adv-x="1785" d="M1482 1225l-260 -1225h-250l130 614h-663l-128 -614h-251l304 1434h250l-128 -600h663l128 600h660l-45 -209h-410z" />
<glyph unicode="&#x4a5;" horiz-adv-x="1394" d="M1431 838h-301l-177 -838h-242l94 445h-440l-93 -445h-243l217 1024h243l-86 -400h440l85 400h542z" />
<glyph unicode="&#x4a6;" horiz-adv-x="2138" d="M1408 875h41q172 0 306.5 -65t208 -185t73.5 -279q0 -224 -96 -399t-271 -269.5t-398 -94.5q-91 0 -194.5 17.5t-174.5 49.5l48 226q145 -82 322 -82q227 0 362.5 143t135.5 382q0 160 -99 250t-269 90h-41l-139 -659h-247l257 1214h-667l-257 -1214h-248l303 1434h1164z " />
<glyph unicode="&#x4a7;" horiz-adv-x="1727" d="M949 0h-241l178 838h-437l-178 -838h-242l217 1024h921l-85 -396h34q235 0 369 -120t134 -335q0 -166 -82.5 -299.5t-232 -208.5t-336.5 -75q-207 0 -333 68l42 196q135 -78 294 -78q176 0 287 112t111 287q0 132 -78 196.5t-223 64.5h-26z" />
<glyph unicode="&#x4a8;" horiz-adv-x="1505" d="M124 562q0 258 102.5 467.5t279 319t399.5 109.5q176 0 354 -78l-52 -239q-144 100 -304 100q-146 0 -264 -83t-187 -239t-69 -335q0 -201 74 -297.5t210 -96.5q62 0 92 8q-53 59 -84.5 149t-31.5 183q0 239 118 381.5t320 142.5q164 0 259 -99t95 -263q0 -294 -262 -494 q22 -6 50 -6q52 0 107 12t97 33l-46 -217q-89 -40 -229 -40q-122 0 -226 55q-134 -59 -287 -59q-239 0 -377 156t-138 430zM1192 665q0 182 -134 182q-77 0 -124.5 -86t-47.5 -238q0 -70 24.5 -132.5t62.5 -92.5q100 70 159.5 170t59.5 197z" />
<glyph unicode="&#x4a9;" horiz-adv-x="1181" d="M909 491q0 110 -82 110q-54 0 -89 -54.5t-35 -138.5q0 -123 50 -171q68 46 112 116.5t44 137.5zM838 810q-93 58 -185 58q-95 0 -170.5 -56.5t-123.5 -167t-48 -225.5q0 -126 56 -198t157 -72q25 0 52 5q-31 41 -55 107t-24 152q0 153 97.5 254.5t237.5 101.5 q128 0 205.5 -71.5t77.5 -186.5q0 -225 -205 -360l41 -2q75 0 135 30l-36 -167q-68 -31 -163 -31q-96 0 -178 40q-51 -20 -117.5 -33t-126.5 -13q-184 0 -290 113.5t-106 306.5q0 188 74 338t210 233t309 83q123 0 224 -45z" />
<glyph unicode="&#x4aa;" horiz-adv-x="1304" d="M1319 1141q-167 100 -347 100q-174 0 -309.5 -79.5t-209.5 -220.5t-74 -318q0 -206 113.5 -319.5t307.5 -113.5q99 0 186 22t181 73l-53 -240q-136 -59 -320 -69q29 -63 29 -118q0 -95 -48.5 -150t-153.5 -55q-74 0 -133 26l24 108q57 -22 98 -22q34 0 55 17t21 66 q0 54 -27 131q-246 23 -392.5 189.5t-146.5 432.5q0 250 107.5 447.5t303.5 303.5t454 106q202 0 386 -78z" />
<glyph unicode="&#x4ab;" horiz-adv-x="919" d="M882 782q-38 32 -94.5 54t-124.5 22q-95 0 -173.5 -56t-128.5 -161.5t-50 -221.5q0 -124 55.5 -188.5t158.5 -64.5q62 0 131.5 25t124.5 61l-42 -203q-107 -57 -219 -70q30 -67 30 -121q0 -205 -207 -205q-69 0 -128 26l24 108q57 -22 98 -22q34 0 55 17t21 66 q0 53 -27 132q-150 21 -233.5 130t-83.5 285q0 178 77 330.5t214.5 238t311.5 85.5q73 0 145 -17.5t112 -44.5z" />
<glyph unicode="&#x4ac;" horiz-adv-x="1139" d="M1247 1226h-406l-215 -1012h199l-128 -600h-226l82 386h-219l260 1226h-414l45 208h1067z" />
<glyph unicode="&#x4ad;" horiz-adv-x="1834" d="M1722 773q0 -50 -31 -197l-84 -395h158l-120 -563h-210l92 382h-199l125 592q20 107 20 131q0 135 -119 135q-61 0 -129.5 -53t-121 -136t-70.5 -164.5t-110 -504.5h-242l126 592q20 107 20 131q0 59 -32.5 97t-86.5 38q-61 0 -131 -53t-124 -137.5t-70 -164.5l-108 -503 h-243l155 716q36 172 53 308h236q-12 -117 -31 -220h4q79 116 177 180.5t195 64.5q235 0 252 -250q84 122 185.5 186t207.5 64q256 0 256 -276z" />
<glyph unicode="&#x4ae;" horiz-adv-x="1190" d="M602 0h-249l112 527l-263 907h266l146 -603l10 -54l5 -46h4q31 68 51 97l413 606h278l-662 -902z" />
<glyph unicode="&#x4af;" horiz-adv-x="1046" d="M1144 1024l-611 -1021l-101 -474h-239l100 476l-188 1019h253l74 -630q12 -108 12 -182h4l79 156l363 656h254z" />
<glyph unicode="&#x4b0;" horiz-adv-x="1188" d="M723 539h322l-42 -197h-329l-72 -342h-249l72 342h-321l42 197h311l-19 82l-236 813h266l146 -603l10 -54l6 -46h4q22 47 49 90.5t414 612.5h278l-609 -829z" />
<glyph unicode="&#x4b1;" horiz-adv-x="1046" d="M1144 1024l-612 -1024h320l-37 -169h-319l-64 -302h-239l63 302h-308l36 169h308l1 5l-188 1019h253l75 -639q11 -95 11 -173h4q50 104 84 167l358 645h254z" />
<glyph unicode="&#x4b2;" horiz-adv-x="1345" d="M843 714l206 -501h181l-127 -599h-225l83 386h-105l-179 502q-8 22 -17 92h-4q-21 -52 -81 -130l-367 -464h-307l626 736l-290 698h288l165 -488q14 -44 17 -93h5q28 57 55 90l385 491h289z" />
<glyph unicode="&#x4b3;" horiz-adv-x="1071" d="M669 507l152 -331h157l-119 -558h-208l96 382h-112l-110 293l-32 97h-5q-21 -32 -39.5 -58.5t-260.5 -331.5h-283l458 514l-224 510h266l104 -298q18 -51 29 -102h4q14 21 33 48t274 352h273z" />
<glyph unicode="&#x4b4;" horiz-adv-x="1864" d="M332 0l260 1226h-413l45 208h1067l-45 -208h-407l-213 -1010h667l259 1218h247l-259 -1218h200l-128 -602h-226l83 386h-1137z" />
<glyph unicode="&#x4b5;" horiz-adv-x="1228" d="M732 223q-84 -118 -186 -183t-203 -65q-127 0 -194 72.5t-67 203.5q0 49 31 196l122 577h242l-125 -589q-21 -112 -21 -134q0 -60 30 -95t90 -35q69 0 141.5 51t128.5 137.5t74 172.5l105 492h242l-147 -688q-11 -44 -11 -95q0 -67 82 -67l73 4l-131 -559h-213l110 375 q-91 0 -134 29.5t-43 93.5q0 52 10 106h-6zM1095 1472q-12 -114 -78.5 -182.5t-159.5 -68.5q-50 0 -83.5 13.5t-60.5 30t-51 30t-54 13.5q-51 0 -78.5 -32t-33.5 -74h-125q10 111 78 181.5t168 70.5q46 0 78 -14t58 -31t51 -31t59 -14q43 0 71.5 30t35.5 78h125z" />
<glyph unicode="&#x4b6;" horiz-adv-x="1482" d="M1172 214h198l-128 -600h-227l83 386h-220l124 590q-226 -110 -433 -110q-170 0 -262.5 80t-92.5 226q0 54 20 141l105 507h249l-108 -504q-12 -60 -12 -96q0 -66 48.5 -105t139.5 -39q179 0 391 107l134 637h249z" />
<glyph unicode="&#x4b7;" horiz-adv-x="1191" d="M1115 1024l-180 -843h159l-120 -562h-210l91 381h-201l83 394q-173 -104 -337 -104q-127 0 -202.5 69.5t-75.5 188.5q0 34 5 68t86 408h236l-73 -338q-12 -55 -12 -88q0 -57 36 -91t105 -34q72 0 134.5 24t131.5 65l100 462h244z" />
<glyph unicode="&#x4b8;" horiz-adv-x="1412" d="M1127 0h-249l124 590q-141 -71 -282 -96l-63 -298h-96l61 286l-26 -2h-27q-170 0 -262.5 80t-92.5 226q0 54 20 141l105 507h249l-108 -504q-12 -60 -12 -96q0 -74 48 -109t150 -35l73 344h96l-72 -335q134 23 284 98l134 637h249z" />
<glyph unicode="&#x4b9;" horiz-adv-x="1156" d="M1115 1024l-218 -1024h-243l94 444q-99 -62 -182 -81l-52 -249h-96l49 230l-56 -4q-127 0 -202.5 69.5t-75.5 188.5q0 34 5 67.5t75 358.5h236l-62 -288q-12 -55 -12 -88q0 -49 31 -85t99 -40l49 231h96l-47 -221q82 18 179 79l89 412h244z" />
<glyph unicode="&#x4ba;" horiz-adv-x="1420" d="M906 0l109 526q13 65 13 96q0 66 -45 105t-143 39q-179 0 -391 -107l-139 -659h-249l303 1434h249l-120 -568q226 110 433 110q170 0 262.5 -80t92.5 -226q0 -58 -19 -141l-109 -529h-247z" />
<glyph unicode="&#x4bb;" horiz-adv-x="1183" d="M1093 773q0 -54 -30 -197l-122 -576h-242l124 592q20 107 20 131q0 135 -122 135q-65 0 -137.5 -51.5t-128 -135.5t-73.5 -171l-107 -500h-243l323 1516h242l-152 -711h4q83 116 184 180t202 64q128 0 193 -72.5t65 -203.5z" />
<glyph unicode="&#x4bc;" horiz-adv-x="1831" d="M647 610l-2 -31q0 -191 106.5 -294t299.5 -103q232 0 481 149l-52 -241q-99 -58 -210 -86.5t-261 -28.5q-294 0 -461.5 160.5t-167.5 450.5v13l1 11h-25q-118 0 -191.5 60.5t-73.5 164.5q0 130 88 252h181q-29 -45 -50 -88.5t-21 -90.5q0 -48 27 -71t87 -23h4 q48 193 164 340.5t284 225t369 77.5q165 0 292.5 -65.5t196 -189t68.5 -285.5q0 -117 -41 -307h-1093zM1514 814q9 49 9 90q0 158 -84.5 248.5t-241.5 90.5q-189 0 -330 -115t-194 -314h841z" />
<glyph unicode="&#x4bd;" horiz-adv-x="1319" d="M1267 772q0 -182 -171 -271t-523 -93l-2 -11v-20q0 -103 61 -161t173 -58q76 0 162.5 27.5t158.5 70.5l-40 -199q-151 -82 -332 -82q-200 0 -311 113.5t-111 323.5h-16q-115 0 -179 52t-64 147q0 63 21.5 115t58.5 104h159q-67 -99 -67 -168q0 -80 109 -84 q51 208 205.5 339.5t358.5 131.5q160 0 254.5 -76t94.5 -201zM1033 766q0 50 -36.5 79.5t-101.5 29.5q-105 0 -190 -85t-114 -216q442 0 442 192z" />
<glyph unicode="&#x4be;" horiz-adv-x="1831" d="M647 610l-2 -31q0 -191 106.5 -294t299.5 -103q232 0 481 149l-52 -241q-99 -58 -210 -86.5t-261 -28.5q-294 0 -461.5 160.5t-167.5 450.5v13l1 11h-25q-118 0 -191.5 60.5t-73.5 164.5q0 130 88 252h181q-29 -45 -50 -88.5t-21 -90.5q0 -48 27 -71t87 -23h4 q48 193 164 340.5t284 225t369 77.5q165 0 292.5 -65.5t196 -189t68.5 -285.5q0 -117 -41 -307h-1093zM1514 814q9 49 9 90q0 158 -84.5 248.5t-241.5 90.5q-189 0 -330 -115t-194 -314h841zM893 0h221l-82 -385h-221z" />
<glyph unicode="&#x4bf;" horiz-adv-x="1319" d="M1267 772q0 -182 -171 -271t-523 -93l-2 -11v-20q0 -103 61 -161t173 -58q76 0 162.5 27.5t158.5 70.5l-40 -199q-151 -82 -332 -82q-200 0 -311 113.5t-111 323.5h-16q-115 0 -179 52t-64 147q0 63 21.5 115t58.5 104h159q-67 -99 -67 -168q0 -80 109 -84 q51 208 205.5 339.5t358.5 131.5q160 0 254.5 -76t94.5 -201zM1033 766q0 50 -36.5 79.5t-101.5 29.5q-105 0 -190 -85t-114 -216q442 0 442 192zM638 0h200l-79 -374h-200z" />
<glyph unicode="&#x4c0;" horiz-adv-x="597" d="M310 0h-249l303 1434h250z" />
<glyph unicode="&#x4c1;" horiz-adv-x="1778" d="M1268 734l391 -734h-280l-320 657q-9 23 -16 54h-4l-152 -711h-231l149 702h-5l-41 -55l-584 -647h-293l708 744l-370 690h272l301 -629l19 -53h4l144 682h230l-143 -676h4q11 21 35 47l568 629h284zM1527 1890q-51 -154 -169.5 -240t-274.5 -86q-153 0 -250 90.5 t-101 235.5h201q2 -84 44.5 -133t120.5 -49q76 0 135.5 47.5t89.5 134.5h204z" />
<glyph unicode="&#x4c2;" horiz-adv-x="1559" d="M1125 515l307 -515h-261l-274 504h-4l-107 -504h-229l108 506h-4l-489 -506h-281l551 534l-294 490h252l268 -483h4l102 483h230l-104 -485h4l473 485h271zM1350 1528q-51 -154 -169.5 -240t-274.5 -86q-153 0 -250 90.5t-101 235.5h201q2 -84 44.5 -133t120.5 -49 q76 0 135.5 47.5t89.5 134.5h204z" />
<glyph unicode="&#x4c3;" horiz-adv-x="1260" d="M1427 1434l-681 -652q169 -42 266 -167t97 -296q0 -214 -94.5 -382.5t-267 -261t-389.5 -92.5q-91 0 -194.5 17.5t-174.5 49.5l47 226q145 -82 323 -82q222 0 355.5 136.5t133.5 360.5q0 150 -97.5 232t-271.5 82h-41l-128 -605h-249l304 1434h250l-137 -642h4l25 27 l609 615h311z" />
<glyph unicode="&#x4c4;" horiz-adv-x="1094" d="M1156 1024l-514 -461q141 -39 218 -141t77 -246q0 -175 -79 -308.5t-226 -205.5t-337 -72q-101 0 -190.5 18t-148.5 50l42 196q135 -78 292 -78q183 0 288 99t105 271q0 130 -79.5 195t-221.5 65h-22l-86 -406h-241l218 1024h240l-95 -448h4l462 448h294z" />
<glyph unicode="&#x4c5;" horiz-adv-x="1518" d="M1435 213l-315 -599h-229l215 386h-208l259 1220h-354q-198 -585 -299 -819t-203.5 -326.5t-250.5 -92.5q-93 0 -145 18l44 208q34 -17 83 -17q63 0 114 43.5t108.5 155.5t169.5 413t220 631h808l-260 -1221h243z" />
<glyph unicode="&#x4c6;" horiz-adv-x="1251" d="M1175 186l-293 -568h-206l205 382h-207l178 838h-216q-124 -396 -205 -553.5t-177.5 -228t-231.5 -70.5q-25 0 -64.5 5t-51.5 10l33 187q25 -9 64 -9q82 0 149.5 76.5t136 244t174.5 524.5h670l-177 -838h219z" />
<glyph unicode="&#x4c7;" horiz-adv-x="1593" d="M1527 1434l-260 -1221h242l-315 -599h-229l215 386h-208l130 614h-663l-128 -614h-251l304 1434h250l-128 -600h663l128 600h250z" />
<glyph unicode="&#x4c8;" horiz-adv-x="1288" d="M993 186h219l-293 -568h-206l205 382h-207l94 445h-440l-93 -445h-243l217 1024h243l-86 -400h440l85 400h242z" />
<glyph unicode="&#x4c9;" horiz-adv-x="1593" d="M1527 1434l-260 -1221h242l-315 -599h-229l215 386h-208l130 614h-663l-128 -614h-251l304 1434h250l-128 -600h663l128 600h250z" />
<glyph unicode="&#x4ca;" horiz-adv-x="1288" d="M993 186h219l-293 -568h-206l205 382h-207l94 445h-440l-93 -445h-243l217 1024h243l-86 -400h440l85 400h242z" />
<glyph unicode="&#x4cb;" horiz-adv-x="1412" d="M1127 0h-214l-82 -386h-231l134 600h188l80 376q-226 -110 -433 -110q-170 0 -262.5 80t-92.5 226q0 54 20 141l105 507h249l-108 -504q-12 -60 -12 -96q0 -66 48.5 -105t139.5 -39q179 0 391 107l134 637h249z" />
<glyph unicode="&#x4cc;" horiz-adv-x="1175" d="M1115 1024l-218 -1024h-202l-82 -382h-208l130 563h157l45 213q-173 -104 -337 -104q-127 0 -202.5 69.5t-75.5 188.5q0 36 5.5 71.5t85.5 404.5h236l-73 -338q-12 -55 -12 -88q0 -57 36 -91t105 -34q72 0 134.5 24t131.5 65l100 462h244z" />
<glyph unicode="&#x4cd;" horiz-adv-x="1811" d="M1727 213l-315 -599h-229l215 386h-186l193 910q28 126 76 296h-6q-51 -113 -161 -259l-406 -545h-154l-164 527q-18 55 -33 135t-17 142h-7q-35 -221 -52 -297l-194 -909h-226l304 1434h292l187 -594q30 -95 35 -179h5q55 120 113 198l429 575h319l-260 -1221h242z" />
<glyph unicode="&#x4ce;" horiz-adv-x="1581" d="M1505 186l-293 -568h-206l205 382h-192l174 820q-7 -23 -100 -189l-362 -631h-212l-98 631q-13 81 -20 188l-174 -819h-195l217 1024h289l99 -626q12 -74 22 -192q21 43 51.5 98.5t410.5 719.5h344l-179 -838h219z" />
<glyph unicode="&#x4cf;" horiz-adv-x="541" d="M38 0l320 1516h243l-320 -1516h-243z" />
<glyph unicode="&#x4d0;" horiz-adv-x="1367" d="M992 0l-53 360h-561l-200 -360h-281l840 1434h281l227 -1434h-253zM839 1149v35l2 35h-5q-20 -60 -47 -110l-308 -549h432l-70 540q-4 18 -4 49zM1320 1890q-51 -154 -169.5 -240t-274.5 -86q-153 0 -250 90.5t-101 235.5h201q2 -84 44.5 -133t120.5 -49q76 0 135.5 47.5 t89.5 134.5h204z" />
<glyph unicode="&#x4d1;" horiz-adv-x="1162" d="M935 0h-245q0 25 6 91.5t12 102.5h-4q-63 -92 -108.5 -133.5t-98.5 -63.5t-120 -22q-146 0 -227 103t-81 285q0 186 87.5 354t234 250t341.5 82q161 0 383 -48l-141 -668q-15 -71 -27 -174.5t-12 -158.5zM843 853q-62 15 -137 15q-114 0 -201 -59.5t-140 -180.5t-53 -253 q0 -100 38.5 -154.5t112.5 -54.5q108 0 194.5 113t126.5 299zM1180 1528q-51 -154 -169.5 -240t-274.5 -86q-153 0 -250 90.5t-101 235.5h201q2 -84 44.5 -133t120.5 -49q76 0 135.5 47.5t89.5 134.5h204z" />
<glyph unicode="&#x4d2;" horiz-adv-x="1367" d="M992 0l-53 360h-561l-200 -360h-281l840 1434h281l227 -1434h-253zM839 1149v35l2 35h-5q-20 -60 -47 -110l-308 -549h432l-70 540q-4 18 -4 49zM1224 1668q0 -50 -35 -84.5t-91 -34.5t-91 35t-35 84q0 51 36 83.5t89 32.5q54 0 90.5 -33t36.5 -83zM803 1668 q0 -51 -37.5 -85t-89.5 -34q-51 0 -89 33.5t-38 85.5q0 49 36 82.5t91 33.5q54 0 90.5 -33t36.5 -83z" />
<glyph unicode="&#x4d3;" horiz-adv-x="1162" d="M935 0h-245q0 25 6 91.5t12 102.5h-4q-63 -92 -108.5 -133.5t-98.5 -63.5t-120 -22q-146 0 -227 103t-81 285q0 186 87.5 354t234 250t341.5 82q161 0 383 -48l-141 -668q-15 -71 -27 -174.5t-12 -158.5zM843 853q-62 15 -137 15q-114 0 -201 -59.5t-140 -180.5t-53 -253 q0 -100 38.5 -154.5t112.5 -54.5q108 0 194.5 113t126.5 299zM1081 1321q0 -50 -35 -84.5t-91 -34.5t-91 35t-35 84q0 51 36 83.5t89 32.5q54 0 90.5 -33t36.5 -83zM660 1321q0 -51 -37.5 -85t-89.5 -34q-51 0 -89 33.5t-38 85.5q0 49 36 82.5t91 33.5q54 0 90.5 -33 t36.5 -83z" />
<glyph unicode="&#x4d4;" horiz-adv-x="1842" d="M1875 1225h-530l-86 -405h491l-44 -208h-491l-87 -405h561l-42 -207h-810l77 360h-492l-261 -360h-293l1075 1434h976zM1043 1227l-470 -656h385l138 656h-53z" />
<glyph unicode="&#x4d5;" horiz-adv-x="1726" d="M1701 772q0 -184 -172.5 -272.5t-524.5 -91.5l-1 -28q0 -104 61.5 -163t174.5 -59q76 0 162.5 27.5t158.5 70.5l-39 -199q-154 -82 -333 -82q-157 0 -258 76t-130 214h-4q-185 -290 -421 -290q-143 0 -224.5 99.5t-81.5 276.5q0 133 52.5 268.5t142.5 231t214.5 147 t278.5 51.5q167 0 326 -69q120 69 274 69q155 0 249.5 -76t94.5 -201zM1465 765q0 51 -38 80.5t-100 29.5q-107 0 -191 -83.5t-112 -216.5q441 0 441 190zM906 837q-70 31 -155 31q-124 0 -221.5 -64.5t-158 -189.5t-60.5 -251q0 -89 31 -143t94 -54q92 0 183 106.5 t170 315.5q65 173 117 249z" />
<glyph unicode="&#x4d6;" horiz-adv-x="1053" d="M1097 1226h-527l-86 -406h490l-45 -208h-489l-87 -405h561l-43 -207h-810l304 1434h777zM1229 1890q-51 -154 -169.5 -240t-274.5 -86q-153 0 -250 90.5t-101 235.5h201q2 -84 44.5 -133t120.5 -49q76 0 135.5 47.5t89.5 134.5h204z" />
<glyph unicode="&#x4d7;" horiz-adv-x="1031" d="M1004 772q0 -185 -172 -272.5t-522 -91.5l-2 -11v-20q0 -104 62 -161.5t173 -57.5q76 0 162.5 27.5t158.5 70.5l-40 -199q-151 -82 -333 -82q-199 0 -310.5 111t-111.5 313q0 174 76 325.5t212 238t298 86.5q161 0 255 -76t94 -201zM770 766q0 50 -36.5 79.5t-100.5 29.5 q-106 0 -192 -87t-113 -214q442 0 442 192zM1127 1530q-51 -154 -169.5 -240t-274.5 -86q-153 0 -250 90.5t-101 235.5h201q2 -84 44.5 -133t120.5 -49q76 0 135.5 47.5t89.5 134.5h204z" />
<glyph unicode="&#x4d8;" horiz-adv-x="1559" d="M107 515q0 121 41 307h1093l3 29q0 198 -105 298.5t-302 100.5q-228 0 -481 -148l52 241q112 65 226.5 90t245.5 25q294 0 461.5 -161t167.5 -450q0 -239 -106 -440.5t-300.5 -316t-437.5 -114.5q-166 0 -293 65.5t-196 188.5t-69 285zM375 619q-9 -49 -9 -90 q0 -160 86.5 -253t234.5 -93q189 0 330.5 115.5t197.5 320.5h-840z" />
<glyph unicode="&#x4d9;" horiz-adv-x="1031" d="M26 252q0 184 171.5 271.5t522.5 91.5l2 11v21q0 103 -62 161t-173 58q-66 0 -152 -24.5t-169 -73.5l40 199q151 82 333 82q199 0 310.5 -111t111.5 -313q0 -174 -76 -325.5t-212 -238t-298 -86.5q-164 0 -256.5 76.5t-92.5 200.5zM260 258q0 -51 36.5 -80.5t100.5 -29.5 q106 0 192 87t113 214q-221 0 -331.5 -46.5t-110.5 -144.5z" />
<glyph unicode="&#x4da;" horiz-adv-x="1559" d="M107 515q0 121 41 307h1093l3 29q0 198 -105 298.5t-302 100.5q-228 0 -481 -148l52 241q112 65 226.5 90t245.5 25q294 0 461.5 -161t167.5 -450q0 -239 -106 -440.5t-300.5 -316t-437.5 -114.5q-166 0 -293 65.5t-196 188.5t-69 285zM375 619q-9 -49 -9 -90 q0 -160 86.5 -253t234.5 -93q189 0 330.5 115.5t197.5 320.5h-840zM1286 1686q0 -50 -35 -84.5t-91 -34.5t-91 35t-35 84q0 51 36 83.5t89 32.5q54 0 90.5 -33t36.5 -83zM865 1686q0 -51 -37.5 -85t-89.5 -34q-51 0 -89 33.5t-38 85.5q0 49 36 82.5t91 33.5q54 0 90.5 -33 t36.5 -83z" />
<glyph unicode="&#x4db;" horiz-adv-x="1031" d="M26 252q0 184 171.5 271.5t522.5 91.5l2 11v21q0 103 -62 161t-173 58q-66 0 -152 -24.5t-169 -73.5l40 199q151 82 333 82q199 0 310.5 -111t111.5 -313q0 -174 -76 -325.5t-212 -238t-298 -86.5q-164 0 -256.5 76.5t-92.5 200.5zM260 258q0 -51 36.5 -80.5t100.5 -29.5 q106 0 192 87t113 214q-221 0 -331.5 -46.5t-110.5 -144.5zM954 1321q0 -50 -35 -84.5t-91 -34.5t-91 35t-35 84q0 51 36 83.5t89 32.5q54 0 90.5 -33t36.5 -83zM533 1321q0 -51 -37.5 -85t-89.5 -34q-51 0 -89 33.5t-38 85.5q0 49 36 82.5t91 33.5q54 0 90.5 -33t36.5 -83z " />
<glyph unicode="&#x4dc;" horiz-adv-x="1778" d="M1268 734l391 -734h-280l-320 657q-9 23 -16 54h-4l-152 -711h-231l149 702h-5l-41 -55l-584 -647h-293l708 744l-370 690h272l301 -629l19 -53h4l144 682h230l-143 -676h4q11 21 35 47l568 629h284zM1437 1686q0 -50 -35 -84.5t-91 -34.5t-91 35t-35 84q0 51 36 83.5 t89 32.5q54 0 90.5 -33t36.5 -83zM1016 1686q0 -51 -37.5 -85t-89.5 -34q-51 0 -89 33.5t-38 85.5q0 49 36 82.5t91 33.5q54 0 90.5 -33t36.5 -83z" />
<glyph unicode="&#x4dd;" horiz-adv-x="1559" d="M1125 515l307 -515h-261l-274 504h-4l-107 -504h-229l108 506h-4l-489 -506h-281l551 534l-294 490h252l268 -483h4l102 483h230l-104 -485h4l473 485h271zM1254 1321q0 -50 -35 -84.5t-91 -34.5t-91 35t-35 84q0 51 36 83.5t89 32.5q54 0 90.5 -33t36.5 -83zM833 1321 q0 -51 -37.5 -85t-89.5 -34q-51 0 -89 33.5t-38 85.5q0 49 36 82.5t91 33.5q54 0 90.5 -33t36.5 -83z" />
<glyph unicode="&#x4de;" horiz-adv-x="1123" d="M1113 1121q0 -151 -98.5 -253t-272.5 -128v-4q119 -23 189 -109.5t70 -211.5q0 -129 -73 -232.5t-202.5 -155.5t-306.5 -52q-259 0 -435 91l46 225q82 -54 190.5 -85t205.5 -31q156 0 241.5 65t85.5 183q0 213 -291 213h-166l41 205h169q181 0 269.5 64t88.5 180 q0 82 -59 127.5t-163 45.5q-79 0 -184 -29.5t-169 -62.5l39 220q79 32 182.5 52t193.5 20q191 0 300 -90t109 -247zM1078 1686q0 -50 -35 -84.5t-91 -34.5t-91 35t-35 84q0 51 36 83.5t89 32.5q54 0 90.5 -33t36.5 -83zM657 1686q0 -51 -37.5 -85t-89.5 -34q-51 0 -89 33.5 t-38 85.5q0 49 36 82.5t91 33.5q54 0 90.5 -33t36.5 -83z" />
<glyph unicode="&#x4df;" horiz-adv-x="950" d="M900 797q0 -109 -74.5 -177t-216.5 -90v-4q105 -11 165 -74t60 -154q0 -99 -55.5 -170.5t-164.5 -111.5t-268 -40q-104 0 -206 18t-164 48l35 200q154 -85 316 -85q130 0 199.5 40t69.5 109q0 140 -248 140h-167l31 163h164q136 0 210.5 38.5t74.5 108.5q0 60 -53.5 90 t-145.5 30q-160 0 -319 -77l38 193q164 57 349 57q178 0 274 -63.5t96 -188.5zM917 1321q0 -50 -35 -84.5t-91 -34.5t-91 35t-35 84q0 51 36 83.5t89 32.5q54 0 90.5 -33t36.5 -83zM496 1321q0 -51 -37.5 -85t-89.5 -34q-51 0 -89 33.5t-38 85.5q0 49 36 82.5t91 33.5 q54 0 90.5 -33t36.5 -83z" />
<glyph unicode="&#x4e0;" horiz-adv-x="1104" d="M29 274q80 -46 179.5 -76t202.5 -30q163 0 253 71t90 198q0 112 -86.5 174.5t-230.5 62.5h-64l-44 68l459 484h-551l43 208h885l-23 -111l-482 -498q161 -25 255 -125t94 -248q0 -143 -76 -251t-213 -167t-308 -59q-278 0 -431 84z" />
<glyph unicode="&#x4e1;" horiz-adv-x="960" d="M-150 -181q72 -50 171.5 -79.5t186.5 -29.5q199 0 302 85t103 239q0 242 -345 242h-98l19 91l463 470h-553l39 187h864l-24 -111l-472 -477q161 -24 258 -126.5t97 -252.5q0 -252 -175.5 -394.5t-476.5 -142.5q-249 0 -405 86z" />
<glyph unicode="&#x4e2;" horiz-adv-x="1563" d="M1277 0h-232l187 888q24 109 43 181h-4q-28 -34 -53 -63t-935 -1006h-222l303 1434h232l-190 -906q-16 -78 -34 -135h4l22 26l77 86l867 929h239zM1263 1567h-547l27 140h547z" />
<glyph unicode="&#x4e3;" horiz-adv-x="1184" d="M941 0h-240l31 217h-4q-81 -114 -181 -178t-204 -64q-127 0 -194 72.5t-67 203.5q0 49 31 196l122 577h242l-125 -589q-21 -112 -21 -134q0 -60 30 -95t90 -35q69 0 141.5 51t128.5 137.5t74 172.5l105 492h242l-147 -688q-39 -186 -54 -336zM979 1202h-547l27 140h547z " />
<glyph unicode="&#x4e4;" horiz-adv-x="1563" d="M1277 0h-232l187 888q24 109 43 181h-4q-28 -34 -53 -63t-935 -1006h-222l303 1434h232l-190 -906q-16 -78 -34 -135h4l22 26l77 86l867 929h239zM1337 1686q0 -50 -35 -84.5t-91 -34.5t-91 35t-35 84q0 51 36 83.5t89 32.5q54 0 90.5 -33t36.5 -83zM916 1686 q0 -51 -37.5 -85t-89.5 -34q-51 0 -89 33.5t-38 85.5q0 49 36 82.5t91 33.5q54 0 90.5 -33t36.5 -83z" />
<glyph unicode="&#x4e5;" horiz-adv-x="1184" d="M941 0h-240l31 217h-4q-81 -114 -181 -178t-204 -64q-127 0 -194 72.5t-67 203.5q0 49 31 196l122 577h242l-125 -589q-21 -112 -21 -134q0 -60 30 -95t90 -35q69 0 141.5 51t128.5 137.5t74 172.5l105 492h242l-147 -688q-39 -186 -54 -336zM1069 1321q0 -50 -35 -84.5 t-91 -34.5t-91 35t-35 84q0 51 36 83.5t89 32.5q54 0 90.5 -33t36.5 -83zM648 1321q0 -51 -37.5 -85t-89.5 -34q-51 0 -89 33.5t-38 85.5q0 49 36 82.5t91 33.5q54 0 90.5 -33t36.5 -83z" />
<glyph unicode="&#x4e6;" horiz-adv-x="1549" d="M1499 847q0 -232 -98.5 -434.5t-272.5 -320t-413 -117.5q-175 0 -309.5 77t-208 218t-73.5 319q0 188 59 348t171.5 281.5t252 180.5t304.5 59q173 0 307.5 -75.5t207.5 -215t73 -320.5zM1239 838q0 186 -95.5 294.5t-258.5 108.5q-136 0 -253.5 -85.5t-183 -240.5 t-65.5 -325q0 -183 93.5 -291.5t258.5 -108.5q143 0 257.5 84t180.5 241t66 323zM1288 1685q0 -50 -35 -84.5t-91 -34.5t-91 35t-35 84q0 51 36 83.5t89 32.5q54 0 90.5 -33t36.5 -83zM867 1685q0 -51 -37.5 -85t-89.5 -34q-51 0 -89 33.5t-38 85.5q0 49 36 82.5t91 33.5 q54 0 90.5 -33t36.5 -83z" />
<glyph unicode="&#x4e7;" horiz-adv-x="1137" d="M1067 631q0 -186 -74.5 -339.5t-206 -235t-303.5 -81.5q-193 0 -303.5 111t-110.5 307q0 186 74.5 338t205.5 235t304 83q190 0 302 -111.5t112 -306.5zM823 625q0 107 -49.5 170t-137.5 63q-91 0 -165 -62.5t-116.5 -169.5t-42.5 -229q0 -108 50.5 -169.5t137.5 -61.5 q93 0 167.5 62.5t115 169.5t40.5 227zM1048 1321q0 -50 -35 -84.5t-91 -34.5t-91 35t-35 84q0 51 36 83.5t89 32.5q54 0 90.5 -33t36.5 -83zM627 1321q0 -51 -37.5 -85t-89.5 -34q-51 0 -89 33.5t-38 85.5q0 49 36 82.5t91 33.5q54 0 90.5 -33t36.5 -83z" />
<glyph unicode="&#x4e8;" horiz-adv-x="1549" d="M1499 847q0 -244 -103.5 -448.5t-280.5 -314t-400 -109.5q-175 0 -309.5 77t-208 218t-73.5 319q0 238 100 441t279.5 315.5t407.5 112.5q173 0 307.5 -75.5t207.5 -215t73 -320.5zM383 590q0 -183 93.5 -291.5t258.5 -108.5t296.5 118t175.5 309h-824v-27zM885 1241 q-163 0 -294 -119.5t-177 -307.5h824q0 203 -93 315t-260 112z" />
<glyph unicode="&#x4e9;" horiz-adv-x="1137" d="M1067 631q0 -186 -74.5 -339.5t-206 -235t-303.5 -81.5q-193 0 -303.5 111t-110.5 307q0 186 74.5 338t205.5 235t304 83q190 0 302 -111.5t112 -306.5zM823 625q0 107 -49.5 170t-137.5 63q-97 0 -173 -68t-117 -188h477v23zM500 166q198 0 295 273h-481l-2 -19v-17 q0 -110 50 -173.5t138 -63.5z" />
<glyph unicode="&#x4ea;" horiz-adv-x="1549" d="M1499 847q0 -244 -103.5 -448.5t-280.5 -314t-400 -109.5q-175 0 -309.5 77t-208 218t-73.5 319q0 238 100 441t279.5 315.5t407.5 112.5q173 0 307.5 -75.5t207.5 -215t73 -320.5zM383 590q0 -183 93.5 -291.5t258.5 -108.5t296.5 118t175.5 309h-824v-27zM885 1241 q-163 0 -294 -119.5t-177 -307.5h824q0 203 -93 315t-260 112zM1283 1686q0 -50 -35 -84.5t-91 -34.5t-91 35t-35 84q0 51 36 83.5t89 32.5q54 0 90.5 -33t36.5 -83zM862 1686q0 -51 -37.5 -85t-89.5 -34q-51 0 -89 33.5t-38 85.5q0 49 36 82.5t91 33.5q54 0 90.5 -33 t36.5 -83z" />
<glyph unicode="&#x4eb;" horiz-adv-x="1137" d="M1067 631q0 -186 -74.5 -339.5t-206 -235t-303.5 -81.5q-193 0 -303.5 111t-110.5 307q0 186 74.5 338t205.5 235t304 83q190 0 302 -111.5t112 -306.5zM500 166q100 0 178 71t116 197h-480l-2 -17v-17q0 -109 50 -171.5t138 -62.5zM822 601l1 12v12q0 107 -49.5 170 t-137.5 63q-94 0 -171 -66.5t-119 -190.5h476zM1046 1321q0 -50 -35 -84.5t-91 -34.5t-91 35t-35 84q0 51 36 83.5t89 32.5q54 0 90.5 -33t36.5 -83zM625 1321q0 -51 -37.5 -85t-89.5 -34q-51 0 -89 33.5t-38 85.5q0 49 36 82.5t91 33.5q54 0 90.5 -33t36.5 -83z" />
<glyph unicode="&#x4ec;" horiz-adv-x="1298" d="M1254 865q0 -260 -108 -467.5t-300.5 -315t-452.5 -107.5q-216 0 -374 66l47 230q164 -82 334 -82q217 0 367.5 115t193.5 316h-616l42 203h598q4 23 4 63q0 163 -107.5 259t-296.5 96q-183 0 -331 -69l45 231q151 55 337 55q291 0 454.5 -158.5t163.5 -434.5zM1082 1686 q0 -50 -35 -84.5t-91 -34.5t-91 35t-35 84q0 51 36 83.5t89 32.5q54 0 90.5 -33t36.5 -83zM661 1686q0 -51 -37.5 -85t-89.5 -34q-51 0 -89 33.5t-38 85.5q0 49 36 82.5t91 33.5q54 0 90.5 -33t36.5 -83z" />
<glyph unicode="&#x4ed;" horiz-adv-x="951" d="M884 630q0 -191 -73.5 -341t-210.5 -232t-320 -82q-85 0 -167 16.5t-118 41.5l35 204q33 -26 103.5 -48t135.5 -22q146 0 240 70t126 204h-456l32 160h442l3 34q0 107 -67 165t-191 58q-128 0 -260 -73l45 215q127 49 290 49q193 0 302 -112t109 -307zM883 1321 q0 -50 -35 -84.5t-91 -34.5t-91 35t-35 84q0 51 36 83.5t89 32.5q54 0 90.5 -33t36.5 -83zM462 1321q0 -51 -37.5 -85t-89.5 -34q-51 0 -89 33.5t-38 85.5q0 49 36 82.5t91 33.5q54 0 90.5 -33t36.5 -83z" />
<glyph unicode="&#x4ee;" horiz-adv-x="1194" d="M177 -25q-55 0 -109 12t-80 27l44 215q29 -18 69 -29t77 -11q76 0 144 53.5t156 183.5l-260 1008h268l138 -641q11 -47 21 -143h4q36 76 69 131l396 653h277l-662 -1029q-123 -191 -201.5 -273t-161.5 -119.5t-189 -37.5zM1075 1567h-547l27 140h547z" />
<glyph unicode="&#x4ef;" horiz-adv-x="1046" d="M-27 -481q-70 0 -133 21l42 194q39 -24 100 -24q126 0 214 135l103 160l-193 1019h251l96 -705l4 -65l-2 -42h5q25 64 48 106l383 706h257l-689 -1154q-114 -191 -226.5 -271t-259.5 -80zM916 1202h-547l27 140h547z" />
<glyph unicode="&#x4f0;" horiz-adv-x="1194" d="M177 -25q-55 0 -109 12t-80 27l44 215q29 -18 69 -29t77 -11q76 0 144 53.5t156 183.5l-260 1008h268l138 -641q11 -47 21 -143h4q36 76 69 131l396 653h277l-662 -1029q-123 -191 -201.5 -273t-161.5 -119.5t-189 -37.5zM1163 1686q0 -50 -35 -84.5t-91 -34.5t-91 35 t-35 84q0 51 36 83.5t89 32.5q54 0 90.5 -33t36.5 -83zM742 1686q0 -51 -37.5 -85t-89.5 -34q-51 0 -89 33.5t-38 85.5q0 49 36 82.5t91 33.5q54 0 90.5 -33t36.5 -83z" />
<glyph unicode="&#x4f1;" horiz-adv-x="1046" d="M-27 -481q-70 0 -133 21l42 194q39 -24 100 -24q126 0 214 135l103 160l-193 1019h251l96 -705l4 -65l-2 -42h5q25 64 48 106l383 706h257l-689 -1154q-114 -191 -226.5 -271t-259.5 -80zM987 1321q0 -50 -35 -84.5t-91 -34.5t-91 35t-35 84q0 51 36 83.5t89 32.5 q54 0 90.5 -33t36.5 -83zM566 1321q0 -51 -37.5 -85t-89.5 -34q-51 0 -89 33.5t-38 85.5q0 49 36 82.5t91 33.5q54 0 90.5 -33t36.5 -83z" />
<glyph unicode="&#x4f2;" horiz-adv-x="1194" d="M177 -25q-55 0 -109 12t-80 27l44 215q29 -18 69 -29t77 -11q76 0 144 53.5t156 183.5l-260 1008h268l138 -641q11 -47 21 -143h4q36 76 69 131l396 653h277l-662 -1029q-123 -191 -201.5 -273t-161.5 -119.5t-189 -37.5zM993 1566h-158l243 325h199zM674 1566h-159 l245 325h194z" />
<glyph unicode="&#x4f3;" horiz-adv-x="1046" d="M-27 -481q-70 0 -133 21l42 194q39 -24 100 -24q126 0 214 135l103 160l-193 1019h251l96 -705l4 -65l-2 -42h5q25 64 48 106l383 706h257l-689 -1154q-114 -191 -226.5 -271t-259.5 -80zM829 1202h-158l243 325h199zM510 1202h-159l245 325h194z" />
<glyph unicode="&#x4f4;" horiz-adv-x="1410" d="M1127 0h-249l124 590q-226 -110 -433 -110q-170 0 -262.5 80t-92.5 226q0 54 20 141l105 507h249l-108 -504q-12 -60 -12 -96q0 -65 45 -104.5t143 -39.5q179 0 391 107l134 637h249zM1252 1686q0 -50 -35 -84.5t-91 -34.5t-91 35t-35 84q0 51 36 83.5t89 32.5 q54 0 90.5 -33t36.5 -83zM831 1686q0 -51 -37.5 -85t-89.5 -34q-51 0 -89 33.5t-38 85.5q0 49 36 82.5t91 33.5q54 0 90.5 -33t36.5 -83z" />
<glyph unicode="&#x4f5;" horiz-adv-x="1148" d="M1115 1024l-218 -1024h-243l83 394q-173 -104 -337 -104q-127 0 -202.5 69.5t-75.5 188.5q0 34 5 68t86 408h236l-73 -338q-12 -55 -12 -88q0 -57 36 -91t105 -34q72 0 134.5 24t131.5 65l100 462h244zM1035 1321q0 -50 -35 -84.5t-91 -34.5t-91 35t-35 84q0 51 36 83.5 t89 32.5q54 0 90.5 -33t36.5 -83zM614 1321q0 -51 -37.5 -85t-89.5 -34q-51 0 -89 33.5t-38 85.5q0 49 36 82.5t91 33.5q54 0 90.5 -33t36.5 -83z" />
<glyph unicode="&#x4f6;" horiz-adv-x="1025" d="M1120 1223h-552l-214 -1007h185l-128 -605h-224l82 389h-208l305 1434h799z" />
<glyph unicode="&#x4f7;" horiz-adv-x="895" d="M852 789q0 -78 -33.5 -137t-99 -103.5t-192.5 -90.5q-150 -55 -190 -78.5t-61 -51.5t-21 -67q0 -47 39 -77t122 -30q75 0 159.5 24.5t160.5 66.5l-130 -618h-199l76 356q-52 -8 -111 -8q-167 0 -257.5 73.5t-90.5 203.5q0 84 38 146t108 108t218 97q139 50 183 86.5 t44 86.5q0 45 -37 70t-110 25q-67 0 -145 -19.5t-131 -47.5l40 198q59 21 138 34t152 13q158 0 244 -68.5t86 -191.5z" />
<glyph unicode="&#x4f8;" horiz-adv-x="1730" d="M1445 0h-249l303 1434h249zM486 838h172q210 0 330.5 -103.5t120.5 -283.5q0 -216 -150 -333.5t-434 -117.5h-464l304 1434h249zM846 439q0 205 -256 205h-146l-94 -449h166q166 0 248 63t82 181zM1402 1685q0 -50 -35 -84.5t-91 -34.5t-91 35t-35 84q0 51 36 83.5 t89 32.5q54 0 90.5 -33t36.5 -83zM981 1685q0 -51 -37.5 -85t-89.5 -34q-51 0 -89 33.5t-38 85.5q0 49 36 82.5t91 33.5q54 0 90.5 -33t36.5 -83z" />
<glyph unicode="&#x4f9;" horiz-adv-x="1542" d="M1507 1024l-217 -1024h-241l217 1024h241zM957 367q0 -113 -56.5 -202.5t-162.5 -139.5t-249 -50q-204 0 -298 84.5t-94 262.5q0 70 14.5 159.5t110.5 542.5h242l-87 -411q129 43 259 43q155 0 238 -73.5t83 -215.5zM721 343q0 145 -159 145q-99 0 -219 -39 q-13 -91 -13 -135q0 -86 42.5 -126.5t129.5 -40.5q100 0 159.5 55t59.5 141zM1230 1321q0 -50 -35 -84.5t-91 -34.5t-91 35t-35 84q0 51 36 83.5t89 32.5q54 0 90.5 -33t36.5 -83zM809 1321q0 -51 -37.5 -85t-89.5 -34q-51 0 -89 33.5t-38 85.5q0 49 36 82.5t91 33.5 q54 0 90.5 -33t36.5 -83z" />
<glyph unicode="&#x4fa;" horiz-adv-x="1026" d="M104 -392q-92 0 -154 25l43 201q54 -30 109 -30q146 0 203 196h-244l138 649h-182l29 161h187l133 624h799l-45 -211h-552l-88 -413h353l-29 -161h-358l-98 -461h241l-29 -130q-50 -223 -165.5 -336.5t-290.5 -113.5z" />
<glyph unicode="&#x4fb;" horiz-adv-x="895" d="M242 -392q-90 0 -154 26l43 200q52 -29 109 -29q136 0 194 172l-62 -2q-167 0 -257.5 73.5t-90.5 203.5q0 101 57 175h-91l27 140h274l97 36q139 50 183 86.5t44 86.5q0 45 -37 70t-110 25q-67 0 -145 -19.5t-131 -47.5l40 198q59 21 138 34t152 13q158 0 244 -68.5 t86 -191.5q0 -138 -108 -222h110l-27 -140h-385q-105 -39 -146 -76t-41 -90q0 -47 39 -77t122 -30q75 0 159.5 24.5t160.5 66.5l-48 -220q-43 -200 -157 -308.5t-289 -108.5z" />
<glyph unicode="&#x4fc;" horiz-adv-x="1305" d="M843 714l206 -503h194l-33 -153q-50 -223 -165.5 -336.5t-290.5 -113.5q-92 0 -154 25l43 201q54 -30 109 -30q146 0 203 196h-99l-157 447q-21 60 -39 147h-4l-9 -18q-21 -50 -40 -73l-399 -503h-307l626 736l-290 698h288l144 -435q36 -107 38 -146h5l8 17q23 50 41 73 l391 491h289z" />
<glyph unicode="&#x4fd;" horiz-adv-x="1057" d="M669 507l166 -364h164l-32 -144q-41 -183 -157 -287t-286 -104q-92 0 -154 25l43 201q54 -30 109 -30q146 0 203 196l-90 -1l-110 294l-32 97h-5q-21 -32 -39.5 -58.5t-260.5 -331.5h-283l458 514l-224 510h266l104 -298q18 -51 29 -102h4q14 21 33 48t274 352h273z" />
<glyph unicode="&#x4fe;" horiz-adv-x="1275" d="M922 810h316l-29 -161h-340l267 -649h-280l-157 447q-21 60 -39 147h-4l-9 -18q-21 -50 -40 -73l-399 -503h-307l552 649h-326l29 161h340l-259 624h288l144 -435q36 -107 38 -146h5l8 17q23 50 41 73l391 491h289z" />
<glyph unicode="&#x4ff;" horiz-adv-x="1027" d="M730 577h274l-27 -140h-276l200 -437l-266 -1l-110 294l-32 97h-5q-21 -32 -39.5 -58.5t-260.5 -331.5h-283l389 437h-274l27 140h288l-196 447h266l104 -298q18 -51 29 -102h4q14 21 33 48t274 352h273z" />
<glyph unicode="&#x2000;" horiz-adv-x="1044" />
<glyph unicode="&#x2001;" horiz-adv-x="2088" />
<glyph unicode="&#x2002;" horiz-adv-x="1044" />
<glyph unicode="&#x2003;" horiz-adv-x="2088" />
<glyph unicode="&#x2004;" horiz-adv-x="696" />
<glyph unicode="&#x2005;" horiz-adv-x="522" />
<glyph unicode="&#x2006;" horiz-adv-x="348" />
<glyph unicode="&#x2007;" horiz-adv-x="348" />
<glyph unicode="&#x2008;" horiz-adv-x="261" />
<glyph unicode="&#x2009;" horiz-adv-x="417" />
<glyph unicode="&#x200a;" horiz-adv-x="116" />
<glyph unicode="&#x2010;" horiz-adv-x="823" d="M672 471h-547l38 175h547z" />
<glyph unicode="&#x2011;" horiz-adv-x="823" d="M672 471h-547l38 175h547z" />
<glyph unicode="&#x2012;" horiz-adv-x="823" d="M672 471h-547l38 175h547z" />
<glyph unicode="&#x2013;" horiz-adv-x="1024" d="M-8 471l36 175h1024l-36 -175h-1024z" />
<glyph unicode="&#x2014;" horiz-adv-x="2048" d="M-8 471l36 175h2048l-36 -175h-2048z" />
<glyph unicode="&#x2018;" horiz-adv-x="514" d="M406 997h-201l208 446h159z" />
<glyph unicode="&#x2019;" horiz-adv-x="514" d="M379 997h-155l167 446h199z" />
<glyph unicode="&#x201a;" horiz-adv-x="514" d="M118 -225h-155l167 444h198z" />
<glyph unicode="&#x201c;" horiz-adv-x="888" d="M780 997h-201l210 446h157zM406 997h-201l208 446h158z" />
<glyph unicode="&#x201d;" horiz-adv-x="888" d="M753 997h-155l167 446h199zM379 997h-155l167 446h199z" />
<glyph unicode="&#x201e;" horiz-adv-x="888" d="M492 -228h-156l168 445h199zM118 -228h-155l167 445h198z" />
<glyph unicode="&#x2022;" horiz-adv-x="846" d="M707 596q0 -111 -79.5 -188.5t-187.5 -77.5q-109 0 -187 77.5t-78 188.5t79.5 188.5t186.5 77.5q110 0 188 -78t78 -188z" />
<glyph unicode="&#x2026;" horiz-adv-x="1689" d="M1471 121q0 -61 -44 -101.5t-106 -40.5q-60 0 -102 38.5t-42 94.5q0 61 43.5 102.5t107.5 41.5q61 0 102 -39.5t41 -95.5zM909 121q0 -61 -44 -101.5t-106 -40.5q-61 0 -103 38.5t-42 94.5q0 62 44.5 103t107.5 41q61 0 102 -39.5t41 -95.5zM347 121q0 -61 -44 -101.5 t-107 -40.5q-59 0 -101 38.5t-42 94.5q0 61 43.5 102.5t107.5 41.5q61 0 102 -39.5t41 -95.5z" />
<glyph unicode="&#x202f;" horiz-adv-x="417" />
<glyph unicode="&#x2039;" horiz-adv-x="676" d="M314 199l-242 338l369 342h231l-383 -356l235 -324h-210z" />
<glyph unicode="&#x203a;" horiz-adv-x="676" d="M235 202h-230l383 355l-236 325h210l242 -338z" />
<glyph unicode="&#x2044;" horiz-adv-x="464" d="M-204 0h-196l1180 1434h195z" />
<glyph unicode="&#x205f;" horiz-adv-x="522" />
<glyph unicode="&#x2070;" d="M859 1484q0 -168 -54.5 -318t-146 -226.5t-206.5 -76.5q-114 0 -182 79.5t-68 216.5q0 157 57.5 301.5t150 219t206.5 74.5t178.5 -74.5t64.5 -195.5zM690 1481q0 69 -24 105.5t-67 36.5q-55 0 -106.5 -63.5t-86.5 -179t-35 -221.5q0 -83 26.5 -123t70.5 -40q58 0 108 65 t82 184t32 236z" />
<glyph unicode="&#x2071;" horiz-adv-x="467" d="M340 717h-170l165 719h171zM477 1585q-46 0 -75 26.5t-29 67.5q0 40 29 66t75 26q48 0 76 -26t28 -66q0 -42 -28 -68t-76 -26z" />
<glyph unicode="&#x2074;" d="M716 1074l-42 -191h-172l41 191h-396l24 122l467 537h218l-113 -527h112l-28 -132h-111zM655 1595q-9 -15 -20 -30.5t-298 -358.5h234l64 302l24 86z" />
<glyph unicode="&#x2075;" d="M409 863q-137 0 -225 43l32 152q35 -23 88 -38.5t105 -15.5q105 0 152.5 42.5t47.5 110.5q0 120 -160 120q-74 0 -164 -10l100 470h483l-30 -145h-329l-37 -177l28 2h28q121 0 192 -64t71 -172q0 -147 -102 -232.5t-280 -85.5z" />
<glyph unicode="&#x2076;" d="M600 1429q104 0 162.5 -63t58.5 -175q0 -87 -41.5 -163.5t-115.5 -120.5t-170 -44q-135 0 -213.5 85.5t-78.5 232.5q0 154 62.5 286.5t174 208.5t250.5 76q99 0 167 -30l-28 -135q-24 13 -64.5 23.5t-82.5 10.5q-115 0 -191.5 -77.5t-104.5 -221.5h4q31 49 88 78t123 29z M651 1183q0 63 -34 97t-91 34q-69 0 -112 -50t-43 -121q0 -70 34.5 -110t92.5 -40q66 0 109.5 55t43.5 135z" />
<glyph unicode="&#x2077;" d="M422 884h-197l477 716h-412l30 141h613l-16 -77z" />
<glyph unicode="&#x2078;" d="M816 1140q0 -129 -91.5 -203t-261.5 -74q-138 0 -220 63t-82 167q0 173 230 245q-46 27 -77.5 73.5t-31.5 101.5q0 109 86.5 174.5t236.5 65.5q128 0 202.5 -55.5t74.5 -145.5q0 -152 -205 -222q65 -27 102 -78.5t37 -111.5zM701 1531q0 36 -29 60.5t-82 24.5 q-63 0 -99 -28t-36 -75q0 -70 95 -113q77 21 114 52.5t37 78.5zM637 1128q0 96 -119 140q-176 -50 -176 -163q0 -51 38 -78t98 -27q72 0 115.5 35.5t43.5 92.5z" />
<glyph unicode="&#x2079;" d="M852 1443q0 -161 -66 -299t-174.5 -209.5t-248.5 -71.5q-54 0 -101 11t-69 23l33 131q22 -11 63 -22.5t85 -11.5q112 0 187 77t107 224h-4q-33 -50 -84.5 -78t-114.5 -28q-109 0 -171 67t-62 176q0 83 41 157.5t115 118.5t176 44q135 0 211.5 -84t76.5 -225zM682 1472 q0 67 -33 109t-91 42q-65 0 -110 -53t-45 -134q0 -62 32 -98.5t88 -36.5q71 0 115 49t44 122z" />
<glyph unicode="&#x207f;" horiz-adv-x="844" d="M303 716h-170l153 719h170l-32 -145h4q50 74 121 119t147 45q85 0 132 -50t47 -141q0 -61 -15 -127l-89 -420h-170l92 432q10 48 10 82q0 38 -22 62t-67 24q-50 0 -98 -31.5t-85 -84t-47 -101.5z" />
<glyph unicode="&#x2080;" d="M663 358q0 -168 -54.5 -318t-146 -226.5t-206.5 -76.5q-114 0 -182 79.5t-68 216.5q0 157 57.5 301.5t150 219t206.5 74.5t178.5 -74.5t64.5 -195.5zM494 355q0 69 -24 105.5t-67 36.5q-55 0 -106.5 -63.5t-86.5 -179t-35 -221.5q0 -83 26.5 -123t70.5 -40q58 0 108 65 t82 184t32 236z" />
<glyph unicode="&#x2081;" d="M10 -242l31 143h178l116 533l-204 -48l33 153l385 89l-157 -727h181l-30 -143h-533z" />
<glyph unicode="&#x2082;" d="M-40 -242l29 133l299 243q109 87 146 141t37 107q0 39 -28 64t-79 25q-97 0 -221 -82l40 180q102 59 229 59q116 0 181.5 -59.5t65.5 -158.5q0 -63 -27.5 -118t-81 -110.5t-171.5 -144.5l-164 -125l-2 -4h358l-33 -150h-578z" />
<glyph unicode="&#x2083;" d="M591 1q0 -76 -42 -136t-121 -94t-192 -34q-69 0 -145 14.5t-107 32.5l33 154q34 -22 99.5 -39.5t122.5 -17.5q83 0 130 34.5t47 91.5q0 112 -178 112h-95l32 144h96q89 0 144 37t55 93q0 39 -29.5 64.5t-95.5 25.5q-98 0 -195 -52l34 159q40 16 98 27t113 11 q117 0 185 -55.5t68 -148.5q0 -86 -57.5 -143.5t-153.5 -80.5v-4q154 -38 154 -195z" />
<glyph unicode="&#x2084;" d="M522 -52l-42 -191h-172l41 191h-396l24 122l467 537h218l-113 -527h112l-28 -132h-111zM461 469q-9 -15 -20 -30.5t-298 -358.5h234l64 302l24 86z" />
<glyph unicode="&#x2085;" d="M219 -263q-137 0 -225 43l32 152q35 -23 88 -38.5t105 -15.5q105 0 152.5 42.5t47.5 110.5q0 120 -160 120q-74 0 -164 -10l100 470h483l-30 -145h-329l-37 -177l28 2h28q121 0 192 -64t71 -172q0 -147 -102 -232.5t-280 -85.5z" />
<glyph unicode="&#x2086;" d="M410 303q104 0 162.5 -63t58.5 -175q0 -87 -41.5 -163.5t-115.5 -120.5t-170 -44q-135 0 -213.5 85.5t-78.5 232.5q0 154 62.5 286.5t174 208.5t250.5 76q99 0 167 -30l-28 -135q-24 13 -64.5 23.5t-82.5 10.5q-115 0 -191.5 -77.5t-104.5 -221.5h4q31 49 88 78t123 29z M461 57q0 63 -34 97t-91 34q-69 0 -112 -50t-43 -121q0 -70 34.5 -110t92.5 -40q66 0 109.5 55t43.5 135z" />
<glyph unicode="&#x2087;" d="M222 -242h-197l477 716h-412l30 141h613l-16 -77z" />
<glyph unicode="&#x2088;" d="M626 14q0 -129 -91.5 -203t-261.5 -74q-138 0 -220 63t-82 167q0 173 230 245q-46 27 -77.5 73.5t-31.5 101.5q0 109 86.5 174.5t236.5 65.5q128 0 202.5 -55.5t74.5 -145.5q0 -152 -205 -222q65 -27 102 -78.5t37 -111.5zM511 405q0 36 -29 60.5t-82 24.5q-63 0 -99 -28 t-36 -75q0 -70 95 -113q77 21 114 52.5t37 78.5zM447 2q0 96 -119 140q-176 -50 -176 -163q0 -51 38 -78t98 -27q72 0 115.5 35.5t43.5 92.5z" />
<glyph unicode="&#x2089;" d="M659 317q0 -161 -66 -299t-174.5 -209.5t-248.5 -71.5q-54 0 -101 11t-69 23l33 131q22 -11 63 -22.5t85 -11.5q112 0 187 77t107 224h-4q-33 -50 -84.5 -78t-114.5 -28q-109 0 -171 67t-62 176q0 83 41 157.5t115 118.5t176 44q135 0 211.5 -84t76.5 -225zM489 346 q0 67 -33 109t-91 42q-65 0 -110 -53t-45 -134q0 -62 32 -98.5t88 -36.5q71 0 115 49t44 122z" />
<glyph unicode="&#x20ac;" horiz-adv-x="1142" d="M1206 1176q-120 91 -250 91q-162 0 -278.5 -85.5t-178.5 -246.5h526l-31 -139h-542q-18 -83 -22 -186h524l-29 -140h-490q20 -155 102 -229t211 -74q134 0 273 78l-34 -212q-136 -59 -279 -59q-218 0 -353 132.5t-153 363.5h-157l30 140h123q8 121 23 186h-105l28 139 h114q85 249 271.5 386t440.5 137q81 0 158.5 -18t119.5 -42z" />
<glyph unicode="&#x2122;" horiz-adv-x="1581" d="M1350 772v461h-5l-189 -461h-97l-180 461h-4v-461h-125v662h171l192 -475h4l199 475h163v-662h-129zM482 1323v-551h-134v550h-189v112h515v-111h-192z" />
<glyph d="M145 584l31 143h178l116 533l-204 -48l33 153l385 89l-157 -727h181l-30 -143h-533z" />
<glyph d="M95 584l29 133l299 243q109 87 146 141t37 107q0 39 -28 64t-79 25q-97 0 -221 -82l40 180q102 59 229 59q116 0 181.5 -59.5t65.5 -158.5q0 -63 -27.5 -118t-81 -110.5t-171.5 -144.5l-164 -125l-2 -4h358l-33 -150h-578z" />
<glyph d="M726 827q0 -76 -42 -136t-121 -94t-192 -34q-69 0 -145 14.5t-107 32.5l33 154q34 -22 99.5 -39.5t122.5 -17.5q83 0 130 34.5t47 91.5q0 112 -178 112h-95l32 144h96q89 0 144 37t55 93q0 39 -29.5 64.5t-95.5 25.5q-98 0 -195 -52l34 159q40 16 98 27t113 11 q117 0 185 -55.5t68 -148.5q0 -86 -57.5 -143.5t-153.5 -80.5v-4q154 -38 154 -195z" />
<glyph d="M649 774l-42 -191h-172l41 191h-396l24 122l467 537h218l-113 -527h112l-28 -132h-111zM588 1295q-9 -15 -20 -30.5t-298 -358.5h234l64 302l24 86z" />
<glyph d="M354 563q-137 0 -225 43l32 152q35 -23 88 -38.5t105 -15.5q105 0 152.5 42.5t47.5 110.5q0 120 -160 120q-74 0 -164 -10l100 470h483l-30 -145h-329l-37 -177l28 2h28q121 0 192 -64t71 -172q0 -147 -102 -232.5t-280 -85.5z" />
<glyph d="M357 584h-197l477 716h-412l30 141h613l-16 -77z" />
<glyph d="M761 840q0 -129 -91.5 -203t-261.5 -74q-138 0 -220 63t-82 167q0 173 230 245q-46 27 -77.5 73.5t-31.5 101.5q0 109 86.5 174.5t236.5 65.5q128 0 202.5 -55.5t74.5 -145.5q0 -152 -205 -222q65 -27 102 -78.5t37 -111.5zM646 1231q0 36 -29 60.5t-82 24.5 q-63 0 -99 -28t-36 -75q0 -70 95 -113q77 21 114 52.5t37 78.5zM582 828q0 96 -119 140q-176 -50 -176 -163q0 -51 38 -78t98 -27q72 0 115.5 35.5t43.5 92.5z" />
<glyph horiz-adv-x="682" d="M966 1499l-145 -215h-47l-26 100h-208l-69 -100h-47l-26 100h-208l-68 -100h-47l-54 215h945z" />
<glyph horiz-adv-x="1033" d="M959 1714q-51 -154 -169.5 -240t-274.5 -86q-153 0 -250 90.5t-101 235.5h201q2 -84 44.5 -133t120.5 -49q76 0 135.5 47.5t89.5 134.5h204z" />
<glyph d="M798 1184q0 -168 -54.5 -318t-146 -226.5t-206.5 -76.5q-114 0 -182 79.5t-68 216.5q0 157 57.5 301.5t150 219t206.5 74.5t178.5 -74.5t64.5 -195.5zM629 1181q0 69 -24 105.5t-67 36.5q-55 0 -106.5 -63.5t-86.5 -179t-35 -221.5q0 -83 26.5 -123t70.5 -40q58 0 108 65 t82 184t32 236z" />
<glyph d="M545 1129q104 0 162.5 -63t58.5 -175q0 -87 -41.5 -163.5t-115.5 -120.5t-170 -44q-135 0 -213.5 85.5t-78.5 232.5q0 154 62.5 286.5t174 208.5t250.5 76q99 0 167 -30l-28 -135q-24 13 -64.5 23.5t-82.5 10.5q-115 0 -191.5 -77.5t-104.5 -221.5h4q31 49 88 78t123 29z M596 883q0 63 -34 97t-91 34q-69 0 -112 -50t-43 -121q0 -70 34.5 -110t92.5 -40q66 0 109.5 55t43.5 135z" />
<glyph d="M794 1143q0 -161 -66 -299t-174.5 -209.5t-248.5 -71.5q-54 0 -101 11t-69 23l33 131q22 -11 63 -22.5t85 -11.5q112 0 187 77t107 224h-4q-33 -50 -84.5 -78t-114.5 -28q-109 0 -171 67t-62 176q0 83 41 157.5t115 118.5t176 44q135 0 211.5 -84t76.5 -225zM624 1172 q0 67 -33 109t-91 42q-65 0 -110 -53t-45 -134q0 -62 32 -98.5t88 -36.5q71 0 115 49t44 122z" />
<glyph horiz-adv-x="1710" d="M893 0h221l-82 -385h-221z" />
<glyph horiz-adv-x="1296" d="M638 0h200l-79 -374h-200z" />
<glyph horiz-adv-x="1228" d="M1202 1246q-70 43 -166 70.5t-174 27.5q-103 0 -159.5 -34t-56.5 -96q0 -39 20.5 -73.5t58 -70t157.5 -121.5q140 -103 199.5 -209.5t59.5 -240.5q0 -248 -155 -386.5t-434 -138.5q-224 0 -354.5 117.5t-130.5 316.5q0 192 123.5 324t366.5 198q-157 132 -157 287 q0 154 122.5 236t356.5 82q95 0 196 -19t171 -51zM692 813q-380 -100 -380 -397q0 -117 66 -184t186 -67q155 0 244 85.5t89 233.5q0 89 -48 169.5t-157 159.5z" />
<glyph horiz-adv-x="590" d="M314 -17q-111 0 -169 55t-58 156q0 67 26 184l136 646h243l-136 -645q-21 -100 -21 -129q0 -76 87 -76q51 0 91 16l-38 -184q-77 -23 -161 -23zM675 1202h-547l27 140h547z" />
<glyph horiz-adv-x="1162" d="M283 -481q-165 0 -317 76l43 204q143 -93 292 -93q155 0 246 85t130 273l26 125h-4q-75 -117 -151.5 -165.5t-169.5 -48.5q-144 0 -226.5 100.5t-82.5 284.5q0 190 83.5 351.5t228.5 249.5t329 88q163 0 405 -46l-191 -905q-46 -217 -125 -337t-205.5 -181t-310.5 -61z M843 853q-62 15 -152 15q-104 0 -192 -66t-137.5 -179t-49.5 -246q0 -103 40 -157t109 -54q70 0 133 48t115 149t75 212z" />
<glyph horiz-adv-x="1184" d="M941 0h-240l31 217h-4q-81 -114 -181 -178t-204 -64q-127 0 -194 72.5t-67 203.5q0 49 31 196l122 577h242l-125 -589q-21 -112 -21 -134q0 -60 30 -95t90 -35q69 0 141.5 51t128.5 137.5t74 172.5l105 492h242l-147 -688q-39 -186 -54 -336zM993 1202h-547l27 140h547z " />
<glyph horiz-adv-x="1785" d="M1540 0h-241l9 64l28 175h-4q-88 -126 -188.5 -192.5t-201.5 -66.5q-113 0 -167.5 64.5t-59.5 204.5q-87 -130 -194.5 -202t-211.5 -72q-227 0 -227 268q0 37 11 107t140 674h243l-122 -577q-23 -109 -23 -148q0 -132 109 -132q58 0 126.5 54t123 141t72.5 171l106 491 h240l-121 -577q-22 -100 -22 -157q0 -122 107 -122q58 0 125.5 51.5t122.5 138.5t75 177l105 489h244l-153 -713q-16 -76 -31.5 -171.5t-19.5 -139.5zM1620 1342l-26 -140h-1147l26 140h1147z" />
<glyph horiz-adv-x="1142" d="M1143 1019q0 -279 -85 -527.5t-228.5 -382.5t-344.5 -134q-181 0 -287.5 128t-106.5 355q0 263 90.5 503.5t236.5 368.5t341 128q181 0 282.5 -118t101.5 -321zM905 1018q0 122 -43 186t-121 64q-107 0 -195.5 -108t-152.5 -326.5t-64 -394.5q0 -127 46 -199.5t130 -72.5 q115 0 199.5 122.5t142.5 335t58 393.5z" />
<glyph horiz-adv-x="1142" d="M45 0l44 196h309l213 1000l-337 -81l45 207l587 136l-268 -1262h308l-43 -196h-858z" />
<glyph horiz-adv-x="1142" d="M1133 1113q0 -145 -89 -278.5t-323 -315.5l-397 -310v-5h613l-44 -204h-905l42 199l537 438q197 161 260.5 250.5t63.5 187.5q0 86 -58 136.5t-163 50.5q-82 0 -182 -35.5t-187 -95.5l51 234q79 42 178.5 67.5t195.5 25.5q189 0 298 -92.5t109 -252.5z" />
<glyph horiz-adv-x="1142" d="M1089 1127q0 -155 -101 -258.5t-277 -132.5v-4q126 -23 196 -106t70 -205q0 -132 -67 -233.5t-195.5 -157t-306.5 -55.5q-103 0 -201 22.5t-172 59.5l45 206q65 -42 156.5 -69.5t170.5 -27.5q158 0 243.5 67t85.5 187q0 102 -76.5 162t-239.5 60h-116l41 191h135 q172 0 269.5 66.5t97.5 186.5q0 87 -59 134.5t-161 47.5q-158 0 -314 -78l45 210q161 58 335 58q182 0 289 -89.5t107 -241.5z" />
<glyph horiz-adv-x="1142" d="M904 522h180l-39 -179h-179l-71 -343h-230l73 342h-646l33 156l810 936h263zM819 1189q-38 -58 -48 -72t-501 -595h405l114 524l35 143h-5z" />
<glyph horiz-adv-x="1142" d="M1087 1230h-532l-75 -353l87 4q203 0 316.5 -102.5t113.5 -283.5q0 -147 -77 -271t-211 -186.5t-311 -62.5q-92 0 -191.5 17t-151.5 46l46 208q51 -34 138.5 -57t162.5 -23q111 0 190 39.5t121 106.5t42 150q0 116 -69.5 171.5t-212.5 55.5q-107 0 -250 -13l162 758h745z " />
<glyph horiz-adv-x="1142" d="M1105 1208q-97 60 -235 60q-116 0 -220 -64.5t-180 -193.5t-108 -279h4q56 81 144.5 129.5t189.5 48.5q165 0 259.5 -104.5t94.5 -287.5q0 -150 -68 -278t-180.5 -195.5t-255.5 -67.5q-206 0 -324 136.5t-118 384.5q0 267 102.5 492.5t279 347t398.5 121.5q153 0 262 -43 zM818 496q0 109 -55.5 167.5t-153.5 58.5q-116 0 -189.5 -85.5t-73.5 -207.5q0 -121 58 -190.5t157 -69.5q111 0 184 94t73 233z" />
<glyph horiz-adv-x="1142" d="M400 0h-270l775 1231h-683l43 203h966l-23 -107z" />
<glyph horiz-adv-x="1142" d="M1141 1121q0 -142 -88.5 -241t-262.5 -149q238 -124 238 -347q0 -118 -66.5 -213t-186.5 -146.5t-278 -51.5q-203 0 -325 101t-122 269q0 301 378 418q-84 57 -129 136.5t-45 169.5q0 180 133.5 285.5t345.5 105.5q123 0 216 -43.5t142.5 -120.5t49.5 -173zM907 1100 q0 79 -51.5 127t-136.5 48q-110 0 -171 -57t-61 -154q0 -137 142 -233q148 40 213 104.5t65 164.5zM795 383q0 82 -55 152t-156 118q-304 -81 -304 -298q0 -54 28 -99t81.5 -72t124.5 -27q128 0 204.5 61t76.5 165z" />
<glyph horiz-adv-x="1142" d="M1113 941q0 -191 -55 -369t-156 -312.5t-243 -209t-332 -74.5q-86 0 -153 13t-102 30l33 206q102 -58 233 -58q194 0 331 139t190 391h-4q-126 -180 -326 -180q-113 0 -195 51t-126.5 142t-44.5 207q0 151 70 281t184.5 195.5t259.5 65.5q204 0 320 -139.5t116 -378.5z M877 1001q0 116 -58.5 190t-152.5 74q-77 0 -137 -43t-94 -119t-34 -163q0 -107 55 -172.5t150 -65.5q80 0 141 38.5t95.5 108t34.5 152.5z" />
<glyph horiz-adv-x="1549" d="M1239 835q0 190 -95 298t-254 108q-140 0 -255.5 -82.5t-183.5 -237t-68 -332.5q0 -184 94.5 -291.5t257.5 -107.5q139 0 253 80t182.5 236t68.5 329zM949 9q90 -121 165.5 -162.5t182.5 -41.5q82 0 149 25l-46 -217q-93 -24 -195 -24q-101 0 -180 35t-148.5 102 t-191.5 250q-170 7 -297 86t-195.5 216.5t-68.5 307.5q0 380 224 626t566 246q266 0 425.5 -168.5t159.5 -446.5q0 -192 -68 -366.5t-193.5 -297t-288.5 -170.5z" />
<glyph horiz-adv-x="1608" d="M1341 -23q-92 0 -164 47t-145 167q-108 -95 -255.5 -154.5t-292.5 -59.5q-212 0 -335.5 106.5t-123.5 283.5q0 160 107.5 279.5t334.5 201.5q-52 45 -85.5 112.5t-33.5 141.5q0 162 123 259t319 97q162 0 265 -78.5t103 -205.5q0 -117 -73.5 -199t-263.5 -154 q78 -40 153.5 -127.5t132.5 -207.5q247 241 273 554l5 81h214q0 -201 -106 -410.5t-299 -394.5q47 -82 91.5 -112.5t102.5 -30.5q67 0 152 31l-37 -200q-72 -27 -162 -27zM509 170q222 0 441 186q-62 148 -143.5 238.5t-190.5 143.5q-179 -63 -261 -151t-82 -201 q0 -99 65.5 -157.5t170.5 -58.5zM669 924q152 52 208.5 106t56.5 123q0 59 -44 96.5t-111 37.5q-95 0 -154 -51.5t-59 -136.5q0 -60 29.5 -104.5t73.5 -70.5z" />
<glyph horiz-adv-x="681" d="M397 424h-166l172 1010h257zM409 121q0 -59 -42.5 -100.5t-107.5 -41.5q-61 0 -103 38.5t-42 94.5q0 61 43.5 102t108.5 41q59 0 101 -38.5t42 -95.5z" />
<glyph horiz-adv-x="500" d="M-48 -185q177 94 177 170q0 21 -28 43q-36 26 -55.5 49t-19.5 56q0 51 36.5 86.5t98.5 35.5q69 0 112.5 -45.5t43.5 -120.5q0 -113 -70.5 -205.5t-235.5 -177.5z" />
<glyph horiz-adv-x="500" d="M477 904q0 -58 -42.5 -98t-106.5 -40q-63 0 -104.5 39.5t-41.5 98.5t43 98t104 39q65 0 106.5 -40.5t41.5 -96.5zM-43 -185q177 94 177 170q0 21 -28 43q-36 26 -55.5 49t-19.5 56q0 51 36.5 86.5t98.5 35.5q69 0 112.5 -45.5t43.5 -120.5q0 -113 -70.5 -205.5 t-235.5 -177.5z" />
<glyph horiz-adv-x="900" d="M966 1154q0 -123 -72 -225t-216 -202q-119 -81 -164 -141.5t-66 -170.5h-165l18 87q21 106 67 178t133 133q129 87 175 150t46 139q0 70 -48.5 114t-128.5 44q-158 0 -311 -110l46 234q154 76 324 76q165 0 263.5 -82.5t98.5 -223.5zM470 121q0 -61 -43.5 -101 t-108.5 -40q-63 0 -103 39t-40 93q0 61 42 102t109 41q60 0 102 -39.5t42 -94.5z" />
<glyph horiz-adv-x="888" d="M957 1357q-170 -92 -170 -161q0 -13 7.5 -21.5t21.5 -19.5q70 -50 70 -107q0 -52 -36 -86t-93 -34q-70 0 -113.5 42.5t-43.5 117.5q0 109 70 200t230 174zM578 1357q-170 -92 -170 -161q0 -18 29 -41q35 -26 52.5 -50.5t17.5 -56.5q0 -52 -36 -86t-93 -34q-71 0 -114 43 t-43 117q0 108 70.5 200t229.5 174z" />
<glyph horiz-adv-x="888" d="M199 1035q78 40 123.5 82t45.5 79q0 20 -28 40q-70 50 -70 107q0 50 36 85t93 35q70 0 113.5 -42.5t43.5 -117.5q0 -110 -72 -202t-228 -172zM581 1034q169 91 169 162q0 20 -28 40q-70 50 -70 107q0 50 36 85t93 35q71 0 114 -43t43 -117q0 -112 -72.5 -203.5 t-227.5 -170.5z" />
<glyph horiz-adv-x="514" d="M578 1357q-170 -92 -170 -161q0 -18 29 -41q35 -26 52.5 -50.5t17.5 -56.5q0 -52 -36 -86t-93 -34q-71 0 -114 43t-43 117q0 108 70.5 200t229.5 174z" />
<glyph horiz-adv-x="514" d="M203 1034q169 91 169 162q0 19 -29 40q-69 48 -69 107q0 50 36 85t93 35q71 0 114 -43t43 -117q0 -112 -72.5 -203.5t-227.5 -170.5z" />
<glyph horiz-adv-x="514" d="M-36 -180q169 91 169 162q0 19 -29 40q-69 49 -69 107q0 50 36 85t93 35q71 0 114 -43t43 -118q0 -110 -72 -201.5t-228 -171.5z" />
<glyph horiz-adv-x="888" d="M-36 -180q169 91 169 162q0 19 -29 40q-69 49 -69 107q0 50 36 85t93 35q71 0 114 -43t43 -118q0 -110 -72 -201.5t-228 -171.5zM347 -180q170 92 170 162q0 17 -29 40q-70 50 -70 107q0 51 37 85.5t93 34.5q70 0 113.5 -43t43.5 -118q0 -110 -71.5 -201.5t-229.5 -171.5 z" />
<glyph d="M680 603q0 -168 -54.5 -318t-146 -226.5t-206.5 -76.5q-114 0 -182 79.5t-68 216.5q0 157 57.5 301.5t150 219t206.5 74.5t178.5 -74.5t64.5 -195.5zM511 600q0 69 -24 105.5t-67 36.5q-55 0 -106.5 -63.5t-86.5 -179t-35 -221.5q0 -83 26.5 -123t70.5 -40q58 0 108 65 t82 184t32 236z" />
<glyph d="M27 3l31 143h178l116 533l-204 -48l33 153l385 89l-157 -727h181l-30 -143h-533z" />
<glyph d="M-26 3l29 133l299 243q109 87 146 141t37 107q0 39 -28 64t-79 25q-97 0 -221 -82l40 180q102 59 229 59q116 0 181.5 -59.5t65.5 -158.5q0 -63 -27.5 -118t-81 -110.5t-171.5 -144.5l-164 -125l-2 -4h358l-33 -150h-578z" />
<glyph d="M603 246q0 -76 -42 -136t-121 -94t-192 -34q-69 0 -145 14.5t-107 32.5l33 154q34 -22 99.5 -39.5t122.5 -17.5q83 0 130 34.5t47 91.5q0 112 -178 112h-95l32 144h96q89 0 144 37t55 93q0 39 -29.5 64.5t-95.5 25.5q-98 0 -195 -52l34 159q40 16 98 27t113 11 q117 0 185 -55.5t68 -148.5q0 -86 -57.5 -143.5t-153.5 -80.5v-4q154 -38 154 -195z" />
<glyph d="M536 193l-42 -191h-172l41 191h-396l24 122l467 537h218l-113 -527h112l-28 -132h-111zM475 714q-9 -15 -20 -30.5t-298 -358.5h234l64 302l24 86z" />
<glyph d="M241 -18q-137 0 -225 43l32 152q35 -23 88 -38.5t105 -15.5q105 0 152.5 42.5t47.5 110.5q0 120 -160 120q-74 0 -164 -10l100 470h483l-30 -145h-329l-37 -177l28 2h28q121 0 192 -64t71 -172q0 -147 -102 -232.5t-280 -85.5z" />
<glyph d="M432 548q104 0 162.5 -63t58.5 -175q0 -87 -41.5 -163.5t-115.5 -120.5t-170 -44q-135 0 -213.5 85.5t-78.5 232.5q0 154 62.5 286.5t174 208.5t250.5 76q99 0 167 -30l-28 -135q-24 13 -64.5 23.5t-82.5 10.5q-115 0 -191.5 -77.5t-104.5 -221.5h4q31 49 88 78t123 29z M483 302q0 63 -34 97t-91 34q-69 0 -112 -50t-43 -121q0 -70 34.5 -110t92.5 -40q66 0 109.5 55t43.5 135z" />
<glyph d="M234 3h-197l477 716h-412l30 141h613l-16 -77z" />
<glyph d="M643 259q0 -129 -91.5 -203t-261.5 -74q-138 0 -220 63t-82 167q0 173 230 245q-46 27 -77.5 73.5t-31.5 101.5q0 109 86.5 174.5t236.5 65.5q128 0 202.5 -55.5t74.5 -145.5q0 -152 -205 -222q65 -27 102 -78.5t37 -111.5zM528 650q0 36 -29 60.5t-82 24.5 q-63 0 -99 -28t-36 -75q0 -70 95 -113q77 21 114 52.5t37 78.5zM464 247q0 96 -119 140q-176 -50 -176 -163q0 -51 38 -78t98 -27q72 0 115.5 35.5t43.5 92.5z" />
<glyph d="M681 562q0 -161 -66 -299t-174.5 -209.5t-248.5 -71.5q-54 0 -101 11t-69 23l33 131q22 -11 63 -22.5t85 -11.5q112 0 187 77t107 224h-4q-33 -50 -84.5 -78t-114.5 -28q-109 0 -171 67t-62 176q0 83 41 157.5t115 118.5t176 44q135 0 211.5 -84t76.5 -225zM511 591 q0 67 -33 109t-91 42q-65 0 -110 -53t-45 -134q0 -62 32 -98.5t88 -36.5q71 0 115 49t44 122z" />
<glyph horiz-adv-x="1142" d="M1065 629q0 -184 -72.5 -335.5t-204 -235t-303.5 -83.5q-197 0 -306 112t-109 308q0 183 73 333.5t205.5 235.5t304.5 85q195 0 303.5 -113t108.5 -307zM821 623q0 109 -52 172t-140 63q-86 0 -158 -62t-114.5 -169.5t-42.5 -228.5q0 -108 51.5 -170.5t139.5 -62.5 q89 0 162 61.5t113.5 168t40.5 228.5z" />
<glyph horiz-adv-x="1142" d="M415 0l165 805l-338 -86l41 202l592 133l-215 -1054h-245z" />
<glyph horiz-adv-x="1142" d="M64 0l38 147q18 71 62 126.5t109 101t194 102.5q149 66 195.5 97t72.5 67.5t26 84.5q0 54 -44 88t-139 34q-79 0 -179.5 -31t-194.5 -90l47 223q172 100 410 100q167 0 257.5 -72t90.5 -196q0 -138 -91 -239t-315 -194q-109 -45 -160.5 -80.5t-63.5 -74.5h577l-41 -194 h-851z" />
<glyph horiz-adv-x="1142" d="M989 717q0 -156 -101.5 -259t-277.5 -132v-4q127 -22 197 -106t70 -205q0 -132 -67 -233.5t-195.5 -157t-306.5 -55.5q-97 0 -195.5 21t-178.5 61l46 206q65 -42 156.5 -69.5t170.5 -27.5q157 0 243 66t86 188q0 102 -77 162t-239 60h-116l41 191h135q172 0 269.5 66.5 t97.5 186.5q0 87 -59 134.5t-161 47.5q-158 0 -314 -78l45 210q161 58 335 58q182 0 289 -89.5t107 -241.5z" />
<glyph horiz-adv-x="1142" d="M1018 1027l-178 -840h185l-40 -187h-185l-87 -410h-228l89 410h-628l38 182q404 392 781 845h253zM613 187l119 547l-58 -70q-124 -150 -448 -477h387z" />
<glyph horiz-adv-x="1142" d="M489 471q204 0 317.5 -102t113.5 -284q0 -147 -76.5 -270.5t-211 -186.5t-311.5 -63q-92 0 -191.5 17t-151.5 46l46 208q51 -34 138.5 -57t162.5 -23q111 0 190 39.5t121 106.5t42 150q0 110 -67 168.5t-220 58.5q-136 0 -248 -14l187 759h730l-43 -203h-524l-90 -354z " />
<glyph horiz-adv-x="1142" d="M1101 1208q-97 60 -235 60q-122 0 -224 -67t-176 -190.5t-108 -279.5h4q53 80 142.5 129t191.5 49q164 0 258.5 -103t94.5 -289q0 -149 -67 -277t-180.5 -196t-255.5 -68q-208 0 -325 137t-117 384q0 267 102 490.5t281 347t397 123.5q152 0 261 -43zM814 496 q0 109 -55.5 167.5t-153.5 58.5q-116 0 -189.5 -85.5t-73.5 -207.5q0 -121 58 -190.5t157 -69.5q111 0 184 94t73 233z" />
<glyph horiz-adv-x="1142" d="M331 -410h-258q97 270 291 590.5t456 640.5h-689l44 203h956l-29 -139q-323 -416 -500.5 -722t-270.5 -573z" />
<glyph horiz-adv-x="1142" d="M59 356q0 155 97 267.5t268 153.5q-155 97 -155 274q0 114 59.5 207.5t170.5 146.5t260 53q185 0 293 -91.5t108 -243.5q0 -137 -80 -232.5t-222 -137.5q93 -41 147 -121t54 -189q0 -128 -70 -236t-196 -169t-283 -61q-214 0 -332.5 100.5t-118.5 278.5zM307 370 q0 -96 58.5 -151.5t161.5 -55.5q121 0 202.5 82.5t81.5 207.5q0 94 -57.5 151t-150.5 57q-128 0 -212 -83t-84 -208zM503 1029q0 -81 48 -129.5t129 -48.5q96 0 169 71t73 172q0 81 -48.5 129.5t-133.5 48.5q-105 0 -171 -69t-66 -174z" />
<glyph horiz-adv-x="1142" d="M1029 531q0 -190 -54.5 -367.5t-155 -312t-243.5 -210t-332 -75.5q-87 0 -154 13t-102 30l34 206q99 -58 233 -58q193 0 330 139t190 391h-4q-124 -180 -325 -180q-113 0 -195.5 51.5t-127 144t-44.5 204.5q0 151 70 281t184.5 195.5t259.5 65.5q204 0 320 -139.5 t116 -378.5zM794 591q0 116 -58.5 190t-152.5 74q-78 0 -138.5 -44t-93.5 -119t-33 -162q0 -110 55.5 -174t149.5 -64q80 0 141 38.5t95.5 108t34.5 152.5z" />
<glyph horiz-adv-x="1103" d="M974 0h-250l-32 237h-400l-131 -237h-256l618 1075h287zM679 421l-44 358q-3 21 -3 78v15l1 13h-9q-28 -75 -46 -108l-192 -356h293z" />
<glyph horiz-adv-x="1074" d="M957 344q0 -166 -126.5 -255t-357.5 -89h-415l228 1075h379q172 0 261 -65.5t89 -179.5q0 -105 -70.5 -172.5t-194.5 -85.5l-1 -3q99 -16 153.5 -78.5t54.5 -146.5zM761 791q0 58 -38.5 84t-123.5 26h-110l-55 -261h90q115 0 176 34.5t61 116.5zM709 335 q0 72 -51.5 101.5t-154.5 29.5h-106l-62 -292h141q109 0 171 41t62 120z" />
<glyph horiz-adv-x="1053" d="M1002 831q-73 45 -130.5 61.5t-118.5 16.5q-127 0 -226 -55t-152 -155t-53 -226q0 -145 82.5 -227t226.5 -82q55 0 112 15.5t154 65.5l-46 -208q-124 -60 -291 -60q-220 0 -350.5 128.5t-130.5 344.5q0 189 82.5 337t235.5 229t350 81q163 0 301 -65z" />
<glyph horiz-adv-x="1241" d="M1172 623q0 -190 -85.5 -331.5t-246 -216.5t-373.5 -75h-409l228 1075h342q253 0 398.5 -120.5t145.5 -331.5zM920 601q0 144 -84 215t-242 71h-107l-147 -702h131q211 0 330 108t119 308z" />
<glyph horiz-adv-x="917" d="M730 0h-672l229 1075h646l-38 -178h-406l-54 -264h372l-39 -177h-372l-59 -279h432z" />
<glyph horiz-adv-x="887" d="M895 897h-404l-61 -285h370l-38 -177h-370l-93 -435h-241l230 1075h646z" />
<glyph horiz-adv-x="1207" d="M1067 836q-146 73 -301 73q-203 0 -320.5 -120.5t-117.5 -316.5q0 -146 77.5 -227t219.5 -81q89 0 148 19l51 237h-225l38 176h463l-117 -542q-175 -77 -377 -77q-158 0 -278.5 59t-184 167t-63.5 253q0 187 87.5 333.5t247.5 227t362 80.5q81 0 174 -17.5t156 -45.5z " />
<glyph horiz-adv-x="1299" d="M1020 0h-241l98 466h-479l-99 -466h-241l228 1075h241l-90 -422h480l89 422h242z" />
<glyph horiz-adv-x="581" d="M299 0h-241l230 1075h241z" />
<glyph horiz-adv-x="738" d="M85 -23q-99 0 -183 31l44 200q59 -35 137 -35q101 0 158 58t83 184l139 660h238l-142 -668q-48 -227 -163 -328.5t-311 -101.5z" />
<glyph horiz-adv-x="1102" d="M979 0h-271l-252 462q-13 22 -38 82h-5l-115 -544h-240l228 1075h241l-105 -489h4l68 72l420 417h294l-549 -521z" />
<glyph horiz-adv-x="877" d="M731 0h-673l230 1075h241l-191 -893h432z" />
<glyph horiz-adv-x="1599" d="M1321 0h-231l139 657q22 105 55 221h-6q-73 -109 -136 -185l-344 -407h-141l-144 382q-17 47 -54 210h-5l-42 -221l-140 -657h-214l228 1075h279l171 -448q24 -63 34 -122h5q53 83 130 176l329 394h314z" />
<glyph horiz-adv-x="1337" d="M1057 0h-234l-332 665q-37 78 -49 132h-5q-6 -44 -12.5 -84t-151.5 -713h-215l228 1075h249l323 -666q27 -55 45 -120h3q2 32 7.5 71t151.5 715h220z" />
<glyph horiz-adv-x="1279" d="M1211 636q0 -179 -83 -336t-229.5 -240t-328.5 -83q-227 0 -358.5 127t-131.5 340q0 184 85 337t230 234.5t329 81.5q224 0 355.5 -125t131.5 -336zM961 632q0 129 -70.5 203t-188.5 74q-104 0 -189.5 -62.5t-134.5 -172.5t-49 -234q0 -128 70.5 -202t190.5 -74 q104 0 189 63t133.5 172.5t48.5 232.5z" />
<glyph horiz-adv-x="1053" d="M1034 766q0 -194 -130 -296t-377 -102h-151l-78 -368h-240l228 1075h349q188 0 293.5 -82t105.5 -227zM788 753q0 148 -193 148h-105l-76 -352h120q117 0 185.5 50t68.5 154z" />
<glyph horiz-adv-x="1279" d="M1211 636q0 -183 -85 -339t-232 -239l230 -213h-303l-130 143q-64 -11 -121 -11q-227 0 -358.5 127t-131.5 340q0 184 85 337t230 234.5t329 81.5q224 0 355.5 -125t131.5 -336zM961 632q0 129 -70.5 203t-188.5 74q-104 0 -189.5 -62.5t-134.5 -172.5t-49 -234 q0 -128 70.5 -202t190.5 -74q104 0 189 63t133.5 172.5t48.5 232.5z" />
<glyph horiz-adv-x="1087" d="M935 0h-252l-62 235q-30 111 -67 145.5t-109 34.5h-57l-89 -415h-241l228 1075h374q179 0 280 -76t101 -210q0 -129 -84.5 -209t-244.5 -107v-4q48 -18 77.5 -57t55.5 -122zM798 764q0 79 -53.5 110.5t-155.5 31.5h-98l-68 -321h129q116 0 181 48t65 131z" />
<glyph horiz-adv-x="926" d="M815 847q-124 71 -248 71q-78 0 -125 -35.5t-47 -93.5q0 -31 12.5 -54t37.5 -44.5t105 -69.5q135 -82 187 -151t52 -157q0 -98 -51 -173.5t-148 -119t-237 -43.5q-76 0 -166 19.5t-154 53.5l37 200q159 -94 298 -94q99 0 144 38t45 97q0 44 -32.5 80t-136.5 96 q-123 70 -175 141t-52 157q0 95 49.5 171t141.5 118.5t219 42.5q141 0 284 -55z" />
<glyph horiz-adv-x="958" d="M999 892h-329l-191 -892h-241l191 892h-329l39 183h899z" />
<glyph horiz-adv-x="1244" d="M535 -23q-193 0 -299.5 94.5t-106.5 269.5q0 88 31 236l106 498h238l-129 -609q-13 -63 -13 -103q0 -199 196 -199q119 0 187.5 80.5t114.5 297.5l112 533h238l-124 -584q-58 -275 -187.5 -394.5t-363.5 -119.5z" />
<glyph horiz-adv-x="1092" d="M1213 1075l-648 -1075h-261l-176 1075h249l84 -650q15 -120 15 -179v-17l-1 -17h4q21 55 139 271l324 592h271z" />
<glyph horiz-adv-x="1693" d="M1081 1075l53 -686l4 -94q0 -58 -4 -82h6q9 27 33 82.5t367 779.5h246l-568 -1075h-251l-53 658q-4 40 -4 95q0 50 4 88h-2q-51 -131 -82 -189l-330 -652h-256l-108 1075h237l45 -680l5 -105q0 -48 -4 -76h5q27 79 77 178l346 683h234z" />
<glyph horiz-adv-x="1070" d="M936 0h-266l-134 339q-14 35 -23 80h-4q-27 -42 -32.5 -50t-293.5 -369h-283l489 553l-229 522h267l126 -355l19 -64h4l48 66l273 353h272l-473 -545z" />
<glyph horiz-adv-x="999" d="M1096 1075l-510 -696l-81 -379h-240l79 375l-211 700h254l98 -391q10 -38 16 -103h2q30 57 61 103l270 391h262z" />
<glyph horiz-adv-x="1028" d="M330 185h574l-40 -185h-933l20 97l765 794h-542l40 184h885l-24 -109z" />
<glyph horiz-adv-x="1531" d="M1343 0h-672l64 297h-341l-203 -297h-290l789 1075h857l-38 -178h-406l-55 -264h372l-39 -177h-372l-58 -279h432zM507 470h265l92 427h-59z" />
<glyph horiz-adv-x="1299" d="M1020 0h-241l97 457h-480l-97 -457h-241l168 792h-142l33 155h142l27 128h241l-27 -128h479l27 128h242l-27 -128h144l-33 -155h-144zM915 640l32 152h-480l-32 -152h480z" />
<glyph horiz-adv-x="581" d="M585 1352q0 -51 -35 -85.5t-90 -34.5q-53 0 -89 34.5t-36 85.5t36 82.5t89 31.5q54 0 89.5 -31.5t35.5 -82.5zM299 0h-241l230 1075h241z" />
<glyph horiz-adv-x="859" d="M903 896h-412l-192 -896h-241l231 1075h653z" />
<glyph horiz-adv-x="1298" d="M1018 0h-241l188 890h-478l-188 -890h-241l228 1075h961z" />
<glyph horiz-adv-x="917" d="M730 0h-672l229 1075h646l-38 -178h-406l-54 -264h372l-39 -177h-372l-59 -279h432zM981 1351q0 -50 -35 -84.5t-91 -34.5t-91 35t-35 84q0 51 36 83.5t89 32.5q54 0 90.5 -33t36.5 -83zM560 1351q0 -51 -37.5 -85t-89.5 -34q-51 0 -89 33.5t-38 85.5q0 49 36 82.5 t91 33.5q54 0 90.5 -33t36.5 -83z" />
<glyph horiz-adv-x="1270" d="M632 178q54 -26 112 -26q77 0 127 48t50 125q0 72 -44.5 110t-148.5 38h-156l-101 -473h-240l190 892h-306l38 183h886l-38 -183h-340l-54 -253h198q165 0 260.5 -78.5t95.5 -216.5q0 -168 -109 -262.5t-298 -94.5q-100 0 -157 23z" />
<glyph horiz-adv-x="859" d="M903 896h-412l-192 -896h-241l231 1075h653zM653 1232h-179l302 326h225z" />
<glyph horiz-adv-x="1058" d="M327 447q0 -131 79 -205t216 -74q144 0 286 77l-46 -208q-128 -59 -304 -59q-145 0 -254 57.5t-167 164t-58 246.5q0 191 83 339.5t237 230t353 81.5q173 0 307 -61l-45 -201q-115 73 -280 73q-143 0 -245.5 -74t-144.5 -212h473l-39 -175h-451z" />
<glyph horiz-adv-x="926" d="M815 847q-124 71 -248 71q-78 0 -125 -35.5t-47 -93.5q0 -31 12.5 -54t37.5 -44.5t105 -69.5q135 -82 187 -151t52 -157q0 -98 -51 -173.5t-148 -119t-237 -43.5q-76 0 -166 19.5t-154 53.5l37 200q159 -94 298 -94q99 0 144 38t45 97q0 44 -32.5 80t-136.5 96 q-123 70 -175 141t-52 157q0 95 49.5 171t141.5 118.5t219 42.5q141 0 284 -55z" />
<glyph horiz-adv-x="581" d="M299 0h-241l230 1075h241z" />
<glyph horiz-adv-x="581" d="M299 0h-241l230 1075h241zM785 1351q0 -50 -35 -84.5t-91 -34.5t-91 35t-35 84q0 51 36 83.5t89 32.5q54 0 90.5 -33t36.5 -83zM364 1351q0 -51 -37.5 -85t-89.5 -34q-51 0 -89 33.5t-38 85.5q0 49 36 82.5t91 33.5q54 0 90.5 -33t36.5 -83z" />
<glyph horiz-adv-x="738" d="M85 -23q-99 0 -183 31l44 200q59 -35 137 -35q101 0 158 58t83 184l139 660h238l-142 -668q-48 -227 -163 -328.5t-311 -101.5z" />
<glyph horiz-adv-x="1712" d="M700 0l190 895h-225q-178 -486 -253.5 -638t-159 -212.5t-207.5 -60.5q-80 0 -143 20l38 176q32 -19 83 -19q61 0 103.5 44t97.5 165t132 317.5t144 387.5h669l-91 -429h184q165 0 255 -75t90 -213q0 -176 -122.5 -267t-363.5 -91h-421zM1042 479l-66 -312h156 q113 0 170 45.5t57 123.5q0 76 -48 109.5t-139 33.5h-130z" />
<glyph horiz-adv-x="1753" d="M843 463h-446l-98 -463h-241l228 1075h240l-90 -426h446l90 426h241l-91 -429h181q165 0 255 -75t90 -213q0 -176 -122.5 -267t-363.5 -91h-417zM1020 167h153q113 0 170 45.5t57 123.5q0 76 -48 109.5t-139 33.5h-126z" />
<glyph horiz-adv-x="1326" d="M1096 0h-236l60 281q7 34 7 63q0 125 -151 125h-205l-100 -469h-240l189 892h-306l39 183h886l-39 -183h-339l-55 -256h228q168 0 249.5 -70t81.5 -195q0 -50 -12 -105z" />
<glyph horiz-adv-x="1102" d="M979 0h-271l-252 462q-13 22 -38 82h-5l-115 -544h-240l228 1075h241l-105 -489h4l68 72l420 417h294l-549 -521zM804 1232h-179l302 326h225z" />
<glyph horiz-adv-x="1048" d="M1016 1513q-40 -134 -130.5 -207.5t-213.5 -73.5q-109 0 -179.5 61.5t-70.5 165.5q0 30 8 54h133l-3 -31q0 -56 35.5 -86t89.5 -30q142 0 191 147h140zM1173 1075l-526 -752q-138 -196 -247.5 -269t-244.5 -73q-112 0 -181 36l39 186q56 -41 129 -41q67 0 121.5 36.5 t121.5 128.5l-238 748h246l132 -489q7 -23 12 -79h2l83 131l286 437h265z" />
<glyph horiz-adv-x="1300" d="M1020 0h-374l-61 -291h-219l61 291h-369l228 1075h241l-190 -893h481l189 893h242z" />
<glyph horiz-adv-x="1103" d="M974 0h-250l-32 237h-400l-131 -237h-256l618 1075h287zM679 421l-44 358q-3 21 -3 78v15l1 13h-9q-28 -75 -46 -108l-192 -356h293z" />
<glyph horiz-adv-x="1066" d="M286 1075h686l-38 -178h-446l-53 -251h131q186 0 288.5 -70t102.5 -218q0 -176 -122.5 -267t-364.5 -91h-412zM333 167h148q114 0 170.5 45.5t56.5 123.5q0 76 -47.5 109.5t-138.5 33.5h-121z" />
<glyph horiz-adv-x="1074" d="M957 344q0 -166 -126.5 -255t-357.5 -89h-415l228 1075h379q172 0 261 -65.5t89 -179.5q0 -105 -70.5 -172.5t-194.5 -85.5l-1 -3q99 -16 153.5 -78.5t54.5 -146.5zM761 791q0 58 -38.5 84t-123.5 26h-110l-55 -261h90q115 0 176 34.5t61 116.5zM709 335 q0 72 -51.5 101.5t-154.5 29.5h-106l-62 -292h141q109 0 171 41t62 120z" />
<glyph horiz-adv-x="859" d="M903 896h-412l-192 -896h-241l231 1075h653z" />
<glyph horiz-adv-x="1281" d="M1054 -291h-219l62 291h-760l-62 -291h-217l100 468h101q165 176 268.5 377.5t191.5 520.5h661l-191 -898h165zM749 177l152 718h-210q-57 -205 -156 -395.5t-220 -322.5h434z" />
<glyph horiz-adv-x="917" d="M730 0h-672l229 1075h646l-38 -178h-406l-54 -264h372l-39 -177h-372l-59 -279h432z" />
<glyph horiz-adv-x="1618" d="M1497 0h-268l-270 462q-15 26 -36 73h-4l-111 -535h-234l113 532h-3l-58 -63l-467 -469h-286l592 577l-304 498h250l252 -425q12 -21 32 -66h4l103 491h234l-106 -496h4l55 59l439 437h283l-552 -528z" />
<glyph horiz-adv-x="951" d="M902 833q0 -107 -76.5 -180.5t-211.5 -99.5v-3q102 -19 158.5 -82t56.5 -157q0 -151 -128.5 -241t-346.5 -90q-216 0 -365 68l37 189q158 -84 312 -84q115 0 181 44t66 123q0 152 -239 152h-130l34 162h124q145 0 212 45.5t67 121.5q0 52 -41.5 88t-135.5 36 q-65 0 -154.5 -23t-143.5 -49l37 180q159 59 332 59q168 0 261.5 -68.5t93.5 -190.5z" />
<glyph horiz-adv-x="1358" d="M286 1075h223l-128 -600q-24 -116 -40 -157h3q17 21 48 55.5t667 701.5h248l-229 -1075h-223q135 629 150.5 696t20.5 80h-4q-32 -46 -69 -83l-662 -693h-233z" />
<glyph horiz-adv-x="1358" d="M1162 1513q-40 -134 -130.5 -207.5t-213.5 -73.5q-109 0 -179.5 61.5t-70.5 165.5q0 30 8 54h133l-3 -31q0 -56 35.5 -86t89.5 -30q142 0 191 147h140zM286 1075h223l-128 -600q-24 -116 -40 -157h3q17 21 48 55.5t667 701.5h248l-229 -1075h-223q135 629 150.5 696 t20.5 80h-4q-32 -46 -69 -83l-662 -693h-233z" />
<glyph horiz-adv-x="1102" d="M979 0h-271l-252 462q-13 22 -38 82h-5l-115 -544h-240l228 1075h241l-105 -489h4l68 72l420 417h294l-549 -521z" />
<glyph horiz-adv-x="1220" d="M940 0h-240l190 895h-225l-60 -165q-109 -303 -165.5 -424t-114 -188.5t-127.5 -100.5t-161 -33q-79 0 -135 20l37 176q32 -19 84 -19q61 0 104 42.5t96 154t120.5 286.5t156.5 431h669z" />
<glyph horiz-adv-x="1599" d="M1321 0h-231l139 657q22 105 55 221h-6q-73 -109 -136 -185l-344 -407h-141l-144 382q-17 47 -54 210h-5l-42 -221l-140 -657h-214l228 1075h279l171 -448q24 -63 34 -122h5q53 83 130 176l329 394h314z" />
<glyph horiz-adv-x="1299" d="M1020 0h-241l98 466h-479l-99 -466h-241l228 1075h241l-90 -422h480l89 422h242z" />
<glyph horiz-adv-x="1279" d="M1211 636q0 -179 -83 -336t-229.5 -240t-328.5 -83q-227 0 -358.5 127t-131.5 340q0 184 85 337t230 234.5t329 81.5q224 0 355.5 -125t131.5 -336zM961 632q0 129 -70.5 203t-188.5 74q-104 0 -189.5 -62.5t-134.5 -172.5t-49 -234q0 -128 70.5 -202t190.5 -74 q104 0 189 63t133.5 172.5t48.5 232.5z" />
<glyph horiz-adv-x="1298" d="M1018 0h-241l188 890h-478l-188 -890h-241l228 1075h961z" />
<glyph horiz-adv-x="1053" d="M1034 766q0 -194 -130 -296t-377 -102h-151l-78 -368h-240l228 1075h349q188 0 293.5 -82t105.5 -227zM788 753q0 148 -193 148h-105l-76 -352h120q117 0 185.5 50t68.5 154z" />
<glyph horiz-adv-x="1053" d="M1002 831q-73 45 -130.5 61.5t-118.5 16.5q-127 0 -226 -55t-152 -155t-53 -226q0 -145 82.5 -227t226.5 -82q55 0 112 15.5t154 65.5l-46 -208q-124 -60 -291 -60q-220 0 -350.5 128.5t-130.5 344.5q0 189 82.5 337t235.5 229t350 81q163 0 301 -65z" />
<glyph horiz-adv-x="958" d="M999 892h-329l-191 -892h-241l191 892h-329l39 183h899z" />
<glyph horiz-adv-x="1048" d="M1173 1075l-526 -752q-138 -196 -247.5 -269t-244.5 -73q-112 0 -181 36l39 186q56 -41 129 -41q67 0 121.5 36.5t121.5 128.5l-238 748h246l132 -489q7 -23 12 -79h2l83 131l286 437h265z" />
<glyph horiz-adv-x="1361" d="M700 137l-32 -149h-219l33 149h-18q-182 0 -290 98t-108 259q0 141 69 251t197.5 169.5t303.5 59.5h21l25 113h219l-23 -113h20q189 0 296 -96t107 -259q0 -140 -70.5 -251t-200 -171t-300.5 -60h-30zM843 811l-108 -506h25q93 0 163.5 39t108 108.5t37.5 155.5 q0 93 -53 148t-153 55h-20zM516 305l109 506h-18q-139 0 -224.5 -83t-85.5 -218q0 -104 54 -154.5t151 -50.5h14z" />
<glyph horiz-adv-x="1070" d="M936 0h-266l-134 339q-14 35 -23 80h-4q-27 -42 -32.5 -50t-293.5 -369h-283l489 553l-229 522h267l126 -355l19 -64h4l48 66l273 353h272l-473 -545z" />
<glyph horiz-adv-x="1338" d="M1119 -291h-219l61 291h-903l229 1075h240l-189 -893h475l190 893h241l-189 -893h164z" />
<glyph horiz-adv-x="1184" d="M904 0h-240l95 443q-70 -35 -148.5 -60t-172.5 -25q-138 0 -214 63.5t-76 190.5q0 54 10 104l77 359h241l-72 -338q-9 -41 -9 -75q0 -67 28 -96.5t99 -29.5q55 0 128.5 19.5t141.5 52.5l100 467h241z" />
<glyph horiz-adv-x="1761" d="M1481 0h-1423l229 1075h240l-189 -893h350l190 893h240l-189 -893h350l190 893h241z" />
<glyph horiz-adv-x="1803" d="M286 1075h241l-190 -893h351l189 893h241l-190 -893h351l189 893h241l-189 -893h164l-101 -473h-219l62 291h-1368z" />
<glyph horiz-adv-x="1224" d="M214 0l189 892h-306l39 183h547l-92 -429h176q165 0 255 -75t90 -213q0 -176 -122.5 -267t-363.5 -91h-412zM488 165h149q113 0 170 46.5t57 124.5q0 145 -186 145h-121z" />
<glyph horiz-adv-x="1562" d="M58 0l228 1075h241l-92 -429h176q165 0 255 -75t90 -213q0 -176 -122.5 -267t-363.5 -91h-412zM1280 0h-241l230 1075h241zM480 165q114 0 171 46.5t57 124.5q0 76 -47.5 109.5t-138.5 33.5h-121l-69 -314h148z" />
<glyph horiz-adv-x="1068" d="M286 1075h241l-92 -429h177q165 0 255 -75t90 -213q0 -176 -122.5 -267t-364.5 -91h-412zM401 481l-69 -316h149q113 0 170 46.5t57 124.5q0 145 -186 145h-121z" />
<glyph horiz-adv-x="1061" d="M750 626q-2 138 -80.5 209.5t-222.5 71.5q-151 0 -288 -63l45 207q126 46 296 46q227 0 359.5 -125.5t132.5 -340.5q0 -192 -81 -340.5t-233.5 -230t-358.5 -81.5q-195 0 -326 55l44 200q120 -67 290 -67q148 0 252.5 72.5t147.5 212.5h-465l39 174h449z" />
<glyph horiz-adv-x="1824" d="M1756 636q0 -183 -81.5 -335t-228.5 -238t-331 -86q-231 0 -360.5 129.5t-129.5 357.5h-228l-98 -464h-241l228 1075h240l-90 -429h219q59 207 224 329t391 122q223 0 354.5 -125.5t131.5 -335.5zM1506 632q0 129 -70.5 203t-188.5 74q-103 0 -189.5 -63t-135 -172.5 t-48.5 -233.5q0 -128 70.5 -202t191.5 -74q104 0 189 63.5t133 172.5t48 232z" />
<glyph horiz-adv-x="1082" d="M803 0h-241l89 420h-89q-61 0 -100.5 -28t-87.5 -102l-192 -290h-283l230 326q98 139 214 171l1 3q-97 24 -152 92t-55 162q0 147 113.5 234t319.5 87h461zM687 588l68 319h-159q-98 0 -153 -45t-55 -124q0 -66 45.5 -108t138.5 -42h115z" />
<glyph horiz-adv-x="866" d="M874 897h-423l-190 -897h-241l229 1075h453l41 193h211z" />
<glyph horiz-adv-x="1236" d="M35 266q0 73 34 131.5t98 106t188 98.5q-39 58 -54 105t-15 96q0 127 98.5 210.5t262.5 83.5q147 0 235.5 -67t88.5 -172q0 -94 -69 -167t-242 -142l165 -206q99 117 129 249h207q-64 -224 -225 -387l166 -205h-264l-64 78q-168 -101 -371 -101q-168 0 -268 79t-100 210z M433 154q122 0 232 59l-208 257q-98 -42 -142 -86.5t-44 -97.5q0 -60 43.5 -96t118.5 -36zM500 813q0 -54 58 -135q110 41 156 78t46 81q0 50 -33.5 78.5t-88.5 28.5q-60 0 -99 -35.5t-39 -95.5z" />
<glyph horiz-adv-x="1142" d="M1143 1019q0 -288 -88.5 -538.5t-235.5 -378t-333 -127.5q-182 0 -288.5 128.5t-106.5 354.5q0 265 89 503.5t239.5 367.5t340.5 129q178 0 280.5 -116.5t102.5 -322.5zM905 1018q0 122 -42.5 186t-120.5 64q-107 0 -194.5 -106t-152.5 -325t-65 -398q0 -127 46 -199.5 t130 -72.5q113 0 196.5 118.5t143 331t59.5 401.5z" />
<glyph horiz-adv-x="1142" d="M356 0l255 1196l-336 -81l45 207l586 136l-308 -1458h-242z" />
<glyph horiz-adv-x="1142" d="M858 1078q0 85 -54 134.5t-156 49.5q-99 0 -196 -40t-178 -103l52 236q156 103 385 103q183 0 287 -90.5t104 -246.5q0 -117 -39 -208t-120.5 -171t-281.5 -205q-200 -123 -273 -193.5t-87 -139.5h635l-43 -204h-897l19 89q23 113 78.5 203.5t146.5 173.5t280 202 q132 83 204 146t103 123t31 141z" />
<glyph horiz-adv-x="1142" d="M1089 1127q0 -156 -101.5 -259t-277.5 -132v-4q127 -22 197 -106t70 -205q0 -132 -67 -233.5t-195.5 -157t-306.5 -55.5q-97 0 -195.5 21t-178.5 61l46 206q65 -42 156.5 -69.5t170.5 -27.5q157 0 243 66t86 188q0 102 -77 162t-239 60h-116l41 191h135q172 0 269.5 66.5 t97.5 186.5q0 87 -59 134.5t-161 47.5q-158 0 -314 -78l45 210q161 58 335 58q182 0 289 -89.5t107 -241.5z" />
<glyph horiz-adv-x="1142" d="M1097 1434l-197 -926h213l-41 -193h-213l-67 -315h-225l67 315h-649l41 195q234 212 459.5 462.5t374.5 461.5h237zM675 508l127 594q-230 -293 -538 -594h411z" />
<glyph horiz-adv-x="1142" d="M566 881q204 0 317.5 -102t113.5 -284q0 -147 -76.5 -270.5t-211 -186.5t-311.5 -63q-92 0 -191.5 17t-151.5 46l46 208q51 -34 138.5 -57t162.5 -23q111 0 190 39.5t121 106.5t42 150q0 110 -67 168.5t-220 58.5q-136 0 -248 -14l187 759h730l-43 -203h-524l-90 -354z " />
<glyph horiz-adv-x="1142" d="M1115 1208q-97 60 -235 60q-122 0 -224 -67t-176 -190.5t-108 -279.5h4q53 80 142.5 129t191.5 49q164 0 258.5 -103t94.5 -289q0 -149 -67 -277t-180.5 -196t-255.5 -68q-208 0 -325 137t-117 384q0 267 102 490.5t281 347t397 123.5q152 0 261 -43zM828 496 q0 109 -55.5 167.5t-153.5 58.5q-116 0 -189.5 -85.5t-73.5 -207.5q0 -121 58 -190.5t157 -69.5q111 0 184 94t73 233z" />
<glyph horiz-adv-x="1142" d="M422 0h-258q97 270 291 590.5t456 640.5h-689l44 203h956l-29 -139q-323 -416 -500.5 -722t-270.5 -573z" />
<glyph horiz-adv-x="1142" d="M56 356q0 155 97 267.5t268 153.5q-155 97 -155 274q0 114 59.5 207.5t170.5 146.5t260 53q185 0 293 -91.5t108 -243.5q0 -137 -80 -232.5t-222 -137.5q93 -41 147 -121t54 -189q0 -128 -70 -236t-196 -169t-283 -61q-214 0 -332.5 100.5t-118.5 278.5zM304 370 q0 -96 58.5 -151.5t161.5 -55.5q121 0 202.5 82.5t81.5 207.5q0 94 -57.5 151t-150.5 57q-128 0 -212 -83t-84 -208zM500 1029q0 -81 48 -129.5t129 -48.5q96 0 169 71t73 172q0 81 -48.5 129.5t-133.5 48.5q-105 0 -171 -69t-66 -174z" />
<glyph horiz-adv-x="1142" d="M1113 941q0 -190 -54.5 -367.5t-155 -312t-243.5 -210t-332 -75.5q-87 0 -154 13t-102 30l34 206q99 -58 233 -58q197 0 334 142t186 388h-4q-124 -180 -325 -180q-113 0 -195.5 51.5t-127 144t-44.5 204.5q0 151 70 281t184.5 195.5t259.5 65.5q204 0 320 -139.5 t116 -378.5zM878 1001q0 116 -58.5 190t-152.5 74q-78 0 -138.5 -44t-93.5 -119t-33 -162q0 -110 55.5 -174t149.5 -64q80 0 141 38.5t95.5 108t34.5 152.5z" />
</font>
</defs>
</svg>
