<?xml version="1.0" standalone="no"?>
<!DOCTYPE svg PUBLIC "-//W3C//DTD SVG 1.1//EN" "http://www.w3.org/Graphics/SVG/1.1/DTD/svg11.dtd" >
<svg xmlns="http://www.w3.org/2000/svg">
<metadata></metadata>
<defs>
<font id="segoe_uisemibold" horiz-adv-x="1137" >
<font-face units-per-em="2048" ascent="1638" descent="-410" />
<missing-glyph horiz-adv-x="563" />
<glyph horiz-adv-x="2048" />
<glyph horiz-adv-x="2048" />
<glyph unicode="&#xd;" horiz-adv-x="154" />
<glyph unicode=" "  horiz-adv-x="563" />
<glyph unicode="&#x09;" horiz-adv-x="563" />
<glyph unicode="&#xa0;" horiz-adv-x="563" />
<glyph unicode="!" horiz-adv-x="622" d="M422 1434l-19 -1012h-190l-26 1012h235zM311 -20q-60 0 -102 38.5t-42 93.5q0 57 42 97t102 40q58 0 100.5 -40t42.5 -97q0 -55 -42.5 -93.5t-100.5 -38.5z" />
<glyph unicode="&#x22;" horiz-adv-x="896" d="M359 1442v-447h-182v447h182zM720 1442v-447h-184v447h184z" />
<glyph unicode="#" horiz-adv-x="1211" d="M1170 1049l-31 -140h-227l-58 -276h248l-35 -140h-242l-82 -370h-159l80 370h-242l-78 -370h-159l78 370h-229l28 140h232l55 276h-244l29 140h244l80 385h161l-79 -385h242l82 385h158l-80 -385h228zM754 909h-244l-60 -276h245z" />
<glyph unicode="$" d="M642 8v-217h-123v209q-222 0 -361 86v223q61 -53 165.5 -89t195.5 -36v445q-236 109 -305.5 201t-69.5 218q0 149 106 257.5t269 130.5v180h123v-176q210 -6 290 -56v-214q-109 80 -290 86v-461q220 -102 301 -198t81 -217q0 -147 -101 -246t-281 -126zM519 852v399 q-75 -15 -119 -64t-44 -119q0 -74 36 -121t127 -95zM642 575v-385q170 36 170 177q0 118 -170 208z" />
<glyph unicode="%" horiz-adv-x="1721" d="M416 714q-152 0 -242 97.5t-90 260.5q0 178 95.5 280.5t257.5 102.5q157 0 243.5 -95t86.5 -267t-97 -275.5t-254 -103.5zM430 1315q-82 0 -129.5 -63t-47.5 -173q0 -108 46.5 -168t127.5 -60t127 62.5t46 173.5q0 108 -45.5 168t-124.5 60zM1387 1434l-920 -1444h-143 l919 1444h144zM1258 -22q-152 0 -242 97.5t-90 260.5q0 178 95.5 280.5t257.5 102.5q157 0 243.5 -95t86.5 -267t-97 -275.5t-254 -103.5zM1272 579q-82 0 -129.5 -63t-47.5 -173q0 -108 46.5 -168t127.5 -60t127 62.5t46 173.5q0 108 -45.5 168t-124.5 60z" />
<glyph unicode="&#x26;" horiz-adv-x="1465" d="M1159 -1l-131 139q-43 -38 -95.5 -68.5t-111 -51.5t-121.5 -32t-127 -11q-108 0 -195 28t-148.5 79.5t-95 123.5t-33.5 160q0 247 328 416q-151 187 -151 332q0 75 29.5 138t82.5 108.5t126.5 71.5t160.5 26q83 0 150.5 -23t115.5 -64t74 -97.5t26 -122.5 q0 -65 -16.5 -117.5t-53 -98.5t-96 -88t-145.5 -84q79 -85 159.5 -169t163.5 -169q21 32 38.5 72t30 84t19.5 91t7 92h203q0 -275 -174 -481q45 -48 113.5 -118t161.5 -166h-295zM834 1133q0 33 -12.5 62t-33.5 50.5t-49 34t-60 12.5q-42 0 -76.5 -12.5t-59 -36t-38 -55.5 t-13.5 -71q0 -92 131 -238q211 108 211 254zM907 268q-117 121 -366 390q-110 -57 -158.5 -122t-48.5 -152q0 -53 19.5 -95.5t53.5 -72.5t80.5 -46t100.5 -16q188 0 319 114z" />
<glyph unicode="'" horiz-adv-x="529" d="M356 1442v-447h-183v447h183z" />
<glyph unicode="(" horiz-adv-x="680" d="M660 -326h-196q-316 354 -316 873q0 521 316 887h197q-310 -380 -310 -885q0 -501 309 -875z" />
<glyph unicode=")" horiz-adv-x="680" d="M217 -326h-196q310 374 310 875q0 505 -311 885h198q317 -366 317 -887q0 -519 -318 -873z" />
<glyph unicode="*" horiz-adv-x="889" d="M818 1081l-274 -47l192 -229l-142 -98l-148 260l-148 -260l-143 98l193 229l-275 47l57 160l257 -103l-32 296h182l-32 -296l257 103z" />
<glyph unicode="+" horiz-adv-x="1422" d="M1190 510h-395v-395h-165v395h-395v165h395v396h165v-396h395v-165z" />
<glyph unicode="," horiz-adv-x="494" d="M368 239l-155 -499h-174l110 499h219z" />
<glyph unicode="-" horiz-adv-x="823" d="M690 474h-546v171h546v-171z" />
<glyph unicode="." horiz-adv-x="494" d="M247 -22q-60 0 -102 39.5t-42 94.5q0 56 42 96t102 40q61 0 103.5 -40t42.5 -96q0 -55 -42.5 -94.5t-103.5 -39.5z" />
<glyph unicode="/" horiz-adv-x="847" d="M867 1434l-693 -1672h-211l690 1672h214z" />
<glyph unicode="0" d="M553 -24q-224 0 -349.5 183t-125.5 529q0 380 131 575t378 195q473 0 473 -735q0 -364 -133.5 -555.5t-373.5 -191.5zM576 1273q-261 0 -261 -575q0 -538 256 -538q252 0 252 547q0 566 -247 566z" />
<glyph unicode="1" horiz-adv-x="824" d="M615 1466v-1466h-232v1182q-63 -45 -135.5 -76.5t-165.5 -55.5v198q58 19 112 40t106.5 47t106 58t110.5 73h98z" />
<glyph unicode="2" d="M998 0h-900v111q0 68 19 127.5t51 112t75 99t92 90t100 84t100 81.5q46 39 84 76.5t65 77.5t42 84.5t15 96.5q0 57 -17.5 99.5t-49 71t-74.5 43t-94 14.5q-88 0 -179 -41t-175 -123v223q44 33 89 57.5t93 41t101 24.5t113 8q97 0 176 -25.5t135 -75t86.5 -123.5 t30.5 -170q0 -87 -21.5 -156.5t-61 -129.5t-95.5 -114t-125 -111q-58 -47 -115.5 -91.5t-103.5 -87t-74.5 -85t-28.5 -85.5v-5h647v-199z" />
<glyph unicode="3" d="M123 53v218q140 -111 316 -111q143 0 228.5 65t85.5 176q0 244 -373 244h-111v186h106q331 0 331 230q0 212 -258 212q-144 0 -271 -103v206q146 82 345 82q191 0 306 -96t115 -246q0 -283 -288 -364v-4q155 -15 245 -108.5t90 -233.5q0 -193 -145 -311.5t-382 -118.5 q-213 0 -340 77z" />
<glyph unicode="4" horiz-adv-x="1180" d="M926 1434v-926h213v-193h-213v-315h-225v315h-649v195q88 99 180.5 214.5t178 236t158.5 241.5t123 232h234zM701 508v602q-109 -196 -215.5 -342t-199.5 -260h415z" />
<glyph unicode="5" d="M155 33v223q141 -95 286 -95q146 0 235 74.5t89 198.5q0 122 -90.5 190t-259.5 68q-58 0 -235 -12l51 754h706v-198h-513l-24 -359q69 4 125 4q228 0 352.5 -117t124.5 -320q0 -213 -142.5 -341.5t-391.5 -128.5q-210 0 -313 59z" />
<glyph unicode="6" horiz-adv-x="1143" d="M1065 461q0 -108 -35.5 -197t-98.5 -153.5t-149.5 -100t-187.5 -35.5q-108 0 -198.5 42t-156 125t-101.5 206.5t-36 286.5q0 199 47.5 353t130.5 258t195 158t242 54q81 0 147.5 -11t106.5 -30v-209q-51 26 -109 44t-133 18q-84 0 -155 -34t-122.5 -99.5t-81 -162 t-30.5 -222.5h6q46 71 124.5 112t184.5 41q94 0 169.5 -30.5t129 -88t82.5 -140t29 -185.5zM831 442q0 62 -14.5 113t-44 87.5t-74 56.5t-104.5 20t-105.5 -21.5t-76.5 -56.5t-46.5 -80t-15.5 -92q0 -51 14.5 -104.5t44.5 -97.5t76.5 -72.5t110.5 -28.5q57 0 101 21t73.5 58 t45 87.5t15.5 109.5z" />
<glyph unicode="7" horiz-adv-x="1098" d="M1028 1318q-90 -165 -170 -326.5t-145 -324.5t-113 -328.5t-74 -338.5h-243q24 154 68.5 307.5t104.5 307t134.5 308.5t158.5 313h-679v198h958v-116z" />
<glyph unicode="8" d="M91 400q0 62 15.5 120t46.5 107t78 88t110 63q-93 52 -148 133.5t-55 180.5q0 79 32.5 146t90 116t135.5 76.5t170 27.5q93 0 171.5 -28t136 -77t89.5 -116t32 -145q0 -99 -55 -180.5t-146 -133.5q62 -24 109.5 -62.5t79.5 -87.5t48 -107t16 -121q0 -94 -35 -172 t-98 -133.5t-151 -86.5t-194 -31q-105 0 -192.5 31t-151 86.5t-99 133.5t-35.5 172zM317 420q0 -61 18 -110t51 -83t79.5 -52t103.5 -18q55 0 101 18.5t79.5 53t52.5 83t19 108.5q0 55 -18 103.5t-51 84.5t-79.5 57t-103.5 21q-54 0 -100.5 -19.5t-80 -55t-52.5 -84.5 t-19 -107zM366 1068q0 -45 16 -83.5t43 -67t63.5 -44.5t78.5 -16t78.5 16.5t64 45t43.5 67t16 82.5q0 45 -15.5 84t-42.5 67t-64 44t-80 16q-45 0 -82 -16.5t-63.5 -45.5t-41 -67.5t-14.5 -81.5z" />
<glyph unicode="9" horiz-adv-x="1143" d="M1047 795q0 -215 -46.5 -370t-128 -255t-191 -147.5t-235.5 -47.5q-41 0 -82.5 5t-79 13t-68 17.5t-50.5 18.5v209q21 -13 52 -26.5t67.5 -24t76 -17t76.5 -6.5q85 0 154.5 33t118.5 98t75.5 161.5t26.5 223.5h-4q-18 -32 -47.5 -60.5t-67.5 -50t-84.5 -34.5t-99.5 -13 q-90 0 -167.5 31.5t-134.5 89.5t-89.5 141t-32.5 185q0 112 37 202.5t102 154t153 98t191 34.5q97 0 183.5 -36.5t152 -116t104 -205.5t38.5 -305zM805 948q0 72 -18.5 131t-51.5 101t-78.5 65t-99.5 23q-48 0 -91.5 -19.5t-76 -55.5t-51.5 -87t-19 -113q0 -68 18.5 -120 t51.5 -87.5t79.5 -54t102.5 -18.5q50 0 92.5 18.5t74 50t49.5 74.5t18 92z" />
<glyph unicode=":" horiz-adv-x="494" d="M247 -22q-60 0 -102 39.5t-42 94.5q0 56 42 96t102 40q61 0 103.5 -40t42.5 -96q0 -55 -42.5 -94.5t-103.5 -39.5zM247 769q-60 0 -102 39.5t-42 94.5q0 56 42 96t102 40q61 0 103.5 -40t42.5 -96q0 -55 -42.5 -94.5t-103.5 -39.5z" />
<glyph unicode=";" horiz-adv-x="494" d="M247 771q-59 0 -99.5 40.5t-40.5 96.5t40.5 95t99.5 39q57 0 98 -39t41 -95t-41 -96.5t-98 -40.5zM368 239l-152 -503h-177l109 503h220z" />
<glyph unicode="&#x3c;" horiz-adv-x="1422" d="M1159 98l-893 429v106l893 466v-190l-653 -324v-4l653 -294v-189z" />
<glyph unicode="=" horiz-adv-x="1422" d="M1190 724h-955v165h955v-165zM1190 295h-955v164h955v-164z" />
<glyph unicode="&#x3e;" horiz-adv-x="1422" d="M1159 533l-893 -429v189l654 291v6l-654 324v190l893 -465v-106z" />
<glyph unicode="?" horiz-adv-x="909" d="M303 405q-9 25 -16 65t-7 79q0 61 24.5 110.5t61 92.5t79 83t79 78t61 80t24.5 92q0 45 -18 78.5t-49.5 56t-72 33.5t-86.5 11q-149 0 -284 -133v231q164 96 340 96q81 0 153 -21t126 -62t85 -102t31 -142q0 -77 -26 -137t-65.5 -110.5t-85 -89.5t-85 -78t-65.5 -81 t-26 -93q0 -43 11 -78t22 -59h-211zM417 -18q-57 0 -101 39q-42 38 -42 94q0 57 42 94q43 40 101 40q57 0 100 -40q42 -37 42 -94q0 -56 -42 -94q-44 -39 -100 -39z" />
<glyph unicode="@" horiz-adv-x="1955" d="M1147 397h-5q-72 -215 -282 -215q-134 0 -216 100.5t-82 270.5q0 225 112.5 374t296.5 149q70 0 125 -38.5t71 -92.5h3q3 28 15 115h166q-47 -528 -47 -538q0 -198 103 -198q94 0 156 110.5t62 286.5q0 260 -167.5 424.5t-464.5 164.5q-285 0 -472 -199t-187 -498 q0 -295 180 -476t485 -181q240 0 411 82v-154q-175 -74 -437 -74q-368 0 -593 220t-225 576q0 366 238 607t608 241q347 0 574.5 -202t227.5 -527q0 -238 -123.5 -390.5t-301.5 -152.5q-230 0 -231 215zM988 934q-110 0 -177.5 -108t-67.5 -269q0 -108 45.5 -170.5 t121.5 -62.5q110 0 174 113.5t64 300.5q0 196 -160 196z" />
<glyph unicode="A" horiz-adv-x="1375" d="M1355 0h-261l-129 365h-564l-124 -365h-260l537 1434h268zM902 559l-199 572q-9 28 -19 90h-4q-9 -57 -20 -90l-197 -572h439z" />
<glyph unicode="B" horiz-adv-x="1237" d="M177 0v1434h455q208 0 329.5 -91t121.5 -237q0 -122 -69 -212t-191 -128v-4q148 -17 236.5 -109.5t88.5 -240.5q0 -184 -145 -298t-366 -114h-460zM414 1243v-408h154q124 0 194.5 58.5t70.5 165.5q0 184 -246 184h-173zM414 644v-454h203q133 0 205.5 61.5t72.5 169.5 q0 223 -309 223h-172z" />
<glyph unicode="C" horiz-adv-x="1272" d="M1177 60q-162 -84 -403 -84q-312 0 -500 197t-188 517q0 344 211.5 556t534.5 212q208 0 345 -59v-236q-145 86 -320 86q-233 0 -377.5 -149t-144.5 -398q0 -237 135 -377.5t355 -140.5q203 0 352 96v-220z" />
<glyph unicode="D" horiz-adv-x="1469" d="M177 0v1434h414q793 0 793 -699q0 -332 -220 -533.5t-590 -201.5h-397zM414 1232v-1031h190q251 0 390.5 138t139.5 390q0 503 -521 503h-199z" />
<glyph unicode="E" horiz-adv-x="1060" d="M982 0h-805v1434h773v-202h-535v-406h493v-201h-493v-424h567v-201z" />
<glyph unicode="F" horiz-adv-x="1029" d="M951 1232h-536v-431h494v-201h-494v-600h-238v1434h774v-202z" />
<glyph unicode="G" horiz-adv-x="1428" d="M1296 98q-224 -122 -499 -122q-318 0 -515 198t-197 524q0 333 215.5 546.5t547.5 213.5q239 0 402 -70v-245q-165 110 -393 110q-229 0 -375.5 -151t-146.5 -391q0 -247 126 -388.5t342 -141.5q148 0 256 57v341h-302v200h539v-681z" />
<glyph unicode="H" horiz-adv-x="1506" d="M1329 0h-239v622h-675v-622h-238v1434h238v-603h675v603h239v-1434z" />
<glyph unicode="I" horiz-adv-x="597" d="M421 0h-245v1434h245v-1434z" />
<glyph unicode="J" horiz-adv-x="812" d="M648 514q0 -255 -126 -396.5t-336 -141.5q-98 0 -161 23v224q57 -39 147 -39q238 0 238 368v882h238v-920z" />
<glyph unicode="K" horiz-adv-x="1251" d="M1262 0h-310l-499 656q-28 37 -34 50h-4v-706h-238v1434h238v-674h4q12 22 34 49l481 625h285l-563 -688z" />
<glyph unicode="L" horiz-adv-x="1001" d="M971 0h-794v1434h238v-1233h556v-201z" />
<glyph unicode="M" horiz-adv-x="1893" d="M1717 0h-236v928q0 114 14 279h-4q-22 -94 -39 -135l-428 -1072h-164l-429 1064q-18 47 -38 143h-4q8 -86 8 -281v-926h-220v1434h335l377 -955q43 -110 56 -164h5q37 113 60 168l384 951h323v-1434z" />
<glyph unicode="N" horiz-adv-x="1571" d="M1393 0h-260l-685 1054q-26 40 -43 83h-6q8 -46 8 -197v-940h-230v1434h277l662 -1029q42 -64 54 -88h4q-10 57 -10 193v924h229v-1434z" />
<glyph unicode="O" horiz-adv-x="1548" d="M768 -24q-310 0 -496.5 201t-186.5 523q0 346 190 552t516 206q302 0 486.5 -200t184.5 -523q0 -351 -189 -555t-505 -204zM779 1249q-197 0 -320.5 -147t-123.5 -387q0 -239 120 -385t314 -146q206 0 325 139t119 389q0 257 -115.5 397t-318.5 140z" />
<glyph unicode="P" horiz-adv-x="1197" d="M414 520v-520h-237v1434h435q247 0 383 -115t136 -324t-142 -342t-384 -133h-191zM414 1238v-524h154q153 0 233 71t80 200q0 253 -294 253h-173z" />
<glyph unicode="Q" horiz-adv-x="1548" d="M768 -24q-155 0 -281 53t-215 148.5t-138 228.5t-49 294q0 172 49.5 312t141 239t222.5 153t293 54q150 0 274 -53t212 -148.5t136.5 -228.5t48.5 -293q0 -212 -71 -371.5t-200 -256.5l416 -300h-362l-256 199q-51 -14 -106 -22t-115 -8zM779 1249q-98 0 -179.5 -38.5 t-140.5 -109t-91.5 -168.5t-32.5 -218q0 -119 31.5 -217t88.5 -167.5t137 -108t177 -38.5q103 0 185 36t139.5 103.5t88.5 165.5t31 223q0 128 -30 228t-86 168.5t-136.5 104.5t-181.5 36z" />
<glyph unicode="R" horiz-adv-x="1275" d="M1285 0h-278l-229 384q-31 53 -60.5 90.5t-60 61.5t-66.5 35t-81 11h-96v-582h-237v1434h472q101 0 186 -24t148 -72.5t98.5 -121t35.5 -169.5q0 -76 -22.5 -139.5t-64 -113t-100 -84.5t-131.5 -54v-4q39 -22 68 -48.5t55 -54.5t51.5 -63.5t56.5 -82.5zM414 1241v-466 h198q55 0 101.5 17t80.5 49t53 78t19 103q0 103 -65 161t-187 58h-200z" />
<glyph unicode="S" horiz-adv-x="1115" d="M111 57v245q33 -30 78.5 -54t96.5 -40.5t102 -25.5t94 -9q150 0 223.5 50t73.5 145q0 51 -24.5 88.5t-68.5 68.5t-103.5 59.5t-127.5 59.5q-73 39 -136 79t-109.5 88.5t-73 109.5t-26.5 143q0 101 45.5 175.5t120 123t169.5 72t194 23.5q225 0 328 -51v-235 q-122 88 -314 88q-53 0 -105.5 -10t-94 -33t-67.5 -59t-26 -87q0 -48 20 -83t58.5 -64t94 -56.5t128.5 -59.5q75 -39 141.5 -82t117 -95t80 -115.5t29.5 -144.5q0 -109 -44 -184t-118.5 -122t-171.5 -68t-205 -21q-36 0 -88.5 5.5t-107.5 16t-104 25.5t-79 34z" />
<glyph unicode="T" horiz-adv-x="1130" d="M1097 1232h-412v-1232h-238v1232h-411v202h1061v-202z" />
<glyph unicode="U" horiz-adv-x="1440" d="M1280 580q0 -604 -572 -604q-548 0 -548 581v877h238v-828q0 -422 328 -422q316 0 316 407v843h238v-854z" />
<glyph unicode="V" horiz-adv-x="1314" d="M1301 1434l-515 -1434h-266l-506 1434h260l354 -1088q17 -52 26 -121h4q7 57 29 123l362 1086h252z" />
<glyph unicode="W" horiz-adv-x="1978" d="M1956 1434l-393 -1434h-269l-273 1003q-17 64 -21 140h-4q-5 -71 -24 -138l-274 -1005h-275l-401 1434h261l260 -1050q16 -66 20 -138h5q4 51 28 138l294 1050h245l272 -1058q14 -54 21 -128h4q3 50 23 132l255 1054h246z" />
<glyph unicode="X" horiz-adv-x="1268" d="M1249 0h-285l-294 526q-13 24 -29 68h-4q-9 -22 -30 -68l-303 -526h-287l470 721l-432 713h291l259 -484q25 -48 45 -96h3q29 63 50 100l269 480h268l-442 -711z" />
<glyph unicode="Y" horiz-adv-x="1182" d="M1176 1434l-470 -913v-521h-238v516l-458 918h271l282 -615q5 -11 30 -83h3q9 32 33 83l295 615h252z" />
<glyph unicode="Z" horiz-adv-x="1202" d="M1155 1330l-786 -1129h776v-201h-1109v109l789 1123h-728v202h1058v-104z" />
<glyph unicode="[" horiz-adv-x="680" d="M621 -326h-413v1760h413v-156h-216v-1448h216v-156z" />
<glyph unicode="\" horiz-adv-x="829" d="M869 -240h-206l-676 1674h210z" />
<glyph unicode="]" horiz-adv-x="680" d="M474 -326h-413v156h216v1448h-216v156h413v-1760z" />
<glyph unicode="^" horiz-adv-x="1422" d="M1208 618h-192l-312 604h-6l-291 -604h-189l425 840h109z" />
<glyph unicode="_" horiz-adv-x="850" d="M850 -297h-850v119h850v-119z" />
<glyph unicode="`" horiz-adv-x="591" d="M527 1204h-173l-262 328h214z" />
<glyph unicode="a" horiz-adv-x="1069" d="M937 0h-225v160h-4q-106 -184 -311 -184q-151 0 -236.5 82t-85.5 217q0 290 334 338l304 43q0 219 -208 219q-183 0 -330 -126v203q162 96 374 96q388 0 388 -382v-666zM713 503l-215 -30q-100 -13 -150.5 -48.5t-50.5 -124.5q0 -65 46.5 -106.5t124.5 -41.5 q106 0 175.5 74.5t69.5 187.5v89z" />
<glyph unicode="b" horiz-adv-x="1234" d="M387 148h-4v-148h-232v1516h232v-672h4q119 204 348 204q194 0 303.5 -137.5t109.5 -368.5q0 -257 -123 -411.5t-336 -154.5q-200 0 -302 172zM381 555v-127q0 -112 71.5 -190t181.5 -78q129 0 202.5 100.5t73.5 280.5q0 151 -68.5 236.5t-185.5 85.5q-124 0 -199.5 -88 t-75.5 -220z" />
<glyph unicode="c" horiz-adv-x="963" d="M884 47q-123 -71 -291 -71q-228 0 -368 142.5t-140 369.5q0 253 150.5 406.5t402.5 153.5q140 0 247 -49v-216q-107 80 -228 80q-147 0 -241 -99.5t-94 -260.5q0 -159 88.5 -251t237.5 -92q125 0 236 89v-202z" />
<glyph unicode="d" horiz-adv-x="1234" d="M1082 0h-232v174h-4q-112 -198 -345 -198q-189 0 -302.5 137.5t-113.5 374.5q0 254 125.5 407t334.5 153q207 0 301 -166h4v634h232v-1516zM853 468v134q0 109 -71 185t-181 76q-130 0 -204.5 -97t-74.5 -269q0 -156 71.5 -246.5t192.5 -90.5q119 0 193 87.5t74 220.5z " />
<glyph unicode="e" horiz-adv-x="1088" d="M1018 449h-698q4 -142 87.5 -219t229.5 -77q164 0 301 98v-187q-140 -88 -370 -88q-226 0 -354.5 139.5t-128.5 392.5q0 239 141.5 389.5t351.5 150.5t325 -135t115 -375v-89zM794 613q-1 125 -59 194.5t-160 69.5q-100 0 -169.5 -73t-85.5 -191h474z" />
<glyph unicode="f" horiz-adv-x="706" d="M730 1327q-47 27 -107 27q-169 0 -169 -191v-139h238v-182h-237v-842h-232v842h-175v182h175v166q0 162 106 255.5t265 93.5q86 0 136 -19v-193z" />
<glyph unicode="g" horiz-adv-x="1234" d="M1083 82q0 -564 -567 -564q-200 0 -349 67v212q168 -96 319 -96q365 0 365 359v112h-4q-115 -196 -346 -196q-187 0 -301.5 136.5t-114.5 366.5q0 261 123 415t338 154q203 0 301 -166h4v142h232v-942zM853 469v133q0 108 -71.5 184.5t-178.5 76.5q-132 0 -206.5 -97.5 t-74.5 -272.5q0 -151 71.5 -241.5t189.5 -90.5q120 0 195 86.5t75 221.5z" />
<glyph unicode="h" horiz-adv-x="1192" d="M1061 0h-232v560q0 304 -203 304q-102 0 -172 -88t-70 -225v-551h-233v1516h233v-662h4q116 194 332 194q341 0 341 -417v-631z" />
<glyph unicode="i" horiz-adv-x="535" d="M268 1239q-57 0 -97.5 37t-40.5 94t40.5 95t97.5 38q59 0 100 -38t41 -95q0 -54 -41 -92.5t-100 -38.5zM383 0h-232v1024h232v-1024z" />
<glyph unicode="j" horiz-adv-x="535" d="M383 43q0 -252 -106 -388.5t-303 -136.5q-73 0 -142 32v199q65 -45 123 -45q196 0 196 346v974h232v-981zM269 1239q-57 0 -97.5 37t-40.5 94t40.5 95t97.5 38q58 0 99 -38t41 -95q0 -54 -41 -92.5t-99 -38.5z" />
<glyph unicode="k" horiz-adv-x="1075" d="M1080 0h-294l-398 492h-4v-492h-233v1516h233v-961h4l376 469h279l-423 -494z" />
<glyph unicode="l" horiz-adv-x="535" d="M384 0h-233v1516h233v-1516z" />
<glyph unicode="m" horiz-adv-x="1814" d="M1682 0h-232v558q0 161 -45.5 233t-153.5 72q-91 0 -154.5 -91t-63.5 -218v-554h-233v577q0 286 -202 286q-94 0 -154.5 -86t-60.5 -223v-554h-232v1024h232v-162h4q111 186 323 186q106 0 185.5 -58.5t108.5 -153.5q114 212 340 212q338 0 338 -417v-631z" />
<glyph unicode="n" horiz-adv-x="1195" d="M1063 0h-232v577q0 287 -203 287q-106 0 -175 -79.5t-69 -200.5v-584h-233v1024h233v-170h4q115 194 332 194q167 0 255 -108.5t88 -313.5v-626z" />
<glyph unicode="o" horiz-adv-x="1223" d="M605 -24q-237 0 -378.5 143.5t-141.5 380.5q0 258 147.5 403t397.5 145q240 0 374 -141t134 -391q0 -245 -144.5 -392.5t-388.5 -147.5zM616 863q-136 0 -215 -95t-79 -262q0 -161 80 -253.5t214 -92.5q137 0 210.5 91t73.5 259q0 169 -73.5 261t-210.5 92z" />
<glyph unicode="p" horiz-adv-x="1234" d="M387 151h-4v-622h-232v1495h232v-180h4q119 204 348 204q195 0 304 -137t109 -368q0 -256 -123 -410t-336 -154q-196 0 -302 172zM381 555v-127q0 -112 71.5 -190t181.5 -78q129 0 202.5 100.5t73.5 280.5q0 151 -68.5 236.5t-185.5 85.5q-124 0 -199.5 -88t-75.5 -220z " />
<glyph unicode="q" horiz-adv-x="1234" d="M1082 -471h-232v647h-4q-105 -200 -343 -200q-189 0 -303.5 137.5t-114.5 374.5q0 255 125.5 407.5t337.5 152.5q206 0 298 -166h4v142h232v-1495zM853 466v132q0 111 -71.5 188t-181.5 77q-129 0 -203.5 -96.5t-74.5 -272.5q0 -156 72 -245t186 -89q125 0 199 87t74 219 z" />
<glyph unicode="r" horiz-adv-x="758" d="M745 803q-42 33 -121 33q-103 0 -172 -93t-69 -253v-490h-232v1024h232v-211h4q34 108 104.5 168.5t157.5 60.5q63 0 96 -19v-220z" />
<glyph unicode="s" horiz-adv-x="883" d="M87 32v215q130 -99 287 -99q210 0 210 124q0 35 -18 59.5t-48.5 43.5t-72 34t-92.5 34q-63 25 -113.5 53t-84 63.5t-50.5 80.5t-17 105q0 74 35 130.5t94 95t134 58t155 19.5q142 0 254 -43v-203q-108 74 -248 74q-44 0 -79.5 -9t-60.5 -25t-39 -38.5t-14 -49.5 q0 -33 14 -56t41.5 -40.5t66 -32t88.5 -31.5q66 -27 118.5 -55t89.5 -63.5t57 -82t20 -110.5q0 -78 -36 -136t-96 -96t-138.5 -56.5t-165.5 -18.5q-168 0 -291 56z" />
<glyph unicode="t" horiz-adv-x="740" d="M691 11q-68 -34 -179 -34q-298 0 -298 286v579h-171v182h171v237l232 66v-303h245v-182h-245v-512q0 -91 33 -130t110 -39q59 0 102 34v-184z" />
<glyph unicode="u" horiz-adv-x="1195" d="M1044 0h-232v162h-4q-101 -186 -314 -186q-363 0 -363 436v612h232v-588q0 -276 213 -276q103 0 169.5 76t66.5 199v589h232v-1024z" />
<glyph unicode="v" horiz-adv-x="1039" d="M1033 1024l-396 -1024h-251l-377 1024h252l227 -716q26 -79 32 -138h3q9 74 28 134l238 720h244z" />
<glyph unicode="w" horiz-adv-x="1549" d="M1528 1024l-302 -1024h-243l-186 694q-11 40 -14 90h-4q-2 -34 -18 -88l-202 -696h-238l-301 1024h240l186 -738q9 -33 12 -88h7q3 42 16 90l207 736h218l184 -741q9 -35 13 -88h7q2 37 15 88l182 741h221z" />
<glyph unicode="x" horiz-adv-x="1026" d="M1007 1024l-341 -518l337 -506h-269l-180 317q-17 29 -40 74h-4q-4 -9 -42 -74l-183 -317h-268l348 502l-330 522h270l177 -333q20 -37 39 -76h3l229 409h254z" />
<glyph unicode="y" horiz-adv-x="1041" d="M1038 1024l-462 -1188q-144 -318 -404 -318q-73 0 -122 13v193q55 -18 100 -18q130 0 194 128l69 168l-407 1022h257l244 -744q4 -14 18 -74h5q5 23 18 72l256 746h234z" />
<glyph unicode="z" horiz-adv-x="951" d="M907 927l-553 -746h551v-181h-876v87l565 756h-511v181h824v-97z" />
<glyph unicode="{" horiz-adv-x="680" d="M608 -326q-356 4 -356 304v295q0 198 -156 208v146q156 10 156 212v287q0 304 356 308v-155q-159 -4 -159 -191v-282q0 -202 -199 -249v-3q199 -44 199 -247v-279q0 -107 35.5 -152.5t123.5 -47.5v-154z" />
<glyph unicode="|" horiz-adv-x="570" d="M383 -482h-194v2048h194v-2048z" />
<glyph unicode="}" horiz-adv-x="680" d="M583 481q-155 -10 -155 -208v-295q0 -300 -354 -304v154q87 2 123.5 48t36.5 152v279q0 203 197 247v3q-197 47 -197 249v282q0 187 -160 191v155q354 -4 354 -308v-287q0 -202 155 -212v-146z" />
<glyph unicode="~" horiz-adv-x="1422" d="M1220 759q-7 -159 -80.5 -246.5t-199.5 -87.5q-109 0 -266 98q-97 67 -159 67q-140 0 -146 -169h-166q5 155 79.5 245t201.5 90q113 0 236 -76q132 -91 197 -91q61 0 98 47t39 123h166z" />
<glyph unicode="&#xa2;" d="M975 208q-88 -58 -203 -68v-189h-141v191q-208 22 -331 161t-123 346q0 219 123 366.5t331 184.5v214h141v-203q113 -2 203 -52v-213q-93 67 -203 74v-690q112 12 203 86v-208zM631 339v670q-107 -27 -167.5 -117.5t-60.5 -222.5t61 -219t167 -111z" />
<glyph unicode="&#xa3;" d="M1055 0h-932v176q206 62 206 281v168h-185v175h185v245q0 181 115.5 297t299.5 116q124 0 226 -41v-201q-95 57 -201 57q-218 0 -218 -267v-206h284v-175h-284v-138q0 -215 -193 -301h697v-186z" />
<glyph unicode="&#xa5;" d="M1093 1434l-355 -650h270v-161h-321v-183h321v-161h-321v-279h-228v279h-331v161h331v183h-331v161h275l-348 650h250l231 -494q26 -56 43 -107h4q12 40 45 113l229 488h236z" />
<glyph unicode="&#xa8;" horiz-adv-x="892" d="M649 1203q-50 0 -86.5 33t-36.5 84q0 49 35 82t85 33q53 0 89.5 -33.5t36.5 -81.5q0 -49 -35 -83t-88 -34zM233 1203q-52 0 -89 34.5t-37 82.5q0 49 35.5 82t86.5 33t88.5 -33.5t37.5 -81.5q0 -49 -36 -83t-86 -34z" />
<glyph unicode="&#xa9;" horiz-adv-x="1808" d="M905 -29q-314 0 -535.5 218.5t-221.5 527.5t221.5 527.5t535.5 218.5q313 0 534.5 -218.5t221.5 -527.5t-221.5 -527.5t-534.5 -218.5zM905 1364q-269 0 -459 -189.5t-190 -457.5t190 -457.5t459 -189.5t458.5 189.5t189.5 457.5t-189.5 457.5t-458.5 189.5zM1206 275 q-113 -65 -268 -65q-207 0 -347.5 138t-140.5 345q0 241 143.5 384.5t373.5 143.5q132 0 235 -51v-190q-88 72 -234 72q-144 0 -237.5 -93t-93.5 -249q0 -152 95.5 -244t242.5 -92q135 0 231 78v-177z" />
<glyph unicode="&#xab;" horiz-adv-x="1105" d="M1032 200h-214l-311 336l311 344h214l-318 -344zM599 200h-212l-313 336l313 344h211l-317 -344z" />
<glyph unicode="&#xad;" horiz-adv-x="823" d="M690 474h-546v171h546v-171z" />
<glyph unicode="&#xae;" horiz-adv-x="1808" d="M904 255q-251 0 -428.5 175t-177.5 423q0 247 177.5 424t428.5 177q250 0 428 -177t178 -424q0 -248 -178 -423t-428 -175zM905 1354q-206 0 -352.5 -148t-146.5 -354t146.5 -351.5t352.5 -145.5q207 0 352 145.5t145 351.5t-145 354t-352 148zM1214 483h-177l-73 174 q-56 130 -121 130h-44v-304h-144v752h226q141 0 217 -55t76 -150q0 -77 -46.5 -131.5t-137.5 -73.5v-3q63 -13 125 -139zM799 1115v-214h82q139 0 139 108q0 55 -37.5 80.5t-117.5 25.5h-66z" />
<glyph unicode="&#xb2;" horiz-adv-x="785" d="M686 884h-577v133l230 220q99 95 126 146t27 102t-33.5 83t-88.5 32q-117 0 -214 -102v179q87 77 242 77q126 0 199.5 -68.5t73.5 -180.5q0 -143 -193 -325l-155 -145v-4h363v-147z" />
<glyph unicode="&#xb3;" horiz-adv-x="785" d="M130 916v160q104 -73 219 -73q75 0 118.5 33t43.5 89q0 124 -215 124h-82v140h78q192 0 192 117q0 106 -132 106q-97 0 -192 -67v155q92 54 225 54q122 0 194 -60.5t72 -157.5q0 -147 -144 -200v-4q174 -42 174 -200q0 -119 -90 -194t-241 -75q-140 0 -220 53z" />
<glyph unicode="&#xb4;" horiz-adv-x="597" d="M568 1546l-286 -328h-172l242 328h216z" />
<glyph unicode="&#xb8;" horiz-adv-x="429" d="M420 -248q0 -194 -288 -194q-47 0 -81 3v111q44 -6 71 -6q133 0 133 82q0 74 -121 74q-10 0 -39 -4v182h136v-94q87 0 138 -40.5t51 -113.5z" />
<glyph unicode="&#xb9;" horiz-adv-x="759" d="M676 884h-531v139h181v541l-192 -48v149l361 90v-732h181v-139z" />
<glyph unicode="&#xbb;" horiz-adv-x="1105" d="M1033 538l-313 -338h-211l315 338l-315 342h211zM600 538l-312 -338h-214l320 338l-320 342h214z" />
<glyph unicode="&#xc6;" horiz-adv-x="1831" d="M1749 0h-804v365h-492l-172 -365h-275l710 1434h1000v-202h-534v-406h497v-201h-497v-424h567v-201zM945 559v673h-87l-317 -673h404z" />
<glyph unicode="&#xe6;" horiz-adv-x="1700" d="M1630 449h-699q3 -142 85 -219.5t225 -77.5q171 0 310 99v-186q-135 -89 -367 -89q-275 0 -390 206h-4q-140 -206 -372 -206q-160 0 -251.5 82.5t-91.5 220.5q0 306 379 331l259 16q0 250 -201 250q-178 0 -336 -115v196q152 91 357 91q240 0 311 -170h4q114 170 349 170 q206 0 319.5 -135.5t113.5 -376.5v-87zM1406 613q-2 127 -59 195.5t-160 68.5q-98 0 -168.5 -72t-86.5 -192h474zM713 412v55l-177 -11q-121 -7 -180.5 -43t-59.5 -119q0 -64 46.5 -103t125.5 -39q103 0 174 74t71 186z" />
<glyph unicode="&#x131;" horiz-adv-x="535" d="M384 0h-233v1024h233v-1024z" />
<glyph unicode="&#x138;" horiz-adv-x="1075" d="M1081 0h-295l-398 499h-4v-499h-233v1024h233v-471h4l376 471h284l-426 -488z" />
<glyph unicode="&#x19f;" horiz-adv-x="1548" d="M766 -24q-309 0 -495 200.5t-186 522.5q0 346 189.5 552.5t515.5 206.5q303 0 488 -201t185 -526q0 -349 -189.5 -552t-507.5 -203zM1207 812q-16 209 -128 323t-299 114q-181 0 -300 -119t-138 -318h865zM1208 617h-866q18 -199 134.5 -316t293.5 -117q190 0 306 113.5 t132 319.5z" />
<glyph unicode="&#x1dd;" horiz-adv-x="1088" d="M70 575h698q-5 142 -85.5 219.5t-224.5 77.5q-168 0 -308 -99v187q136 88 360 88q230 0 361 -138t131 -389q0 -243 -140.5 -394t-348.5 -151q-213 0 -328 136t-115 374v89zM768 411h-474q2 -126 59.5 -195t161.5 -69q99 0 168 73t85 191z" />
<glyph unicode="&#x237;" horiz-adv-x="535" d="M383 31q0 -246 -106 -379t-303 -133q-73 0 -142 31v196q68 -42 129 -42q190 0 190 302v1018h232v-993z" />
<glyph unicode="&#x275;" horiz-adv-x="1218" d="M603 -24q-236 0 -377 144.5t-141 382.5q0 257 145.5 401t392.5 144q240 0 375 -140t135 -388q0 -247 -144 -395.5t-386 -148.5zM892 600q-26 263 -279 263q-120 0 -195.5 -68.5t-90.5 -194.5h565zM893 435h-567q9 -129 85.5 -202t202.5 -73q262 0 279 275z" />
<glyph unicode="&#x292;" horiz-adv-x="955" d="M-29 -393v212q167 -114 347 -114q164 0 269 81t105 210q0 133 -108 207.5t-309 74.5h-80v87l369 477h-560v182h858v-99l-379 -484q214 -26 329 -143t115 -297q0 -209 -171.5 -344.5t-432.5 -135.5q-191 0 -352 86z" />
<glyph unicode="&#x2c6;" horiz-adv-x="771" d="M698 1204h-160l-161 211l-157 -211h-155l224 328h184z" />
<glyph unicode="&#x2c9;" horiz-adv-x="660" d="M600 1204h-543v137h543v-137z" />
<glyph unicode="&#x2d8;" horiz-adv-x="661" d="M634 1480q-11 -124 -97.5 -200t-209.5 -76q-130 0 -211.5 75.5t-87.5 200.5h136q12 -146 166 -146q65 0 111 39.5t56 106.5h137z" />
<glyph unicode="&#x2da;" horiz-adv-x="565" d="M279 1180q-94 0 -155.5 54t-61.5 142q0 98 63 156t161 58q96 0 157.5 -58.5t61.5 -149.5q0 -87 -65.5 -144.5t-160.5 -57.5zM279 1490q-45 0 -74.5 -30t-29.5 -74q0 -104 104 -104q48 0 79.5 29.5t31.5 74.5t-31.5 74.5t-79.5 29.5z" />
<glyph unicode="&#x2dc;" horiz-adv-x="733" d="M711 1475q0 -116 -51.5 -189.5t-139.5 -73.5q-72 0 -165 48q-78 45 -121 45q-84 0 -84 -111h-115q0 119 51 190.5t143 71.5q68 0 157 -51q72 -44 125 -44q81 0 81 114h119z" />
<glyph unicode="&#x2dd;" horiz-adv-x="740" d="M747 1522l-248 -318h-148l211 318h185zM441 1522l-243 -318h-148l208 318h183z" />
<glyph unicode="&#x30f;" horiz-adv-x="0" d="M351 1204h-148l-243 318h183zM50 1204h-148l-248 318h185z" />
<glyph unicode="&#x393;" horiz-adv-x="1003" d="M971 1228h-556v-1228h-238v1434h794v-206z" />
<glyph unicode="&#x3a0;" horiz-adv-x="1508" d="M1334 0h-239v1221h-680v-1221h-238v1434h1157v-1434z" />
<glyph unicode="&#x400;" horiz-adv-x="1060" d="M982 0h-805v1434h773v-202h-535v-406h493v-201h-493v-424h567v-201zM728 1553h-173l-262 328h214z" />
<glyph unicode="&#x401;" horiz-adv-x="1060" d="M982 0h-805v1434h773v-202h-535v-406h493v-201h-493v-424h567v-201zM788 1551q-50 0 -86.5 33t-36.5 84q0 49 35 82t85 33q53 0 89.5 -33.5t36.5 -81.5q0 -49 -35 -83t-88 -34zM372 1551q-52 0 -89 34.5t-37 82.5q0 49 35.5 82t86.5 33t88.5 -33.5t37.5 -81.5 q0 -49 -36 -83t-86 -34z" />
<glyph unicode="&#x402;" horiz-adv-x="1484" d="M813 9v191q64 -31 154 -31q82 0 131 61t49 165q0 123 -75 191.5t-209 68.5h-221v-655h-238v1231h-368v203h1060v-203h-454v-388h252q226 0 357 -117t131 -329q0 -196 -102.5 -304.5t-289.5 -108.5q-99 0 -177 25z" />
<glyph unicode="&#x403;" horiz-adv-x="1003" d="M971 1228h-556v-1228h-238v1434h794v-206zM891 1894l-286 -328h-172l242 328h216z" />
<glyph unicode="&#x404;" horiz-adv-x="1270" d="M1171 55q-161 -79 -400 -79q-310 0 -498 197t-188 515q0 348 200 559t517 211q216 0 369 -57v-232q-160 86 -360 86q-195 0 -321 -118t-148 -325h597v-198h-597q15 -204 139.5 -320.5t320.5 -116.5q217 0 369 95v-217z" />
<glyph unicode="&#x405;" horiz-adv-x="1115" d="M111 57v245q33 -30 78.5 -54t96.5 -40.5t102 -25.5t94 -9q150 0 223.5 50t73.5 145q0 51 -24.5 88.5t-68.5 68.5t-103.5 59.5t-127.5 59.5q-73 39 -136 79t-109.5 88.5t-73 109.5t-26.5 143q0 101 45.5 175.5t120 123t169.5 72t194 23.5q225 0 328 -51v-235 q-122 88 -314 88q-53 0 -105.5 -10t-94 -33t-67.5 -59t-26 -87q0 -48 20 -83t58.5 -64t94 -56.5t128.5 -59.5q75 -39 141.5 -82t117 -95t80 -115.5t29.5 -144.5q0 -109 -44 -184t-118.5 -122t-171.5 -68t-205 -21q-36 0 -88.5 5.5t-107.5 16t-104 25.5t-79 34z" />
<glyph unicode="&#x406;" horiz-adv-x="597" d="M421 0h-245v1434h245v-1434z" />
<glyph unicode="&#x407;" horiz-adv-x="597" d="M421 0h-245v1434h245v-1434zM511 1551q-50 0 -86.5 33t-36.5 84q0 49 35 82t85 33q53 0 89.5 -33.5t36.5 -81.5q0 -49 -35 -83t-88 -34zM95 1551q-52 0 -89 34.5t-37 82.5q0 49 35.5 82t86.5 33t88.5 -33.5t37.5 -81.5q0 -49 -36 -83t-86 -34z" />
<glyph unicode="&#x408;" horiz-adv-x="812" d="M648 514q0 -255 -126 -396.5t-336 -141.5q-98 0 -161 23v224q57 -39 147 -39q238 0 238 368v882h238v-920z" />
<glyph unicode="&#x409;" horiz-adv-x="2058" d="M1252 852h273q216 0 334.5 -105.5t118.5 -301.5q0 -204 -132.5 -324.5t-363.5 -120.5h-468v1229h-348q-72 -519 -114 -733.5t-85 -316t-116 -151t-176 -49.5q-90 0 -156 24v206q50 -29 110 -29t113 71t107.5 369.5t121.5 813.5h781v-582zM1252 659v-465h204 q131 0 201.5 62.5t70.5 172.5q0 230 -272 230h-204z" />
<glyph unicode="&#x40a;" horiz-adv-x="2072" d="M1029 0v642h-615v-642h-237v1434h237v-585h615v585h237v-578h246q227 0 353.5 -106t126.5 -303q0 -207 -134.5 -327t-368.5 -120h-460zM1266 659v-464h205q130 0 200.5 62.5t70.5 173.5q0 228 -271 228h-205z" />
<glyph unicode="&#x40b;" horiz-adv-x="1551" d="M1439 0h-237v376q0 265 -266 265h-251v-641h-238v1231h-411v203h1061v-203h-412v-386h278q476 0 476 -458v-387z" />
<glyph unicode="&#x40c;" horiz-adv-x="1251" d="M1262 0h-310l-499 656q-28 37 -34 50h-4v-706h-238v1434h238v-674h4q12 22 34 49l481 625h285l-563 -688zM989 1908l-286 -328h-172l242 328h216z" />
<glyph unicode="&#x40d;" horiz-adv-x="1572" d="M1393 0h-229v955q0 129 10 182h-6q-17 -45 -42 -83l-688 -1054h-261v1434h230v-912q0 -157 -8 -205h4q20 40 52 88l664 1029h274v-1434zM919 1553h-173l-262 328h214z" />
<glyph unicode="&#x40e;" horiz-adv-x="1206" d="M1216 1434l-446 -993q-124 -271 -239.5 -368.5t-252.5 -97.5q-109 0 -182 31v227q87 -52 167 -52q71 0 130.5 54t128.5 190l-479 1009h271l296 -680q9 -21 35 -104h2q3 10 38 104l279 680h252zM1029 1888q-16 -150 -123.5 -236.5t-269.5 -86.5q-166 0 -270.5 86.5 t-114.5 236.5h193q14 -182 195 -182q80 0 132.5 48t64.5 134h193z" />
<glyph unicode="&#x40f;" horiz-adv-x="1503" d="M1329 0h-473v-387h-212v387h-467v1434h238v-1226h675v1226h239v-1434z" />
<glyph unicode="&#x410;" horiz-adv-x="1375" d="M1355 0h-261l-129 365h-564l-124 -365h-260l537 1434h268zM902 559l-199 572q-9 28 -19 90h-4q-9 -57 -20 -90l-197 -572h439z" />
<glyph unicode="&#x411;" horiz-adv-x="1236" d="M177 0v1434h837v-203h-599v-392h274q220 0 342.5 -104t122.5 -295q0 -204 -130.5 -322t-355.5 -118h-491zM415 650v-460h215q131 0 202 62t71 173q0 225 -269 225h-219z" />
<glyph unicode="&#x412;" horiz-adv-x="1237" d="M177 0v1434h455q208 0 329.5 -91t121.5 -237q0 -122 -69 -212t-191 -128v-4q148 -17 236.5 -109.5t88.5 -240.5q0 -184 -145 -298t-366 -114h-460zM414 1243v-408h154q124 0 194.5 58.5t70.5 165.5q0 184 -246 184h-173zM414 644v-454h203q133 0 205.5 61.5t72.5 169.5 q0 223 -309 223h-172z" />
<glyph unicode="&#x413;" horiz-adv-x="1003" d="M971 1228h-556v-1228h-238v1434h794v-206z" />
<glyph unicode="&#x414;" horiz-adv-x="1495" d="M1424 -387h-213v387h-974v-387h-212v589h121q135 253 229 590.5t106 641.5h745v-1232h198v-589zM988 202v1027h-310q-14 -224 -97 -525t-185 -502h592z" />
<glyph unicode="&#x415;" horiz-adv-x="1060" d="M982 0h-805v1434h773v-202h-535v-406h493v-201h-493v-424h567v-201z" />
<glyph unicode="&#x416;" horiz-adv-x="1891" d="M1906 0h-305l-504 649q-21 28 -33 50h-4v-699h-230v699h-4q-13 -25 -33 -50l-504 -649h-306l608 746l-565 688h287l475 -612q23 -29 38 -56h4v668h230v-668h4q13 25 38 56l475 612h286l-564 -688z" />
<glyph unicode="&#x417;" horiz-adv-x="1123" d="M85 56v228q169 -120 384 -120q141 0 224.5 65.5t83.5 175.5q0 240 -339 240h-165v186h155q144 0 223 60t79 169q0 94 -67 150.5t-184 56.5q-178 0 -347 -108v212q166 87 383 87q216 0 340 -98.5t124 -258.5q0 -277 -277 -350v-4q148 -17 235.5 -110t87.5 -230 q0 -197 -147 -314t-402 -117q-253 0 -391 80z" />
<glyph unicode="&#x418;" horiz-adv-x="1572" d="M1393 0h-229v955q0 129 10 182h-6q-17 -45 -42 -83l-688 -1054h-261v1434h230v-912q0 -157 -8 -205h4q20 40 52 88l664 1029h274v-1434z" />
<glyph unicode="&#x419;" horiz-adv-x="1572" d="M1393 0h-229v955q0 129 10 182h-6q-17 -45 -42 -83l-688 -1054h-261v1434h230v-912q0 -157 -8 -205h4q20 40 52 88l664 1029h274v-1434zM1185 1888q-16 -150 -123.5 -236.5t-269.5 -86.5q-166 0 -270.5 86.5t-114.5 236.5h193q14 -182 195 -182q80 0 132.5 48t64.5 134 h193z" />
<glyph unicode="&#x41a;" horiz-adv-x="1251" d="M1262 0h-310l-499 656q-28 37 -34 50h-4v-706h-238v1434h238v-674h4q12 22 34 49l481 625h285l-563 -688z" />
<glyph unicode="&#x41b;" horiz-adv-x="1431" d="M1252 0h-238v1229h-348q-73 -519 -115 -733.5t-85 -316t-117 -151t-177 -49.5q-88 0 -153 23v203q48 -25 107 -25q61 0 114 71t108.5 369.5t122.5 813.5h781v-1434z" />
<glyph unicode="&#x41c;" horiz-adv-x="1893" d="M1717 0h-236v928q0 114 14 279h-4q-22 -94 -39 -135l-428 -1072h-164l-429 1064q-18 47 -38 143h-4q8 -86 8 -281v-926h-220v1434h335l377 -955q43 -110 56 -164h5q37 113 60 168l384 951h323v-1434z" />
<glyph unicode="&#x41d;" horiz-adv-x="1506" d="M1329 0h-239v622h-675v-622h-238v1434h238v-603h675v603h239v-1434z" />
<glyph unicode="&#x41e;" horiz-adv-x="1548" d="M768 -24q-310 0 -496.5 201t-186.5 523q0 346 190 552t516 206q302 0 486.5 -200t184.5 -523q0 -351 -189 -555t-505 -204zM779 1249q-197 0 -320.5 -147t-123.5 -387q0 -239 120 -385t314 -146q206 0 325 139t119 389q0 257 -115.5 397t-318.5 140z" />
<glyph unicode="&#x41f;" horiz-adv-x="1508" d="M1334 0h-239v1221h-680v-1221h-238v1434h1157v-1434z" />
<glyph unicode="&#x420;" horiz-adv-x="1197" d="M414 520v-520h-237v1434h435q247 0 383 -115t136 -324t-142 -342t-384 -133h-191zM414 1238v-524h154q153 0 233 71t80 200q0 253 -294 253h-173z" />
<glyph unicode="&#x421;" horiz-adv-x="1272" d="M1177 60q-162 -84 -403 -84q-312 0 -500 197t-188 517q0 344 211.5 556t534.5 212q208 0 345 -59v-236q-145 86 -320 86q-233 0 -377.5 -149t-144.5 -398q0 -237 135 -377.5t355 -140.5q203 0 352 96v-220z" />
<glyph unicode="&#x422;" horiz-adv-x="1130" d="M1097 1232h-412v-1232h-238v1232h-411v202h1061v-202z" />
<glyph unicode="&#x423;" horiz-adv-x="1206" d="M1216 1434l-446 -993q-124 -271 -239.5 -368.5t-252.5 -97.5q-109 0 -182 31v227q87 -52 167 -52q71 0 130.5 54t128.5 190l-479 1009h271l296 -680q9 -21 35 -104h2q3 10 38 104l279 680h252z" />
<glyph unicode="&#x424;" horiz-adv-x="1591" d="M914 174v-178h-227v178h-28q-250 0 -413 165.5t-163 407.5q0 232 159 390.5t407 158.5h38v173h227v-173h30q254 0 413.5 -156t159.5 -393q0 -239 -163 -406t-413 -167h-27zM914 1110v-745h23q152 0 243 103t91 275q0 165 -91 266t-245 101h-21zM687 365v745h-22 q-151 0 -243.5 -102.5t-92.5 -264.5q0 -173 91.5 -275.5t242.5 -102.5h24z" />
<glyph unicode="&#x425;" horiz-adv-x="1268" d="M1249 0h-285l-294 526q-13 24 -29 68h-4q-9 -22 -30 -68l-303 -526h-287l470 721l-432 713h291l259 -484q25 -48 45 -96h3q29 63 50 100l269 480h268l-442 -711z" />
<glyph unicode="&#x426;" horiz-adv-x="1593" d="M1526 -388h-213v388h-1136v1434h238v-1226h675v1226h239v-1226h197v-596z" />
<glyph unicode="&#x427;" horiz-adv-x="1414" d="M1226 0h-238v611q-225 -116 -418 -116q-199 0 -307.5 100.5t-108.5 282.5v556h237v-513q0 -223 228 -223q162 0 369 104v632h238v-1434z" />
<glyph unicode="&#x428;" horiz-adv-x="2001" d="M1822 0h-1645v1434h238v-1226h466v1226h237v-1226h466v1226h238v-1434z" />
<glyph unicode="&#x429;" horiz-adv-x="2087" d="M2020 -388h-204v388h-1639v1434h238v-1226h466v1226h237v-1226h466v1226h238v-1226h198v-596z" />
<glyph unicode="&#x42a;" horiz-adv-x="1493" d="M446 0v1230h-410v204h649v-577h245q227 0 354 -105.5t127 -302.5q0 -208 -133.5 -328.5t-363.5 -120.5h-468zM685 664v-470h205q129 0 200 63.5t71 175.5q0 231 -271 231h-205z" />
<glyph unicode="&#x42b;" horiz-adv-x="1710" d="M1532 0h-237v1434h237v-1434zM177 0v1434h237v-577h245q228 0 355 -106t127 -302q0 -208 -133.5 -328.5t-363.5 -120.5h-467zM414 664v-470h206q130 0 200.5 63t70.5 176q0 231 -271 231h-206z" />
<glyph unicode="&#x42c;" horiz-adv-x="1223" d="M177 0v1434h237v-577h245q228 0 355 -106t127 -302q0 -208 -133.5 -328.5t-363.5 -120.5h-467zM414 664v-470h206q130 0 200.5 63t70.5 176q0 231 -278 231h-199z" />
<glyph unicode="&#x42d;" horiz-adv-x="1269" d="M96 55v217q152 -95 370 -95q196 0 320.5 115.5t139.5 321.5h-598v198h598q-24 210 -147 326.5t-320 116.5q-200 0 -363 -85v228q157 60 377 60q316 0 513 -205.5t197 -549.5q0 -322 -189.5 -524.5t-499.5 -202.5q-236 0 -398 79z" />
<glyph unicode="&#x42e;" horiz-adv-x="2128" d="M723 635h-309v-635h-237v1434h237v-594h315q30 291 206.5 454.5t459.5 163.5q294 0 470 -198.5t176 -528.5q0 -353 -180 -554t-490 -201q-289 0 -464.5 180.5t-183.5 478.5zM1390 1249q-197 0 -308.5 -141t-111.5 -388q0 -255 106 -395.5t298 -140.5q199 0 308 137.5 t109 388.5q0 261 -105 400t-296 139z" />
<glyph unicode="&#x42f;" horiz-adv-x="1255" d="M1077 0h-238v586h-154q-59 0 -103.5 -33t-95.5 -147l-170 -406h-278l211 456q25 53 76.5 111.5t119.5 83.5v4q-148 31 -230.5 130.5t-82.5 241.5q0 184 137 295.5t360 111.5h448v-1434zM839 778v461h-199q-122 0 -189 -59t-67 -167q0 -109 71.5 -172t192.5 -63h191z" />
<glyph unicode="&#x430;" horiz-adv-x="1069" d="M937 0h-225v160h-4q-106 -184 -311 -184q-151 0 -236.5 82t-85.5 217q0 290 334 338l304 43q0 219 -208 219q-183 0 -330 -126v203q162 96 374 96q388 0 388 -382v-666zM713 503l-215 -30q-100 -13 -150.5 -48.5t-50.5 -124.5q0 -65 46.5 -106.5t124.5 -41.5 q106 0 175.5 74.5t69.5 187.5v89z" />
<glyph unicode="&#x431;" horiz-adv-x="1213" d="M994 1533v-197q-40 -27 -129 -40q-220 -31 -307.5 -59.5t-143.5 -121t-72 -270.5h4q114 154 326 154q205 0 330 -136.5t125 -360.5q0 -238 -138.5 -382t-373.5 -144q-248 0 -381.5 169t-133.5 483q0 242 49 410t136 253t193 117t364 75q102 22 152 50zM339 656v-128 q1 -71 21 -140.5t57 -122.5t88 -79t116 -26q120 0 194.5 91.5t74.5 234.5q0 153 -75.5 243.5t-204.5 90.5q-180 0 -271 -164z" />
<glyph unicode="&#x432;" horiz-adv-x="1131" d="M151 0v1024h489q165 0 261 -67t96 -183q0 -196 -201 -238q239 -30 239 -236q0 -127 -101 -213.5t-251 -86.5h-532zM383 860v-255h205q174 0 174 135q0 120 -152 120h-227zM383 444v-279h238q178 0 178 144q0 135 -193 135h-223z" />
<glyph unicode="&#x433;" horiz-adv-x="809" d="M765 839h-381v-839h-233v1024h614v-185z" />
<glyph unicode="&#x434;" horiz-adv-x="1187" d="M1131 -373h-193v373h-729v-373h-191v550h91q245 362 249 847h616v-847h157v-550zM742 177v671h-195q-24 -372 -204 -671h399z" />
<glyph unicode="&#x435;" horiz-adv-x="1088" d="M1018 449h-698q4 -142 87.5 -219t229.5 -77q164 0 301 98v-187q-140 -88 -370 -88q-226 0 -354.5 139.5t-128.5 392.5q0 239 141.5 389.5t351.5 150.5t325 -135t115 -375v-89zM794 613q-1 125 -59 194.5t-160 69.5q-100 0 -169.5 -73t-85.5 -191h474z" />
<glyph unicode="&#x436;" horiz-adv-x="1622" d="M1618 0h-290l-400 509h-4v-509h-226v509h-3l-401 -509h-288l454 532l-433 492h282l385 -482h4v482h226v-482h4l385 482h282l-434 -492z" />
<glyph unicode="&#x437;" horiz-adv-x="945" d="M80 28v191q130 -72 304 -72q245 0 245 148t-289 148h-98v164h94q257 0 257 141q0 59 -54.5 94t-148.5 35q-143 0 -286 -68v182q173 58 318 58q407 0 407 -276q0 -89 -58.5 -153t-164.5 -85v-5q117 -9 188 -76t71 -170q0 -140 -122 -223t-336 -83t-327 50z" />
<glyph unicode="&#x438;" horiz-adv-x="1233" d="M1081 0h-210v751q-20 -40 -61 -111l-431 -640h-228v1024h213v-736q11 26 47 90l437 646h233v-1024z" />
<glyph unicode="&#x439;" horiz-adv-x="1233" d="M1081 0h-210v751q-20 -40 -61 -111l-431 -640h-228v1024h213v-736q11 26 47 90l437 646h233v-1024zM1014 1517q-16 -150 -123.5 -236.5t-269.5 -86.5q-166 0 -270.5 86.5t-114.5 236.5h193q14 -182 195 -182q80 0 132.5 48t64.5 134h193z" />
<glyph unicode="&#x43a;" horiz-adv-x="1075" d="M1081 0h-295l-398 499h-4v-499h-233v1024h233v-471h4l376 471h284l-426 -488z" />
<glyph unicode="&#x43b;" horiz-adv-x="1149" d="M998 0h-233v847h-209q-44 -475 -150.5 -667.5t-286.5 -192.5q-60 0 -103 17v173q35 -17 75 -17q215 0 276 864h631v-1024z" />
<glyph unicode="&#x43c;" horiz-adv-x="1507" d="M1356 0h-222v820q-20 -62 -61 -183l-231 -637h-206l-235 639q-19 52 -61 183v-822h-189v1024h302l235 -632q25 -69 64 -191l64 187l230 636h310v-1024z" />
<glyph unicode="&#x43d;" horiz-adv-x="1214" d="M1063 0h-233v448h-446v-448h-233v1024h233v-402h446v402h233v-1024z" />
<glyph unicode="&#x43e;" horiz-adv-x="1223" d="M605 -24q-237 0 -378.5 143.5t-141.5 380.5q0 258 147.5 403t397.5 145q240 0 374 -141t134 -391q0 -245 -144.5 -392.5t-388.5 -147.5zM616 863q-136 0 -215 -95t-79 -262q0 -161 80 -253.5t214 -92.5q137 0 210.5 91t73.5 259q0 169 -73.5 261t-210.5 92z" />
<glyph unicode="&#x43f;" horiz-adv-x="1214" d="M1063 0h-233v847h-446v-847h-233v1024h912v-1024z" />
<glyph unicode="&#x440;" horiz-adv-x="1234" d="M387 151h-4v-622h-232v1495h232v-180h4q119 204 348 204q195 0 304 -137t109 -368q0 -256 -123 -410t-336 -154q-196 0 -302 172zM381 555v-127q0 -112 71.5 -190t181.5 -78q129 0 202.5 100.5t73.5 280.5q0 151 -68.5 236.5t-185.5 85.5q-124 0 -199.5 -88t-75.5 -220z " />
<glyph unicode="&#x441;" horiz-adv-x="963" d="M884 47q-123 -71 -291 -71q-228 0 -368 142.5t-140 369.5q0 253 150.5 406.5t402.5 153.5q140 0 247 -49v-216q-107 80 -228 80q-147 0 -241 -99.5t-94 -260.5q0 -159 88.5 -251t237.5 -92q125 0 236 89v-202z" />
<glyph unicode="&#x442;" horiz-adv-x="881" d="M849 839h-292v-839h-233v839h-294v185h819v-185z" />
<glyph unicode="&#x443;" horiz-adv-x="1041" d="M1038 1024l-462 -1188q-144 -318 -404 -318q-73 0 -122 13v193q55 -18 100 -18q130 0 194 128l69 168l-407 1022h257l244 -744q4 -14 18 -74h5q5 23 18 72l256 746h234z" />
<glyph unicode="&#x444;" horiz-adv-x="1495" d="M854 -18v-460h-214v460h-34q-234 0 -378.5 144t-144.5 377q0 245 146 392t386 147h25v419h214v-419h23q242 0 388 -146t146 -393q0 -233 -143.5 -377t-376.5 -144h-37zM854 866v-709h19q137 0 219 94t82 255q0 169 -80.5 264.5t-215.5 95.5h-24zM640 157v709h-21 q-135 0 -217 -96t-82 -264q0 -159 82 -254t220 -95h18z" />
<glyph unicode="&#x445;" horiz-adv-x="1026" d="M1007 1024l-341 -518l337 -506h-269l-180 317q-17 29 -40 74h-4q-4 -9 -42 -74l-183 -317h-268l348 502l-330 522h270l177 -333q20 -37 39 -76h3l229 409h254z" />
<glyph unicode="&#x446;" horiz-adv-x="1276" d="M1220 -373h-194v373h-875v1024h233v-847h446v847h233v-847h157v-550z" />
<glyph unicode="&#x447;" horiz-adv-x="1190" d="M1038 0h-232v386q-175 -95 -322 -95q-346 0 -346 376v357h227v-325q0 -217 170 -217q126 0 271 75v467h232v-1024z" />
<glyph unicode="&#x448;" horiz-adv-x="1695" d="M1544 0h-1393v1024h233v-847h347v847h233v-847h347v847h233v-1024z" />
<glyph unicode="&#x449;" horiz-adv-x="1759" d="M1702 -373h-194v373h-1357v1024h233v-847h347v847h233v-847h348v847h233v-847h157v-550z" />
<glyph unicode="&#x44a;" horiz-adv-x="1263" d="M329 0v839h-301v185h535v-378h280q159 0 252.5 -83t93.5 -233q0 -153 -102.5 -241.5t-258.5 -88.5h-499zM563 479v-312h204q184 0 184 161q0 151 -183 151h-205z" />
<glyph unicode="&#x44b;" horiz-adv-x="1550" d="M1398 0h-232v1024h232v-1024zM151 0v1024h232v-378h280q159 0 253 -83.5t94 -232.5q0 -153 -97.5 -241.5t-245.5 -88.5h-516zM383 479v-312h212q176 0 176 161q0 151 -178 151h-210z" />
<glyph unicode="&#x44c;" horiz-adv-x="1083" d="M151 0v1024h232v-378h273q163 0 258.5 -83.5t95.5 -232.5q0 -153 -95.5 -241.5t-241.5 -88.5h-522zM383 479v-312h212q176 0 176 161q0 151 -178 151h-210z" />
<glyph unicode="&#x44d;" horiz-adv-x="962" d="M83 44v186q112 -80 257 -80q133 0 215 76t89 205h-411v161h412q-11 131 -93 205.5t-218 74.5q-139 0 -241 -74v195q112 55 263 55q253 0 388.5 -142.5t135.5 -401.5q0 -241 -139 -384.5t-374 -143.5q-164 0 -284 68z" />
<glyph unicode="&#x44e;" horiz-adv-x="1730" d="M638 444h-254v-444h-233v1024h233v-402h259q27 201 161.5 313.5t344.5 112.5q235 0 364.5 -137t129.5 -391q0 -251 -136.5 -397.5t-376.5 -146.5q-227 0 -354 123t-138 345zM1138 864q-266 0 -266 -351q0 -353 270 -353q264 0 264 354q0 350 -268 350z" />
<glyph unicode="&#x44f;" horiz-adv-x="1090" d="M940 0h-231v405h-119q-86 0 -156 -154l-122 -251h-263l162 304q69 118 166 156q-122 16 -186.5 87.5t-64.5 179.5q0 137 109.5 217t294.5 80h410v-1024zM709 565v291h-160q-188 0 -188 -143q0 -148 185 -148h163z" />
<glyph unicode="&#x450;" horiz-adv-x="1088" d="M1018 449h-698q4 -142 87.5 -219t229.5 -77q164 0 301 98v-187q-140 -88 -370 -88q-226 0 -354.5 139.5t-128.5 392.5q0 239 141.5 389.5t351.5 150.5t325 -135t115 -375v-89zM794 613q-1 125 -59 194.5t-160 69.5q-100 0 -169.5 -73t-85.5 -191h474zM725 1204h-173 l-262 328h214z" />
<glyph unicode="&#x451;" horiz-adv-x="1088" d="M1018 449h-698q4 -142 87.5 -219t229.5 -77q164 0 301 98v-187q-140 -88 -370 -88q-226 0 -354.5 139.5t-128.5 392.5q0 239 141.5 389.5t351.5 150.5t325 -135t115 -375v-89zM794 613q-1 125 -59 194.5t-160 69.5q-100 0 -169.5 -73t-85.5 -191h474zM776 1203 q-50 0 -86.5 33t-36.5 84q0 49 35 82t85 33q53 0 89.5 -33.5t36.5 -81.5q0 -49 -35 -83t-88 -34zM360 1203q-52 0 -89 34.5t-37 82.5q0 49 35.5 82t86.5 33t88.5 -33.5t37.5 -81.5q0 -49 -36 -83t-86 -34z" />
<glyph unicode="&#x452;" horiz-adv-x="1220" d="M499 -403v196q63 -36 118 -36q129 0 189.5 140.5t60.5 474.5q0 463 -225 463q-101 0 -170 -79.5t-69 -197.5v-558h-232v1192h-137v145l138 -1v180h231v-179h332v-145h-332v-354h4q104 186 312 186q382 0 382 -647q0 -424 -115.5 -615.5t-360.5 -191.5q-59 0 -126 27z" />
<glyph unicode="&#x453;" horiz-adv-x="809" d="M765 839h-381v-839h-233v1024h614v-185zM736 1546l-286 -328h-172l242 328h216z" />
<glyph unicode="&#x454;" horiz-adv-x="963" d="M881 44q-121 -68 -289 -68q-235 0 -371 141t-136 379q0 259 143.5 405.5t394.5 146.5q143 0 250 -50v-198q-97 72 -239 72q-135 0 -218.5 -76t-95.5 -204h412v-161h-412q7 -128 88 -204.5t216 -76.5q141 0 257 84v-190z" />
<glyph unicode="&#x455;" horiz-adv-x="883" d="M87 32v215q130 -99 287 -99q210 0 210 124q0 35 -18 59.5t-48.5 43.5t-72 34t-92.5 34q-63 25 -113.5 53t-84 63.5t-50.5 80.5t-17 105q0 74 35 130.5t94 95t134 58t155 19.5q142 0 254 -43v-203q-108 74 -248 74q-44 0 -79.5 -9t-60.5 -25t-39 -38.5t-14 -49.5 q0 -33 14 -56t41.5 -40.5t66 -32t88.5 -31.5q66 -27 118.5 -55t89.5 -63.5t57 -82t20 -110.5q0 -78 -36 -136t-96 -96t-138.5 -56.5t-165.5 -18.5q-168 0 -291 56z" />
<glyph unicode="&#x456;" horiz-adv-x="535" d="M268 1239q-57 0 -97.5 37t-40.5 94t40.5 95t97.5 38q59 0 100 -38t41 -95q0 -54 -41 -92.5t-100 -38.5zM383 0h-232v1024h232v-1024z" />
<glyph unicode="&#x457;" horiz-adv-x="535" d="M384 0h-233v1024h233v-1024zM480 1203q-50 0 -86.5 33t-36.5 84q0 49 35 82t85 33q53 0 89.5 -33.5t36.5 -81.5q0 -49 -35 -83t-88 -34zM64 1203q-52 0 -89 34.5t-37 82.5q0 49 35.5 82t86.5 33t88.5 -33.5t37.5 -81.5q0 -49 -36 -83t-86 -34z" />
<glyph unicode="&#x458;" horiz-adv-x="535" d="M383 43q0 -252 -106 -388.5t-303 -136.5q-73 0 -142 32v199q65 -45 123 -45q196 0 196 346v974h232v-981zM269 1239q-57 0 -97.5 37t-40.5 94t40.5 95t97.5 38q58 0 99 -38t41 -95q0 -54 -41 -92.5t-99 -38.5z" />
<glyph unicode="&#x459;" horiz-adv-x="1699" d="M765 0v847h-209q-44 -475 -150.5 -667.5t-286.5 -192.5q-60 0 -103 16v174q35 -17 75 -17q215 0 276 864h631v-384h272q163 0 259 -82.5t96 -230.5q0 -150 -98 -238.5t-246 -88.5h-516zM998 471v-303h203q185 0 185 156q0 147 -186 147h-202z" />
<glyph unicode="&#x45a;" horiz-adv-x="1703" d="M764 0v459h-380v-459h-233v1024h233v-388h380v388h233v-388h272q167 0 260.5 -80.5t93.5 -228.5q0 -153 -96.5 -240t-246.5 -87h-516zM997 468v-300h205q183 0 183 156q0 144 -183 144h-205z" />
<glyph unicode="&#x45b;" horiz-adv-x="1207" d="M1079 0h-230v558q0 278 -204 278q-104 0 -173 -78.5t-69 -204.5v-553h-232v1192h-137v145h137v179h232v-179h332v-145h-332v-353h4q116 186 327 186q345 0 345 -418v-607z" />
<glyph unicode="&#x45c;" horiz-adv-x="1075" d="M1081 0h-295l-398 499h-4v-499h-233v1024h233v-471h4l376 471h284l-426 -488zM822 1546l-286 -328h-172l242 328h216z" />
<glyph unicode="&#x45d;" horiz-adv-x="1233" d="M1081 0h-210v751q-20 -40 -61 -111l-431 -640h-228v1024h213v-736q11 26 47 90l437 646h233v-1024zM768 1204h-173l-262 328h214z" />
<glyph unicode="&#x45e;" horiz-adv-x="1041" d="M1038 1024l-462 -1188q-144 -318 -404 -318q-73 0 -122 13v193q55 -18 100 -18q130 0 194 128l69 168l-407 1022h257l244 -744q4 -14 18 -74h5q5 23 18 72l256 746h234zM925 1517q-16 -150 -123.5 -236.5t-269.5 -86.5q-166 0 -270.5 86.5t-114.5 236.5h193 q14 -182 195 -182q80 0 132.5 48t64.5 134h193z" />
<glyph unicode="&#x45f;" horiz-adv-x="1214" d="M1063 0h-358v-373h-194v373h-360v1024h233v-847h446v847h233v-1024z" />
<glyph unicode="&#x460;" horiz-adv-x="1910" d="M499 0q-78 144 -138.5 266t-106 232.5t-79 216t-59.5 217t-45.5 234t-37.5 268.5h244q16 -129 34 -238t39 -205.5t46.5 -184t58 -174.5t73 -177.5t91.5 -192.5l208 518q-21 72 -38 146.5t-31.5 154.5t-27 167.5t-24.5 185.5h244q16 -129 34 -238t39 -205.5t46.5 -184 t57.5 -174.5t72.5 -177.5t91.5 -192.5q51 102 91.5 192.5t73 177.5t58 174.5t46.5 184t38.5 205t34.5 238.5h244q-18 -146 -37.5 -268.5t-45.5 -234t-59.5 -217t-79 -216t-106 -232.5t-138.5 -266h-240q-77 141 -136 260.5t-104 228.5l-190 -489h-242z" />
<glyph unicode="&#x461;" horiz-adv-x="1450" d="M1438 1024l-340 -1024h-226l-167 400l-168 -400h-202q-177 411 -233 598t-82 426h225q23 -194 62 -338t148 -431l154 358q-60 195 -83 411h232q27 -212 77 -371.5t149 -397.5l233 769h221z" />
<glyph unicode="&#x462;" horiz-adv-x="1342" d="M296 0v1117h-252v191h252v126h239v-126h310v-191h-310v-260h273q213 0 332.5 -105t119.5 -303q0 -208 -134.5 -328.5t-368.5 -120.5h-461zM535 664v-470h204q131 0 201 63.5t70 175.5q0 231 -271 231h-204z" />
<glyph unicode="&#x463;" horiz-adv-x="1219" d="M285 0v1167h-251v166h251v183h232v-183h280v-166h-280v-521h272q162 0 259 -83t97 -233q0 -152 -98 -241t-246 -89h-516zM517 479v-312h212q177 0 177 161q0 151 -179 151h-210z" />
<glyph unicode="&#x464;" horiz-adv-x="1905" d="M1807 55q-162 -79 -401 -79q-296 0 -481.5 173.5t-200.5 464.5h-310v-614h-237v1434h237v-622h313q30 298 225 472t485 174q217 0 370 -57v-232q-160 86 -360 86q-195 0 -321 -118t-148 -325h597v-198h-598q15 -204 139.5 -321t320.5 -117q218 0 370 94v-215z" />
<glyph unicode="&#x465;" horiz-adv-x="1507" d="M1425 44q-119 -68 -286 -68q-221 0 -356.5 120.5t-150.5 331.5h-249v-428h-232v1024h232v-428h251q25 214 165 333t368 119q143 0 250 -50v-198q-98 72 -240 72q-135 0 -218 -76t-95 -204h412v-161h-412q7 -128 88 -204.5t216 -76.5q141 0 257 84v-190z" />
<glyph unicode="&#x466;" horiz-adv-x="1408" d="M1389 0h-251l-209 568l-131 -156v-412h-207v410l-116 155l-210 -565h-247l551 1434h282zM854 776l-116 336q-19 52 -31 141h-4q-10 -76 -34 -140l-117 -334l148 -196z" />
<glyph unicode="&#x467;" horiz-adv-x="1083" d="M1074 0h-227l-134 360l-87 -97v-263h-179v263l-84 99l-136 -362h-219l418 1022h245zM648 532l-79 220q-19 65 -25 125h-7q-8 -74 -24 -121l-82 -219l111 -128z" />
<glyph unicode="&#x468;" horiz-adv-x="1894" d="M1875 0h-251l-209 568l-132 -156v-412h-206v410l-117 155l-210 -565h-246l244 632h-333v-632h-238v1434h238v-601h409l231 601h282zM1341 776l-121 342q-15 44 -27 135h-6q-9 -75 -31 -138l-118 -336l145 -192z" />
<glyph unicode="&#x469;" horiz-adv-x="1533" d="M1524 0h-226l-135 360l-87 -97v-263h-178v263l-84 99l-136 -362h-219l181 445h-256v-445h-233v1024h233v-413h323l169 413h246zM1099 532l-73 205q-25 72 -32 140h-6q-10 -84 -31 -137l-77 -203l113 -128z" />
<glyph unicode="&#x46a;" horiz-adv-x="1559" d="M1529 0h-245q-45 476 -384 569v-569h-239v568q-181 -52 -272 -188.5t-114 -379.5h-246q50 326 175 500t355 241l-409 693h1274l-424 -693q233 -70 355.5 -244t173.5 -497zM1058 1243h-528l229 -401q11 -32 30 -82h3q14 49 33 82z" />
<glyph unicode="&#x46b;" horiz-adv-x="1231" d="M1211 0h-215q-31 326 -276 397v-397h-209v396q-245 -68 -278 -396h-214q41 240 134.5 365t269.5 176l-319 483h1032l-328 -484q175 -53 269 -178t134 -362zM799 862h-347l158 -276q3 -5 12 -28q3 9 14 28z" />
<glyph unicode="&#x46c;" horiz-adv-x="2034" d="M2004 0h-244q-43 480 -385 575v-575h-238v574q-181 -52 -272 -190t-115 -384h-246q80 497 374 635h-464v-635h-237v1434h237v-601h574l-363 601h1274l-424 -689q232 -70 355 -244t174 -501zM1533 1243h-528l230 -398l31 -81h2q14 49 33 81z" />
<glyph unicode="&#x46d;" horiz-adv-x="1669" d="M1648 0h-214q-33 329 -277 399v-399h-209v399q-246 -70 -277 -399h-214q60 350 281 448h-355v-448h-232v1024h232v-410h436l-276 410h1031l-328 -481q175 -53 268 -178t134 -365zM1237 862h-347l159 -273q6 -10 12 -28l14 28z" />
<glyph unicode="&#x46e;" horiz-adv-x="1123" d="M863 1730l-197 -287q112 -23 189 -84q124 -98 124 -258q0 -277 -277 -350v-4q148 -17 235.5 -110t87.5 -230q0 -184 -118 -299.5t-321 -115.5q-22 0 -103 6q-81 7 -103 7q-122 0 -122 -114q0 -53 39 -86.5t107 -33.5q43 0 165 33q122 34 195 34q239 0 239 -248h-216 q0 64 -71 64q-44 0 -156 -35q-113 -34 -182 -34q-340 0 -340 307q0 138 83.5 216.5t244.5 78.5q22 0 96 -6q73 -7 96 -7q103 0 161 62.5t58 168.5q0 240 -360 240h-144v186h133q154 0 239 60t85 169q0 94 -67 150.5t-184 56.5q-178 0 -347 -108v212q128 67 287 82l-189 277 h155l160 -210l161 210h157z" />
<glyph unicode="&#x46f;" horiz-adv-x="949" d="M779 1312l-191 -279q241 -49 241 -260q0 -91 -59.5 -154.5t-162.5 -84.5v-4q115 -9 187 -75.5t72 -170.5q0 -141 -92 -219t-264 -78q-19 0 -83 6q-65 6 -82 6q-121 0 -121 -113q0 -55 33.5 -89t91.5 -34q46 0 135 33q89 34 160 34q210 0 210 -240h-193q0 67 -60 67 q-47 0 -133 -36q-86 -35 -143 -35q-137 0 -218 79t-81 213q0 123 78.5 207t210.5 84q17 0 70 -6q52 -7 69 -7q175 0 175 141q0 145 -268 145h-119v164h118q232 0 232 142q0 59 -54 94.5t-148 35.5q-143 0 -286 -69v182q120 39 226 51l-184 270h155l160 -210l161 210h157z " />
<glyph unicode="&#x470;" horiz-adv-x="1644" d="M1511 899q0 -228 -146 -377t-392 -149h-42v-373h-211v373h-58q-336 0 -432 394l-154 667h218l151 -645q27 -116 77 -164.5t153 -48.5h45v858h211v-858h42q317 0 317 333v525h221v-535z" />
<glyph unicode="&#x471;" horiz-adv-x="1585" d="M1446 557q0 -269 -143 -424.5t-376 -155.5h-25v-458h-209v458h-21q-175 0 -282 101t-168 347l-150 599h226l149 -599q35 -144 88 -201.5t144 -57.5h14v1026h209v-1026h21q128 0 213.5 107.5t85.5 282.5v468h224v-467z" />
<glyph unicode="&#x472;" horiz-adv-x="1548" d="M766 -24q-309 0 -495 200.5t-186 522.5q0 346 189.5 552.5t515.5 206.5q303 0 488 -201t185 -526q0 -349 -189.5 -552t-507.5 -203zM1205 826q-23 204 -134 313.5t-291 109.5q-186 0 -307 -124t-133 -328q210 67 268 67t189 -56q130 -56 165 -56q48 0 243 74zM1208 630 q-192 -70 -258 -70q-56 0 -185 56q-128 55 -173 55q-34 0 -250 -70q23 -192 138.5 -304.5t289.5 -112.5q197 0 313 118t125 328z" />
<glyph unicode="&#x473;" horiz-adv-x="1223" d="M606 -24q-237 0 -379 144.5t-142 382.5q0 257 146 401t394 144q242 0 377.5 -140t135.5 -388q0 -247 -144.5 -395.5t-387.5 -148.5zM903 599q-30 272 -287 272q-123 0 -203 -75t-96 -210q130 46 178 46q42 0 136 -41q93 -42 119 -42q30 0 153 50zM903 430 q-118 -46 -165 -46q-42 0 -132 42q-91 41 -124 41q-26 0 -161 -50q16 -126 94.5 -196t201.5 -70q258 0 286 279z" />
<glyph unicode="&#x474;" horiz-adv-x="1574" d="M1562 1157h-209q-12 104 -80 104q-63 0 -104 -118l-380 -1143h-269l-506 1434h260l357 -1088q17 -52 26 -121h4q6 45 28 115l268 863q80 255 317 255q261 0 288 -301z" />
<glyph unicode="&#x475;" horiz-adv-x="1299" d="M1293 769h-208q-8 91 -77 91q-59 0 -103 -124l-264 -736h-255l-377 1024h252l227 -716q25 -79 32 -138h3q6 60 26 122l154 491q80 265 308 265q254 0 282 -279z" />
<glyph unicode="&#x476;" horiz-adv-x="1574" d="M1562 1157h-209q-12 104 -80 104q-63 0 -104 -118l-380 -1143h-269l-506 1434h260l357 -1088q17 -52 26 -121h4q6 45 28 115l268 863q80 255 317 255q261 0 288 -301zM951 1566h-148l-243 318h183zM650 1566h-148l-248 318h185z" />
<glyph unicode="&#x477;" horiz-adv-x="1299" d="M1293 769h-208q-8 91 -77 91q-59 0 -103 -124l-264 -736h-255l-377 1024h252l227 -716q25 -79 32 -138h3q6 60 26 122l154 491q80 265 308 265q254 0 282 -279zM821 1204h-148l-243 318h183zM520 1204h-148l-248 318h185z" />
<glyph unicode="&#x478;" horiz-adv-x="2821" d="M769 -70v86q-309 0 -496.5 201t-187.5 524q0 338 194.5 548t505.5 210v-82q317 0 497.5 -198t180.5 -529q0 -350 -187.5 -555t-506.5 -205zM785 1209v82q-202 0 -326 -150.5t-124 -384.5q0 -239 120 -385t314 -146v-82q206 0 325 141t119 386q0 256 -112.5 397.5 t-315.5 141.5zM2811 769h-207q-10 91 -77 91q-59 0 -104 -124l-393 -1146h-244l143 380l-391 1054h252l223 -680q28 -91 35 -161h5q6 61 34 156l134 445q81 264 306 264q257 0 284 -279z" />
<glyph unicode="&#x479;" horiz-adv-x="2461" d="M605 -55v61q-242 0 -383.5 145t-141.5 383q0 248 146.5 396.5t389.5 148.5v-61q247 0 382 -140t135 -388q0 -247 -144.5 -396t-383.5 -149zM616 832v62q-139 0 -219 -92.5t-80 -262.5q0 -164 77 -256t211 -92v-62q139 0 215 93t76 261q0 349 -280 349zM2450 768h-208 q-8 92 -69 92q-68 0 -133 -190l-372 -1080h-244l144 381l-390 1053h251l229 -705q24 -77 30 -136h4q5 42 24 107l125 432q95 326 325 326q256 0 284 -280z" />
<glyph unicode="&#x47a;" horiz-adv-x="1694" d="M983 -18q-51 -72 -139 -72q-87 0 -139 71q-294 27 -457 217.5t-163 500.5q0 326 162.5 523.5t463.5 228.5q49 79 145 79q95 0 143 -78q288 -27 448.5 -218.5t160.5 -502.5q0 -330 -162 -525.5t-463 -223.5zM984 1240q-49 -58 -128 -58q-80 0 -129 59 q-185 -22 -289 -161.5t-104 -364.5q0 -223 99.5 -360t277.5 -162q49 64 133 64q85 0 134 -65q183 24 282 157.5t99 360.5q0 481 -375 530z" />
<glyph unicode="&#x47b;" horiz-adv-x="1364" d="M817 -16q-46 -74 -134 -74q-85 0 -133 72q-228 25 -346.5 161.5t-118.5 359.5q0 485 469 539q49 77 138 77q88 0 136 -77q451 -50 451 -522q0 -224 -121.5 -364.5t-340.5 -171.5zM814 854q-44 -58 -122 -58q-81 0 -125 60q-245 -41 -245 -348q0 -295 234 -338 q46 61 127 61t127 -62q232 42 232 345q0 292 -228 340z" />
<glyph unicode="&#x47c;" horiz-adv-x="2334" d="M1167 55q-184 -78 -377 -78q-318 0 -512 200q-193 199 -193 533q0 331 183 539q183 209 495 209q162 0 273 -46v-231q-109 71 -275 71q-196 0 -312 -147q-115 -146 -115 -391q0 -255 124 -394q125 -140 346 -140q213 0 362 92q149 -92 363 -92q221 0 345 139t124 395 q0 244 -115 390q-115 148 -312 148q-165 0 -274 -71v231q111 46 272 46q312 0 495 -208q184 -208 184 -539q0 -334 -193 -534q-192 -201 -509 -201q-193 0 -379 79zM1291 1721q0 -154 -201 -195l-33 68q94 18 101 67q-99 0 -99 91q0 93 105 93q27 0 50.5 -9.5t40.5 -26 t26.5 -39t9.5 -49.5zM1562 1995v-147h-41q-63 0 -126.5 19t-123.5 42t-115 42t-101 19q-24 0 -44 -9.5t-34.5 -26t-22 -39t-7.5 -47.5h-128q0 47 15 95t44.5 86.5t74 63t102.5 24.5q56 0 113 -19t115 -42t118 -42t123 -19h38z" />
<glyph unicode="&#x47d;" horiz-adv-x="1826" d="M913 58q-149 -82 -319 -82q-236 0 -372.5 147t-136.5 385q0 239 134.5 389.5t360.5 150.5q124 0 217 -42v-205q-88 58 -197 58q-130 0 -204 -92t-74 -254q0 -161 83 -256.5t237 -95.5q150 0 270 87q120 -87 270 -87q154 0 237 94.5t83 257.5q0 162 -73.5 254t-202.5 92 q-110 0 -199 -58v205q93 42 218 42q227 0 360.5 -151t133.5 -389q0 -237 -136 -384.5t-372 -147.5q-170 0 -318 82zM1037 1292q0 -154 -201 -195l-33 68q94 18 101 67q-99 0 -99 91q0 93 105 93q27 0 50.5 -9.5t40.5 -26t26.5 -39t9.5 -49.5zM1308 1566v-147h-41 q-63 0 -126.5 19t-123.5 42t-115 42t-101 19q-24 0 -44 -9.5t-34.5 -26t-22 -39t-7.5 -47.5h-128q0 47 15 95t44.5 86.5t74 63t102.5 24.5q56 0 113 -19t115 -42t118 -42t123 -19h38z" />
<glyph unicode="&#x47e;" horiz-adv-x="1910" d="M499 0q-78 144 -138.5 266t-106 232.5t-79 216t-59.5 217t-45.5 234t-37.5 268.5h244q16 -129 34 -238t39 -205.5t46.5 -184t58 -174.5t73 -177.5t91.5 -192.5l208 518q-21 72 -38 146.5t-31.5 154.5t-27 167.5t-24.5 185.5h244q16 -129 34 -238t39 -205.5t46.5 -184 t57.5 -174.5t72.5 -177.5t91.5 -192.5q51 102 91.5 192.5t73 177.5t58 174.5t46.5 184t38.5 205t34.5 238.5h244q-18 -146 -37.5 -268.5t-45.5 -234t-59.5 -217t-79 -216t-106 -232.5t-138.5 -266h-240q-77 141 -136 260.5t-104 228.5l-190 -489h-242zM1426 1773l-98 -213 h-46l-47 100h-210l-47 -100h-46l-47 100h-210l-47 -100h-46l-98 213h942z" />
<glyph unicode="&#x47f;" horiz-adv-x="1450" d="M1438 1024l-340 -1024h-226l-167 400l-168 -400h-202q-177 411 -233 598t-82 426h225q23 -194 62 -338t148 -431l154 358q-60 195 -83 411h232q27 -212 77 -371.5t149 -397.5l233 769h221zM1182 1427l-98 -213h-46l-47 100h-210l-47 -100h-46l-47 100h-210l-47 -100h-46 l-98 213h942z" />
<glyph unicode="&#x480;" horiz-adv-x="1213" d="M1177 1163q-152 86 -335 86q-226 0 -366.5 -148.5t-140.5 -396.5q0 -238 132.5 -379t347.5 -141q36 0 87 5v-599h-238v392q-268 22 -423.5 214t-155.5 492q0 345 211 557.5t535 212.5q209 0 346 -56v-239z" />
<glyph unicode="&#x481;" horiz-adv-x="916" d="M885 786q-109 77 -234 77q-144 0 -236.5 -99t-92.5 -260q0 -160 86.5 -252t232.5 -92q34 0 79 10v-580h-231v397q-183 21 -293.5 158.5t-110.5 341.5q0 253 148.5 407t396.5 154q145 0 255 -49v-213z" />
<glyph unicode="&#x482;" horiz-adv-x="1042" d="M1002 886l-64 -147l-278 121l-145 -339l275 -121l-65 -148l-274 120l-159 -372h-171l188 434l-268 116l65 150l266 -117l145 339l-264 114l65 151l263 -117l155 365h169l-181 -426z" />
<glyph unicode="&#x483;" horiz-adv-x="817" d="M282 1298q-11 -80 -102 -80q-40 0 -69 30t-29 73q0 44 29.5 74.5t71.5 30.5h352q12 80 100 80q42 0 71.5 -30t29.5 -73t-29.5 -74t-71.5 -31h-353z" />
<glyph unicode="&#x484;" horiz-adv-x="854" d="M794 1218h-141q-48 130 -143 130q-50 0 -148 -65t-165 -65h-103v170h79q61 0 166 48q105 47 180 47q162 0 275 -265z" />
<glyph unicode="&#x485;" horiz-adv-x="0" d="M129 1216l-46 -73q-89 40 -149.5 123t-60.5 171q0 59 37 96.5t93 37.5q49 0 81 -30.5t32 -75.5q0 -97 -107 -104q16 -94 120 -145z" />
<glyph unicode="&#x486;" horiz-adv-x="0" d="M-82 1143l-45 72q105 51 121 146q-48 2 -78.5 31t-30.5 72q0 46 32 76.5t81 30.5q56 0 93.5 -38t37.5 -97q0 -86 -61.5 -169.5t-149.5 -123.5z" />
<glyph unicode="&#x487;" horiz-adv-x="868" d="M806 1364v-147h-41q-63 0 -126.5 19t-123.5 42t-115 42t-101 19q-24 0 -44 -9.5t-34.5 -26t-22 -39t-7.5 -47.5h-128q0 47 15 95t44.5 86.5t74 63t102.5 24.5q56 0 113 -19t115 -42t118 -42t123 -19h38z" />
<glyph unicode="&#x488;" horiz-adv-x="2018" d="M1192 1170h-96q-7 104 -103 104q-91 0 -104 -104h-96q7 90 63.5 143.5t138.5 53.5q85 0 139 -53.5t58 -143.5zM1835 919h-97q-7 105 -101 105q-90 0 -103 -105h-98q8 89 63.5 143t137.5 54q85 0 140 -53.5t58 -143.5zM566 919h-96q-7 105 -102 105q-90 0 -102 -105h-99 q8 89 63.5 143t137.5 54q85 0 140 -53.5t58 -143.5zM1976 436h-97q-7 105 -100 105q-92 0 -103 -105h-98q7 89 62.5 143t138.5 54q85 0 139.5 -53t57.5 -144zM435 436h-97q-7 105 -103 105q-90 0 -103 -105h-96q7 90 63.5 143.5t137.5 53.5q85 0 139.5 -53t58.5 -144z M1835 -47h-97q-7 103 -101 103q-90 0 -103 -103h-98q8 88 63.5 142t137.5 54q85 0 140 -53.5t58 -142.5zM566 -47h-96q-7 103 -102 103q-90 0 -102 -103h-99q8 88 63.5 142t137.5 54q85 0 140 -53.5t58 -142.5zM1192 -302h-96q-7 105 -103 105q-91 0 -104 -105h-96 q7 90 63.5 143.5t138.5 53.5q85 0 139 -53.5t58 -143.5z" />
<glyph unicode="&#x489;" horiz-adv-x="1944" d="M1127 1434l-92 -352h-160l130 352h122zM616 954l-113 -113l-157 341l87 86zM1735 1058l-314 -183l-113 113l341 158zM410 408l-353 129v123l353 -93v-159zM1901 364l-353 93v159l353 -129v-123zM1613 -158l-87 -86l-183 314l113 113zM651 36l-342 -158l-85 88l314 183z M1083 -58l-128 -352h-123l92 352h159z" />
<glyph unicode="&#x48a;" horiz-adv-x="1688" d="M1393 206h240l-203 -592h-246l173 386h-194v955q0 129 10 182h-6q-17 -45 -42 -83l-688 -1054h-260v1434h229v-913q0 -157 -8 -205h4q20 40 52 88l665 1030h274v-1228zM1185 1889q-16 -150 -123.5 -236.5t-268.5 -86.5q-167 0 -271.5 86.5t-114.5 236.5h193 q14 -183 196 -183q80 0 132 48t64 135h193z" />
<glyph unicode="&#x48b;" horiz-adv-x="1356" d="M1053 0h-183v750q-20 -39 -61 -111l-430 -639h-228v1024h212v-736q11 26 47 90l437 646h234v-842h220l-180 -555h-231zM1014 1517q-16 -150 -123.5 -236.5t-268.5 -86.5q-166 0 -270.5 86.5t-114.5 236.5h192q14 -182 196 -182q80 0 132.5 48t64.5 134h192z" />
<glyph unicode="&#x48c;" horiz-adv-x="1223" d="M177 0v1117h-142v191h142v126h237v-126h153v-191h-153v-260h273q215 0 334.5 -106t119.5 -302q0 -208 -135 -328.5t-369 -120.5h-460zM414 664v-470h206q130 0 200.5 63t70.5 176q0 231 -271 231h-206z" />
<glyph unicode="&#x48d;" horiz-adv-x="1099" d="M165 0v1184h-129v166h129v166h232v-166h136v-166h-136v-538h280q159 0 253 -83.5t94 -232.5q0 -153 -102 -241.5t-258 -88.5h-499zM397 479v-312h212q176 0 176 161q0 151 -178 151h-210z" />
<glyph unicode="&#x48e;" horiz-adv-x="1197" d="M951 626l112 -167l-143 -97l-127 188q-93 -30 -208 -30h-171v-520h-237v1434h429q250 0 387.5 -115.5t137.5 -326.5q0 -233 -180 -366zM414 1238v-524h140q65 0 120 12l-97 142l144 98l104 -155q56 62 56 172q0 255 -294 255h-173z" />
<glyph unicode="&#x48f;" horiz-adv-x="1234" d="M971 77l105 -161l-145 -95l-114 177q-60 -22 -134 -22q-208 0 -296 158h-4v-608h-232v1498h232v-169h4q112 193 343 193q191 0 304.5 -136.5t113.5 -365.5q0 -314 -177 -469zM704 171l-106 163l146 93l101 -155q66 94 66 266q0 148 -70.5 236.5t-186.5 88.5 q-121 0 -197 -89.5t-76 -225.5v-115q0 -116 71.5 -194.5t181.5 -78.5q39 0 70 11z" />
<glyph unicode="&#x490;" horiz-adv-x="1004" d="M971 1231h-556v-1231h-238v1434h591v259h203v-462z" />
<glyph unicode="&#x491;" horiz-adv-x="840" d="M783 840h-400v-840h-232v1024h439v261h193v-445z" />
<glyph unicode="&#x492;" horiz-adv-x="1097" d="M1062 1230h-556v-404h345v-202h-345v-624h-238v624h-232v202h232v608h794v-204z" />
<glyph unicode="&#x493;" horiz-adv-x="875" d="M846 839h-381v-252h246v-180h-246v-407h-233v407h-203v180h203v437h614v-185z" />
<glyph unicode="&#x494;" horiz-adv-x="1243" d="M178 -349v231q174 -93 338 -93q191 0 293.5 108t102.5 304q0 194 -116 327t-317 133h-64v-661h-238v1434h780v-205h-542v-359h77q307 0 489 -184t182 -481q0 -269 -169 -445t-477 -176q-183 0 -339 67z" />
<glyph unicode="&#x495;" horiz-adv-x="1094" d="M148 -343v197q140 -82 306 -82q155 0 239.5 82.5t84.5 231.5q0 164 -98 259.5t-269 95.5h-29v-441h-232v1024h647v-185h-415v-211h62q260 0 415.5 -145.5t155.5 -394.5q0 -215 -147.5 -356.5t-400.5 -141.5q-192 0 -319 67z" />
<glyph unicode="&#x496;" horiz-adv-x="1986" d="M1923 -357h-203v357h-119l-504 649q-21 28 -33 50h-4v-699h-230v699h-4q-13 -25 -33 -50l-504 -649h-306l608 746l-565 688h287l480 -619q21 -27 33 -49h4v668h230v-668h4q12 22 33 49l480 619h286l-564 -688l443 -539h181v-564z" />
<glyph unicode="&#x497;" horiz-adv-x="1706" d="M1642 -318h-184v318h-130l-400 509h-4v-509h-226v509h-4l-400 -509h-288l454 532l-433 492h282l385 -482h4v482h226v-482h4l385 482h282l-434 -492l316 -361h165v-489z" />
<glyph unicode="&#x498;" horiz-adv-x="1123" d="M604 -16q56 -88 56 -153q0 -79 -48 -126t-129 -47q-78 0 -139 23v122q55 -26 107 -26q63 0 63 60q0 61 -45 139q-248 0 -384 80v228q169 -120 384 -120q141 0 224.5 65.5t83.5 175.5q0 240 -360 240h-144v186h155q144 0 223 60t79 169q0 94 -67 150.5t-184 56.5 q-178 0 -347 -108v212q166 87 383 87q216 0 340 -98.5t124 -258.5q0 -277 -277 -350v-4q148 -17 235.5 -110t87.5 -230q0 -171 -112 -284t-309 -139z" />
<glyph unicode="&#x499;" horiz-adv-x="954" d="M531 -15q56 -86 56 -154q0 -79 -48 -126t-128 -47q-79 0 -140 23v122q55 -26 108 -26q63 0 63 60q0 62 -46 141q-207 4 -312 49v192q126 -76 296 -76q254 0 254 151q0 148 -290 148h-98v165h94q257 0 257 141q0 58 -54 94t-149 36q-142 0 -285 -69v182q173 57 318 57 q407 0 407 -275q0 -189 -223 -239v-4q115 -9 187 -75.5t72 -170.5q0 -119 -90 -199.5t-249 -99.5z" />
<glyph unicode="&#x49a;" horiz-adv-x="1345" d="M1282 -357h-204v357h-125l-496 641q-21 27 -38 63h-4v-704h-238v1434h238v-676h4q7 13 39 63l473 613h288l-563 -687l442 -540h184v-564z" />
<glyph unicode="&#x49b;" horiz-adv-x="1161" d="M1097 -373h-193v373h-124l-392 494h-4v-494h-233v1024h233v-473h4l376 473h290l-432 -492l313 -361h162v-544z" />
<glyph unicode="&#x49c;" horiz-adv-x="1251" d="M1262 0h-310l-368 494v-265h-84v371l-48 65q-33 47 -33 50h-5v-715h-237v1434h237v-681h5q12 22 33 48l48 62v347h84v-240l347 464h288l-538 -687z" />
<glyph unicode="&#x49d;" horiz-adv-x="1090" d="M1093 0h-292l-256 330v-216h-79v301l-78 79h-4v-494h-233v1024h233v-474h4l78 81v264h79v-181l240 310h286l-423 -492z" />
<glyph unicode="&#x49e;" horiz-adv-x="1251" d="M1262 0h-310l-499 654q-28 37 -34 50h-4v-704h-238v1152h-154v167h154v115h238v-115h206v-167h-206v-394h4q13 22 34 49l478 627h288l-563 -686z" />
<glyph unicode="&#x49f;" horiz-adv-x="1094" d="M1097 0h-297l-396 499h-4v-499h-232v1186h-134v168h134v162h232v-162h335v-168h-335v-633h4l374 471h286l-425 -488z" />
<glyph unicode="&#x4a0;" horiz-adv-x="1521" d="M1532 0h-312l-497 654q-24 32 -34 50h-4v-704h-238v1230h-411v204h649v-676h4q12 22 34 49l478 627h288l-563 -686z" />
<glyph unicode="&#x4a1;" horiz-adv-x="1253" d="M1256 0h-296l-393 494h-4v-494h-233v839h-301v185h534v-473h4l378 473h288l-432 -492z" />
<glyph unicode="&#x4a2;" horiz-adv-x="1590" d="M1526 -387h-213v387h-223v622h-675v-622h-238v1434h238v-602h675v602h239v-1226h197v-595z" />
<glyph unicode="&#x4a3;" horiz-adv-x="1283" d="M1220 -373h-194v373h-196v448h-445v-448h-234v1024h234v-402h445v402h233v-847h157v-550z" />
<glyph unicode="&#x4a4;" horiz-adv-x="1775" d="M1739 1230h-410v-1230h-239v622h-675v-622h-238v1434h238v-602h675v602h649v-204z" />
<glyph unicode="&#x4a5;" horiz-adv-x="1395" d="M1364 839h-301v-839h-233v448h-446v-448h-233v1024h233v-402h446v402h534v-185z" />
<glyph unicode="&#x4a6;" horiz-adv-x="2154" d="M1091 -348v225q175 -93 338 -93q189 0 292.5 110.5t103.5 306.5q0 191 -117 326t-316 135h-64v-662h-238v1226h-676v-1226h-237v1434h1151v-565h77q305 0 485.5 -181.5t180.5 -476.5q0 -274 -170.5 -450.5t-469.5 -176.5q-184 0 -340 68z" />
<glyph unicode="&#x4a7;" horiz-adv-x="1773" d="M829 -343v200q136 -82 305 -82q155 0 239.5 81t84.5 230q0 164 -98 259.5t-269 95.5h-29v-441h-233v846h-446v-846h-232v1024h911v-396h69q257 0 410 -146.5t153 -393.5q0 -213 -146.5 -355.5t-399.5 -142.5q-192 0 -319 67z" />
<glyph unicode="&#x4a8;" horiz-adv-x="1551" d="M1298 -20q-80 0 -139 19t-106 40q-22 -12 -55 -23.5t-73 -20t-85 -14t-90 -5.5q-136 0 -256.5 47.5t-211.5 139t-144 227t-53 310.5q0 170 51.5 309.5t146.5 239t229 154.5t299 55q104 0 189 -13.5t148 -39.5v-236q-74 42 -156 63.5t-187 21.5q-109 0 -196 -37.5 t-148 -106.5t-94 -167t-33 -220q0 -127 37.5 -225.5t98.5 -166t138.5 -102t156.5 -34.5q35 0 54.5 2t36.5 4q-39 26 -73.5 65.5t-60 91t-40.5 114.5t-15 136q0 99 28 178.5t79 134.5t121.5 84.5t155.5 29.5q90 0 160.5 -30t119 -85.5t73.5 -135t25 -179.5q0 -75 -14 -137.5 t-37 -112.5t-51.5 -87.5t-58.5 -62.5q14 -3 35 -5t35 -2q41 0 84.5 10t78.5 32v-220q-45 -20 -92.5 -30t-110.5 -10zM1061 281q26 19 49 47t41 65.5t28.5 85t10.5 105.5q0 118 -36 184.5t-105 66.5q-38 0 -65.5 -19t-45 -52.5t-26 -79.5t-8.5 -100q0 -55 12.5 -102t34 -85 t50 -67t60.5 -49z" />
<glyph unicode="&#x4a9;" horiz-adv-x="1219" d="M1018 -14q-67 0 -110.5 12.5t-81.5 28.5q-34 -17 -95.5 -30.5t-132.5 -13.5q-117 0 -213 34t-163.5 100t-104.5 163.5t-37 223.5q0 122 36 222.5t103.5 172.5t165 111.5t221.5 39.5q77 0 143.5 -10t111.5 -28v-194q-46 20 -104 36.5t-139 16.5q-85 0 -143.5 -24.5 t-94.5 -71t-51.5 -112.5t-15.5 -150q0 -83 20 -147.5t55 -109t81.5 -67.5t99.5 -23q17 0 34 1.5t29 3.5q-32 17 -58 46.5t-45 67.5t-29 83t-10 92q0 68 23.5 123t65.5 94t101 60.5t130 21.5q77 0 137 -22t101 -62.5t63 -97.5t22 -126q0 -51 -11 -97t-29 -83.5t-41.5 -64.5 t-48.5 -42q11 -2 30 -3.5t29 -1.5q30 0 62 7t57 23v-176q-67 -27 -163 -27zM816 218q24 11 43.5 35t33 55.5t20.5 66.5t7 68q0 68 -25 110.5t-85 42.5q-34 0 -55.5 -12t-34.5 -33t-18 -49t-5 -59q0 -33 7.5 -67t22 -65t37 -55.5t52.5 -37.5z" />
<glyph unicode="&#x4aa;" horiz-adv-x="1272" d="M1176 55q-119 -57 -294 -73q55 -86 55 -151q0 -78 -48 -125.5t-129 -47.5q-78 0 -139 23v121q54 -25 107 -25q63 0 63 60q0 61 -40 140q-305 4 -485.5 199.5t-180.5 511.5q0 345 211 557.5t535 212.5q208 0 345 -57v-238q-151 86 -334 86q-226 0 -367 -148.5t-141 -396.5 q0 -238 132.5 -379t348.5 -141q208 0 361 94v-223z" />
<glyph unicode="&#x4ab;" horiz-adv-x="963" d="M885 786q-109 77 -234 77q-144 0 -236.5 -99t-92.5 -260q0 -160 86.5 -252t232.5 -92q129 0 243 82v-200q-92 -49 -211 -62q52 -86 52 -149q0 -79 -47.5 -126t-128.5 -47q-78 0 -139 23v121q54 -25 108 -25q63 0 63 60q0 63 -46 142q-203 14 -326.5 154t-123.5 354 q0 253 150 407t401 154q141 0 249 -49v-213z" />
<glyph unicode="&#x4ac;" horiz-adv-x="1132" d="M1097 1232h-412v-1024h198v-595h-213v387h-223v1232h-411v202h1061v-202z" />
<glyph unicode="&#x4ad;" horiz-adv-x="880" d="M849 839h-292v-662h157v-551h-193v374h-197v839h-294v185h819v-185z" />
<glyph unicode="&#x4ae;" horiz-adv-x="1182" d="M1176 1434l-470 -913v-521h-238v516l-458 918h271l282 -615q5 -11 30 -83h3q9 32 33 83l295 615h252z" />
<glyph unicode="&#x4af;" horiz-adv-x="1041" d="M1038 1024l-396 -1021v-474h-232v476l-404 1019h257l234 -701l29 -116h5q9 39 30 118l243 699h234z" />
<glyph unicode="&#x4b0;" horiz-adv-x="1182" d="M1176 1434l-471 -897h332v-191h-332v-346h-237v346h-323v191h321v2l-457 895h272l279 -587q6 -14 36 -100h3q9 38 35 98l290 589h252z" />
<glyph unicode="&#x4b1;" horiz-adv-x="1041" d="M962 0v-165h-321v-306h-231v306h-313v165h312l-404 1024h258l234 -703l29 -116h2q10 38 33 117l242 702h235l-396 -1024h320z" />
<glyph unicode="&#x4b2;" horiz-adv-x="1360" d="M1297 -385h-212v385h-121l-293 512q-15 25 -32 71h-4q-10 -23 -33 -73l-298 -510h-287l470 719l-432 715h291l253 -471q27 -50 47 -100h4q29 66 51 104l271 467h268l-442 -711l323 -516h176v-592z" />
<glyph unicode="&#x4b3;" horiz-adv-x="1109" d="M1045 -373h-192v373h-119l-181 317q-18 33 -40 74h-4q-4 -9 -42 -74l-182 -317h-268l348 505l-330 519h270l178 -333q19 -36 39 -76h4l227 409h254l-341 -509l225 -344h154v-544z" />
<glyph unicode="&#x4b4;" horiz-adv-x="1859" d="M1795 -385h-213v385h-1136v1232h-410v202h1060v-202h-412v-1024h675v1226h238v-1226h198v-593z" />
<glyph unicode="&#x4b5;" horiz-adv-x="1457" d="M1394 -373h-194v373h-876v839h-294v185h810v-185h-283v-662h447v847h233v-847h157v-550z" />
<glyph unicode="&#x4b6;" horiz-adv-x="1487" d="M1424 -385h-214v385h-222v611q-225 -116 -418 -116q-199 0 -307.5 104t-108.5 292v543h237v-526q0 -210 228 -210q162 0 369 104v632h238v-1226h198v-593z" />
<glyph unicode="&#x4b7;" horiz-adv-x="1258" d="M1196 -373h-194v373h-196v386q-175 -95 -322 -95q-346 0 -346 359v374h227v-347q0 -195 170 -195q126 0 271 75v467h232v-847h158v-550z" />
<glyph unicode="&#x4b8;" horiz-adv-x="1404" d="M1225 0h-238v610q-147 -80 -267 -101v-313h-93v300q-222 -15 -348 89t-126 306v543h238v-526q0 -212 213 -212h23v338h93v-328q118 19 267 96v632h238v-1434z" />
<glyph unicode="&#x4b9;" horiz-adv-x="1189" d="M1038 0h-232v385q-92 -52 -171 -70v-201h-93v182q-404 -28 -404 354v374h226v-347q0 -195 166 -195h12v272h93v-274q86 20 171 76v468h232v-1024z" />
<glyph unicode="&#x4ba;" horiz-adv-x="1410" d="M1237 0h-237v512q0 224 -227 224q-164 0 -370 -105v-631h-238v1434h238v-612q224 117 418 117q197 0 306.5 -100t109.5 -284v-555z" />
<glyph unicode="&#x4bb;" horiz-adv-x="1192" d="M1061 0h-232v560q0 304 -203 304q-102 0 -172 -88t-70 -225v-551h-233v1516h233v-662h4q116 194 332 194q341 0 341 -417v-631z" />
<glyph unicode="&#x4bc;" horiz-adv-x="1811" d="M1727 614h-1089q15 -201 148 -319t338 -118q262 0 453 159v-223q-199 -137 -486 -137q-308 0 -498 174t-206 464h-35q-148 0 -229.5 78t-81.5 218q0 98 39 175h178q-37 -65 -37 -140q0 -133 149 -133h20q30 294 218 470t473 176q646 0 646 -844zM1471 812 q-7 203 -110 323t-282 120q-185 0 -302.5 -122t-137.5 -321h832z" />
<glyph unicode="&#x4bd;" horiz-adv-x="1348" d="M1281 448h-698q4 -142 85 -219t225 -77q167 0 308 98v-187q-137 -87 -362 -87q-219 0 -349.5 124t-139.5 348h-29q-128 0 -204 70t-76 186q0 86 38 161h150q-30 -64 -30 -131q0 -122 137 -122h20q29 199 164 317.5t318 118.5q212 0 327.5 -135t115.5 -376v-89zM1056 612 q-1 124 -58 194t-162 70q-99 0 -168.5 -73t-84.5 -191h473z" />
<glyph unicode="&#x4be;" horiz-adv-x="1811" d="M1727 614h-1089q15 -201 148 -319t338 -118q262 0 453 159v-223q-199 -137 -486 -137q-308 0 -498 174t-206 464h-35q-148 0 -229.5 78t-81.5 218q0 98 39 175h178q-37 -65 -37 -140q0 -133 149 -133h20q30 294 218 470t473 176q646 0 646 -844zM1471 812 q-7 203 -110 323t-282 120q-185 0 -302.5 -122t-137.5 -321h832zM992 0h213v-388h-213v388z" />
<glyph unicode="&#x4bf;" horiz-adv-x="1348" d="M1281 448h-698q4 -142 85 -219t225 -77q167 0 308 98v-187q-137 -87 -362 -87q-219 0 -349.5 124t-139.5 348h-29q-128 0 -204 70t-76 186q0 86 38 161h150q-30 -64 -30 -131q0 -122 137 -122h20q29 199 164 317.5t318 118.5q212 0 327.5 -135t115.5 -376v-89zM1056 612 q-1 124 -58 194t-162 70q-99 0 -168.5 -73t-84.5 -191h473zM755 0h194v-373h-194v373z" />
<glyph unicode="&#x4c0;" horiz-adv-x="597" d="M421 0h-245v1434h245v-1434z" />
<glyph unicode="&#x4c1;" horiz-adv-x="1891" d="M1906 0h-305l-504 649q-21 28 -33 50h-4v-699h-230v699h-4q-13 -25 -33 -50l-504 -649h-306l608 746l-565 688h287l475 -612q23 -29 38 -56h4v668h230v-668h4q13 25 38 56l475 612h286l-564 -688zM1249 1842q-11 -124 -97.5 -200t-209.5 -76q-130 0 -211.5 75.5 t-87.5 200.5h136q12 -146 166 -146q65 0 111 39.5t56 106.5h137z" />
<glyph unicode="&#x4c2;" horiz-adv-x="1622" d="M1618 0h-290l-400 509h-4v-509h-226v509h-3l-401 -509h-288l454 532l-433 492h282l385 -482h4v482h226v-482h4l385 482h282l-434 -492zM1116 1480q-11 -124 -97.5 -200t-209.5 -76q-130 0 -211.5 75.5t-87.5 200.5h136q12 -146 166 -146q65 0 111 39.5t56 106.5h137z" />
<glyph unicode="&#x4c3;" horiz-adv-x="1258" d="M1195 1434l-532 -622q233 -32 365.5 -201.5t132.5 -420.5q0 -265 -171 -435.5t-473 -170.5q-183 0 -339 68v225q174 -93 338 -93q190 0 293.5 108t103.5 294q0 187 -117.5 316t-317.5 129h-64v-631h-236v1434h236v-609l491 606z" />
<glyph unicode="&#x4c4;" horiz-adv-x="1103" d="M1032 1024l-409 -441q182 -30 287 -163.5t105 -337.5q0 -211 -147.5 -351.5t-399.5 -140.5q-192 0 -319 67v200q136 -82 305 -82q154 0 237.5 79.5t83.5 225.5q0 159 -97 251t-266 92h-29v-423h-232v1024h232v-435h3l357 435h289z" />
<glyph unicode="&#x4c5;" horiz-adv-x="1523" d="M1252 182h216l-184 -562h-238l166 380h-198v1229h-348q-76 -518 -116.5 -733t-83.5 -316.5t-117 -151t-177 -49.5q-88 0 -153 23v203q48 -25 107 -25q55 0 100 56.5t108.5 362.5t140.5 835h777v-1252z" />
<glyph unicode="&#x4c6;" horiz-adv-x="1273" d="M998 182h220l-179 -555h-231l162 373h-205v847h-209q-44 -475 -150.5 -667.5t-286.5 -192.5q-60 0 -103 16v174q35 -17 75 -17q215 0 276 864h631v-842z" />
<glyph unicode="&#x4c7;" horiz-adv-x="1506" d="M1090 621h-676v-621h-237v1434h237v-603h676v603h238v-1264q0 -257 -171 -420q-170 -166 -473 -166q-185 0 -339 68v225q174 -93 338 -93q97 0 173 27t128 81q106 107 106 294v435z" />
<glyph unicode="&#x4c8;" horiz-adv-x="1214" d="M829 448h-446v-448h-232v1024h232v-402h446v402h233v-918q0 -114 -36.5 -208.5t-110.5 -165.5q-146 -142 -397 -142q-196 0 -323 67v197q139 -82 306 -82q157 0 242.5 86.5t85.5 242.5v347z" />
<glyph unicode="&#x4c9;" horiz-adv-x="1623" d="M1568 207l-203 -593h-245l172 386h-202v622h-675v-622h-238v1434h238v-602h675v602h239v-1227h239z" />
<glyph unicode="&#x4ca;" horiz-adv-x="1338" d="M1284 183l-180 -556h-231l162 373h-205v448h-446v-448h-233v1024h233v-402h446v402h233v-841h221z" />
<glyph unicode="&#x4cb;" horiz-adv-x="1404" d="M1226 0h-228v-386h-214v594h204v403q-225 -116 -418 -116q-199 0 -307.5 104t-108.5 292v543h237v-526q0 -210 228 -210q162 0 369 104v632h238v-1434z" />
<glyph unicode="&#x4cc;" horiz-adv-x="1189" d="M1038 0h-196v-374h-193v551h157v209q-175 -95 -322 -95q-346 0 -346 359v374h227v-347q0 -195 170 -195q126 0 271 75v467h232v-1024z" />
<glyph unicode="&#x4cd;" horiz-adv-x="2011" d="M1717 207h239l-203 -593h-245l172 386h-199v936q0 111 13 271h-6q-24 -113 -43 -162l-421 -1045h-164l-421 1032q-22 57 -46 175h-4q8 -84 8 -273v-934h-220v1434h335l374 -933q46 -124 59 -186h6q40 127 64 190l379 929h323v-1227z" />
<glyph unicode="&#x4ce;" horiz-adv-x="1631" d="M1356 183h220l-179 -556h-231l162 373h-194v823q-20 -62 -61 -183l-231 -640h-206l-235 638q-19 52 -61 183v-821h-189v1024h302l235 -632q25 -69 64 -191l64 187l230 636h310v-841z" />
<glyph unicode="&#x4cf;" horiz-adv-x="535" d="M384 0h-233v1516h233v-1516z" />
<glyph unicode="&#x4d0;" horiz-adv-x="1375" d="M1355 0h-261l-129 365h-564l-124 -365h-260l537 1434h268zM902 559l-199 572q-9 28 -19 90h-4q-9 -57 -20 -90l-197 -572h439zM984 1827q-11 -124 -97.5 -200t-209.5 -76q-130 0 -211.5 75.5t-87.5 200.5h136q12 -146 166 -146q65 0 111 39.5t56 106.5h137z" />
<glyph unicode="&#x4d1;" horiz-adv-x="1069" d="M937 0h-225v160h-4q-106 -184 -311 -184q-151 0 -236.5 82t-85.5 217q0 290 334 338l304 43q0 219 -208 219q-183 0 -330 -126v203q162 96 374 96q388 0 388 -382v-666zM713 503l-215 -30q-100 -13 -150.5 -48.5t-50.5 -124.5q0 -65 46.5 -106.5t124.5 -41.5 q106 0 175.5 74.5t69.5 187.5v89zM822 1480q-11 -124 -97.5 -200t-209.5 -76q-130 0 -211.5 75.5t-87.5 200.5h136q12 -146 166 -146q65 0 111 39.5t56 106.5h137z" />
<glyph unicode="&#x4d2;" horiz-adv-x="1375" d="M1355 0h-261l-129 365h-564l-124 -365h-260l537 1434h268zM902 559l-199 572q-9 28 -19 90h-4q-9 -57 -20 -90l-197 -572h439zM893 1550q-50 0 -86.5 33t-36.5 84q0 49 35 82t85 33q53 0 89.5 -33.5t36.5 -81.5q0 -49 -35 -83t-88 -34zM477 1550q-52 0 -89 34.5t-37 82.5 q0 49 35.5 82t86.5 33t88.5 -33.5t37.5 -81.5q0 -49 -36 -83t-86 -34z" />
<glyph unicode="&#x4d3;" horiz-adv-x="1069" d="M937 0h-225v160h-4q-106 -184 -311 -184q-151 0 -236.5 82t-85.5 217q0 290 334 338l304 43q0 219 -208 219q-183 0 -330 -126v203q162 96 374 96q388 0 388 -382v-666zM713 503l-215 -30q-100 -13 -150.5 -48.5t-50.5 -124.5q0 -65 46.5 -106.5t124.5 -41.5 q106 0 175.5 74.5t69.5 187.5v89zM747 1203q-50 0 -86.5 33t-36.5 84q0 49 35 82t85 33q53 0 89.5 -33.5t36.5 -81.5q0 -49 -35 -83t-88 -34zM331 1203q-52 0 -89 34.5t-37 82.5q0 49 35.5 82t86.5 33t88.5 -33.5t37.5 -81.5q0 -49 -36 -83t-86 -34z" />
<glyph unicode="&#x4d4;" horiz-adv-x="1831" d="M1749 0h-804v365h-492l-172 -365h-275l710 1434h1000v-202h-534v-406h497v-201h-497v-424h567v-201zM945 559v673h-87l-317 -673h404z" />
<glyph unicode="&#x4d5;" horiz-adv-x="1700" d="M1630 449h-699q3 -142 85 -219.5t225 -77.5q171 0 310 99v-186q-135 -89 -367 -89q-275 0 -390 206h-4q-140 -206 -372 -206q-160 0 -251.5 82.5t-91.5 220.5q0 306 379 331l259 16q0 250 -201 250q-178 0 -336 -115v196q152 91 357 91q240 0 311 -170h4q114 170 349 170 q206 0 319.5 -135.5t113.5 -376.5v-87zM1406 613q-2 127 -59 195.5t-160 68.5q-98 0 -168.5 -72t-86.5 -192h474zM713 412v55l-177 -11q-121 -7 -180.5 -43t-59.5 -119q0 -64 46.5 -103t125.5 -39q103 0 174 74t71 186z" />
<glyph unicode="&#x4d6;" horiz-adv-x="1060" d="M982 0h-805v1434h773v-202h-535v-406h493v-201h-493v-424h567v-201zM867 1829q-11 -124 -97.5 -200t-209.5 -76q-130 0 -211.5 75.5t-87.5 200.5h136q12 -146 166 -146q65 0 111 39.5t56 106.5h137z" />
<glyph unicode="&#x4d7;" horiz-adv-x="1088" d="M1018 449h-698q4 -142 87.5 -219t229.5 -77q164 0 301 98v-187q-140 -88 -370 -88q-226 0 -354.5 139.5t-128.5 392.5q0 239 141.5 389.5t351.5 150.5t325 -135t115 -375v-89zM794 613q-1 125 -59 194.5t-160 69.5q-100 0 -169.5 -73t-85.5 -191h474zM874 1480 q-11 -124 -97.5 -200t-209.5 -76q-130 0 -211.5 75.5t-87.5 200.5h136q12 -146 166 -146q65 0 111 39.5t56 106.5h137z" />
<glyph unicode="&#x4d8;" horiz-adv-x="1512" d="M82 819h1090q-16 202 -148.5 319t-337.5 117q-235 0 -405 -121v219q178 105 432 105q333 0 523.5 -195t190.5 -538q0 -325 -189 -537t-502 -212q-314 0 -484 214t-170 629zM1172 620h-834q4 -202 110.5 -322.5t289.5 -120.5q185 0 300.5 120t133.5 323z" />
<glyph unicode="&#x4d9;" horiz-adv-x="1088" d="M70 575h698q-5 142 -85.5 219.5t-224.5 77.5q-168 0 -308 -99v187q136 88 360 88q230 0 361 -138t131 -389q0 -243 -140.5 -394t-348.5 -151q-213 0 -328 136t-115 374v89zM768 411h-474q2 -126 59.5 -195t161.5 -69q99 0 168 73t85 191z" />
<glyph unicode="&#x4da;" horiz-adv-x="1512" d="M82 819h1090q-16 202 -148.5 319t-337.5 117q-235 0 -405 -121v219q178 105 432 105q333 0 523.5 -195t190.5 -538q0 -325 -189 -537t-502 -212q-314 0 -484 214t-170 629zM1172 620h-834q4 -202 110.5 -322.5t289.5 -120.5q185 0 300.5 120t133.5 323zM943 1566 q-50 0 -86.5 33t-36.5 84q0 49 35 82t85 33q53 0 89.5 -33.5t36.5 -81.5q0 -49 -35 -83t-88 -34zM527 1566q-52 0 -89 34.5t-37 82.5q0 49 35.5 82t86.5 33t88.5 -33.5t37.5 -81.5q0 -49 -36 -83t-86 -34z" />
<glyph unicode="&#x4db;" horiz-adv-x="1088" d="M70 575h698q-5 142 -85.5 219.5t-224.5 77.5q-168 0 -308 -99v187q136 88 360 88q230 0 361 -138t131 -389q0 -243 -140.5 -394t-348.5 -151q-213 0 -328 136t-115 374v89zM768 411h-474q2 -126 59.5 -195t161.5 -69q99 0 168 73t85 191zM758 1203q-50 0 -86.5 33 t-36.5 84q0 49 35 82t85 33q53 0 89.5 -33.5t36.5 -81.5q0 -49 -35 -83t-88 -34zM342 1203q-52 0 -89 34.5t-37 82.5q0 49 35.5 82t86.5 33t88.5 -33.5t37.5 -81.5q0 -49 -36 -83t-86 -34z" />
<glyph unicode="&#x4dc;" horiz-adv-x="1891" d="M1906 0h-305l-504 649q-21 28 -33 50h-4v-699h-230v699h-4q-13 -25 -33 -50l-504 -649h-306l608 746l-565 688h287l475 -612q23 -29 38 -56h4v668h230v-668h4q13 25 38 56l475 612h286l-564 -688zM1154 1566q-50 0 -86.5 33t-36.5 84q0 49 35 82t85 33q53 0 89.5 -33.5 t36.5 -81.5q0 -49 -35 -83t-88 -34zM738 1566q-52 0 -89 34.5t-37 82.5q0 49 35.5 82t86.5 33t88.5 -33.5t37.5 -81.5q0 -49 -36 -83t-86 -34z" />
<glyph unicode="&#x4dd;" horiz-adv-x="1622" d="M1618 0h-290l-400 509h-4v-509h-226v509h-3l-401 -509h-288l454 532l-433 492h282l385 -482h4v482h226v-482h4l385 482h282l-434 -492zM1015 1203q-50 0 -86.5 33t-36.5 84q0 49 35 82t85 33q53 0 89.5 -33.5t36.5 -81.5q0 -49 -35 -83t-88 -34zM599 1203q-52 0 -89 34.5 t-37 82.5q0 49 35.5 82t86.5 33t88.5 -33.5t37.5 -81.5q0 -49 -36 -83t-86 -34z" />
<glyph unicode="&#x4de;" horiz-adv-x="1123" d="M85 56v228q169 -120 384 -120q141 0 224.5 65.5t83.5 175.5q0 240 -339 240h-165v186h155q144 0 223 60t79 169q0 94 -67 150.5t-184 56.5q-178 0 -347 -108v212q166 87 383 87q216 0 340 -98.5t124 -258.5q0 -277 -277 -350v-4q148 -17 235.5 -110t87.5 -230 q0 -197 -147 -314t-402 -117q-253 0 -391 80zM736 1566q-50 0 -86.5 33t-36.5 84q0 49 35 82t85 33q53 0 89.5 -33.5t36.5 -81.5q0 -49 -35 -83t-88 -34zM320 1566q-52 0 -89 34.5t-37 82.5q0 49 35.5 82t86.5 33t88.5 -33.5t37.5 -81.5q0 -49 -36 -83t-86 -34z" />
<glyph unicode="&#x4df;" horiz-adv-x="945" d="M80 28v191q130 -72 304 -72q245 0 245 148t-289 148h-98v164h94q257 0 257 141q0 59 -54.5 94t-148.5 35q-143 0 -286 -68v182q173 58 318 58q407 0 407 -276q0 -89 -58.5 -153t-164.5 -85v-5q117 -9 188 -76t71 -170q0 -140 -122 -223t-336 -83t-327 50zM666 1203 q-50 0 -86.5 33t-36.5 84q0 49 35 82t85 33q53 0 89.5 -33.5t36.5 -81.5q0 -49 -35 -83t-88 -34zM250 1203q-52 0 -89 34.5t-37 82.5q0 49 35.5 82t86.5 33t88.5 -33.5t37.5 -81.5q0 -49 -36 -83t-86 -34z" />
<glyph unicode="&#x4e0;" horiz-adv-x="1101" d="M77 56v228q168 -120 382 -120q146 0 228 72.5t82 187.5q0 266 -366 266h-145l399 542h-557v202h882v-104l-372 -495q191 0 299 -109t108 -289q0 -208 -144 -334.5t-405 -126.5q-253 0 -391 80z" />
<glyph unicode="&#x4e1;" horiz-adv-x="955" d="M-29 -393v212q167 -114 347 -114q164 0 269 81t105 210q0 133 -108 207.5t-309 74.5h-80v87l369 477h-560v182h858v-99l-379 -484q214 -26 329 -143t115 -297q0 -209 -171.5 -344.5t-432.5 -135.5q-191 0 -352 86z" />
<glyph unicode="&#x4e2;" horiz-adv-x="1572" d="M1393 0h-229v955q0 129 10 182h-6q-17 -45 -42 -83l-688 -1054h-261v1434h230v-912q0 -157 -8 -205h4q20 40 52 88l664 1029h274v-1434zM1061 1567h-543v137h543v-137z" />
<glyph unicode="&#x4e3;" horiz-adv-x="1233" d="M1081 0h-210v751q-20 -40 -61 -111l-431 -640h-228v1024h213v-736q11 26 47 90l437 646h233v-1024zM886 1204h-543v137h543v-137z" />
<glyph unicode="&#x4e4;" horiz-adv-x="1572" d="M1393 0h-229v955q0 129 10 182h-6q-17 -45 -42 -83l-688 -1054h-261v1434h230v-912q0 -157 -8 -205h4q20 40 52 88l664 1029h274v-1434zM1010 1566q-50 0 -86.5 33t-36.5 84q0 49 35 82t85 33q53 0 89.5 -33.5t36.5 -81.5q0 -49 -35 -83t-88 -34zM594 1566 q-52 0 -89 34.5t-37 82.5q0 49 35.5 82t86.5 33t88.5 -33.5t37.5 -81.5q0 -49 -36 -83t-86 -34z" />
<glyph unicode="&#x4e5;" horiz-adv-x="1233" d="M1081 0h-210v751q-20 -40 -61 -111l-431 -640h-228v1024h213v-736q11 26 47 90l437 646h233v-1024zM838 1203q-50 0 -86.5 33t-36.5 84q0 49 35 82t85 33q53 0 89.5 -33.5t36.5 -81.5q0 -49 -35 -83t-88 -34zM422 1203q-52 0 -89 34.5t-37 82.5q0 49 35.5 82t86.5 33 t88.5 -33.5t37.5 -81.5q0 -49 -36 -83t-86 -34z" />
<glyph unicode="&#x4e6;" horiz-adv-x="1548" d="M768 -24q-310 0 -496.5 201t-186.5 523q0 346 190 552t516 206q302 0 486.5 -200t184.5 -523q0 -351 -189 -555t-505 -204zM779 1249q-197 0 -320.5 -147t-123.5 -387q0 -239 120 -385t314 -146q206 0 325 139t119 389q0 257 -115.5 397t-318.5 140zM983 1566 q-50 0 -86.5 33t-36.5 84q0 49 35 82t85 33q53 0 89.5 -33.5t36.5 -81.5q0 -49 -35 -83t-88 -34zM567 1566q-52 0 -89 34.5t-37 82.5q0 49 35.5 82t86.5 33t88.5 -33.5t37.5 -81.5q0 -49 -36 -83t-86 -34z" />
<glyph unicode="&#x4e7;" horiz-adv-x="1223" d="M605 -24q-237 0 -378.5 143.5t-141.5 380.5q0 258 147.5 403t397.5 145q240 0 374 -141t134 -391q0 -245 -144.5 -392.5t-388.5 -147.5zM616 863q-136 0 -215 -95t-79 -262q0 -161 80 -253.5t214 -92.5q137 0 210.5 91t73.5 259q0 169 -73.5 261t-210.5 92zM822 1203 q-50 0 -86.5 33t-36.5 84q0 49 35 82t85 33q53 0 89.5 -33.5t36.5 -81.5q0 -49 -35 -83t-88 -34zM406 1203q-52 0 -89 34.5t-37 82.5q0 49 35.5 82t86.5 33t88.5 -33.5t37.5 -81.5q0 -49 -36 -83t-86 -34z" />
<glyph unicode="&#x4e8;" horiz-adv-x="1548" d="M767 -24q-310 0 -496 200.5t-186 522.5q0 346 189 552.5t515 206.5q303 0 488.5 -201t185.5 -526q0 -349 -189.5 -552t-506.5 -203zM1209 813q-16 211 -129 326.5t-300 115.5q-182 0 -302.5 -120.5t-139.5 -321.5h871zM1209 613h-870q18 -200 135.5 -318t295.5 -118 q192 0 307 114t132 322z" />
<glyph unicode="&#x4e9;" horiz-adv-x="1223" d="M605 -24q-238 0 -379 145t-141 382q0 257 146 401t394 144q242 0 377.5 -140t135.5 -388q0 -247 -144.5 -395.5t-388.5 -148.5zM900 602q-36 270 -284 270q-119 0 -196 -70.5t-97 -199.5h577zM900 442h-578q9 -136 88 -214t207 -78q265 0 283 292z" />
<glyph unicode="&#x4ea;" horiz-adv-x="1548" d="M766 -24q-309 0 -495 200.5t-186 522.5q0 346 189.5 552.5t515.5 206.5q303 0 488 -201t185 -526q0 -349 -189.5 -552t-507.5 -203zM1207 812q-16 209 -128 323t-299 114q-181 0 -300 -119t-138 -318h865zM1208 617h-866q18 -199 134.5 -316t293.5 -117q190 0 306 113.5 t132 319.5zM983 1566q-50 0 -86.5 33t-36.5 84q0 49 35 82t85 33q53 0 89.5 -33.5t36.5 -81.5q0 -49 -35 -83t-88 -34zM567 1566q-52 0 -89 34.5t-37 82.5q0 49 35.5 82t86.5 33t88.5 -33.5t37.5 -81.5q0 -49 -36 -83t-86 -34z" />
<glyph unicode="&#x4eb;" horiz-adv-x="1218" d="M603 -24q-236 0 -377 144.5t-141 382.5q0 257 145.5 401t392.5 144q240 0 375 -140t135 -388q0 -247 -144 -395.5t-386 -148.5zM892 600q-26 263 -279 263q-120 0 -195.5 -68.5t-90.5 -194.5h565zM893 435h-567q9 -129 85.5 -202t202.5 -73q262 0 279 275zM823 1203 q-50 0 -86.5 33t-36.5 84q0 49 35 82t85 33q53 0 89.5 -33.5t36.5 -81.5q0 -49 -35 -83t-88 -34zM407 1203q-52 0 -89 34.5t-37 82.5q0 49 35.5 82t86.5 33t88.5 -33.5t37.5 -81.5q0 -49 -36 -83t-86 -34z" />
<glyph unicode="&#x4ec;" horiz-adv-x="1269" d="M96 55v217q152 -95 370 -95q196 0 320.5 115.5t139.5 321.5h-598v198h598q-24 210 -147 326.5t-320 116.5q-200 0 -363 -85v228q157 60 377 60q316 0 513 -205.5t197 -549.5q0 -322 -189.5 -524.5t-499.5 -202.5q-236 0 -398 79zM749 1566q-50 0 -86.5 33t-36.5 84 q0 49 35 82t85 33q53 0 89.5 -33.5t36.5 -81.5q0 -49 -35 -83t-88 -34zM333 1566q-52 0 -89 34.5t-37 82.5q0 49 35.5 82t86.5 33t88.5 -33.5t37.5 -81.5q0 -49 -36 -83t-86 -34z" />
<glyph unicode="&#x4ed;" horiz-adv-x="962" d="M83 44v186q112 -80 257 -80q133 0 215 76t89 205h-411v161h412q-11 131 -93 205.5t-218 74.5q-139 0 -241 -74v195q112 55 263 55q253 0 388.5 -142.5t135.5 -401.5q0 -241 -139 -384.5t-374 -143.5q-164 0 -284 68zM636 1203q-50 0 -86.5 33t-36.5 84q0 49 35 82t85 33 q53 0 89.5 -33.5t36.5 -81.5q0 -49 -35 -83t-88 -34zM220 1203q-52 0 -89 34.5t-37 82.5q0 49 35.5 82t86.5 33t88.5 -33.5t37.5 -81.5q0 -49 -36 -83t-86 -34z" />
<glyph unicode="&#x4ee;" horiz-adv-x="1206" d="M1216 1434l-446 -993q-124 -271 -239.5 -368.5t-252.5 -97.5q-109 0 -182 31v227q87 -52 167 -52q71 0 130.5 54t128.5 190l-479 1009h271l296 -680q9 -21 35 -104h2q3 10 38 104l279 680h252zM896 1567h-543v137h543v-137z" />
<glyph unicode="&#x4ef;" horiz-adv-x="1041" d="M1038 1024l-462 -1188q-144 -318 -404 -318q-73 0 -122 13v193q55 -18 100 -18q130 0 194 128l69 168l-407 1022h257l244 -744q4 -14 18 -74h5q5 23 18 72l256 746h234zM800 1204h-543v137h543v-137z" />
<glyph unicode="&#x4f0;" horiz-adv-x="1206" d="M1216 1434l-446 -993q-124 -271 -239.5 -368.5t-252.5 -97.5q-109 0 -182 31v227q87 -52 167 -52q71 0 130.5 54t128.5 190l-479 1009h271l296 -680q9 -21 35 -104h2q3 10 38 104l279 680h252zM850 1566q-50 0 -86.5 33t-36.5 84q0 49 35 82t85 33q53 0 89.5 -33.5 t36.5 -81.5q0 -49 -35 -83t-88 -34zM434 1566q-52 0 -89 34.5t-37 82.5q0 49 35.5 82t86.5 33t88.5 -33.5t37.5 -81.5q0 -49 -36 -83t-86 -34z" />
<glyph unicode="&#x4f1;" horiz-adv-x="1041" d="M1038 1024l-462 -1188q-144 -318 -404 -318q-73 0 -122 13v193q55 -18 100 -18q130 0 194 128l69 168l-407 1022h257l244 -744q4 -14 18 -74h5q5 23 18 72l256 746h234zM732 1203q-50 0 -86.5 33t-36.5 84q0 49 35 82t85 33q53 0 89.5 -33.5t36.5 -81.5q0 -49 -35 -83 t-88 -34zM316 1203q-52 0 -89 34.5t-37 82.5q0 49 35.5 82t86.5 33t88.5 -33.5t37.5 -81.5q0 -49 -36 -83t-86 -34z" />
<glyph unicode="&#x4f2;" horiz-adv-x="1206" d="M1216 1434l-446 -993q-124 -271 -239.5 -368.5t-252.5 -97.5q-109 0 -182 31v227q87 -52 167 -52q71 0 130.5 54t128.5 190l-479 1009h271l296 -680q9 -21 35 -104h2q3 10 38 104l279 680h252zM1039 1884l-248 -318h-148l211 318h185zM733 1884l-243 -318h-148l208 318 h183z" />
<glyph unicode="&#x4f3;" horiz-adv-x="1041" d="M1038 1024l-462 -1188q-144 -318 -404 -318q-73 0 -122 13v193q55 -18 100 -18q130 0 194 128l69 168l-407 1022h257l244 -744q4 -14 18 -74h5q5 23 18 72l256 746h234zM951 1522l-248 -318h-148l211 318h185zM645 1522l-243 -318h-148l208 318h183z" />
<glyph unicode="&#x4f4;" horiz-adv-x="1414" d="M1226 0h-238v611q-225 -116 -418 -116q-199 0 -307.5 100.5t-108.5 282.5v556h237v-513q0 -223 228 -223q162 0 369 104v632h238v-1434zM910 1566q-50 0 -86.5 33t-36.5 84q0 49 35 82t85 33q53 0 89.5 -33.5t36.5 -81.5q0 -49 -35 -83t-88 -34zM494 1566q-52 0 -89 34.5 t-37 82.5q0 49 35.5 82t86.5 33t88.5 -33.5t37.5 -81.5q0 -49 -36 -83t-86 -34z" />
<glyph unicode="&#x4f5;" horiz-adv-x="1190" d="M1038 0h-232v386q-175 -95 -322 -95q-346 0 -346 376v357h227v-325q0 -217 170 -217q126 0 271 75v467h232v-1024zM796 1203q-50 0 -86.5 33t-36.5 84q0 49 35 82t85 33q53 0 89.5 -33.5t36.5 -81.5q0 -49 -35 -83t-88 -34zM380 1203q-52 0 -89 34.5t-37 82.5 q0 49 35.5 82t86.5 33t88.5 -33.5t37.5 -81.5q0 -49 -36 -83t-86 -34z" />
<glyph unicode="&#x4f6;" horiz-adv-x="1003" d="M971 1228h-556v-1021h177v-593h-212v386h-203v1434h794v-206z" />
<glyph unicode="&#x4f7;" horiz-adv-x="809" d="M764 839h-381v-668h151v-544h-193v373h-190v1024h613v-185z" />
<glyph unicode="&#x4f8;" horiz-adv-x="1710" d="M1532 0h-237v1434h237v-1434zM177 0v1434h237v-577h245q228 0 355 -106t127 -302q0 -208 -133.5 -328.5t-363.5 -120.5h-467zM414 664v-470h206q130 0 200.5 63t70.5 176q0 231 -271 231h-206zM1064 1565q-50 0 -86.5 33t-36.5 84q0 49 35 82t85 33q53 0 89.5 -33.5 t36.5 -81.5q0 -49 -35 -83t-88 -34zM648 1565q-52 0 -89 34.5t-37 82.5q0 49 35.5 82t86.5 33t88.5 -33.5t37.5 -81.5q0 -49 -36 -83t-86 -34z" />
<glyph unicode="&#x4f9;" horiz-adv-x="1550" d="M1398 0h-232v1024h232v-1024zM151 0v1024h232v-378h280q159 0 253 -83.5t94 -232.5q0 -153 -97.5 -241.5t-245.5 -88.5h-516zM383 479v-312h212q176 0 176 161q0 151 -178 151h-210zM977 1203q-50 0 -86.5 33t-36.5 84q0 49 35 82t85 33q53 0 89.5 -33.5t36.5 -81.5 q0 -49 -35 -83t-88 -34zM561 1203q-52 0 -89 34.5t-37 82.5q0 49 35.5 82t86.5 33t88.5 -33.5t37.5 -81.5q0 -49 -36 -83t-86 -34z" />
<glyph unicode="&#x4fa;" horiz-adv-x="1097" d="M732 30q0 -89 -17.5 -166t-57.5 -133t-104.5 -88t-158.5 -32q-71 0 -139 27v193q58 -34 115 -34q136 0 136 191v12h-238v623h-232v203h232v608h793v-204h-555v-404h344v-203h-344v-435h226v-158z" />
<glyph unicode="&#x4fb;" horiz-adv-x="875" d="M846 839h-381v-252h246v-180h-246v-407h-233v407h-203v180h203v437h614v-185zM690 143v-220q0 -144 -92 -228t-245 -84q-74 0 -139 27v193q53 -34 114 -34q135 0 135 148v198h227z" />
<glyph unicode="&#x4fc;" horiz-adv-x="1374" d="M1332 -7q0 -186 -88 -284t-250 -98q-73 0 -139 27v193q58 -34 114 -34q137 0 137 191v12h-143l-293 512q-14 24 -31 82h-4q-9 -27 -33 -84q-75 -128 -149.5 -255t-149.5 -255h-286l469 719q-108 180 -215.5 357.5t-215.5 357.5h290l254 -471q13 -26 24.5 -53t22.5 -57h4 q23 56 51 114l270 467h268q-110 -179 -220 -355.5t-221 -355.5l333 -535h201v-195z" />
<glyph unicode="&#x4fd;" horiz-adv-x="1132" d="M1007 1024l-341 -518l337 -506h-269l-180 317q-17 29 -40 74h-4q-4 -9 -42 -74l-183 -317h-268l348 502l-330 522h270l177 -333q20 -37 39 -76h3l229 409h254zM1094 143v-220q0 -144 -92 -228t-245 -84q-74 0 -139 27v193q53 -34 114 -34q135 0 135 148v198h227z" />
<glyph unicode="&#x4fe;" horiz-adv-x="1268" d="M1249 0h-285l-293 512q-14 24 -31 82h-4q-5 -14 -13 -34.5t-21 -49.5l-298 -510h-287l421 644h-397v176h385l-371 614h291l253 -471q14 -25 25 -52.5t22 -56.5h4q12 28 24.5 56t26.5 57l271 467h268l-382 -614h375v-176h-386z" />
<glyph unicode="&#x4ff;" horiz-adv-x="1026" d="M734 0l-177 306q-10 17 -20.5 38l-23.5 47h-4q-9 -23 -44 -83l-180 -308h-268l298 433h-281v145h284l-283 446h270l174 -322q13 -24 23.5 -45.5t19.5 -41.5h4q8 15 16 31q7 14 16 30.5t18 33.5l177 314h254l-299 -446h282v-145h-270q71 -109 141.5 -216.5t141.5 -216.5 h-269z" />
<glyph unicode="&#x1fbf;" horiz-adv-x="1223" d="M529 1143l-45 72q105 51 121 146q-48 2 -78.5 31t-30.5 72q0 46 32 76.5t81 30.5q56 0 93.5 -38t37.5 -97q0 -86 -61.5 -169.5t-149.5 -123.5z" />
<glyph unicode="&#x2000;" horiz-adv-x="1058" />
<glyph unicode="&#x2001;" horiz-adv-x="2117" />
<glyph unicode="&#x2002;" horiz-adv-x="1058" />
<glyph unicode="&#x2003;" horiz-adv-x="2117" />
<glyph unicode="&#x2004;" horiz-adv-x="705" />
<glyph unicode="&#x2005;" horiz-adv-x="529" />
<glyph unicode="&#x2006;" horiz-adv-x="352" />
<glyph unicode="&#x2007;" horiz-adv-x="352" />
<glyph unicode="&#x2008;" horiz-adv-x="264" />
<glyph unicode="&#x2009;" horiz-adv-x="423" />
<glyph unicode="&#x200a;" horiz-adv-x="117" />
<glyph unicode="&#x2010;" horiz-adv-x="823" d="M690 474h-546v171h546v-171z" />
<glyph unicode="&#x2011;" horiz-adv-x="823" d="M690 474h-546v171h546v-171z" />
<glyph unicode="&#x2012;" horiz-adv-x="823" d="M690 474h-546v171h546v-171z" />
<glyph unicode="&#x2013;" horiz-adv-x="1024" d="M1024 474h-1024v171h1024v-171z" />
<glyph unicode="&#x2014;" horiz-adv-x="2048" d="M2048 474h-2048v171h2048v-171z" />
<glyph unicode="&#x2018;" horiz-adv-x="525" d="M417 1462l-109 -445h-207l163 445h153z" />
<glyph unicode="&#x2019;" horiz-adv-x="525" d="M427 1462l-163 -445h-153l113 445h203z" />
<glyph unicode="&#x201a;" horiz-adv-x="525" d="M405 218l-164 -445h-153l113 445h204z" />
<glyph unicode="&#x201c;" horiz-adv-x="879" d="M771 1462l-112 -445h-203l163 445h152zM417 1462l-109 -445h-207l163 445h153z" />
<glyph unicode="&#x201d;" horiz-adv-x="879" d="M781 1462l-162 -445h-154l111 445h205zM427 1462l-163 -445h-153l113 445h203z" />
<glyph unicode="&#x201e;" horiz-adv-x="879" d="M759 218l-164 -445h-152l110 445h206zM405 218l-164 -445h-153l113 445h204z" />
<glyph unicode="&#x2022;" horiz-adv-x="847" d="M425 362q-104 0 -179 73t-75 177q0 103 75 178.5t179 75.5t177 -75t73 -179t-73 -177t-177 -73z" />
<glyph unicode="&#x2026;" horiz-adv-x="1666" d="M1387 -20q-31 0 -56.5 10.5t-44.5 29t-29.5 43t-10.5 51.5q0 29 11 54t30 43t45 28.5t56 10.5t56.5 -10t46 -28t30.5 -43t11 -55q0 -29 -11 -53.5t-30.5 -42.5t-46 -28t-57.5 -10zM831 -20q-30 0 -56 10.5t-45 28.5t-30 42.5t-11 52.5q0 30 11 55t30.5 43t45.5 28t56 10 t56.5 -10.5t46 -29t30.5 -43t11 -53.5q0 -28 -11 -52.5t-30.5 -42.5t-46 -28.5t-57.5 -10.5zM275 -20q-30 0 -56 10.5t-44.5 29t-29 43t-10.5 51.5q0 29 10.5 53.5t29 43t44.5 29t57 10.5q30 0 56.5 -10.5t46 -29t30.5 -43t11 -53.5q0 -28 -11 -52.5t-30.5 -42.5t-46 -28.5 t-57.5 -10.5z" />
<glyph unicode="&#x202f;" horiz-adv-x="423" />
<glyph unicode="&#x2039;" horiz-adv-x="673" d="M599 200h-212l-313 336l313 344h213l-318 -344z" />
<glyph unicode="&#x203a;" horiz-adv-x="673" d="M600 538l-313 -338h-213l318 338l-317 342h212z" />
<glyph unicode="&#x2044;" horiz-adv-x="518" d="M801 1434l-875 -1434h-189l873 1434h191z" />
<glyph unicode="&#x205f;" horiz-adv-x="529" />
<glyph unicode="&#x2070;" horiz-adv-x="785" d="M385 864q-143 0 -222.5 109.5t-79.5 319.5q0 229 82.5 345t240.5 116q294 0 294 -441q0 -219 -82.5 -334t-232.5 -115zM396 1623q-147 0 -147 -325q0 -298 150 -298q136 0 136 306q0 317 -139 317z" />
<glyph unicode="&#x2071;" horiz-adv-x="455" d="M193 1588q-45 0 -73.5 26.5t-28.5 66.5q0 37 28.5 63.5t73.5 26.5q46 0 74.5 -26.5t28.5 -63.5q0 -39 -28.5 -66t-74.5 -27zM275 717h-166v719h166v-719z" />
<glyph unicode="&#x2074;" horiz-adv-x="781" d="M729 1075h-110v-191h-169v191h-394v114l361 545h202v-529h110v-130zM454 1587h-5q-12 -31 -39 -74l-195 -308h235v300q0 30 4 82z" />
<glyph unicode="&#x2075;" horiz-adv-x="785" d="M129 908v158q113 -66 199 -66q78 0 124 40t46 102q0 136 -189 136l-154 -10v469h475v-146h-322v-175q179 13 270.5 -61.5t91.5 -201.5q0 -128 -89.5 -209t-243.5 -81q-130 0 -208 45z" />
<glyph unicode="&#x2076;" horiz-adv-x="785" d="M630 1723v-138q-14 8 -33 14.5t-40 11.5t-42.5 8t-39.5 3q-53 0 -92 -16.5t-70 -49.5q-29 -32 -50 -90.5t-21 -147.5h4q27 48 78.5 78.5t126.5 30.5q58 0 104 -19t78.5 -54t49.5 -84t17 -109q0 -64 -23 -118.5t-63.5 -94.5t-95 -62.5t-117.5 -22.5q-64 0 -122 24 t-101.5 73.5t-69 125.5t-25.5 179q0 117 28.5 208t79.5 153t122 94t156 32q44 0 86.5 -7.5t74.5 -21.5zM399 1314q-29 0 -55 -10t-45 -29.5t-30 -46.5t-11 -62q0 -33 9.5 -64.5t27 -55.5t43.5 -39t59 -15q65 0 101.5 44.5t36.5 116.5q0 75 -34 118t-102 43z" />
<glyph unicode="&#x2077;" horiz-adv-x="776" d="M359 884h-180l314 713h-411v142h606v-73z" />
<glyph unicode="&#x2078;" horiz-adv-x="785" d="M532 1330q166 -71 166 -221q0 -114 -84 -180t-237 -66q-127 0 -211.5 65t-84.5 172q0 150 162 229q-133 73 -133 197q0 102 78 164.5t211 62.5q122 0 198 -59.5t76 -155.5q0 -131 -141 -208zM391 1402q117 50 117 122q0 95 -114 95q-52 0 -85 -26.5t-33 -67.5 q0 -74 115 -123zM384 1258q-137 -48 -137 -151q0 -46 39 -77.5t100 -31.5q64 0 105.5 31.5t41.5 75.5q0 101 -149 153z" />
<glyph unicode="&#x2079;" horiz-adv-x="785" d="M318 992q61 0 104 23.5t70.5 65t40 98.5t12.5 125h-4q-25 -51 -78.5 -83t-122.5 -32q-58 0 -105 19.5t-80.5 54.5t-52 84.5t-18.5 110.5q0 65 22 119.5t61.5 93.5t95.5 60.5t123 21.5q64 0 121 -25.5t100 -76t68 -125.5t25 -175q0 -105 -24 -194.5t-71 -154.5 t-116.5 -102t-160.5 -37q-51 0 -101.5 10t-89.5 29v140q38 -20 88 -35t93 -15zM385 1623q-29 0 -54 -11.5t-43.5 -32.5t-29 -52t-10.5 -70q0 -73 36.5 -114t99.5 -41q26 0 52 10.5t46 29.5t32.5 44t12.5 54q0 41 -10.5 74.5t-29.5 57.5t-45 37.5t-57 13.5z" />
<glyph unicode="&#x207f;" horiz-adv-x="852" d="M275 717h-165v719h163v-116h4q68 136 214 136q122 0 190 -74.5t68 -208.5v-456h-167v446q0 160 -134 160q-68 0 -120.5 -58.5t-52.5 -140.5v-407z" />
<glyph unicode="&#x2080;" horiz-adv-x="785" d="M385 -261q-143 0 -222.5 109.5t-79.5 319.5q0 229 82.5 345t240.5 116q294 0 294 -441q0 -219 -82.5 -334t-232.5 -115zM396 498q-147 0 -147 -325q0 -298 150 -298q136 0 136 306q0 317 -139 317z" />
<glyph unicode="&#x2081;" horiz-adv-x="759" d="M676 -241h-531v139h181v541l-192 -48v149l361 90v-732h181v-139z" />
<glyph unicode="&#x2082;" horiz-adv-x="785" d="M686 -241h-577v133l230 220q99 95 126 146t27 102t-33.5 83t-88.5 32q-117 0 -214 -102v179q87 77 242 77q126 0 199.5 -68.5t73.5 -180.5q0 -143 -193 -325l-155 -145v-4h363v-147z" />
<glyph unicode="&#x2083;" horiz-adv-x="785" d="M130 -209v160q104 -73 219 -73q75 0 118.5 33t43.5 89q0 124 -215 124h-82v140h78q192 0 192 117q0 106 -132 106q-97 0 -192 -67v155q92 54 225 54q122 0 194 -60.5t72 -157.5q0 -147 -144 -200v-4q174 -42 174 -200q0 -119 -90 -194t-241 -75q-140 0 -220 53z" />
<glyph unicode="&#x2084;" horiz-adv-x="781" d="M729 -50h-110v-191h-169v191h-394v114l361 545h202v-529h110v-130zM454 462h-5q-12 -31 -39 -74l-195 -308h235v300q0 30 4 82z" />
<glyph unicode="&#x2085;" horiz-adv-x="785" d="M129 -217v158q113 -66 199 -66q78 0 124 40t46 102q0 136 -189 136l-154 -10v469h475v-146h-322v-175q179 13 270.5 -61.5t91.5 -201.5q0 -128 -89.5 -209t-243.5 -81q-130 0 -208 45z" />
<glyph unicode="&#x2086;" horiz-adv-x="785" d="M630 598v-138q-14 8 -33 14.5t-40 11.5t-42.5 8t-39.5 3q-53 0 -92 -16.5t-70 -49.5q-29 -32 -50 -90.5t-21 -147.5h4q27 48 78.5 78.5t126.5 30.5q58 0 104 -19t78.5 -54t49.5 -84t17 -109q0 -64 -23 -118.5t-63.5 -94.5t-95 -62.5t-117.5 -22.5q-64 0 -122 24 t-101.5 73.5t-69 125.5t-25.5 179q0 117 28.5 208t79.5 153t122 94t156 32q44 0 86.5 -7.5t74.5 -21.5zM399 189q-29 0 -55 -10t-45 -29.5t-30 -46.5t-11 -62q0 -33 9.5 -64.5t27 -55.5t43.5 -39t59 -15q65 0 101.5 44.5t36.5 116.5q0 75 -34 118t-102 43z" />
<glyph unicode="&#x2087;" horiz-adv-x="776" d="M359 -241h-180l314 713h-411v142h606v-73z" />
<glyph unicode="&#x2088;" horiz-adv-x="785" d="M532 205q166 -71 166 -221q0 -114 -84 -180t-237 -66q-127 0 -211.5 65t-84.5 172q0 150 162 229q-133 73 -133 197q0 102 78 164.5t211 62.5q122 0 198 -59.5t76 -155.5q0 -131 -141 -208zM391 277q117 50 117 122q0 95 -114 95q-52 0 -85 -26.5t-33 -67.5 q0 -74 115 -123zM384 133q-137 -48 -137 -151q0 -46 39 -77.5t100 -31.5q64 0 105.5 31.5t41.5 75.5q0 101 -149 153z" />
<glyph unicode="&#x2089;" horiz-adv-x="785" d="M318 -133q61 0 104 23.5t70.5 65t40 98.5t12.5 125h-4q-25 -51 -78.5 -83t-122.5 -32q-58 0 -105 19.5t-80.5 54.5t-52 84.5t-18.5 110.5q0 65 22 119.5t61.5 93.5t95.5 60.5t123 21.5q64 0 121 -25.5t100 -76t68 -125.5t25 -175q0 -105 -24 -194.5t-71 -154.5 t-116.5 -102t-160.5 -37q-51 0 -101.5 10t-89.5 29v140q38 -20 88 -35t93 -15zM385 498q-29 0 -54 -11.5t-43.5 -32.5t-29 -52t-10.5 -70q0 -73 36.5 -114t99.5 -41q26 0 52 10.5t46 29.5t32.5 44t12.5 54q0 41 -10.5 74.5t-29.5 57.5t-45 37.5t-57 13.5z" />
<glyph unicode="&#x20ac;" d="M1050 50q-138 -74 -294 -74q-445 0 -530 492h-122v163h103q-4 28 -4 69q0 42 6 96h-105v161h127q53 235 201.5 368t360.5 133q144 0 257 -56v-201q-111 78 -250 78q-120 0 -213 -87.5t-130 -234.5h465v-161h-491q-8 -88 -1 -165h492v-163h-470q69 -314 337 -314 q125 0 261 87v-191z" />
<glyph unicode="&#x2122;" horiz-adv-x="1581" d="M1396 772h-127v463h-4l-193 -463h-93l-184 463h-4v-463h-123v662h168l194 -477h4l201 477h161v-662zM593 1325h-196v-553h-130v553h-191v109h517v-109z" />
<glyph horiz-adv-x="759" d="M676 584h-531v139h181v541l-192 -48v149l361 90v-732h181v-139z" />
<glyph horiz-adv-x="785" d="M686 584h-577v133l230 220q99 95 126 146t27 102t-33.5 83t-88.5 32q-117 0 -214 -102v179q87 77 242 77q126 0 199.5 -68.5t73.5 -180.5q0 -143 -193 -325l-155 -145v-4h363v-147z" />
<glyph horiz-adv-x="785" d="M130 616v160q104 -73 219 -73q75 0 118.5 33t43.5 89q0 124 -215 124h-82v140h78q192 0 192 117q0 106 -132 106q-97 0 -192 -67v155q92 54 225 54q122 0 194 -60.5t72 -157.5q0 -147 -144 -200v-4q174 -42 174 -200q0 -119 -90 -194t-241 -75q-140 0 -220 53z" />
<glyph horiz-adv-x="781" d="M729 775h-110v-191h-169v191h-394v114l361 545h202v-529h110v-130zM454 1287h-5q-12 -31 -39 -74l-195 -308h235v300q0 30 4 82z" />
<glyph horiz-adv-x="785" d="M129 608v158q113 -66 199 -66q78 0 124 40t46 102q0 136 -189 136l-154 -10v469h475v-146h-322v-175q179 13 270.5 -61.5t91.5 -201.5q0 -128 -89.5 -209t-243.5 -81q-130 0 -208 45z" />
<glyph horiz-adv-x="776" d="M359 584h-180l314 713h-411v142h606v-73z" />
<glyph horiz-adv-x="785" d="M532 1030q166 -71 166 -221q0 -114 -84 -180t-237 -66q-127 0 -211.5 65t-84.5 172q0 150 162 229q-133 73 -133 197q0 102 78 164.5t211 62.5q122 0 198 -59.5t76 -155.5q0 -131 -141 -208zM391 1102q117 50 117 122q0 95 -114 95q-52 0 -85 -26.5t-33 -67.5 q0 -74 115 -123zM384 958q-137 -48 -137 -151q0 -46 39 -77.5t100 -31.5q64 0 105.5 31.5t41.5 75.5q0 101 -149 153z" />
<glyph horiz-adv-x="682" d="M812 1498l-98 -213h-46l-47 100h-210l-47 -100h-46l-47 100h-210l-47 -100h-46l-98 213h942z" />
<glyph horiz-adv-x="1049" d="M920 1517q-16 -150 -123.5 -236.5t-269.5 -86.5q-166 0 -270.5 86.5t-114.5 236.5h193q14 -182 195 -182q80 0 132.5 48t64.5 134h193z" />
<glyph horiz-adv-x="0" d="M249 143v-220q0 -144 -92 -228t-245 -84q-74 0 -139 27v193q53 -34 114 -34q135 0 135 148v198h227z" />
<glyph horiz-adv-x="785" d="M385 564q-143 0 -222.5 109.5t-79.5 319.5q0 229 82.5 345t240.5 116q294 0 294 -441q0 -219 -82.5 -334t-232.5 -115zM396 1323q-147 0 -147 -325q0 -298 150 -298q136 0 136 306q0 317 -139 317z" />
<glyph horiz-adv-x="785" d="M630 1423v-138q-14 8 -33 14.5t-40 11.5t-42.5 8t-39.5 3q-53 0 -92 -16.5t-70 -49.5q-29 -32 -50 -90.5t-21 -147.5h4q27 48 78.5 78.5t126.5 30.5q58 0 104 -19t78.5 -54t49.5 -84t17 -109q0 -64 -23 -118.5t-63.5 -94.5t-95 -62.5t-117.5 -22.5q-64 0 -122 24 t-101.5 73.5t-69 125.5t-25.5 179q0 117 28.5 208t79.5 153t122 94t156 32q44 0 86.5 -7.5t74.5 -21.5zM399 1014q-29 0 -55 -10t-45 -29.5t-30 -46.5t-11 -62q0 -33 9.5 -64.5t27 -55.5t43.5 -39t59 -15q65 0 101.5 44.5t36.5 116.5q0 75 -34 118t-102 43z" />
<glyph horiz-adv-x="785" d="M318 692q61 0 104 23.5t70.5 65t40 98.5t12.5 125h-4q-25 -51 -78.5 -83t-122.5 -32q-58 0 -105 19.5t-80.5 54.5t-52 84.5t-18.5 110.5q0 65 22 119.5t61.5 93.5t95.5 60.5t123 21.5q64 0 121 -25.5t100 -76t68 -125.5t25 -175q0 -105 -24 -194.5t-71 -154.5 t-116.5 -102t-160.5 -37q-51 0 -101.5 10t-89.5 29v140q38 -20 88 -35t93 -15zM385 1323q-29 0 -54 -11.5t-43.5 -32.5t-29 -52t-10.5 -70q0 -73 36.5 -114t99.5 -41q26 0 52 10.5t46 29.5t32.5 44t12.5 54q0 41 -10.5 74.5t-29.5 57.5t-45 37.5t-57 13.5z" />
<glyph horiz-adv-x="1710" d="M895 0h213v-388h-213v388z" />
<glyph horiz-adv-x="1296" d="M697 0h194v-373h-194v373z" />
<glyph d="M808 513q0 349 -232 349q-120 0 -184.5 -88.5t-64.5 -269.5q0 -168 60 -254.5t180 -86.5q117 0 179 89.5t62 260.5zM1055 517q0 -130 -31.5 -231t-93.5 -170t-154 -105t-214 -36q-236 0 -358.5 129.5t-122.5 389.5q0 275 128.5 415t379.5 140q121 0 209 -35t145 -102.5 t84.5 -167t27.5 -227.5z" />
<glyph horiz-adv-x="824" d="M659 0h-232v750q-23 -21 -59 -43.5t-79 -43t-89.5 -36.5t-91.5 -24v216q58 16 117.5 40.5t115.5 54t107 62.5t92 66h119v-1042z" />
<glyph d="M144 0v116q0 55 14.5 100.5t39.5 83t58 67.5t71 55.5t78.5 47.5t79.5 42q43 22 82 43.5t68 45.5t46.5 51.5t17.5 62.5q0 62 -49.5 100.5t-145.5 38.5q-39 0 -84.5 -9t-91 -24.5t-88 -36.5t-76.5 -44v211q72 49 172 74.5t215 25.5q98 0 171.5 -21.5t122.5 -60.5 t73.5 -94.5t24.5 -123.5q0 -76 -31 -135t-79.5 -105t-108 -81.5t-117.5 -65.5q-42 -22 -80 -42t-67 -40t-46 -40.5t-17 -43.5h615v-198h-868z" />
<glyph d="M1017 1q0 -97 -37.5 -176.5t-106.5 -136.5t-166.5 -88t-217.5 -31q-213 0 -343 75v225q145 -109 334 -109q68 0 122 16.5t92 47t58 74.5t20 98q0 117 -91 178.5t-265 61.5h-124v191h116q317 0 317 225q0 52 -17.5 91t-49.5 65.5t-76.5 39.5t-98.5 13q-148 0 -283 -97v209 q143 79 339 79q99 0 178.5 -25.5t135.5 -72t86.5 -110.5t30.5 -142q0 -282 -286 -358v-4q74 -8 135.5 -36t105.5 -72.5t68 -103t24 -127.5z" />
<glyph horiz-adv-x="1180" d="M926 1028v-847h178v-181h-178v-420h-225v420h-649v175q88 92 180.5 198.5t177.5 217.5t158 223t124 214h234zM701 181v550q-52 -91 -105.5 -169t-106.5 -145t-104.5 -125.5t-98.5 -110.5h415z" />
<glyph d="M155 -377v223q141 -95 286 -95q146 0 235 74.5t89 198.5q0 122 -90.5 190t-259.5 68q-58 0 -235 -12l51 754h706v-198h-513l-24 -359q69 4 125 4q228 0 352.5 -117t124.5 -320q0 -213 -142.5 -341.5t-391.5 -128.5q-210 0 -313 59z" />
<glyph horiz-adv-x="1143" d="M1065 461q0 -108 -35.5 -197t-98.5 -153.5t-149.5 -100t-187.5 -35.5q-108 0 -198.5 42t-156 125t-101.5 206.5t-36 286.5q0 199 47.5 353t130.5 258t195 158t242 54q81 0 147.5 -11t106.5 -30v-209q-51 26 -109 44t-133 18q-84 0 -155 -34t-122.5 -99.5t-81 -162 t-30.5 -222.5h6q46 71 124.5 112t184.5 41q94 0 169.5 -30.5t129 -88t82.5 -140t29 -185.5zM831 442q0 62 -14.5 113t-44 87.5t-74 56.5t-104.5 20t-105.5 -21.5t-76.5 -56.5t-46.5 -80t-15.5 -92q0 -51 14.5 -104.5t44.5 -97.5t76.5 -72.5t110.5 -28.5q57 0 101 21t73.5 58 t45 87.5t15.5 109.5z" />
<glyph d="M1049 885q-72 -129 -149.5 -278t-146 -313.5t-121.5 -342t-78 -361.5h-253q18 120 50 239.5t73 234.5t87.5 223t94.5 205t94.5 180t86.5 149h-688v203h950v-139z" />
<glyph d="M91 400q0 62 15.5 120t46.5 107t78 88t110 63q-93 52 -148 133.5t-55 180.5q0 79 32.5 146t90 116t135.5 76.5t170 27.5q93 0 171.5 -28t136 -77t89.5 -116t32 -145q0 -99 -55 -180.5t-146 -133.5q62 -24 109.5 -62.5t79.5 -87.5t48 -107t16 -121q0 -94 -35 -172 t-98 -133.5t-151 -86.5t-194 -31q-105 0 -192.5 31t-151 86.5t-99 133.5t-35.5 172zM317 420q0 -61 18 -110t51 -83t79.5 -52t103.5 -18q55 0 101 18.5t79.5 53t52.5 83t19 108.5q0 55 -18 103.5t-51 84.5t-79.5 57t-103.5 21q-54 0 -100.5 -19.5t-80 -55t-52.5 -84.5 t-19 -107zM366 1068q0 -45 16 -83.5t43 -67t63.5 -44.5t78.5 -16t78.5 16.5t64 45t43.5 67t16 82.5q0 45 -15.5 84t-42.5 67t-64 44t-80 16q-45 0 -82 -16.5t-63.5 -45.5t-41 -67.5t-14.5 -81.5z" />
<glyph horiz-adv-x="1143" d="M1045 385q0 -192 -40 -344t-117 -257.5t-189 -161.5t-256 -56q-80 0 -149.5 12.5t-127.5 38.5v210q60 -32 124.5 -51.5t138.5 -19.5q90 0 160.5 34t119 99.5t74.5 162t26 221.5h-5q-47 -82 -124 -122t-183 -40q-91 0 -166.5 33t-130 92.5t-84.5 142.5t-30 184 q0 111 36.5 201t101 153t153 97.5t192.5 34.5q112 0 200.5 -44t149.5 -128.5t93.5 -208t32.5 -283.5zM798 552q0 69 -17 125.5t-47.5 96.5t-74 62t-97.5 22t-98 -21.5t-74.5 -59t-47.5 -89t-17 -111.5q0 -66 16.5 -117t47.5 -86t75 -53.5t98 -18.5q50 0 93 19t75 52.5 t50 79.5t18 99z" />
<glyph d="M553 -24q-224 0 -349.5 183t-125.5 529q0 380 131 575t378 195q473 0 473 -735q0 -364 -133.5 -555.5t-373.5 -191.5zM576 1273q-261 0 -261 -575q0 -538 256 -538q252 0 252 547q0 566 -247 566z" />
<glyph d="M765 1466v-1466h-232v1182q-63 -45 -135.5 -76.5t-165.5 -55.5v198q58 19 112 40t106.5 47t106 58t110.5 73h98z" />
<glyph d="M998 0h-900v111q0 68 19 127.5t51 112t75 99t92 90t100 84t100 81.5q46 39 84 76.5t65 77.5t42 84.5t15 96.5q0 57 -17.5 99.5t-49 71t-74.5 43t-94 14.5q-88 0 -179 -41t-175 -123v223q44 33 89 57.5t93 41t101 24.5t113 8q97 0 176 -25.5t135 -75t86.5 -123.5 t30.5 -170q0 -87 -21.5 -156.5t-61 -129.5t-95.5 -114t-125 -111q-58 -47 -115.5 -91.5t-103.5 -87t-74.5 -85t-28.5 -85.5v-5h647v-199z" />
<glyph d="M123 53v218q140 -111 316 -111q143 0 228.5 65t85.5 176q0 244 -373 244h-111v186h106q331 0 331 230q0 212 -258 212q-144 0 -271 -103v206q146 82 345 82q191 0 306 -96t115 -246q0 -283 -288 -364v-4q155 -15 245 -108.5t90 -233.5q0 -193 -145 -311.5t-382 -118.5 q-213 0 -340 77z" />
<glyph d="M900 1434v-926h213v-193h-213v-315h-225v315h-649v195q88 99 180.5 214.5t178 236t158.5 241.5t123 232h234zM675 508v602q-109 -196 -215.5 -342t-199.5 -260h415z" />
<glyph d="M155 33v223q141 -95 286 -95q146 0 235 74.5t89 198.5q0 122 -90.5 190t-259.5 68q-58 0 -235 -12l51 754h706v-198h-513l-24 -359q69 4 125 4q228 0 352.5 -117t124.5 -320q0 -213 -142.5 -341.5t-391.5 -128.5q-210 0 -313 59z" />
<glyph d="M1056 461q0 -108 -35.5 -197t-98.5 -153.5t-149.5 -100t-187.5 -35.5q-108 0 -198.5 42t-156 125t-101.5 206.5t-36 286.5q0 199 47.5 353t130.5 258t195 158t242 54q81 0 147.5 -11t106.5 -30v-209q-51 26 -109 44t-133 18q-84 0 -155 -34t-122.5 -99.5t-81 -162 t-30.5 -222.5h6q46 71 124.5 112t184.5 41q94 0 169.5 -30.5t129 -88t82.5 -140t29 -185.5zM822 442q0 62 -14.5 113t-44 87.5t-74 56.5t-104.5 20t-105.5 -21.5t-76.5 -56.5t-46.5 -80t-15.5 -92q0 -51 14.5 -104.5t44.5 -97.5t76.5 -72.5t110.5 -28.5q57 0 101 21t73.5 58 t45 87.5t15.5 109.5z" />
<glyph horiz-adv-x="1098" d="M1028 1318q-90 -165 -170 -326.5t-145 -324.5t-113 -328.5t-74 -338.5h-243q24 154 68.5 307.5t104.5 307t134.5 308.5t158.5 313h-679v198h958v-116z" />
<glyph d="M91 400q0 62 15.5 120t46.5 107t78 88t110 63q-93 52 -148 133.5t-55 180.5q0 79 32.5 146t90 116t135.5 76.5t170 27.5q93 0 171.5 -28t136 -77t89.5 -116t32 -145q0 -99 -55 -180.5t-146 -133.5q62 -24 109.5 -62.5t79.5 -87.5t48 -107t16 -121q0 -94 -35 -172 t-98 -133.5t-151 -86.5t-194 -31q-105 0 -192.5 31t-151 86.5t-99 133.5t-35.5 172zM317 420q0 -61 18 -110t51 -83t79.5 -52t103.5 -18q55 0 101 18.5t79.5 53t52.5 83t19 108.5q0 55 -18 103.5t-51 84.5t-79.5 57t-103.5 21q-54 0 -100.5 -19.5t-80 -55t-52.5 -84.5 t-19 -107zM366 1068q0 -45 16 -83.5t43 -67t63.5 -44.5t78.5 -16t78.5 16.5t64 45t43.5 67t16 82.5q0 45 -15.5 84t-42.5 67t-64 44t-80 16q-45 0 -82 -16.5t-63.5 -45.5t-41 -67.5t-14.5 -81.5z" />
<glyph d="M1047 795q0 -215 -46.5 -370t-128 -255t-191 -147.5t-235.5 -47.5q-41 0 -82.5 5t-79 13t-68 17.5t-50.5 18.5v209q21 -13 52 -26.5t67.5 -24t76 -17t76.5 -6.5q85 0 154.5 33t118.5 98t75.5 161.5t26.5 223.5h-4q-18 -32 -47.5 -60.5t-67.5 -50t-84.5 -34.5t-99.5 -13 q-90 0 -167.5 31.5t-134.5 89.5t-89.5 141t-32.5 185q0 112 37 202.5t102 154t153 98t191 34.5q97 0 183.5 -36.5t152 -116t104 -205.5t38.5 -305zM805 948q0 72 -18.5 131t-51.5 101t-78.5 65t-99.5 23q-48 0 -91.5 -19.5t-76 -55.5t-51.5 -87t-19 -113q0 -68 18.5 -120 t51.5 -87.5t79.5 -54t102.5 -18.5q50 0 92.5 18.5t74 50t49.5 74.5t18 92z" />
<glyph d="M553 -24q-224 0 -349.5 183t-125.5 529q0 380 131 575t378 195q473 0 473 -735q0 -364 -133.5 -555.5t-373.5 -191.5zM576 1273q-261 0 -261 -575q0 -538 256 -538q252 0 252 547q0 566 -247 566z" />
<glyph d="M1027 0h-854v192h312v1014l-320 -85v202l552 138v-1269h310v-192z" />
<glyph d="M1001 0h-900v191l397 385q152 147 217 244.5t65 208.5q0 114 -67.5 176.5t-192.5 62.5q-183 0 -350 -164v223q177 131 411 131q202 0 318 -101.5t116 -293.5q0 -129 -72 -252.5t-277 -323.5l-295 -283v-5h630v-199z" />
<glyph d="M138 53v218q140 -111 316 -111q143 0 228.5 65t85.5 176q0 244 -373 244h-111v186h106q331 0 331 230q0 212 -258 212q-144 0 -271 -103v206q146 82 345 82q191 0 306 -96t115 -246q0 -283 -288 -364v-4q155 -15 245 -108.5t90 -233.5q0 -193 -145 -311.5t-382 -118.5 q-213 0 -340 77z" />
<glyph d="M1074 346h-179v-346h-218v346h-652v150l622 938h248v-913h179v-175zM677 521v555q0 59 4 132h-4q-12 -32 -49 -98l-390 -589h439z" />
<glyph d="M164 33v223q141 -95 286 -95q146 0 235 74.5t89 198.5q0 122 -90.5 190t-259.5 68q-58 0 -215 -12v754h737v-198h-533v-359q65 4 121 4q228 0 352.5 -117t124.5 -320q0 -213 -142.5 -341.5t-391.5 -128.5q-210 0 -313 59z" />
<glyph d="M967 1417v-201q-107 57 -225 57q-183 0 -293 -148t-110 -397h4q97 180 320 180q183 0 291 -122t108 -326q0 -214 -133.5 -349t-338.5 -135q-227 0 -356 172t-129 483q0 377 168.5 602t446.5 225q156 0 247 -41zM593 726q-108 0 -175.5 -75.5t-67.5 -178.5 q0 -129 67 -220.5t178 -91.5q105 0 170 79.5t65 201.5q0 134 -62 209.5t-175 75.5z" />
<glyph d="M1048 1340l-540 -1340h-244l525 1236h-699v198h958v-94z" />
<glyph d="M392 752v4q-253 120 -253 347q0 156 127 255.5t327 99.5q181 0 297 -93t116 -239q0 -238 -266 -370v-4q308 -112 308 -388q0 -178 -135 -283t-376 -105q-195 0 -320.5 104t-125.5 270q0 276 301 402zM780 1091q0 87 -54.5 137.5t-148.5 50.5q-88 0 -149 -52.5t-61 -133.5 q0 -165 205 -249q208 86 208 247zM560 651q-242 -97 -242 -280q0 -95 70.5 -156t185.5 -61q109 0 178.5 60t69.5 151q0 192 -262 286z" />
<glyph d="M166 27v201q116 -68 246 -68q189 0 294 137.5t105 390.5q-2 -1 -4 0q-89 -166 -310 -166q-179 0 -294.5 126.5t-115.5 325.5q0 212 136 348t347 136q222 0 346.5 -167.5t124.5 -488.5q0 -396 -162 -611t-450 -215q-152 0 -263 51zM554 1273q-101 0 -169 -79t-68 -200 q0 -134 66.5 -210t180.5 -76q99 0 167.5 69.5t68.5 170.5q0 143 -68.5 234t-177.5 91z" />
<glyph horiz-adv-x="785" d="M385 -19q-143 0 -222.5 109.5t-79.5 319.5q0 229 82.5 345t240.5 116q294 0 294 -441q0 -219 -82.5 -334t-232.5 -115zM396 740q-147 0 -147 -325q0 -298 150 -298q136 0 136 306q0 317 -139 317z" />
<glyph horiz-adv-x="759" d="M676 1h-531v139h181v541l-192 -48v149l361 90v-732h181v-139z" />
<glyph horiz-adv-x="785" d="M686 1h-577v133l230 220q99 95 126 146t27 102t-33.5 83t-88.5 32q-117 0 -214 -102v179q87 77 242 77q126 0 199.5 -68.5t73.5 -180.5q0 -143 -193 -325l-155 -145v-4h363v-147z" />
<glyph horiz-adv-x="785" d="M130 33v160q104 -73 219 -73q75 0 118.5 33t43.5 89q0 124 -215 124h-82v140h78q192 0 192 117q0 106 -132 106q-97 0 -192 -67v155q92 54 225 54q122 0 194 -60.5t72 -157.5q0 -147 -144 -200v-4q174 -42 174 -200q0 -119 -90 -194t-241 -75q-140 0 -220 53z" />
<glyph horiz-adv-x="781" d="M729 192h-110v-191h-169v191h-394v114l361 545h202v-529h110v-130zM454 704h-5q-12 -31 -39 -74l-195 -308h235v300q0 30 4 82z" />
<glyph horiz-adv-x="785" d="M129 25v158q113 -66 199 -66q78 0 124 40t46 102q0 136 -189 136l-154 -10v469h475v-146h-322v-175q179 13 270.5 -61.5t91.5 -201.5q0 -128 -89.5 -209t-243.5 -81q-130 0 -208 45z" />
<glyph horiz-adv-x="785" d="M630 840v-138q-14 8 -33 14.5t-40 11.5t-42.5 8t-39.5 3q-53 0 -92 -16.5t-70 -49.5q-29 -32 -50 -90.5t-21 -147.5h4q27 48 78.5 78.5t126.5 30.5q58 0 104 -19t78.5 -54t49.5 -84t17 -109q0 -64 -23 -118.5t-63.5 -94.5t-95 -62.5t-117.5 -22.5q-64 0 -122 24 t-101.5 73.5t-69 125.5t-25.5 179q0 117 28.5 208t79.5 153t122 94t156 32q44 0 86.5 -7.5t74.5 -21.5zM399 431q-29 0 -55 -10t-45 -29.5t-30 -46.5t-11 -62q0 -33 9.5 -64.5t27 -55.5t43.5 -39t59 -15q65 0 101.5 44.5t36.5 116.5q0 75 -34 118t-102 43z" />
<glyph horiz-adv-x="776" d="M359 1h-180l314 713h-411v142h606v-73z" />
<glyph horiz-adv-x="785" d="M532 447q166 -71 166 -221q0 -114 -84 -180t-237 -66q-127 0 -211.5 65t-84.5 172q0 150 162 229q-133 73 -133 197q0 102 78 164.5t211 62.5q122 0 198 -59.5t76 -155.5q0 -131 -141 -208zM391 519q117 50 117 122q0 95 -114 95q-52 0 -85 -26.5t-33 -67.5 q0 -74 115 -123zM384 375q-137 -48 -137 -151q0 -46 39 -77.5t100 -31.5q64 0 105.5 31.5t41.5 75.5q0 101 -149 153z" />
<glyph horiz-adv-x="785" d="M318 109q61 0 104 23.5t70.5 65t40 98.5t12.5 125h-4q-25 -51 -78.5 -83t-122.5 -32q-58 0 -105 19.5t-80.5 54.5t-52 84.5t-18.5 110.5q0 65 22 119.5t61.5 93.5t95.5 60.5t123 21.5q64 0 121 -25.5t100 -76t68 -125.5t25 -175q0 -105 -24 -194.5t-71 -154.5 t-116.5 -102t-160.5 -37q-51 0 -101.5 10t-89.5 29v140q38 -20 88 -35t93 -15zM385 740q-29 0 -54 -11.5t-43.5 -32.5t-29 -52t-10.5 -70q0 -73 36.5 -114t99.5 -41q26 0 52 10.5t46 29.5t32.5 44t12.5 54q0 41 -10.5 74.5t-29.5 57.5t-45 37.5t-57 13.5z" />
<glyph horiz-adv-x="1109" d="M1105 0h-260l-90 250h-405l-86 -250h-260l417 1075h270zM700 423l-119 341q-9 26 -17 56.5t-10 54.5h-5q-3 -23 -10.5 -52.5t-17.5 -60.5l-113 -339h292z" />
<glyph horiz-adv-x="1062" d="M989 315q0 -72 -30 -130t-84 -99.5t-130 -63.5t-167 -22h-412v1075h396q185 0 279.5 -66t94.5 -183q0 -90 -56.5 -155t-162.5 -94v-3q66 -7 117 -29.5t85.5 -56.5t52 -78.5t17.5 -94.5zM684 791q0 69 -44 93.5t-138 24.5h-95v-271h92q90 0 137.5 38t47.5 115zM738 317 q0 80 -53.5 117t-162.5 37h-115v-305h129q98 0 150 35t52 116z" />
<glyph horiz-adv-x="1053" d="M976 41q-131 -60 -334 -60q-131 0 -235.5 38t-177 108t-111.5 168.5t-39 219.5q0 129 44.5 235t125 182.5t193 118.5t248.5 42q172 0 286 -42v-206q-116 65 -261 65q-88 0 -159 -27t-121 -76.5t-77 -120t-27 -157.5q0 -83 25 -150.5t72 -115t114.5 -73t152.5 -25.5 q160 0 281 70v-194z" />
<glyph horiz-adv-x="1239" d="M1160 551q0 -125 -46 -227t-130 -174t-202 -111t-263 -39h-353v1075h360q634 0 634 -524zM908 548q0 175 -99 260.5t-284 85.5h-118v-714h114q90 0 161.5 23.5t122 70t77 115.5t26.5 159z" />
<glyph horiz-adv-x="915" d="M838 0h-672v1075h645v-178h-404v-265h372v-178h-372v-277h431v-177z" />
<glyph horiz-adv-x="891" d="M811 897h-404v-285h370v-177h-370v-435h-241v1075h645v-178z" />
<glyph horiz-adv-x="1214" d="M1089 76q-89 -46 -192 -70.5t-224 -24.5q-135 0 -244.5 38t-187.5 108.5t-120 170.5t-42 223q0 125 46.5 230t131 181t202.5 118.5t260 42.5q97 0 178.5 -13t151.5 -39v-206q-135 78 -322 78q-87 0 -159.5 -28t-125 -78t-82 -120.5t-29.5 -154.5q0 -86 24.5 -154.5 t69.5 -116.5t109.5 -73.5t145.5 -25.5q53 0 93 8t76 25v225h-223v176h463v-520z" />
<glyph horiz-adv-x="1299" d="M1133 0h-241v463h-485v-463h-241v1075h241v-428h485v428h241v-1075z" />
<glyph horiz-adv-x="573" d="M407 0h-241v1075h241v-1075z" />
<glyph horiz-adv-x="738" d="M592 406q0 -105 -28 -184.5t-80.5 -133t-128.5 -80.5t-173 -27q-87 0 -151 24v201q55 -39 135 -39q93 0 139.5 58.5t46.5 191.5v658h240v-669z" />
<glyph horiz-adv-x="1079" d="M1079 0h-286l-345 468q-7 9 -18 26t-19 34h-4v-528h-241v1075h241v-507h4q5 10 16 27t22 32l328 448h267l-393 -515z" />
<glyph horiz-adv-x="877" d="M839 0h-673v1075h241v-893h432v-182z" />
<glyph horiz-adv-x="1611" d="M1445 0h-236v636q0 48 1.5 100.5t7.5 115.5h-6q-10 -43 -20 -78t-22 -65l-282 -709h-178l-287 711q-12 26 -22 58.5t-21 82.5h-5q2 -28 3.5 -52.5t2.5 -49.5t1.5 -52t0.5 -60v-638h-217v1075h333l252 -622q17 -41 29.5 -81t18.5 -71h6q11 37 25 79t28 75l250 620h337 v-1075z" />
<glyph horiz-adv-x="1352" d="M1186 0h-242l-487 672q-26 35 -44 64t-26 46h-4q3 -23 4.5 -64.5t1.5 -98.5v-619h-223v1075h257l478 -664q27 -37 41.5 -60t24.5 -40h3q-3 21 -5 60.5t-2 95.5v608h223v-1075z" />
<glyph horiz-adv-x="1274" d="M632 -19q-124 0 -226 39.5t-174.5 111.5t-112.5 172t-40 220q0 125 39.5 229.5t113.5 180t180 117.5t240 42q124 0 224 -41t171 -114t109.5 -172.5t38.5 -217.5q0 -130 -41 -235t-115.5 -178.5t-178 -113.5t-228.5 -40zM643 910q-73 0 -131 -27t-98 -76t-61.5 -118 t-21.5 -153q0 -85 20.5 -153.5t59.5 -117t95.5 -75t127.5 -26.5q75 0 133 25t97 72.5t59 116t20 155.5q0 89 -19 159t-56.5 118.5t-94 74t-130.5 25.5z" />
<glyph horiz-adv-x="1039" d="M970 741q0 -80 -31.5 -147t-88.5 -115t-138 -74.5t-180 -26.5h-125v-378h-241v1075h375q211 0 320 -85.5t109 -248.5zM718 734q0 90 -51.5 130.5t-156.5 40.5h-103v-358h95q106 0 161 46t55 141z" />
<glyph horiz-adv-x="1274" d="M632 -19q-124 0 -226 39.5t-174.5 111t-112.5 171.5t-40 221q0 125 39.5 229.5t113.5 180t180 117.5t240 42q124 0 224 -41t171 -114t109.5 -172.5t38.5 -217.5q0 -162 -62 -283t-171 -193l251 -227h-293l-156 150q-32 -8 -64.5 -11t-67.5 -3zM643 910q-73 0 -131 -27 t-98 -76t-61.5 -118t-21.5 -153q0 -85 20.5 -153.5t59.5 -117t95.5 -75t127.5 -26.5q75 0 133 25t97 72.5t59 116t20 155.5q0 89 -19 159t-56.5 118.5t-94 74t-130.5 25.5z" />
<glyph horiz-adv-x="1085" d="M1073 0h-282l-166 290q-21 37 -40 62t-38 40t-40 21t-46 6h-54v-419h-241v1075h395q195 0 299 -74t104 -215q0 -57 -19 -104.5t-53 -85t-81.5 -64t-104.5 -41.5v-3q45 -17 82.5 -54t75.5 -97zM712 765q0 79 -48.5 110.5t-145.5 31.5h-111v-319h80q50 0 91.5 11t71 33 t46 55t16.5 78z" />
<glyph horiz-adv-x="926" d="M101 258q31 -24 68.5 -43.5t77.5 -32.5t81.5 -20t80.5 -7q103 0 151.5 33.5t48.5 89.5q0 28 -11 48.5t-38.5 41t-74.5 43.5t-120 55q-139 61 -203.5 139t-64.5 188q0 74 33 130.5t90.5 94t135 56.5t166.5 19q88 0 152.5 -10t113.5 -30v-204q-54 35 -123 52.5t-139 17.5 q-93 0 -145 -31.5t-52 -82.5q0 -24 9 -43t33 -38t66.5 -40.5t110.5 -50.5q74 -32 129 -66t91.5 -74.5t54.5 -88.5t18 -106q0 -75 -29 -133.5t-85 -99.5t-137 -62.5t-185 -21.5q-40 0 -83 4.5t-83.5 12.5t-76.5 19t-61 25v216z" />
<glyph horiz-adv-x="958" d="M928 892h-328v-892h-241v892h-329v183h898v-183z" />
<glyph horiz-adv-x="1236" d="M1090 450q0 -236 -120.5 -352.5t-360.5 -116.5q-230 0 -347 114t-117 341v639h242v-625q0 -146 56.5 -215.5t178.5 -69.5q118 0 172.5 67.5t54.5 211.5v631h241v-625z" />
<glyph horiz-adv-x="1092" d="M1089 1075l-412 -1075h-269l-406 1075h262l232 -687q20 -57 30.5 -96t14.5 -65h4q3 24 15 63t35 103l235 682h259z" />
<glyph horiz-adv-x="1699" d="M968 1075l207 -663q17 -55 26 -97.5t14 -73.5h3q3 29 12.5 74t28.5 110l170 650h253q-83 -270 -164.5 -537.5t-163.5 -537.5h-258l-208 648q-11 34 -22.5 81.5t-16.5 92.5q-10 -49 -21 -98.5t-22 -81.5q-51 -161 -102.5 -321t-102.5 -321h-266l-318 1075h255l167 -654 q17 -59 26 -103.5t13 -77.5h4q3 26 12.5 70t28.5 106l214 659h231z" />
<glyph horiz-adv-x="1070" d="M1052 0h-282l-204 336q-9 16 -16 32.5t-14 38.5h-3q-4 -11 -10.5 -27t-18.5 -37l-204 -343h-283l370 545l-339 530h287l175 -310q22 -37 39 -83h4q9 22 18 43t23 43l183 307h267l-348 -539z" />
<glyph horiz-adv-x="999" d="M986 1075l-371 -686v-389h-241v386l-362 689h266l192 -408q5 -9 11.5 -28.5t16.5 -48.5h3q5 20 12 38.5t17 36.5l200 410h256z" />
<glyph horiz-adv-x="1028" d="M977 973l-595 -791h587v-182h-924v107l596 785h-546v183h882v-102z" />
<glyph horiz-adv-x="1500" d="M1424 0h-673v297h-346l-142 -297h-267l545 1075h855v-178h-404v-265h372v-178h-372v-277h432v-177zM484 470h267v427h-61z" />
<glyph horiz-adv-x="573" d="M284 1233q-50 0 -86.5 33.5t-36.5 82.5q0 48 36 81t87 33t87 -32.5t36 -81.5q0 -48 -36 -82t-87 -34zM407 0h-241v1075h241v-1075z" />
<glyph horiz-adv-x="851" d="M820 895h-423v-895h-241v1075h664v-180z" />
<glyph horiz-adv-x="1298" d="M1132 0h-241v890h-484v-890h-241v1075h966v-1075z" />
<glyph horiz-adv-x="915" d="M838 0h-672v1075h645v-178h-404v-265h372v-178h-372v-277h431v-177zM702 1206q-50 0 -86.5 33t-36.5 84q0 49 35 82t85 33q53 0 89.5 -33.5t36.5 -81.5q0 -49 -35 -83t-88 -34zM286 1206q-52 0 -89 34.5t-37 82.5q0 49 35.5 82t86.5 33t88.5 -33.5t37.5 -81.5 q0 -49 -36 -83t-86 -34z" />
<glyph horiz-adv-x="1267" d="M704 175q54 -23 117 -23q66 0 103 40.5t37 109.5q0 83 -55.5 127t-164.5 44h-160v-473h-241v892h-306v183h886v-183h-339v-253h194q208 0 315.5 -88.5t107.5 -249.5q0 -74 -23 -132t-66.5 -98.5t-106.5 -62t-142 -21.5q-51 0 -88.5 5t-67.5 15v168z" />
<glyph horiz-adv-x="851" d="M820 895h-423v-895h-241v1075h664v-180zM801 1576l-286 -328h-172l242 328h216z" />
<glyph horiz-adv-x="1058" d="M983 45q-133 -64 -333 -64q-132 0 -237.5 37t-179.5 106t-114 168t-40 223q0 136 43 243.5t122 181.5t188.5 113.5t243.5 39.5q178 0 307 -44v-201q-124 64 -286 64q-155 0 -247 -70.5t-112 -219.5h455v-175h-455q15 -137 105 -210.5t247 -73.5q169 0 293 70v-188z" />
<glyph horiz-adv-x="926" d="M101 258q31 -24 68.5 -43.5t77.5 -32.5t81.5 -20t80.5 -7q103 0 151.5 33.5t48.5 89.5q0 28 -11 48.5t-38.5 41t-74.5 43.5t-120 55q-139 61 -203.5 139t-64.5 188q0 74 33 130.5t90.5 94t135 56.5t166.5 19q88 0 152.5 -10t113.5 -30v-204q-54 35 -123 52.5t-139 17.5 q-93 0 -145 -31.5t-52 -82.5q0 -24 9 -43t33 -38t66.5 -40.5t110.5 -50.5q74 -32 129 -66t91.5 -74.5t54.5 -88.5t18 -106q0 -75 -29 -133.5t-85 -99.5t-137 -62.5t-185 -21.5q-40 0 -83 4.5t-83.5 12.5t-76.5 19t-61 25v216z" />
<glyph horiz-adv-x="573" d="M407 0h-241v1075h241v-1075z" />
<glyph horiz-adv-x="573" d="M407 0h-241v1075h241v-1075zM494 1233q-50 0 -86.5 33t-36.5 84q0 49 35 82t85 33q53 0 89.5 -33.5t36.5 -81.5q0 -49 -35 -83t-88 -34zM78 1233q-52 0 -89 34.5t-37 82.5q0 49 35.5 82t86.5 33t88.5 -33.5t37.5 -81.5q0 -49 -36 -83t-86 -34z" />
<glyph horiz-adv-x="738" d="M592 406q0 -105 -28 -184.5t-80.5 -133t-128.5 -80.5t-173 -27q-87 0 -151 24v201q55 -39 135 -39q93 0 139.5 58.5t46.5 191.5v658h240v-669z" />
<glyph horiz-adv-x="1714" d="M815 0v895h-225q-14 -90 -26.5 -166.5t-24.5 -142.5t-23 -123t-22 -108q-15 -74 -36.5 -141t-59.5 -118t-97 -81.5t-150 -30.5q-72 0 -135 18v178q44 -19 88 -19q36 0 62 16t46 53t37 98t36 150q18 86 33 162t27.5 147.5t23 142t21.5 145.5h665v-429h203q92 0 164 -21.5 t121.5 -62t75.5 -98t26 -128.5q0 -78 -27.5 -140t-80 -105.5t-128 -67t-170.5 -23.5h-424zM1055 479v-312h152q103 0 157 36.5t54 120.5t-51 119.5t-156 35.5h-156z" />
<glyph horiz-adv-x="1755" d="M1099 479v-312h149q103 0 157 36.5t54 120.5t-50 119.5t-155 35.5h-155zM1302 646q92 0 163.5 -21.5t120.5 -62t74.5 -98t25.5 -128.5q0 -78 -27.5 -140t-80 -105.5t-128 -67t-170.5 -23.5h-422v460h-452v-460h-240v1075h240v-432h452v432h240v-1l1 1v-429h203z" />
<glyph horiz-adv-x="1309" d="M1206 0h-236v281q0 100 -52.5 144t-146.5 44h-190v-469h-240v892h-307v183h886v-183h-339v-256h227q201 0 299.5 -88t98.5 -260v-288z" />
<glyph horiz-adv-x="1079" d="M1079 0h-286l-345 468q-7 9 -18 26t-19 34h-4v-528h-241v1075h241v-507h4q5 10 16 27t22 32l328 448h267l-393 -515zM925 1576l-286 -328h-172l242 328h216z" />
<glyph horiz-adv-x="1079" d="M1084 1075l-370 -744q-44 -88 -86 -153.5t-93 -109t-114.5 -65.5t-149.5 -22q-61 0 -101 6t-70 18v196q69 -39 143 -39q26 0 52.5 7.5t52.5 25.5t51.5 48.5t50.5 76.5l-402 755h259l239 -489q8 -17 15.5 -37.5t13.5 -41.5q15 36 31 71.5t33 73.5l192 423h253zM875 1510 q-11 -124 -97.5 -200t-209.5 -76q-130 0 -211.5 75.5t-87.5 200.5h136q12 -146 166 -146q65 0 111 39.5t56 106.5h137z" />
<glyph horiz-adv-x="1294" d="M1128 0h-374v-291h-219v291h-369v1075h240v-893h481v893h241v-1075z" />
<glyph horiz-adv-x="1109" d="M1105 0h-260l-90 250h-405l-86 -250h-260l417 1075h270zM700 423l-119 341q-9 26 -17 56.5t-10 54.5h-5q-3 -23 -10.5 -52.5t-17.5 -60.5l-113 -339h292z" />
<glyph horiz-adv-x="1056" d="M166 0v1075h701v-178h-461v-251h191q92 0 164.5 -22t123 -62.5t77 -97.5t26.5 -128q0 -78 -28 -140t-81 -105.5t-128.5 -67t-171.5 -23.5h-413zM406 479v-312h140q109 0 162 36t53 121q0 84 -50.5 119.5t-160.5 35.5h-144z" />
<glyph horiz-adv-x="1062" d="M989 315q0 -72 -30 -130t-84 -99.5t-130 -63.5t-167 -22h-412v1075h396q185 0 279.5 -66t94.5 -183q0 -90 -56.5 -155t-162.5 -94v-3q66 -7 117 -29.5t85.5 -56.5t52 -78.5t17.5 -94.5zM684 791q0 69 -44 93.5t-138 24.5h-95v-271h92q90 0 137.5 38t47.5 115zM738 317 q0 80 -53.5 117t-162.5 37h-115v-305h129q98 0 150 35t52 116z" />
<glyph horiz-adv-x="851" d="M820 895h-423v-895h-241v1075h664v-180z" />
<glyph horiz-adv-x="1267" d="M1214 -291h-219v291h-757v-291h-218v468h102q57 94 105 201t84 222t58.5 235t28.5 240h651v-898h165v-468zM808 177v718h-206q-5 -78 -26 -172.5t-52.5 -191t-70.5 -188.5t-81 -166h436z" />
<glyph horiz-adv-x="915" d="M838 0h-672v1075h645v-178h-404v-265h372v-178h-372v-277h431v-177z" />
<glyph horiz-adv-x="1682" d="M1682 0h-293l-396 477q-8 10 -16 21t-15 25h-4v-523h-234v523h-4q-5 -9 -12.5 -20.5t-18.5 -25.5l-397 -477h-292l482 559l-447 516h277l377 -458q19 -23 31 -43h4v501h234v-501h4q11 20 31 43l377 458h277l-447 -516z" />
<glyph horiz-adv-x="934" d="M75 234q133 -89 299 -89q113 0 175 42.5t62 120.5q0 163 -255 163h-126v165h117q111 0 168.5 39t57.5 114q0 66 -49 103t-143 37q-132 0 -267 -81v180q139 65 320 65q91 0 163 -19t122.5 -54.5t77 -85t26.5 -109.5q0 -102 -59.5 -169t-173.5 -93v-3q62 -7 112 -28.5 t85.5 -55t54.5 -77t19 -94.5q0 -75 -31 -135t-90 -102t-144.5 -64.5t-194.5 -22.5q-107 0 -188 15.5t-138 45.5v192z" />
<glyph horiz-adv-x="1352" d="M166 1075h223v-608q0 -56 -2 -95.5t-5 -60.5h3q10 17 24.5 40t41.5 60l478 664h257v-1075h-223v619q0 57 1.5 98.5t4.5 64.5h-4q-8 -17 -26 -46t-44 -64l-487 -672h-242v1075z" />
<glyph horiz-adv-x="1352" d="M166 1075h223v-608q0 -56 -2 -95.5t-5 -60.5h3q10 17 24.5 40t41.5 60l478 664h257v-1075h-223v619q0 57 1.5 98.5t4.5 64.5h-4q-8 -17 -26 -46t-44 -64l-487 -672h-242v1075zM980 1510q-11 -124 -97.5 -200t-209.5 -76q-130 0 -211.5 75.5t-87.5 200.5h136 q12 -146 166 -146q65 0 111 39.5t56 106.5h137z" />
<glyph horiz-adv-x="1079" d="M1079 0h-286l-345 468q-7 9 -18 26t-19 34h-4v-528h-241v1075h241v-507h4q5 10 16 27t22 32l328 448h267l-393 -515z" />
<glyph horiz-adv-x="1221" d="M1055 0h-240v895h-225q-14 -90 -26.5 -166.5t-24.5 -142.5t-23 -123t-22 -108q-15 -74 -36.5 -141t-59.5 -118t-97 -81.5t-150 -30.5q-72 0 -135 18v178q44 -19 88 -19q36 0 61.5 16t45.5 53t37 98t37 150q15 69 29 139t27 143.5t25 151.5t24 163h665v-1075z" />
<glyph horiz-adv-x="1611" d="M1445 0h-236v636q0 48 1.5 100.5t7.5 115.5h-6q-10 -43 -20 -78t-22 -65l-282 -709h-178l-287 711q-12 26 -22 58.5t-21 82.5h-5q2 -28 3.5 -52.5t2.5 -49.5t1.5 -52t0.5 -60v-638h-217v1075h333l252 -622q17 -41 29.5 -81t18.5 -71h6q11 37 25 79t28 75l250 620h337 v-1075z" />
<glyph horiz-adv-x="1299" d="M1133 0h-241v463h-485v-463h-241v1075h241v-428h485v428h241v-1075z" />
<glyph horiz-adv-x="1274" d="M632 -19q-124 0 -226 39.5t-174.5 111.5t-112.5 172t-40 220q0 125 39.5 229.5t113.5 180t180 117.5t240 42q124 0 224 -41t171 -114t109.5 -172.5t38.5 -217.5q0 -130 -41 -235t-115.5 -178.5t-178 -113.5t-228.5 -40zM643 910q-73 0 -131 -27t-98 -76t-61.5 -118 t-21.5 -153q0 -85 20.5 -153.5t59.5 -117t95.5 -75t127.5 -26.5q75 0 133 25t97 72.5t59 116t20 155.5q0 89 -19 159t-56.5 118.5t-94 74t-130.5 25.5z" />
<glyph horiz-adv-x="1298" d="M1132 0h-241v890h-484v-890h-241v1075h966v-1075z" />
<glyph horiz-adv-x="1039" d="M970 741q0 -80 -31.5 -147t-88.5 -115t-138 -74.5t-180 -26.5h-125v-378h-241v1075h375q211 0 320 -85.5t109 -248.5zM718 734q0 90 -51.5 130.5t-156.5 40.5h-103v-358h95q106 0 161 46t55 141z" />
<glyph horiz-adv-x="1053" d="M976 41q-131 -60 -334 -60q-131 0 -235.5 38t-177 108t-111.5 168.5t-39 219.5q0 129 44.5 235t125 182.5t193 118.5t248.5 42q172 0 286 -42v-206q-116 65 -261 65q-88 0 -159 -27t-121 -76.5t-77 -120t-27 -157.5q0 -83 25 -150.5t72 -115t114.5 -73t152.5 -25.5 q160 0 281 70v-194z" />
<glyph horiz-adv-x="958" d="M928 892h-328v-892h-241v892h-329v183h898v-183z" />
<glyph horiz-adv-x="1079" d="M1084 1075l-370 -744q-44 -88 -86 -153.5t-93 -109t-114.5 -65.5t-149.5 -22q-61 0 -101 6t-70 18v196q69 -39 143 -39q26 0 52.5 7.5t52.5 25.5t51.5 48.5t50.5 76.5l-402 755h259l239 -489q8 -17 15.5 -37.5t13.5 -41.5q15 36 31 71.5t33 73.5l192 423h253z" />
<glyph horiz-adv-x="1361" d="M791 136v-149h-221v149h-27q-112 0 -200 31.5t-148.5 88.5t-92.5 135.5t-32 171.5q0 92 32.5 168t93.5 130t149.5 84t199.5 30h25v112h221v-113h26q113 0 201 -30t149 -84t92.5 -129t31.5 -165q0 -94 -32.5 -173t-93.5 -136t-149 -89t-198 -32h-27zM791 811v-506h14 q125 0 188 66t63 191q0 118 -64.5 183.5t-187.5 65.5h-13zM571 305v506h-13q-123 0 -187.5 -66t-64.5 -184q0 -126 63 -191t188 -65h14z" />
<glyph horiz-adv-x="1070" d="M1052 0h-282l-204 336q-9 16 -16 32.5t-14 38.5h-3q-4 -11 -10.5 -27t-18.5 -37l-204 -343h-283l370 545l-339 530h287l175 -310q22 -37 39 -83h4q9 22 18 43t23 43l183 307h267l-348 -539z" />
<glyph horiz-adv-x="1346" d="M1293 -291h-219v291h-908v1075h240v-893h481v893h241v-893h165v-473z" />
<glyph horiz-adv-x="1193" d="M1027 0h-240v445q-82 -41 -162.5 -64t-169.5 -23q-158 0 -241.5 78t-83.5 233v406h240v-375q0 -85 37.5 -124.5t118.5 -39.5q63 0 127.5 19t133.5 56v464h240v-1075z" />
<glyph horiz-adv-x="1755" d="M1589 0h-1423v1075h240v-893h351v893h240v-893h351v893h241v-1075z" />
<glyph horiz-adv-x="1806" d="M166 1075h240v-893h351v893h240v-893h351v893h241v-893h164v-473h-219v291h-1368v1075z" />
<glyph horiz-adv-x="1233" d="M341 0v892h-307v183h547v-429h191q92 0 165 -22t123.5 -62.5t77 -97.5t26.5 -128q0 -78 -28 -140t-81 -105.5t-129 -67t-172 -23.5h-413zM581 481v-316h140q106 0 161 37t55 122q0 84 -53 120.5t-159 36.5h-144z" />
<glyph horiz-adv-x="1541" d="M166 0v1075h240v-429h191q92 0 165 -22t123.5 -62.5t77 -97.5t26.5 -128q0 -77 -28.5 -139t-81.5 -106t-129 -67.5t-171 -23.5h-413zM406 481v-316h140q106 0 161 37t55 122q0 84 -53 120.5t-159 36.5h-144zM1375 0h-240v1075h240v-1075z" />
<glyph horiz-adv-x="1058" d="M166 0v1075h240v-429h191q92 0 165 -22t123.5 -62.5t77 -97.5t26.5 -128q0 -77 -28.5 -139t-81.5 -106t-129 -67.5t-171 -23.5h-413zM406 481v-316h140q106 0 161 37t55 122q0 84 -53 120.5t-159 36.5h-144z" />
<glyph horiz-adv-x="1059" d="M77 234q125 -71 292 -71q158 0 246.5 73t104.5 211h-453v175h453q-22 149 -111.5 219t-244.5 70q-160 0 -287 -63v202q66 21 144 32t169 11q138 0 247 -38.5t185.5 -111t117 -178t40.5 -239.5q0 -126 -40.5 -226.5t-115.5 -171.5t-181 -109t-237 -38q-199 0 -329 60v193z " />
<glyph horiz-adv-x="1814" d="M1172 -19q-116 0 -212.5 35t-168.5 98.5t-115.5 152.5t-53.5 197h-226v-464h-240v1075h240v-434h232q17 101 63 184.5t118 143t168.5 92t214.5 32.5q124 0 224 -41t171 -114t109.5 -172.5t38.5 -217.5q0 -130 -41 -235t-115.5 -178.5t-178 -113.5t-228.5 -40zM1183 910 q-73 0 -131 -27t-98 -76t-61.5 -118t-21.5 -153q0 -85 20.5 -153.5t59.5 -117t95.5 -75t127.5 -26.5q75 0 133 25t97 72.5t59 116t20 155.5q0 89 -19 159t-56.5 118.5t-94 74t-130.5 25.5z" />
<glyph horiz-adv-x="1058" d="M912 0h-241v420h-109q-22 0 -41 -6.5t-36.5 -21.5t-34 -40t-33.5 -62l-131 -290h-277l170 338q26 51 67 91.5t94 57.5v3q-125 26 -186.5 99.5t-61.5 182.5q0 71 29 127.5t83 95.5t131 59.5t173 20.5h404v-1075zM671 588v319h-135q-94 0 -143.5 -39.5t-49.5 -116.5 q0 -75 51.5 -119t139.5 -44h137z" />
<glyph horiz-adv-x="847" d="M819 897h-423v-897h-240v1075h453v193h210v-371z" />
<glyph horiz-adv-x="1415" d="M1212 -17q-48 0 -87 8.5t-72 25t-62.5 39t-58.5 51.5q-33 -24 -75.5 -46.5t-94 -39.5t-113.5 -27.5t-134 -10.5q-96 0 -176 21.5t-137.5 63t-90 102t-32.5 139.5q0 58 20 106.5t55.5 87.5t84.5 69t107 53q-24 18 -47 40t-41.5 49t-29.5 58.5t-11 67.5q0 61 25.5 107.5 t71.5 78.5t109 48.5t137 16.5q72 0 132 -17t103 -48t67 -74.5t24 -96.5q0 -84 -49 -142.5t-142 -100.5q83 -35 145.5 -93.5t117.5 -132.5q50 75 73.5 162.5t23.5 184.5q0 28 -4 56t-12 55h218q11 -29 13.5 -53t2.5 -54q0 -134 -48 -261t-142 -231q42 -46 79.5 -67t87.5 -21 q61 0 131 29v-171q-38 -17 -81 -24.5t-88 -7.5zM526 160q98 0 167 25.5t117 63.5q-39 56 -77 98.5t-77 75t-80.5 56t-89.5 41.5q-36 -15 -67 -33t-53 -42t-34.5 -55t-12.5 -71q0 -39 16 -68.5t44 -49.5t66 -30.5t81 -10.5zM667 840q0 24 -9.5 41.5t-25.5 29.5t-35.5 18 t-38.5 6q-54 0 -87 -28t-34 -73q0 -21 7.5 -40.5t20.5 -36t30.5 -30.5t36.5 -24q66 21 100.5 53.5t34.5 83.5z" />
<glyph horiz-adv-x="592" d="M546 1434v-192h-131v-1050h131v-192h-500v192h131v1050h-131v192h500z" />
<glyph horiz-adv-x="1548" d="M741 -23q-63 0 -128.5 12.5t-127 38t-117.5 63.5t-102 88q-181 201 -181 525q0 346 189 551q191 206 522 206q297 0 482 -200t185 -523q0 -134 -29 -253t-87.5 -215t-147 -162.5t-210.5 -95.5q53 -51 99.5 -90t92.5 -65.5t96 -40.5t110 -14q16 0 35 1.5t38 5t36.5 8 t32.5 10.5v-212q-17 -6 -39 -10t-44 -7t-43.5 -4.5t-40.5 -1.5q-104 0 -186.5 30t-154.5 82.5t-139 122.5t-141 150zM779 1249q-198 0 -322 -147q-123 -147 -123 -387q0 -238 120 -386q121 -145 314 -145q207 0 326 139t119 389q0 258 -116 397q-115 140 -318 140z" />
<glyph horiz-adv-x="1684" d="M1479 -23q-63 0 -111 14t-88.5 40t-78.5 63t-80 85q-41 -39 -94.5 -75t-119 -64.5t-143 -45t-168.5 -16.5q-110 0 -202 27t-157.5 79.5t-101.5 129.5t-36 176q0 153 88 261.5t247 177.5q-30 22 -60 51.5t-53.5 67t-38 83t-14.5 99.5q0 79 30.5 140t84.5 103t127.5 63.5 t158.5 21.5q84 0 154 -21.5t120 -61.5t78 -96t28 -124q0 -121 -68.5 -200t-205.5 -135q69 -25 125 -60.5t103.5 -79.5t85 -94.5t73.5 -104.5q75 108 113 237.5t38 271.5q0 36 -4.5 68t-12.5 63h208q10 -32 12 -60t5 -68q0 -87 -21 -175t-56 -171t-82 -166t-98 -160 q35 -38 64 -66.5t59.5 -47.5t62 -28t71.5 -9q31 0 62 8t64 20v-185q-40 -18 -83.5 -27t-84.5 -9zM629 163q70 0 128.5 15t108 39.5t90 57t73.5 68.5q-58 85 -107 145.5t-98.5 104t-106 75t-130.5 58.5q-55 -22 -101 -49.5t-79.5 -64.5t-52.5 -86.5t-19 -115.5 q0 -61 23 -107.5t63 -77.5t93 -46.5t115 -15.5zM838 1129q0 43 -16 73.5t-40.5 50.5t-54.5 29t-59 9q-85 0 -135 -46t-51 -125q0 -35 10.5 -66.5t30 -58.5t45.5 -47.5t55 -35.5q108 38 161.5 89t53.5 128z" />
<glyph horiz-adv-x="626" d="M437 1434l-29 -1010h-185l-29 1010h243zM459 117q0 -28 -11 -53t-30.5 -44t-46 -30t-58.5 -11t-58.5 11t-46.5 30t-31 44t-11 53q0 30 11.5 55t31 43.5t46.5 29t58 10.5t57.5 -10.5t46 -29.5t31 -44t11.5 -54z" />
<glyph horiz-adv-x="494" d="M88 -218q63 51 102.5 99t39.5 86q0 23 -8.5 33.5t-28.5 19.5q-49 22 -71.5 45t-22.5 65q0 25 9 48t26.5 40.5t43.5 28t60 10.5q72 0 116.5 -49.5t44.5 -144.5q0 -64 -18.5 -117t-50.5 -98t-74 -84.5t-90 -76.5z" />
<glyph horiz-adv-x="494" d="M400 904q0 -30 -11 -55t-31 -44t-47.5 -29.5t-60.5 -10.5q-31 0 -58 11t-46.5 29.5t-30.5 44t-11 54.5q0 30 11.5 55t31.5 43.5t46.5 28.5t57.5 10t58 -10.5t47.5 -28.5t32 -43t11.5 -55zM90 -218q63 51 102.5 99t39.5 86q0 23 -8.5 33.5t-28.5 19.5q-49 22 -71.5 45 t-22.5 65q0 25 9 48t26.5 40.5t43.5 28t60 10.5q72 0 116.5 -49.5t44.5 -144.5q0 -64 -18.5 -117t-50.5 -98t-74 -84.5t-90 -76.5z" />
<glyph horiz-adv-x="909" d="M843 1105q0 -207 -208 -380q-48 -40 -81 -70.5t-53 -57.5t-29 -55t-9 -62v-65h-166v81q0 49 7 90t23 78.5t43 72t68 70.5q45 39 76.5 72.5t51.5 65t29 63.5t9 68q0 40 -14 73t-40.5 57t-63 37.5t-81.5 13.5q-167 0 -303 -132v239q155 94 332 94q95 0 170.5 -25t128.5 -71 t81.5 -111.5t28.5 -145.5zM536 117q0 -29 -11 -54.5t-31 -44t-47 -29t-58 -10.5q-32 0 -59 11t-47 30t-31.5 44t-11.5 53q0 30 11.5 55t32 43.5t47.5 29t58 10.5t58 -10.5t47 -29.5t31 -44t11 -54z" />
<glyph horiz-adv-x="879" d="M790 1370q-62 -50 -99.5 -96t-37.5 -83q0 -19 8.5 -27.5t28.5 -17.5q48 -21 69 -46t21 -68q0 -24 -9 -46.5t-26.5 -39.5t-42.5 -27t-58 -10q-69 0 -114 45.5t-45 137.5q0 62 18.5 114t50 97t73 84.5t87.5 75.5zM406 1370q-61 -50 -98.5 -96t-37.5 -83q0 -19 8.5 -27.5 t27.5 -17.5q48 -21 69.5 -46t21.5 -68q0 -24 -9 -46.5t-26.5 -39.5t-43 -27t-58.5 -10q-34 0 -63 11.5t-50 34t-33 57t-12 80.5q0 62 18.5 114t50 97t72.5 84.5t87 75.5z" />
<glyph horiz-adv-x="879" d="M89 1002q61 50 98.5 96t37.5 83q0 19 -8.5 27.5t-27.5 17.5q-48 21 -69.5 46t-21.5 68q0 24 9 46.5t26.5 39.5t43 27t58.5 10q34 0 63 -11.5t50 -34t33 -57t12 -80.5q0 -62 -18.5 -114t-50 -97t-72.5 -84.5t-87 -75.5zM472 1002q62 50 99.5 96t37.5 83q0 19 -8.5 27.5 t-28.5 17.5q-48 21 -69 46t-21 68q0 24 9 46.5t26.5 39.5t42.5 27t58 10q69 0 114 -45.5t45 -137.5q0 -62 -18.5 -114t-50 -97t-73 -84.5t-87.5 -75.5z" />
<glyph horiz-adv-x="525" d="M419 1370q-61 -50 -98.5 -96t-37.5 -83q0 -19 8.5 -27.5t27.5 -17.5q48 -21 69.5 -46t21.5 -68q0 -24 -9 -46.5t-26.5 -39.5t-43 -27t-58.5 -10q-34 0 -63 11.5t-50 34t-33 57t-12 80.5q0 62 18.5 114t50 97t72.5 84.5t87 75.5z" />
<glyph horiz-adv-x="525" d="M106 1001q61 50 98.5 96t37.5 84q0 18 -8.5 27t-27.5 18q-48 21 -69.5 46t-21.5 68q0 24 9 46.5t26.5 39.5t43 27t58.5 10q34 0 63 -11.5t50 -34.5t33 -57.5t12 -80.5q0 -62 -18.5 -114t-50 -97t-72.5 -84t-87 -75z" />
<glyph horiz-adv-x="525" d="M112 -216q61 50 99 97.5t38 85.5q0 18 -10 26.5t-30 18.5q-48 22 -69.5 46t-21.5 68q0 24 9 46.5t26.5 39.5t42.5 27t57 10q70 0 115 -46t45 -138q0 -62 -18.5 -114t-50 -97t-72.5 -84t-87 -75z" />
<glyph horiz-adv-x="879" d="M92 -213q61 50 98.5 96t37.5 84q0 18 -8.5 27t-27.5 18q-48 21 -69.5 46t-21.5 68q0 24 9 46.5t26.5 39.5t43 27t58.5 10q34 0 63 -11.5t50 -34.5t33 -57.5t12 -80.5q0 -62 -18.5 -114t-50 -97t-72.5 -84t-87 -75zM475 -213q62 50 99.5 96t37.5 84q0 18 -8.5 27t-28.5 18 q-48 21 -69 46t-21 68q0 24 9 46.5t26.5 39.5t42.5 27t58 10q69 0 114 -46t45 -138q0 -62 -18.5 -114t-50 -97t-73 -84t-87.5 -75z" />
<glyph horiz-adv-x="592" d="M546 1434v-192h-131v-1050h131v-192h-500v192h131v1050h-131v192h500zM510 1565q-50 0 -86.5 33t-36.5 84q0 49 35 82t85 33q53 0 89.5 -33.5t36.5 -81.5q0 -49 -35 -83t-88 -34zM94 1565q-52 0 -89 34.5t-37 82.5q0 49 35.5 82t86.5 33t88.5 -33.5t37.5 -81.5 q0 -49 -36 -83t-86 -34z" />
<glyph horiz-adv-x="592" d="M546 1434v-192h-131v-1050h131v-192h-500v192h131v1050h-131v192h500z" />
<glyph horiz-adv-x="592" d="M546 1434v-192h-131v-1050h131v-192h-500v192h131v1050h-131v192h500z" />
</font>
</defs>
</svg>
