<?xml version="1.0" encoding="utf-8"?><svg xmlns="http://www.w3.org/2000/svg" xmlns:xlink="http://www.w3.org/1999/xlink"><symbol viewBox="0 0 9 4" id="arrow" xmlns="http://www.w3.org/2000/svg"><path fill="#1262b2" d="M7.82.23A.76.76 0 0 0 6.8.17L3.98 2.44 1.21.17A.77.77 0 0 0 .18.22.67.67 0 0 0 0 .67c0 .19.09.37.24.5L3.5 3.82c.13.1.3.17.48.17s.35-.06.48-.17l3.3-2.66a.63.63 0 0 0 .06-.94z"/></symbol><symbol viewBox="0 0 26 49" id="arrow_next" xmlns="http://www.w3.org/2000/svg"><path fill="#1262b2" d="M1.63 49L.01 47.37l22.73-22.86L.01 1.64 1.63.01l24.36 24.5z"/></symbol><symbol viewBox="0 0 26 49" id="arrow_prev" xmlns="http://www.w3.org/2000/svg"><path fill="#1262b2" d="M24.37 49l1.62-1.63L3.26 24.51 25.99 1.64 24.37.01 0 24.51z"/></symbol><symbol viewBox="0 0 10 14" id="city" xmlns="http://www.w3.org/2000/svg"><path fill="#3b4256" d="M4.5 1A4.64 4.64 0 0 0 0 5.65c0 2.4 4.02 7.95 4.19 8.18a.4.4 0 0 0 .63 0C5 13.6 9.01 8.04 9.01 5.65A4.64 4.64 0 0 0 4.5 1zm.07 2.89c.87 0 1.57.72 1.57 1.6 0 .89-.7 1.6-1.57 1.6C3.7 7.1 3 6.38 3 5.5c0-.88.7-1.6 1.57-1.6z"/></symbol><symbol viewBox="0 0 31 31" id="facebook" xmlns="http://www.w3.org/2000/svg"><path fill="#3b5998" d="M3 0h25a3 3 0 0 1 3 3v25a3 3 0 0 1-3 3H3a3 3 0 0 1-3-3V3a3 3 0 0 1 3-3z"/><path fill="#fff" d="M17.06 10.15h1.93V7h-2.63c-3.72 0-3.63 3.03-3.63 3.48v2.48H11v3.03h1.73V25h3.55v-9.01h2.38s.22-1.45.33-3.04h-2.7v-2.07c0-.31.39-.73.77-.73z"/></symbol><symbol viewBox="0 0 12 14" id="lk" xmlns="http://www.w3.org/2000/svg"><path fill="#3b4256" d="M7.95 8.57c-.09-.03-.64-.28-.3-1.32.9-.92 1.58-2.39 1.58-3.84C9.23 1.17 7.73 0 6 0 4.26 0 2.78 1.16 2.78 3.4c0 1.46.68 2.94 1.58 3.85.35.92-.28 1.26-.4 1.3C2.12 9.22 0 10.41 0 11.6v.44C0 13.64 3.13 14 6.02 14c2.9 0 5.98-.36 5.98-1.96v-.44c0-1.22-2.15-2.4-4.05-3.02z"/></symbol><symbol viewBox="0 0 29 28" id="more" xmlns="http://www.w3.org/2000/svg"><path fill="#1262b2" d="M17.25.28a.55.55 0 0 0-.22 1.08 12.41 12.41 0 0 1-5.06 24.28 12.41 12.41 0 0 1-.8-24.09.55.55 0 0 0 .38-.68.55.55 0 0 0-.68-.38 13.52 13.52 0 0 0 .88 26.23A13.52 13.52 0 0 0 17.25.28zm3.85 7.49a8.74 8.74 0 1 0-1.81 13.04.55.55 0 0 0 .16-.76.54.54 0 0 0-.76-.16 7.65 7.65 0 1 1-2.63-13.87c3.3.69 5.8 3.52 6.06 6.88a.55.55 0 1 0 1.1-.08 8.8 8.8 0 0 0-2.12-5.05zm.05 5.41a.55.55 0 0 0-.77-.15.55.55 0 0 0-.15.76l1.6 2.44a.55.55 0 0 0 .76.16l2.44-1.6a.55.55 0 0 0-.6-.92l-1.98 1.3z"/></symbol><symbol viewBox="0 0 14 15" id="phone" xmlns="http://www.w3.org/2000/svg"><path fill="#3b4256" d="M13.78 11.58a5.05 5.05 0 0 0-2-2.07c-.33-.2-.65-.3-.97-.3-.12 0-.24.02-.37.05-.4.1-.78.29-1.18.58a.74.74 0 0 1-.45.14c-.21 0-.44-.08-.6-.2A14.39 14.39 0 0 1 5.23 6.8c-.17-.22-.3-.72-.05-1.05.29-.4.48-.78.57-1.19.11-.43.03-.87-.24-1.34a5.06 5.06 0 0 0-2.07-2A1.84 1.84 0 0 0 2.6 1c-.48 0-.93.2-1.3.6-.34.36-.64.75-.98 1.21-.32.43-.3.92-.27 1.35.04.56.24 1.2.62 2 .65 1.32 1.57 2.59 2.8 3.86L5 11.55a14.7 14.7 0 0 0 3.86 2.81c.78.38 1.43.59 1.98.63h.36c.29 0 .66-.02 1-.27.46-.35.84-.65 1.2-.99.63-.6.77-1.4.38-2.15z"/></symbol><symbol viewBox="0 0 36 37" id="search" xmlns="http://www.w3.org/2000/svg"><path fill="#fff" d="M14.67 1C6.6 1 0 7.6 0 15.67c0 8.06 6.6 14.66 14.67 14.66 8.06 0 14.66-6.6 14.66-14.66C29.33 7.6 22.73 1 14.67 1zm0 26.66c-6.6 0-12-5.4-12-12s5.4-12 12-12 12 5.4 12 12-5.4 12-12 12zm20 9.34c-.34 0-.67-.13-.87-.4L24 27l2.07-1.87 9.53 9.6c.27.27.4.6.4.94 0 .33-.13.66-.4.93s-.6.4-.93.4z"/></symbol><symbol viewBox="0 0 27 14" id="subscribe" xmlns="http://www.w3.org/2000/svg"><path fill="#fff" d="M26.53 13.99l.03-.01.02-.01.03-.01.03-.01.02-.01.03-.01.02-.02.03-.01.02-.02.03-.02.03-.03v-.01h.01l.04-.04.01-.02.02-.03.02-.02.01-.03.01-.03.01-.02.01-.03.01-.03.01-.02v-.03l.01-.04v-.02a.6.6 0 0 0 .01-.06V.6a.6.6 0 0 0-.59-.6H7.55l-.02.01H7.5l-.03.01h-.03l-.02.01-.03.01-.03.01-.02.02-.03.01-.02.02-.02.01-.03.02-.02.02-.02.02-.02.02-.01.02h-.01l-.02.03-.02.02-.01.03-.02.02-.01.03-.01.03-.01.02-.01.03-.01.03v.03l-.01.03v.06L7 .6v3.77c0 .34.26.61.58.61a.6.6 0 0 0 .59-.61l.37-2.44 5.21 4.71a.38.38 0 0 0-.08.07l-5.13 5.24V8.02a.6.6 0 0 0-.58-.6.6.6 0 0 0-.59.6v.73H4.36a.6.6 0 0 0-.59.6c0 .33.26.6.59.6h3.02v3.45c0 .33.27.6.59.6h18.5l.03-.01h.03zM20.7 6.71l-.01-.01 3.86-3.35a.6.6 0 0 0 .06-.84.58.58 0 0 0-.82-.07L17.2 8.16 9.51 1.2h16.32v10.75zm-6.19.85c.04-.05.08-.09.1-.14l2.2 1.98a.58.58 0 0 0 .76.01l2.23-1.94a.9.9 0 0 0 .07.09L25 12.8H9.38zM.58 7.01h9.83c.33 0 .59-.23.59-.51s-.26-.5-.59-.5H.58C.26 6 0 6.22 0 6.5s.26.51.58.51zm.94-4.02h3.97c.29 0 1.15.26 1.15-.07s-.86-.91-1.15-.91H1.52c-.3 0-.53.22-.53.49s.24.49.53.49zM4.46 11H.53c-.3 0-.53.22-.53.5s.24.51.53.51h3.93c.3 0 .54-.23.54-.51s-.24-.5-.54-.5z"/></symbol><symbol viewBox="0 0 31 31" id="twitter" xmlns="http://www.w3.org/2000/svg"><path fill="#4099ff" d="M3 0h25a3 3 0 0 1 3 3v25a3 3 0 0 1-3 3H3a3 3 0 0 1-3-3V3a3 3 0 0 1 3-3z"/><path fill="#fff" d="M22.85 15.78c1.06-.09 1.79-.57 2.07-1.22-.39.23-1.58.49-2.24.24l-.11-.43c-.5-1.83-2.22-3.31-4.03-3.13l.45-.16c.19-.07 1.36-.26 1.18-.67-.16-.36-1.58.27-1.85.35.35-.13.94-.36 1-.76a2.8 2.8 0 0 0-1.48.7.97.97 0 0 0 .28-.56c-1.44.92-2.29 2.77-2.97 4.56a7.11 7.11 0 0 0-1.44-1.15c-1.2-.64-2.63-1.3-4.87-2.13-.07.74.36 1.72 1.62 2.37-.27-.04-.77.05-1.17.14.16.85.69 1.54 2.13 1.88-.66.04-1 .19-1.3.51.3.59 1.02 1.28 2.34 1.14-1.46.62-.6 1.78.59 1.61a5.07 5.07 0 0 1-7.05.18c4.78 6.48 15.18 3.83 16.73-2.4 1.16.01 1.85-.4 2.27-.85a4.7 4.7 0 0 1-2.15-.22z"/></symbol><symbol viewBox="0 0 31 31" id="vk" xmlns="http://www.w3.org/2000/svg"><path fill="#4e83b7" d="M3 0h25a3 3 0 0 1 3 3v25a3 3 0 0 1-3 3H3a3 3 0 0 1-3-3V3a3 3 0 0 1 3-3z"/><path fill="#fff" d="M13.34 10.22a9.74 9.74 0 0 1 2.78.27c.5.84.26 2.44.26 3.71 0 .76-.05 1.5.69 1.51.21-.29.58-.47.8-.77.47-.66.91-1.4 1.29-2.13.25-.48.57-1.71.95-1.97.2-.16.78-.08 1.11-.08l2.24-.04c.45 0 .92.01 1.03.35.13.39-.3 1.03-.42 1.24-.59 1.09-1.32 1.99-2.01 2.97-.21.3-.89.91-.73 1.51.13.48.68.89 1.03 1.16l.38.43c.44.45.85.87 1.22 1.39.18.25.75.88.46 1.32-.21.57-1.68.38-2.44.38-.56 0-1.18.13-1.64-.04-.92-.34-1.58-1.19-2.13-1.93-.19-.26-.53-.39-.76-.62-.75.01-.89.55-1.03 1.16-.09.37.06.85-.11 1.12-.12.18-.37.26-.61.31h-.8a5.7 5.7 0 0 1-3.12-.73c-.57-.35-1.09-.66-1.6-1.05-.42-.31-.76-.8-1.07-1.23-.5-.71-1.09-1.38-1.56-2.13-.37-.59-.63-1.21-.99-1.82-.42-.71-.76-1.44-1.1-2.24-.18-.41-.45-.69-.46-1.28.44-.28.78-.27 1.52-.27.8 0 2.18-.18 2.52.31.23.35.32.81.49 1.2.36.83.85 1.7 1.33 2.44.3.45.58 1.07 1.3 1.08.03-.03.1-.06.15-.08.38-.82.65-3.35.08-4.21-.18-.26-.86-.35-.92-.58.26-.2.43-.44.8-.54.26-.08.87.01 1.07-.12z"/></symbol><symbol viewBox="0 0 31 31" id="youtube" xmlns="http://www.w3.org/2000/svg"><path fill="#cd332d" d="M3 0h25a3 3 0 0 1 3 3v25a3 3 0 0 1-3 3H3a3 3 0 0 1-3-3V3a3 3 0 0 1 3-3z"/><path fill="#fff" d="M21.38 25H10.62C9.18 25 8 23.9 8 22.56v-5.61c0-1.34 1.18-2.44 2.62-2.44h10.76c1.44 0 2.62 1.1 2.62 2.44v5.61C24 23.9 22.82 25 21.38 25zm-8.71-8.61l-3.56-.01v.86h1.11v5.93h1.11v-5.91h1.34zm2.67 1.75h-1.12v3.15c0 .46.03.69 0 .77-.09.24-.5.5-.65.02-.03-.08-.01-.33-.01-.77v-3.17h-1.11v3.13c0 .47-.01.83.01.99.02.29.01.62.28.81.5.36 1.46-.05 1.7-.56v.65h.9zm3.55.99c0-1-.75-1.6-1.78-.79v-1.95H16v6.73l.91-.01.08-.42c1.17 1.06 1.91.33 1.91-.94zm3.49 2.27l-.84.01v.57c0 .25-.2.45-.45.45h-.17a.45.45 0 0 1-.45-.45v-1.21h1.91v-.71c0-.52-.02-1.04-.06-1.34-.14-.94-1.47-1.09-2.14-.61-.22.15-.38.35-.47.62-.1.27-.14.64-.14 1.11v1.57c0 2.6 3.19 2.23 2.81-.01zm-1.4-2.6h.07c.27 0 .5.22.5.49l-.01.61h-1.06l.01-.61a.5.5 0 0 1 .49-.49zm-3.4 3.54c-.27 0-.48-.18-.48-.4V19c0-.22.21-.4.48-.4s.49.18.49.4v2.94c0 .22-.22.4-.49.4zm1.98-9.5a1 1 0 0 1-.31.4.73.73 0 0 1-.43.13.7.7 0 0 1-.45-.13.67.67 0 0 1-.27-.33 1.58 1.58 0 0 1-.11-.44l-.02-.89V8.05h1.02v4.07c0 .22.18.4.41.4a.4.4 0 0 0 .4-.4V8.05h.98v5.23h-1.24zm-2.59.02c-.13.2-.29.35-.48.44a1.87 1.87 0 0 1-1.39.02.98.98 0 0 1-.46-.36 1.49 1.49 0 0 1-.23-.59 5.3 5.3 0 0 1-.07-1.03V9.96c0-.5.04-.89.13-1.17.08-.28.23-.51.45-.68.22-.17.5-.26.84-.26.29 0 .53.06.74.17.21.11.37.25.48.43.11.17.19.35.23.54.04.19.06.47.06.85v1.32c0 .49-.02.84-.06 1.07-.04.23-.12.44-.24.63zm-.67-3.6c0-.3-.23-.54-.5-.54s-.49.24-.49.54v2.77c0 .3.22.54.49.54s.5-.24.5-.54zm-3.25.17l1.38-3.42h-1.28l-.73 2.54L11.67 6H10.4l1.48 3.44v4h1.17z"/></symbol></svg>