<?xml version="1.0" encoding="utf-8"?>
<svg xmlns="http://www.w3.org/2000/svg"
	xmlns:xlink="http://www.w3.org/1999/xlink"
	width="27px" height="50px" viewBox="0 0 27 50">
<filter filterUnits="objectBoundingBox" x="-8.74" y="-26.47" width="117.48" height="158.82" id="filter0">
<feGaussianBlur in="SourceAlpha" stdDeviation="4.50" result="dsBlurOut1"/>
<feFlood flood-color="rgb(2,3,3)" flood-opacity="0.75" result="dsFloodOut1"/>
<feComposite in="dsFloodOut1" in2="dsBlurOut1" operator="in" result="dsShadow1"/>
<feOffset in="dsShadow1" dx="1.50" dy="2.60" result="dsOffset1"/>
<feComposite in="dsOffset1" in2="SourceAlpha" operator="out" result="dropShadow1"/>
<feBlend in="dropShadow1" in2="SourceGraphic" mode="normal" result="sourceGraphic"/>
</filter>
<path fillRule="evenodd" d="M 6.74 5.76C 6.74 5.76 108.87 5.76 108.87 5.76 108.87 5.76 108.87 38.8 108.87 38.8 108.87 38.8 6.74 38.8 6.74 38.8 6.74 38.8 23.75 22.28 23.75 22.28 23.75 22.28 6.74 5.76 6.74 5.76Z" fill="rgb(80,94,46)" opacity="0.68" filter="url(#filter0)"/><path fillRule="evenodd" d="M 107.87 37.8C 107.87 37.8 107.87 6.76 107.87 6.76 107.87 6.76 9.2 6.76 9.2 6.76 9.2 6.76 24.45 21.56 24.45 21.56 24.45 21.56 25.19 22.28 25.19 22.28 25.19 22.28 24.45 23 24.45 23 24.45 23 9.2 37.8 9.2 37.8 9.2 37.8 107.87 37.8 107.87 37.8M 108.87 38.8C 108.87 38.8 6.74 38.8 6.74 38.8 6.74 38.8 23.75 22.28 23.75 22.28 23.75 22.28 6.74 5.76 6.74 5.76 6.74 5.76 108.87 5.76 108.87 5.76 108.87 5.76 108.87 38.8 108.87 38.8 108.87 38.8 108.87 38.8 108.87 38.8Z" fill="rgb(252,251,251)" opacity="0.18"/></svg>