<svg xmlns="http://www.w3.org/2000/svg" xmlns:xlink="http://www.w3.org/1999/xlink" width="23" height="19"><defs><path id="a" d="M695.64 1642a6.5 6.5 0 0 0-5.16 2.49 6.36 6.36 0 0 0-5.13-2.49c-3.52 0-6.35 2.69-6.35 6.02v.05c-.02.5.06 2.13 1.45 4.42 1.81 3.03 5.1 5.85 9.74 8.4.09.05.2.11.32.11h.11c.06 0 .12-.03.17-.08 11.42-6.3 11.25-12.37 11.19-12.93 0-3.3-2.85-5.99-6.34-5.99z"/><linearGradient id="b" x1="690.99" x2="690" y1="1661" y2="1642" gradientUnits="userSpaceOnUse"><stop offset="0" stop-color="#b9e700"/><stop offset="1" stop-color="#2f9343"/></linearGradient><clipPath id="c"><use fill="#fff" xlink:href="#a"/></clipPath></defs><g transform="translate(-679 -1642)"><use fill="url(#b)" xlink:href="#a"/><use fill="#fff" fill-opacity="0" stroke="#bee813" stroke-miterlimit="50" stroke-width="2" clip-path="url(&quot;#c&quot;)" xlink:href="#a"/></g></svg>