<svg xmlns="http://www.w3.org/2000/svg" xmlns:xlink="http://www.w3.org/1999/xlink" width="42" height="35"><defs><path id="a" d="M761.42 1683c-3.8 0-7.27 1.75-9.43 4.59a11.6 11.6 0 0 0-9.39-4.6c-6.43 0-11.6 4.96-11.6 11.1v.1c-.04.92.11 3.91 2.64 8.14 3.32 5.57 9.33 10.77 17.82 15.46.16.1.37.2.58.2h.21c.1 0 .21-.04.32-.14 20.87-11.6 20.55-22.79 20.45-23.82 0-6.08-5.22-11.03-11.6-11.03z"/><linearGradient id="b" x1="752.04" x2="752" y1="1718" y2="1683" gradientUnits="userSpaceOnUse"><stop offset="0" stop-color="#fd7e14"/><stop offset="1" stop-color="#ef4b55"/></linearGradient><clipPath id="c"><use fill="#fff" xlink:href="#a"/></clipPath></defs><g transform="translate(-731 -1683)"><use fill="url(#b)" xlink:href="#a"/><use fill="#fff" fill-opacity="0" stroke="#000" stroke-miterlimit="50" stroke-width="6" clip-path="url(&quot;#c&quot;)" xlink:href="#a"/></g></svg>