<svg xmlns="http://www.w3.org/2000/svg" xmlns:xlink="http://www.w3.org/1999/xlink" width="13" height="13"><defs><path id="b" d="M1142.94 1628.15l-4.7 11.34a.83.83 0 0 1-.77.51h-.03a.83.83 0 0 1-.75-.57l-1.53-4.59-4.6-1.53a.83.83 0 0 1-.05-1.55l11.34-4.7a.83.83 0 0 1 1.09 1.09zm-2.3 1.21l-7.44 3.08 2.87.96c.25.08.45.28.53.53l.96 2.87z"/><linearGradient id="a" x1="1137" x2="1136" y1="1640" y2="1627" gradientUnits="userSpaceOnUse"><stop offset="0" stop-color="#2f9343"/><stop offset="1" stop-color="#b9e700"/></linearGradient></defs><use fill="url(#a)" xlink:href="#b" transform="translate(-1130 -1627)"/></svg>