<svg xmlns="http://www.w3.org/2000/svg" xmlns:xlink="http://www.w3.org/1999/xlink" width="19" height="19"><defs><path id="b" d="M1497 22.5a9.51 9.51 0 0 1-19 0 9.51 9.51 0 0 1 19 0zm-3.34 5.5a6.73 6.73 0 0 0-10.02-2.77 6.74 6.74 0 0 0-2.3 2.78 8.25 8.25 0 0 0 12.32 0zm-6.16-5.21a2.85 2.85 0 1 0 0-5.7 2.85 2.85 0 0 0 0 5.7zm6.99 4.12a8.28 8.28 0 1 0-13.98 0 7.97 7.97 0 0 1 4.51-3.73 4.07 4.07 0 1 1 4.96 0 7.95 7.95 0 0 1 4.5 3.73z"/><linearGradient id="a" x1="1487" x2="1488" y1="32" y2="13" gradientUnits="userSpaceOnUse"><stop offset="0" stop-color="#2f9343"/><stop offset="1" stop-color="#b9e700"/></linearGradient></defs><use fill="url(#a)" xlink:href="#b" transform="translate(-1478 -13)"/></svg>