<?xml version="1.0" standalone="no"?>
<!DOCTYPE svg PUBLIC "-//W3C//DTD SVG 1.1//EN" "http://www.w3.org/Graphics/SVG/1.1/DTD/svg11.dtd" >
<svg xmlns="http://www.w3.org/2000/svg">
<metadata></metadata>
<defs>
<font id="compactcregular" horiz-adv-x="569" >
<font-face units-per-em="2048" ascent="1589" descent="-459" />
<missing-glyph horiz-adv-x="477" />
<glyph horiz-adv-x="0" />
<glyph horiz-adv-x="682" />
<glyph unicode=" "  horiz-adv-x="477" />
<glyph unicode="&#x09;" horiz-adv-x="477" />
<glyph unicode="&#xa0;" horiz-adv-x="477" />
<glyph unicode="!" horiz-adv-x="385" d="M115 324l-21 1110h197l-21 -1110h-155zM94 0v197h197v-197h-197z" />
<glyph unicode="&#x22;" horiz-adv-x="690" d="M279 1434l-50 -365h-63l-49 365h162zM573 1434l-47 -365h-65l-47 365h159z" />
<glyph unicode="#" horiz-adv-x="1030" d="M322 1001l36 175h146l-39 -175h215l37 175h141l-37 -175h137l-32 -141h-135l-60 -258h137l-30 -141h-136l-47 -205h-141l45 205h-213l-45 -205h-143l45 205h-131l30 141h131l58 258h-133l30 141h134zM377 602h213l59 258h-213z" />
<glyph unicode="$" horiz-adv-x="643" d="M72 502h202v-332q0 -19 16 -29t32 -10q47 0 47 39v299q0 20 -6 35.5t-12 23.5t-19 20t-19 19l-163 185q-27 30 -34.5 39t-21.5 32t-18 46.5t-4 56.5v284q0 97 44 160t132 64v172h147v-172q37 0 66 -10t47 -24t31 -36.5t19 -39.5t9 -43.5t3.5 -38t0.5 -32.5v-235h-202v274 q0 26 -15 40t-30 14q-20 0 -35 -16.5t-15 -37.5v-256q0 -45 7.5 -68.5t35.5 -54.5l179 -192q29 -31 41.5 -47t23 -48.5t10.5 -78.5v-283q0 -219 -176 -221v-215h-147v215q-37 0 -66 10t-47 23.5t-31 36t-19 39.5t-9 43t-3.5 37.5t-0.5 31.5v281z" />
<glyph unicode="%" horiz-adv-x="1034" d="M111 0l626 1434h187l-627 -1434h-186zM334 844h-113h-31t-28.5 3t-29 8t-23.5 15.5t-20.5 26.5t-11.5 40t-5 56v279q0 46 11 78t24.5 48t37 24.5t38.5 10t38 1.5h113q149 0 149 -162v-279q0 -43 -11 -73t-24.5 -44.5t-37 -22t-36.5 -8.5t-34 -1h-6zM319 989v299 q0 20 -13.5 31.5t-29.5 11.5t-28 -12.5t-12 -30.5v-299q0 -18 12 -30.5t28 -12.5t29.5 11.5t13.5 31.5zM813 0h-113q-29 0 -43 1t-38.5 8.5t-36 22t-21.5 44.5t-10 74v278q0 46 11 78t24.5 48t37 24.5t38.5 10t38 1.5h113q150 0 150 -162v-278q0 -32 -6.5 -57.5t-14.5 -41 t-24 -26t-25.5 -15.5t-30 -7.5t-25.5 -2.5h-24zM799 145v299q0 20 -13.5 31.5t-29.5 11.5t-28.5 -12.5t-12.5 -30.5v-299q0 -18 12.5 -30.5t28.5 -12.5t29.5 11.5t13.5 31.5z" />
<glyph unicode="&#x26;" horiz-adv-x="690" d="M643 150v-150h-127q-66 0 -93.5 11.5t-39.5 49.5q-68 -61 -174 -61q-39 0 -66 15t-40.5 34.5t-21 53t-8.5 55.5t-1 57v344q0 154 127 160v14q-63 1 -95 40t-32 101v330q0 27 2.5 51t13 59t28.5 59.5t53 42.5t83 18h117q28 0 48.5 -2.5t47.5 -14.5t44.5 -33t29.5 -61 t12 -96v-109h-203v131q0 54 -47 54q-17 0 -33 -17t-16 -37v-415q0 -14 14.5 -25.5t32.5 -11.5q49 0 49 37v114h203v-133h72v-149h-72v-441q0 -42 27 -62.5t65 -12.5zM348 170v496q-38 -3 -67 -25t-29 -59v-412q0 -13 17 -26t30 -13q16 0 32.5 11t16.5 28z" />
<glyph unicode="'" horiz-adv-x="395" d="M279 1434l-50 -365h-63l-49 365h162z" />
<glyph unicode="(" horiz-adv-x="366" d="M72 -176v1413q0 57 21.5 97.5t59.5 61.5t78 29.5t88 8.5v-127q-69 0 -69 -70v-1413q0 -70 69 -70v-127q-48 0 -88 8.5t-78 29.5t-59.5 61.5t-21.5 97.5z" />
<glyph unicode=")" horiz-adv-x="366" d="M295 1237v-1413q0 -51 -19 -89t-45.5 -58t-63.5 -32t-64 -15t-56 -3v127q70 0 70 70v1413q0 70 -70 70v127q29 0 56 -3t64 -15t63.5 -32t45.5 -58t19 -89z" />
<glyph unicode="*" horiz-adv-x="649" d="M72 1198l43 135l139 -47v148h141v-148l140 47l43 -135l-140 -45l86 -119l-112 -82l-88 119l-84 -119l-115 82l86 119z" />
<glyph unicode="+" horiz-adv-x="983" d="M557 297h-129v356h-356v129h356v355h129v-355h354v-129h-354v-356z" />
<glyph unicode="," horiz-adv-x="346" d="M78 0v197h196v-197q0 -93 -63 -178h-139q75 75 78 178h-72z" />
<glyph unicode="-" horiz-adv-x="444" d="M72 545v172h301v-172h-301z" />
<glyph unicode="." horiz-adv-x="339" d="M72 0v197h196v-197h-196z" />
<glyph unicode="/" horiz-adv-x="473" d="M127 -373h-127l346 1807h127z" />
<glyph unicode="0" horiz-adv-x="643" d="M571 1202v-971q0 -32 -2 -57t-12.5 -60t-28.5 -58t-53 -39.5t-84 -16.5h-139q-180 0 -180 231v971q0 232 180 232h139q49 0 84 -17t53 -40t28.5 -58t12.5 -60t2 -57zM274 1253v-1073q0 -23 15.5 -36t34.5 -13q17 0 31 11t14 38v1073q0 22 -13.5 36t-31.5 14 q-21 0 -35.5 -15.5t-14.5 -34.5z" />
<glyph unicode="1" horiz-adv-x="643" d="M240 0v1135q-46 -33 -134 -50v160q78 4 126.5 58.5t50.5 130.5h159v-1434h-202z" />
<glyph unicode="2" horiz-adv-x="645" d="M72 0v205q0 69 14 131t44 121.5t52.5 96.5t63.5 95q11 15 16 23q53 77 80 139.5t27 138.5v310q0 15 -13 29t-28 14q-16 0 -35 -12t-19 -31v-285h-202v237q0 25 0.5 37.5t3.5 40t9.5 43.5t20.5 37.5t34 33.5t51 21t71 9h127q31 0 51 -2.5t47.5 -14.5t43.5 -34.5t28 -66 t12 -104.5v-264v-23v-24t-1 -22.5t-2.5 -25t-4.5 -24.5t-7.5 -29t-11 -30t-15.5 -35.5t-20.5 -37.5t-25.5 -44q-18 -29 -54 -83t-52.5 -80t-41.5 -73.5t-37 -84t-21.5 -88t-10.5 -107.5h307v-137h-501z" />
<glyph unicode="3" horiz-adv-x="647" d="M276 975h-202v235q0 224 190 224h129q37 0 66.5 -9t48.5 -21t32 -33t19.5 -37t9.5 -41.5t3.5 -38t0.5 -34.5v-8v-262q0 -205 -172 -215v-10q14 0 27.5 -1t42.5 -10.5t49 -26.5t36.5 -53.5t16.5 -86.5v-326q0 -63 -13.5 -107t-30 -65.5t-45.5 -33.5t-46 -13.5t-45 -1.5 h-133q-93 0 -139.5 59.5t-46.5 159.5v283h202v-328q0 -21 16 -32t36 -11q16 0 29.5 12t13.5 31v358q0 61 -10 84q-25 59 -125 58v137q44 -4 73 7t41.5 35.5t16.5 47t4 53.5v299q0 26 -15 38t-30 12q-17 0 -33.5 -12t-16.5 -38v-278z" />
<glyph unicode="4" horiz-adv-x="643" d="M346 0v365h-328v157l218 912h313v-932h76v-137h-76v-365h-203zM209 502h137v731z" />
<glyph unicode="5" horiz-adv-x="645" d="M72 502h202v-328q0 -21 17 -32t37 -11q16 0 28.5 12.5t12.5 30.5v651q0 13 -9.5 27t-31.5 14q-24 0 -39 -11.5t-15 -29.5v-108h-202v717h501v-138h-299v-350q92 92 164 92q35 0 60 -11.5t39 -29.5t22 -48t10 -57t2 -67v-608q0 -36 -4 -65.5t-9.5 -51t-17 -38t-20 -27 t-24.5 -17.5t-25 -10.5t-28 -5.5t-26 -2h-26h-129q-52 0 -90 16.5t-56.5 38.5t-29 56t-12.5 56t-2 52v283z" />
<glyph unicode="6" horiz-adv-x="645" d="M573 975h-202v282q0 22 -16.5 34t-32.5 12q-19 0 -33.5 -12.5t-14.5 -33.5v-469q73 84 162 84q39 0 66 -13.5t40.5 -31t21 -47.5t8.5 -49t1 -49v-469q0 -35 -4.5 -64.5t-10 -50t-17.5 -37t-21 -26.5t-25.5 -17.5t-26 -10.5t-28.5 -5t-26.5 -2h-26.5h-133 q-51 0 -87.5 15.5t-54.5 36t-27.5 54t-11 54t-1.5 53.5v991q0 20 0.5 34.5t4.5 40.5t10.5 44.5t20 41t32.5 36.5t48 23.5t66 9.5h135q39 0 69.5 -9.5t49.5 -22.5t32.5 -36t19.5 -39.5t9.5 -45.5t3.5 -40.5v-36.5v-229zM274 666v-490q0 -22 17 -33.5t33 -11.5q19 0 33 12 t14 33v490q0 19 -15.5 32t-31.5 13q-15 0 -32.5 -11.5t-17.5 -33.5z" />
<glyph unicode="7" horiz-adv-x="643" d="M109 0l241 1296h-284v138h487v-144l-234 -1290h-210z" />
<glyph unicode="8" horiz-adv-x="643" d="M395 0h-151q-29 0 -47.5 2t-45 14t-41.5 33.5t-26.5 64t-11.5 103.5v330q0 157 149 172v16q-71 -3 -110 38t-39 120v311q0 35 2 59t12 59t28.5 57t55.5 38.5t88 16.5h129q39 0 68.5 -8.5t57.5 -31.5t43 -71t15 -119v-311q0 -77 -39 -119.5t-108 -38.5v-16 q147 -13 147 -172v-330q0 -61 -11 -104t-25.5 -64.5t-41.5 -33t-46 -13.5t-52 -2zM274 1255v-417q0 -45 48 -45q47 0 47 45v417q0 20 -16.5 34t-33.5 14q-14 0 -29.5 -14t-15.5 -34zM274 616v-438q0 -23 16 -35t34 -12q9 0 18 3t18 14t9 30v438q0 19 -10 30.5t-18.5 13.5 t-16.5 2q-25 0 -37.5 -13.5t-12.5 -32.5z" />
<glyph unicode="9" horiz-adv-x="645" d="M72 487h202v-311q0 -18 16.5 -31.5t35.5 -13.5t32 13t13 32v498q-81 -84 -160 -84q-29 0 -52 7.5t-37.5 18t-24.5 29t-15 32t-7.5 37.5t-2.5 34.5v31.5v441q0 35 4.5 64.5t10 50t17.5 37t21 26.5t25.5 17.5t26 10.5t28.5 5t26.5 2h26.5h133q51 0 87.5 -15.5t54.5 -36 t27.5 -54t11 -54t1.5 -53.5v-992q0 -29 -1.5 -51t-11.5 -58t-28 -60t-54 -42t-87 -18h-135q-38 0 -68 9.5t-49 22.5t-32.5 35.5t-20 40t-10 44.5t-4 40.5t-0.5 36.5v258zM371 797v460q0 19 -14.5 32.5t-34.5 13.5q-22 0 -35 -16t-13 -30v-460q0 -18 16 -31.5t32 -13.5 q17 0 33 12t16 33z" />
<glyph unicode=":" horiz-adv-x="339" d="M72 950v197h196v-197h-196zM72 0v197h196v-197h-196z" />
<glyph unicode=";" horiz-adv-x="342" d="M74 950v197h198v-197h-198zM74 0v197h198v-197q0 -36 -16.5 -88t-46.5 -90h-139q66 61 77 178h-73z" />
<glyph unicode="&#x3c;" horiz-adv-x="985" d="M254 717l659 -277v-137l-841 365v104l841 367v-140z" />
<glyph unicode="=" horiz-adv-x="983" d="M72 803v129h839v-129h-839zM72 502v129h839v-129h-839z" />
<glyph unicode="&#x3e;" horiz-adv-x="985" d="M731 717l-659 282v140l841 -367v-104l-841 -365v137z" />
<glyph unicode="?" horiz-adv-x="602" d="M186 328v153q0 101 14.5 162.5t55.5 138.5q3 5 13.5 23t13.5 23.5t11.5 21t11.5 23t9 21t8 23t5.5 22t4.5 24.5t1 24v266q0 15 -10.5 29t-34.5 14q-18 0 -29 -9.5t-13.5 -18t-2.5 -15.5v-278h-197v231q0 228 174 228h133q43 0 74.5 -9t50 -28t29.5 -36.5t15.5 -48.5 t5.5 -48.5t1 -50.5v-9v-203q0 -52 -7 -88.5t-15 -53.5t-33 -62q-5 -10 -8 -15q-84 -151 -84 -299v-155h-197zM186 0v197h195v-197h-195z" />
<glyph unicode="@" horiz-adv-x="1167" d="M1096 0h-760q-24 0 -41.5 1t-47 6.5t-51 15t-46.5 29.5t-41 47t-26.5 69.5t-10.5 95.5v905q0 53 10.5 95.5t26.5 70t41 47t46.5 29.5t51 15.5t47 6.5t41.5 1h495q35 0 61 -2.5t67.5 -17t68.5 -40.5t47.5 -79t20.5 -126v-604q0 -76 -17 -131.5t-41.5 -85.5t-61 -47.5 t-67 -22t-69.5 -4.5q-162 0 -209 111q-17 -47 -62 -79t-90 -32q-33 0 -56 12.5t-34 27.5t-17 39.5t-6.5 37.5t-0.5 33v539q0 38 1.5 64.5t8.5 56.5t19.5 48t35.5 30t55 12q37 0 73.5 -30.5t59.5 -74.5v78h177v-615v-5q-1 -126 67 -126q38 0 54 31t16 100v576q0 36 -3 65 t-11 49.5t-14.5 35t-21 23.5t-23.5 14t-29 7.5t-29.5 2.5h-33.5h-15h-336q-77 0 -100 -8q-64 -20 -77 -124q-3 -29 -3 -65v-782q0 -41 5 -73t12 -52.5t21.5 -35t25.5 -21.5t32.5 -10.5t34 -4t39.5 -0.5h10h680v-129zM537 961v-461q0 -56 41 -56q40 0 40 56v461q0 57 -40 57 q-41 0 -41 -57z" />
<glyph unicode="A" horiz-adv-x="694" d="M47 0l148 1434h305l147 -1434h-198l-31 393h-142l-30 -393h-199zM287 530h121l-56 732h-10z" />
<glyph unicode="B" horiz-adv-x="667" d="M84 0v1434h301q33 0 60 -5.5t46 -12.5t34 -22t24 -25t15.5 -30.5t9.5 -29.5t4.5 -31.5t1.5 -27.5v-25v-299q0 -17 -2 -33.5t-10.5 -41.5t-23 -43t-43 -32t-67.5 -16v-15q66 2 108 -40t42 -111v-395q0 -26 -2.5 -47.5t-14.5 -51.5t-32 -50t-59 -35t-93 -15h-299zM287 137 h22q32 0 52 20t20 54v389q0 39 -19 62.5t-49 23.5h-26v-549zM287 817h20q74 0 74 66v342q0 31 -22 51t-50 20h-22v-479z" />
<glyph unicode="C" horiz-adv-x="645" d="M383 502h203v-289v-31.5t-3.5 -36.5t-9.5 -42t-19.5 -37.5t-32 -34.5t-49 -21.5t-69.5 -9.5h-139q-33 0 -51.5 1.5t-46.5 13t-43 32.5t-27 64t-12 104v1008q0 26 0.5 40.5t4 40t10 40.5t19.5 34.5t31.5 30t48 18t66.5 7.5h139q38 0 68 -8t49 -19t32.5 -30.5t20 -34 t10 -39t3.5 -35.5v-33v-10v-250h-203v280q0 17 -17 32.5t-34 15.5q-13 0 -29 -13.5t-16 -34.5v-1079q0 -20 13.5 -32.5t31.5 -12.5q19 0 35 14t16 31v326z" />
<glyph unicode="D" horiz-adv-x="667" d="M84 0v1434h317q26 0 44 -1.5t47 -12.5t46.5 -30.5t31.5 -59t14 -95.5v-1032q0 -55 -14.5 -95t-33.5 -60t-47.5 -31.5t-47.5 -14t-42 -2.5h-315zM287 137h28q27 0 46.5 18t19.5 58v1012q0 71 -68 71h-26v-1159z" />
<glyph unicode="E" horiz-adv-x="610" d="M84 0v1434h475v-138h-272v-471h272v-137h-272v-551h276v-137h-479z" />
<glyph unicode="F" horiz-adv-x="522" d="M84 0v1434h414v-138h-211v-493h186v-137h-186v-666h-203z" />
<glyph unicode="G" horiz-adv-x="649" d="M340 702h250v-483q0 -46 -5.5 -81t-12.5 -58t-22.5 -39t-27 -24t-34 -12t-35.5 -4.5t-40 -0.5h-5h-142q-38 0 -67.5 9t-48.5 21t-32.5 33t-20 37t-9.5 41t-3.5 37t-0.5 34v7v985q0 92 16 134q36 96 164 96h123q41 0 73 -8t52.5 -19t35 -31.5t21.5 -36t10.5 -42t4 -40 t0.5 -40.5v-11v-231h-203v287q0 15 -12.5 28t-34.5 13t-34.5 -12.5t-12.5 -28.5v-1080q0 -25 16.5 -38t34.5 -13q20 0 34.5 12.5t14.5 38.5v383h-47v137z" />
<glyph unicode="H" horiz-adv-x="665" d="M84 0v1434h203v-609h92v609h203v-1434h-203v688h-92v-688h-203z" />
<glyph unicode="I" horiz-adv-x="370" d="M84 0v1434h203v-1434h-203z" />
<glyph unicode="J" horiz-adv-x="385" d="M25 0v137h22q12 0 19 1.5t15.5 6.5t12.5 18.5t4 35.5v1235h203v-1256q0 -38 -5.5 -67t-12 -48t-20.5 -31.5t-23.5 -18.5t-29.5 -9.5t-29 -3.5h-31h-125z" />
<glyph unicode="K" horiz-adv-x="657" d="M84 0v1434h203v-617l102 617h201l-125 -678l145 -756h-194l-129 682v-682h-203z" />
<glyph unicode="L" horiz-adv-x="538" d="M84 0v1434h203v-1297h227v-137h-430z" />
<glyph unicode="M" horiz-adv-x="1073" d="M84 1434h299l145 -1129l162 1129h299v-1434h-203v1104l-149 -1104h-201l-149 1104v-1104h-203v1434z" />
<glyph unicode="N" horiz-adv-x="700" d="M84 0v1434h203l127 -813v813h202v-1434h-202l-127 743v-743h-203z" />
<glyph unicode="O" horiz-adv-x="667" d="M584 1202v-971q0 -26 -2 -47t-7 -50t-17.5 -50.5t-31.5 -41.5t-50.5 -31t-72.5 -11h-139q-49 0 -84 16.5t-53 39.5t-28.5 58t-12.5 60t-2 57v971q0 32 2 57t12.5 60t28.5 58t53 40t84 17h139q49 0 84 -17t53.5 -40t28.5 -58t12.5 -60t2.5 -57zM287 1249v-1065 q0 -21 10.5 -34t19.5 -16t17 -3q18 0 32.5 14.5t14.5 38.5v1065q0 24 -14.5 39t-32.5 15q-8 0 -17 -3t-19.5 -16.5t-10.5 -34.5z" />
<glyph unicode="P" horiz-adv-x="630" d="M84 0v1434h315q29 0 46.5 -1.5t47 -12.5t47 -31t31 -62t13.5 -102v-494q0 -61 -13 -104.5t-30 -65t-45.5 -33.5t-48 -14t-48.5 -2h-112v-512h-203zM287 643h24q31 0 50.5 17.5t19.5 52.5v516q0 42 -21 58t-47 16h-26v-660z" />
<glyph unicode="Q" horiz-adv-x="667" d="M258 -240v240q-36 -2 -64.5 6.5t-46.5 21t-30.5 34t-19 38.5t-9.5 43t-3.5 39.5t-0.5 34.5v985q0 32 2 57t12.5 60t28.5 58t53 40t84 17h139q181 0 181 -232v-985q0 -25 -1 -42t-5.5 -47t-16 -49.5t-29.5 -40t-49.5 -30t-72.5 -8.5v-240h-152zM287 1253v-1071 q0 -22 15 -36.5t30 -14.5q19 0 34 16.5t15 34.5v1071q0 17 -16 33.5t-33 16.5t-31 -15.5t-14 -34.5z" />
<glyph unicode="R" horiz-adv-x="661" d="M84 0v1434h319q38 0 68 -7.5t48.5 -17.5t32 -30t19.5 -33.5t9 -40t3.5 -38t0.5 -38.5v-475q0 -36 -1.5 -55.5t-9.5 -50.5t-29 -52.5t-55 -36.5l136 -559h-217l-107 528h-14v-528h-203zM287 659h28q28 0 47 22.5t19 68.5v473q0 73 -62 73h-32v-637z" />
<glyph unicode="S" horiz-adv-x="643" d="M72 502h202v-332q0 -19 16 -29t32 -10q47 0 47 39v270q0 64 -56 127l-163 185q-27 30 -40.5 47.5t-25.5 51.5t-12 75v284v26v29.5t1.5 28.5t5 31t10 27.5t15 27t22.5 21t31.5 18.5t41.5 10.5t53 4.5h123q41 0 73 -8t52.5 -18t35 -30.5t21.5 -34.5t10.5 -41t3.5 -38.5 v-38.5v-15v-235h-202v274q0 20 -14 37t-31 17t-33.5 -15.5t-16.5 -38.5v-256q0 -45 7.5 -68.5t35.5 -54.5l179 -192q28 -31 40 -46t23.5 -45.5t11.5 -68.5v-297v-7q0 -19 -0.5 -31t-4 -36.5t-10 -41.5t-21.5 -38.5t-35.5 -34.5t-53 -22.5t-73.5 -9.5h-121q-52 0 -88 15.5 t-53.5 35t-27 54t-10.5 55t-1 56.5v5v281z" />
<glyph unicode="T" horiz-adv-x="559" d="M178 0v1296h-153v138h510v-138h-154v-1296h-203z" />
<glyph unicode="U" horiz-adv-x="669" d="M84 1434h203v-1258q0 -22 16 -33.5t31 -11.5q18 0 33.5 13.5t15.5 31.5v1258h203v-1213q0 -61 -12.5 -104.5t-29 -65.5t-44 -34t-47.5 -14.5t-50 -2.5h-137q-38 0 -67.5 8t-48.5 19t-32.5 31t-19.5 35t-9.5 41t-4 39.5t-0.5 38.5v7v1215z" />
<glyph unicode="V" horiz-adv-x="671" d="M197 0l-160 1434h207l92 -1067l92 1067h207l-160 -1434h-278z" />
<glyph unicode="W" horiz-adv-x="1077" d="M539 1030l-74 -1030h-297l-131 1434h217l57 -1047l74 1047h307l74 -1047l57 1047h217l-131 -1434h-297z" />
<glyph unicode="X" horiz-adv-x="667" d="M37 0l135 731l-135 703h213l74 -570l63 570h213l-125 -703l156 -731h-213l-94 598l-74 -598h-213z" />
<glyph unicode="Y" horiz-adv-x="657" d="M227 0v377l-190 1057h227l66 -600l65 600h226l-191 -1057v-377h-203z" />
<glyph unicode="Z" horiz-adv-x="501" d="M25 0v158l231 1138h-205v138h408v-158l-232 -1139h250v-137h-452z" />
<glyph unicode="[" horiz-adv-x="423" d="M72 -373v1807h305v-131h-121v-1545h121v-131h-305z" />
<glyph unicode="\" horiz-adv-x="473" d="M346 -373l-346 1807h127l346 -1807h-127z" />
<glyph unicode="]" horiz-adv-x="428" d="M47 -373v131h123v1545h-123v131h309v-1807h-309z" />
<glyph unicode="^" horiz-adv-x="894" d="M446 1321l-231 -317h-143l313 430h125l313 -430h-143z" />
<glyph unicode="_" horiz-adv-x="899" d="M0 -244h899v-129h-899v129z" />
<glyph unicode="`" horiz-adv-x="532" d="M117 1434h192l107 -215h-107z" />
<glyph unicode="a" d="M72 803v194q0 150 161 150h117q62 0 105 -40.5t43 -109.5v-997h-172v57q-56 -69 -148 -69q-34 0 -56 13t-32.5 37.5t-14 49t-3.5 59.5v320q0 108 114 170q7 4 33 17.5t34.5 18.5t27 18.5t25.5 25t13.5 29t6.5 38.5v203q0 14 -8 23t-16.5 11.5t-16.5 2.5q-13 0 -27 -10 t-14 -27v-184h-172zM326 610q-32 -18 -49 -31.5t-24 -30.5t-8 -26t-1 -35v-311q0 -17 12 -31t27 -14q16 0 29.5 11t13.5 34v434z" />
<glyph unicode="b" d="M72 0v1434h172v-332q69 57 131 57q35 0 59.5 -12t36.5 -27.5t18.5 -42t7.5 -43t1 -43.5v-833q0 -170 -127 -170q-58 0 -127 59v-47h-172zM244 977v-807q0 -18 14 -28.5t27 -10.5q14 0 27.5 8.5t13.5 30.5v807q0 22 -13.5 30.5t-27.5 8.5q-13 0 -27 -10.5t-14 -28.5z" />
<glyph unicode="c" d="M326 401h172v-223q0 -38 -5.5 -66.5t-12.5 -47.5t-21.5 -31.5t-25 -19t-31 -9.5t-31 -3.5t-33.5 -0.5h-111q-20 0 -30.5 0.5t-29.5 3.5t-30 9.5t-25 19.5t-21.5 31t-13 46.5t-5.5 65.5v787q0 52 10 88.5t22.5 55t36.5 28t40 11t44 1.5h113q28 0 43.5 -1t41 -10.5 t39.5 -27t25 -53t11 -86.5v-209h-172v223q0 41 -43 41q-14 0 -26.5 -11t-12.5 -30v-823q0 -14 13 -25.5t26 -11.5q15 0 29 9t14 28v241z" />
<glyph unicode="d" d="M498 1434v-1434h-172v47q-24 -29 -60 -44t-65 -15q-129 0 -129 170v837q0 26 1 43t8 42.5t19 40.5t36.5 26.5t58.5 11.5q71 0 131 -57v332h172zM244 977v-807q0 -15 14.5 -27t30.5 -12q12 0 24.5 8.5t12.5 30.5v807q0 20 -11.5 29.5t-27.5 9.5q-18 0 -30.5 -13.5 t-12.5 -25.5z" />
<glyph unicode="e" d="M326 401h172v-231q0 -47 -12 -80.5t-28.5 -50.5t-42 -26.5t-42 -11t-39.5 -1.5h-107q-43 0 -73.5 12.5t-46 29t-24 42.5t-10 43t-1.5 41v809q0 75 37.5 122.5t117.5 47.5h107q77 0 120.5 -47t43.5 -121v-463h-254v-358q0 -13 10 -24t27 -11q19 0 32 10t13 25v243z M244 631h82v358q0 15 -13 25t-32 10q-17 0 -27 -11t-10 -24v-358z" />
<glyph unicode="f" horiz-adv-x="462" d="M143 0v1024h-118v123h118v108q0 24 2 42.5t14 46t32.5 45.5t62 31.5t98.5 13.5h86v-123h-20q-35 0 -58 -10t-31.5 -28.5t-11 -32t-2.5 -32.5v-61h123v-123h-123v-1024h-172z" />
<glyph unicode="g" d="M498 1147v-1309q0 -28 -1 -47.5t-10 -53t-24.5 -55t-48.5 -38.5t-78 -17h-103q-161 0 -161 176v54h172v-93q0 -14 13 -24t32 -10q17 0 26 7t10 13t1 14v283q-54 -59 -142 -59q-112 0 -112 166v839q0 34 3 57t14 51t38 43t68 15q73 0 131 -61v49h172zM244 977v-807 q0 -18 14 -28.5t29 -10.5q39 0 39 39v807q0 39 -39 39q-15 0 -29 -10.5t-14 -28.5z" />
<glyph unicode="h" d="M72 0v1434h172v-332q74 57 151 57q29 0 49.5 -11.5t30.5 -26.5t15.5 -38.5t6.5 -37t1 -33.5v-1012h-172v975q0 22 -13 31.5t-26 9.5t-28 -13.5t-15 -27.5v-975h-172z" />
<glyph unicode="i" horiz-adv-x="315" d="M72 0v1147h172v-1147h-172zM72 1262v172h172v-172h-172z" />
<glyph unicode="j" horiz-adv-x="315" d="M72 -373v1520h172v-1520h-172zM72 1262v172h172v-172h-172z" />
<glyph unicode="k" horiz-adv-x="591" d="M72 0v1434h172v-791h8l94 504h180l-120 -555l149 -592h-176l-127 547h-8v-547h-172z" />
<glyph unicode="l" horiz-adv-x="315" d="M72 0v1434h172v-1434h-172z" />
<glyph unicode="m" horiz-adv-x="827" d="M72 0v1147h172v-57q30 33 70.5 51t72.5 18q80 0 107 -67q42 42 78 54.5t77 12.5q58 0 82.5 -36t24.5 -134v-989h-172v975q0 17 -13 29t-30 12q-19 0 -30 -11t-11 -30v-975h-172v979q0 16 -11.5 26.5t-23.5 10.5q-16 0 -32.5 -11.5t-16.5 -25.5v-979h-172z" />
<glyph unicode="n" d="M72 0v1147h172v-47q70 59 153 59q30 0 50.5 -12.5t30 -26.5t14.5 -40t5.5 -37t0.5 -33v-1010h-172v975q0 23 -13 32t-24 9q-14 0 -29.5 -12.5t-15.5 -28.5v-975h-172z" />
<glyph unicode="o" d="M336 0h-105q-25 0 -41.5 1.5t-41 11t-39.5 27t-26 52.5t-11 84v782q0 20 1.5 37t10 47.5t23.5 51t46.5 37t75.5 16.5h109q43 0 74.5 -15.5t47.5 -36.5t25 -50t11 -48t2 -39v-782q0 -49 -11.5 -84t-26.5 -52.5t-40.5 -27t-42 -11t-41.5 -1.5zM244 985v-823q0 -18 14 -28.5 t27 -10.5q14 0 27.5 8.5t13.5 30.5v823q0 22 -13.5 30.5t-27.5 8.5q-13 0 -27 -10.5t-14 -28.5z" />
<glyph unicode="p" d="M72 -373v1520h172v-45q26 26 62.5 41.5t64.5 15.5q127 0 127 -170v-833q0 -34 -3 -56.5t-14 -51.5t-39 -44.5t-71 -15.5q-65 0 -127 59v-420h-172zM244 977v-807q0 -17 12.5 -28t26.5 -11q13 0 28 10t15 29v807q0 16 -12 27.5t-31 11.5q-20 0 -29.5 -12t-9.5 -27z" />
<glyph unicode="q" d="M498 1147v-1520h-172v420q-57 -59 -129 -59q-35 0 -60 12t-37.5 27t-19 41.5t-7.5 43.5t-1 44v833q0 170 125 170q72 0 129 -57v45h172zM326 170v807q0 22 -12.5 30.5t-26.5 8.5t-28.5 -11.5t-14.5 -27.5v-807q0 -16 14.5 -27.5t28.5 -11.5t26.5 8.5t12.5 30.5z" />
<glyph unicode="r" horiz-adv-x="534" d="M72 1147h172v-47q47 33 79.5 46t73.5 13q34 0 56 -13t31 -38t11.5 -46t2.5 -52v-252h-172v217q0 22 -13 31.5t-26 9.5t-28 -11.5t-15 -29.5v-975h-172v1147z" />
<glyph unicode="s" horiz-adv-x="544" d="M59 401h172v-235q0 -19 12 -31t27 -12q18 0 30.5 14t12.5 29v207q0 63 -47 110l-153 160q-9 9 -16 17.5t-12.5 15t-9.5 15.5t-6.5 13t-4.5 14.5t-3 13t-1.5 15.5t-0.5 15.5v18.5v20v184q0 28 1.5 46t10.5 42.5t24.5 38.5t46.5 24.5t75 10.5h96q50 0 85 -13t51.5 -28.5 t25.5 -43t9.5 -40t0.5 -35.5v-213h-172v209q0 15 -11.5 28t-27.5 13t-29.5 -12t-13.5 -29v-168q0 -25 14 -45t37.5 -39.5t30.5 -28.5l95 -120q11 -14 28 -33.5t23 -28.5t13.5 -27.5t10 -43.5t2.5 -64v-211q0 -48 -12.5 -82.5t-29.5 -51.5t-43.5 -27t-44.5 -11.5t-42 -1.5 h-102q-24 0 -40 1.5t-39.5 11t-37.5 26.5t-24.5 51.5t-10.5 83.5v227z" />
<glyph unicode="t" horiz-adv-x="438" d="M25 1024v123h92v287h172v-287h125v-123h-125v-825q0 -76 63 -76h62v-123h-113q-53 0 -90.5 13.5t-55 29.5t-27 44.5t-10.5 44t-1 42.5v850h-92z" />
<glyph unicode="u" d="M498 1147v-1147h-172v47q-70 -59 -156 -59q-28 0 -47.5 10.5t-29.5 23.5t-15 37t-5.5 38.5t-0.5 39.5v1010h172v-975q0 -17 12.5 -29t26.5 -12q17 0 30 10.5t13 30.5v975h172z" />
<glyph unicode="v" horiz-adv-x="548" d="M168 -4l-131 1151h186l51 -889l52 889h186l-131 -1151h-213z" />
<glyph unicode="w" horiz-adv-x="946" d="M188 0l-151 1147h184l58 -799h12l94 799h176l94 -799h13l57 799h184l-151 -1147h-191l-94 682l-94 -682h-191z" />
<glyph unicode="x" horiz-adv-x="581" d="M37 0l123 602l-105 545h178l58 -514l57 514h178l-104 -545l123 -602h-180l-74 537l-74 -537h-180z" />
<glyph unicode="y" d="M498 1147v-1309q0 -28 -1 -47.5t-10 -53t-24.5 -55t-48.5 -38.5t-78 -17h-105q-159 0 -159 176v54h172v-93q0 -14 13 -24t32 -10q17 0 26 7t10 13t1 14v308q-56 -72 -142 -72q-112 0 -112 178v969h172v-985q0 -18 14 -28.5t29 -10.5q39 0 39 39v985h172z" />
<glyph unicode="z" horiz-adv-x="434" d="M25 0v129l200 895h-190v123h364v-129l-200 -895h211v-123h-385z" />
<glyph unicode="{" horiz-adv-x="458" d="M229 530q30 -7 48.5 -23.5t26 -44.5t9.5 -50.5t2 -61.5v-463q0 -29 0.5 -45.5t4.5 -38.5t11.5 -33.5t21.5 -20t34 -7.5v-115h-47q-23 0 -45.5 4.5t-52 19t-51.5 38t-37 66.5t-15 100v495q0 73 -10 93q-13 29 -57 30v115q17 0 29 3.5t19.5 14t11.5 16.5t5.5 26.5t1.5 27.5 v35v495q0 57 15 100t37 66.5t51.5 38t52 19t45.5 4.5h47v-115q-20 1 -34 -7.5t-21.5 -20t-11.5 -33.5t-4.5 -38.5t-0.5 -45.5v-463q0 -39 -2 -61.5t-9.5 -51t-26 -45t-48.5 -23.5z" />
<glyph unicode="|" horiz-adv-x="276" d="M72 -459v2157h133v-2157h-133z" />
<glyph unicode="}" horiz-adv-x="458" d="M229 530q-30 7 -48.5 23.5t-26 45t-9.5 51t-2 61.5v463q0 29 -0.5 45t-4.5 38.5t-11 34t-21 20t-34 7.5v115h47q22 0 45 -4.5t52 -19t51 -38t37 -66.5t15 -100v-495v-30t1 -25t3.5 -24t7.5 -17t12 -15t18 -8t26 -4v-115q-15 0 -26 -4t-18 -8t-12 -15t-7.5 -17t-3.5 -24 t-1 -25v-30v-495q0 -57 -15 -100t-37 -66.5t-51 -38t-52 -19t-45 -4.5h-47v115q20 -1 34 7.5t21 20t11 34t4.5 38.5t0.5 45v463q0 39 2 61.5t9.5 50.5t26 44.5t48.5 23.5z" />
<glyph unicode="~" horiz-adv-x="983" d="M72 602v143q59 48 128 81.5t128 33.5q37 0 73 -12.5t55 -24.5t50 -35q29 -21 49 -33.5t56.5 -25t72.5 -12.5q102 0 227 114v-143q-59 -48 -128 -81.5t-128 -33.5q-37 0 -73 12.5t-55 24.5t-50 35q-30 22 -49.5 34t-56 25t-72.5 13q-101 0 -227 -115z" />
<glyph unicode="&#xa9;" horiz-adv-x="1159" d="M346 1434h442q68 0 115 -6t81 -22.5t53.5 -38t31 -60.5t15 -81t3.5 -108v-803q0 -85 -10 -143.5t-25.5 -92t-44 -51.5t-56.5 -23t-72 -5h-598q-45 0 -75.5 6.5t-57.5 25.5t-42.5 53.5t-24.5 91.5t-9 138v803q0 66 3 108t13 81t28 60.5t49 38t74.5 22.5t106.5 6zM385 129 h403q39 0 64 7.5t40 19.5t22.5 39t9.5 54.5t2 76.5v782q0 49 -2 76.5t-9.5 54.5t-22.5 39t-40 19.5t-64 7.5h-403q-53 0 -82.5 -7.5t-45.5 -32.5t-20 -58.5t-4 -98.5v-797q0 -58 4 -88t20 -54t45.5 -32t82.5 -8zM621 631h167v-189q0 -72 -14 -104q-32 -70 -133 -70h-113 q-26 0 -41.5 1.5t-39 10.5t-36 26.5t-22.5 52t-10 83.5v562q0 49 9.5 83t22 51t35.5 26t38.5 10.5t43.5 1.5h113q42 0 72 -12t44.5 -26t22 -40.5t8 -40.5t0.5 -40v-11v-175h-167v209q0 39 -37 39t-37 -39v-643q0 -37 37 -37t37 37v234z" />
<glyph unicode="&#xab;" horiz-adv-x="645" d="M160 158l-88 430l88 430h164l-91 -430l91 -430h-164zM410 158l-88 430l88 430h163l-90 -430l90 -430h-163z" />
<glyph unicode="&#xad;" horiz-adv-x="444" d="M72 545v172h301v-172h-301z" />
<glyph unicode="&#xae;" horiz-adv-x="1159" d="M346 1434h467q62 0 105.5 -6t74.5 -22.5t49 -38t28.5 -60.5t13.5 -81t3 -108v-803q0 -85 -10 -143.5t-25.5 -92t-44 -51.5t-56.5 -23t-72 -5h-598q-45 0 -75.5 6.5t-57.5 25.5t-42.5 53.5t-24.5 91.5t-9 138v803q0 66 3 108t13 81t28 60.5t49 38t74.5 22.5t106.5 6z M385 129h389q97 0 124.5 37.5t27.5 159.5v782q0 122 -27.5 159.5t-124.5 37.5h-389q-53 0 -82.5 -7.5t-45.5 -32.5t-20 -58.5t-4 -98.5v-797q0 -58 4 -88t20 -54t45.5 -32t82.5 -8zM377 268v908h264q32 0 57 -6.5t40.5 -15t26 -25.5t16 -28t8 -33t2.5 -30v-30v-248 q0 -20 -0.5 -28.5t-2 -28.5t-6.5 -32t-13.5 -27.5t-23 -27t-34.5 -18.5l112 -330h-180l-88 307h-10v-307h-168zM545 682h22q24 0 40 20.5t16 53.5v248q0 31 -15 45t-37 14h-26v-381z" />
<glyph unicode="&#xbb;" horiz-adv-x="645" d="M485 1018l88 -430l-88 -430h-163l90 430l-90 430h163zM236 1018l88 -430l-88 -430h-164l90 430l-90 430h164z" />
<glyph unicode="&#x401;" horiz-adv-x="598" d="M72 0v1434h477v-138h-275v-471h275v-137h-275v-551h277v-137h-479zM78 1505v187h186v-187h-186zM356 1505v187h187v-187h-187z" />
<glyph unicode="&#x402;" horiz-adv-x="747" d="M176 0v1296h-151v138h579v-138h-225v-403h113q28 0 48.5 -2t48 -12t45 -27.5t30 -51.5t12.5 -81v-541q0 -64 -11 -102.5t-35.5 -54t-43 -18.5t-55.5 -3h-7h-102v137h10q20 0 30.5 12t10.5 50v485q0 72 -65 72h-29v-756h-203z" />
<glyph unicode="&#x403;" horiz-adv-x="520" d="M84 0v1434h412v-138h-209v-1296h-203zM483 1720l-192 -215h-109l109 215h192z" />
<glyph unicode="&#x404;" horiz-adv-x="657" d="M586 502v-281q0 -63 -14 -107t-32 -65.5t-48.5 -33.5t-49 -13.5t-47.5 -1.5h-131q-25 0 -41.5 1.5t-45.5 13.5t-47 33.5t-32 66t-14 106.5v983q0 34 1.5 57t11.5 59t27.5 58t53.5 39t86 17h131q39 0 69.5 -9.5t50 -22.5t33 -35t20 -38.5t10 -42.5t4 -38.5t0.5 -32.5v-7 v-233h-199v282q0 18 -17.5 32t-33.5 14q-15 0 -30 -12.5t-15 -33.5v-440h168v-131h-168v-514q0 -17 13.5 -29t31.5 -12q19 0 35 13t16 28v330h203z" />
<glyph unicode="&#x405;" horiz-adv-x="643" d="M72 502h202v-332q0 -19 16 -29t32 -10q47 0 47 39v270q0 64 -56 127l-163 185q-27 30 -40.5 47.5t-25.5 51.5t-12 75v284v26v29.5t1.5 28.5t5 31t10 27.5t15 27t22.5 21t31.5 18.5t41.5 10.5t53 4.5h123q41 0 73 -8t52.5 -18t35 -30.5t21.5 -34.5t10.5 -41t3.5 -38.5 v-38.5v-15v-235h-202v274q0 20 -14 37t-31 17t-33.5 -15.5t-16.5 -38.5v-256q0 -45 7.5 -68.5t35.5 -54.5l179 -192q28 -31 40 -46t23.5 -45.5t11.5 -68.5v-297v-7q0 -19 -0.5 -31t-4 -36.5t-10 -41.5t-21.5 -38.5t-35.5 -34.5t-53 -22.5t-73.5 -9.5h-121q-52 0 -88 15.5 t-53.5 35t-27 54t-10.5 55t-1 56.5v5v281z" />
<glyph unicode="&#x406;" horiz-adv-x="370" d="M84 0v1434h203v-1434h-203z" />
<glyph unicode="&#x407;" horiz-adv-x="493" d="M145 0v1434h203v-1434h-203zM29 1505v187h186v-187h-186zM279 1505v187h186v-187h-186z" />
<glyph unicode="&#x408;" horiz-adv-x="385" d="M25 0v137h22q12 0 19 1.5t15.5 6.5t12.5 18.5t4 35.5v1235h203v-1256q0 -38 -5.5 -67t-12 -48t-20.5 -31.5t-23.5 -18.5t-29.5 -9.5t-29 -3.5h-31h-125z" />
<glyph unicode="&#x409;" horiz-adv-x="980" d="M317 1296v-1075q0 -221 -192 -221h-105v137q41 -3 68 24.5t27 71.5v1201h497v-543h107q40 0 71.5 -8.5t51 -19.5t33.5 -31t20.5 -34.5t9.5 -38.5t3.5 -34t0.5 -29v-495q0 -21 -0.5 -31t-4 -35t-10 -39.5t-20.5 -35t-33.5 -32t-51.5 -20t-72 -8.5h-307v1296h-93zM612 137 h41q24 0 39 18t15 48v467q0 84 -56 84h-39v-617z" />
<glyph unicode="&#x40a;" horiz-adv-x="950" d="M84 0v1434h203v-543h92v543h203v-543h108q189 0 189 -197v-493q0 -20 -0.5 -31t-4 -35t-10 -39t-20.5 -35.5t-34 -32t-52 -20t-72 -8.5h-307v754h-92v-754h-203zM582 137h41q24 0 38.5 18t14.5 48v467q0 84 -55 84h-39v-617z" />
<glyph unicode="&#x40b;" horiz-adv-x="747" d="M176 0v1296h-151v138h579v-138h-225v-403h113q28 0 48.5 -2t48 -12t45 -27.5t30 -51.5t12.5 -81v-719h-203v684q0 72 -65 72h-29v-756h-203z" />
<glyph unicode="&#x40c;" horiz-adv-x="657" d="M84 0v1434h203v-617l102 617h201l-125 -678l145 -756h-194l-129 682v-682h-203zM549 1720l-193 -215h-108l108 215h193z" />
<glyph unicode="&#x40e;" horiz-adv-x="679" d="M643 1434l-199 -1215q-7 -45 -18 -78.5t-22.5 -57t-30 -39t-34.5 -24.5t-42.5 -13.5t-47 -5.5t-54.5 -1h-119v137h47q38 0 62.5 7.5t36 22.5t16 28t7.5 33q1 5 1 8l14 88l-223 1110h219l102 -785l82 785h203zM143 1692h146v-64q0 -17 14 -34t37 -17q24 0 37.5 15t13.5 36 v64h146v-58q0 -64 -39.5 -96.5t-102.5 -32.5h-112q-60 0 -100 32.5t-40 96.5v58z" />
<glyph unicode="&#x40f;" horiz-adv-x="667" d="M584 1434v-1434h-150v-287h-201v287h-149v1434h203v-1297h94v1297h203z" />
<glyph unicode="&#x410;" horiz-adv-x="694" d="M47 0l148 1434h305l147 -1434h-198l-31 393h-142l-30 -393h-199zM287 530h121l-56 732h-10z" />
<glyph unicode="&#x411;" horiz-adv-x="655" d="M84 0v1434h455v-138h-252v-462h102q24 0 40 -1t48.5 -11.5t53 -29t37 -59t16.5 -96.5v-436q0 -48 -10 -84t-28.5 -57t-37 -34t-45 -18t-41 -6.5t-35.5 -1.5h-303zM287 137h39q22 0 38.5 15.5t16.5 52.5v409q0 43 -16 62.5t-39 19.5h-39v-559z" />
<glyph unicode="&#x412;" horiz-adv-x="667" d="M84 0v1434h301q33 0 60 -5.5t46 -12.5t34 -22t24 -25t15.5 -30.5t9.5 -29.5t4.5 -31.5t1.5 -27.5v-25v-299q0 -17 -2 -33.5t-10.5 -41.5t-23 -43t-43 -32t-67.5 -16v-15q66 2 108 -40t42 -111v-395q0 -26 -2.5 -47.5t-14.5 -51.5t-32 -50t-59 -35t-93 -15h-299zM287 137 h22q32 0 52 20t20 54v389q0 39 -19 62.5t-49 23.5h-26v-549zM287 817h20q74 0 74 66v342q0 31 -22 51t-50 20h-22v-479z" />
<glyph unicode="&#x413;" horiz-adv-x="520" d="M84 0v1434h412v-138h-209v-1296h-203z" />
<glyph unicode="&#x414;" horiz-adv-x="739" d="M53 -240v377h15q31 0 52 10t30.5 29t12.5 36t3 40v1182h498v-1297h51v-377h-203v240h-256v-240h-203zM461 1296h-92v-1044q0 -86 -43 -115h135v1159z" />
<glyph unicode="&#x415;" horiz-adv-x="610" d="M84 0v1434h475v-138h-272v-471h272v-137h-272v-551h276v-137h-479z" />
<glyph unicode="&#x416;" horiz-adv-x="944" d="M371 1434h202v-641h5l94 641h202l-145 -686l168 -748h-203l-116 641h-5v-641h-202v641h-4l-117 -641h-203l168 748l-145 686h202l95 -641h4v641z" />
<glyph unicode="&#x417;" horiz-adv-x="645" d="M59 502h203v-324q0 -18 16.5 -32.5t32.5 -14.5q15 0 31 13t16 34v412q0 19 -3 33t-13 30t-32.5 24.5t-57.5 8.5h-80v131h80q66 0 86 27t20 74v346q0 39 -45 39q-17 0 -34 -11t-17 -28v-289h-203v231q0 228 197 228h102q41 0 73.5 -9t53.5 -22t36 -34t22.5 -39t12 -44 t5 -41.5t0.5 -38.5v-297q0 -143 -149 -149v-15q42 1 72.5 -12.5t45 -31t22 -44t8.5 -39t1 -28.5v-373q0 -36 -4 -65t-10 -50.5t-17.5 -38t-20.5 -27t-26.5 -18t-28 -11t-32 -5.5t-31.5 -2h-33h-114q-38 0 -68 9t-49 22t-33 34t-20.5 38.5t-10 42t-4 37.5t-0.5 32v287z" />
<glyph unicode="&#x418;" horiz-adv-x="690" d="M84 0v1434h203v-832l116 832h203v-1434h-203v807l-116 -807h-203z" />
<glyph unicode="&#x419;" horiz-adv-x="690" d="M84 0v1434h203v-832l116 832h203v-1434h-203v807l-116 -807h-203zM150 1692h147v-64q0 -21 13.5 -36t37.5 -15q23 0 37 17t14 34v64h148v-58q0 -65 -38 -97t-101 -32h-117q-66 0 -103.5 35.5t-37.5 93.5v58z" />
<glyph unicode="&#x41a;" horiz-adv-x="657" d="M84 0v1434h203v-617l102 617h201l-125 -678l145 -756h-194l-129 682v-682h-203z" />
<glyph unicode="&#x41b;" horiz-adv-x="696" d="M317 1296v-1075q0 -221 -192 -221h-105v137q41 -3 68 24.5t27 71.5v1201h497v-1434h-202v1296h-93z" />
<glyph unicode="&#x41c;" horiz-adv-x="1073" d="M84 1434h299l145 -1129l162 1129h299v-1434h-203v1104l-149 -1104h-201l-149 1104v-1104h-203v1434z" />
<glyph unicode="&#x41d;" horiz-adv-x="665" d="M84 0v1434h203v-609h92v609h203v-1434h-203v688h-92v-688h-203z" />
<glyph unicode="&#x41e;" horiz-adv-x="667" d="M584 1202v-971q0 -26 -2 -47t-7 -50t-17.5 -50.5t-31.5 -41.5t-50.5 -31t-72.5 -11h-139q-49 0 -84 16.5t-53 39.5t-28.5 58t-12.5 60t-2 57v971q0 32 2 57t12.5 60t28.5 58t53 40t84 17h139q49 0 84 -17t53.5 -40t28.5 -58t12.5 -60t2.5 -57zM287 1249v-1065 q0 -21 10.5 -34t19.5 -16t17 -3q18 0 32.5 14.5t14.5 38.5v1065q0 24 -14.5 39t-32.5 15q-8 0 -17 -3t-19.5 -16.5t-10.5 -34.5z" />
<glyph unicode="&#x41f;" horiz-adv-x="667" d="M84 0v1434h500v-1434h-203v1296h-94v-1296h-203z" />
<glyph unicode="&#x420;" horiz-adv-x="630" d="M84 0v1434h315q29 0 46.5 -1.5t47 -12.5t47 -31t31 -62t13.5 -102v-494q0 -61 -13 -104.5t-30 -65t-45.5 -33.5t-48 -14t-48.5 -2h-112v-512h-203zM287 643h24q31 0 50.5 17.5t19.5 52.5v516q0 42 -21 58t-47 16h-26v-660z" />
<glyph unicode="&#x421;" horiz-adv-x="645" d="M383 502h203v-289v-31.5t-3.5 -36.5t-9.5 -42t-19.5 -37.5t-32 -34.5t-49 -21.5t-69.5 -9.5h-139q-33 0 -51.5 1.5t-46.5 13t-43 32.5t-27 64t-12 104v1008q0 26 0.5 40.5t4 40t10 40.5t19.5 34.5t31.5 30t48 18t66.5 7.5h139q38 0 68 -8t49 -19t32.5 -30.5t20 -34 t10 -39t3.5 -35.5v-33v-10v-250h-203v280q0 17 -17 32.5t-34 15.5q-13 0 -29 -13.5t-16 -34.5v-1079q0 -20 13.5 -32.5t31.5 -12.5q19 0 35 14t16 31v326z" />
<glyph unicode="&#x422;" horiz-adv-x="559" d="M178 0v1296h-153v138h510v-138h-154v-1296h-203z" />
<glyph unicode="&#x423;" horiz-adv-x="679" d="M643 1434l-199 -1215q-7 -45 -18 -78.5t-22.5 -57t-30 -39t-34.5 -24.5t-42.5 -13.5t-47 -5.5t-54.5 -1h-119v137h47q38 0 62.5 7.5t36 22.5t16 28t7.5 33q1 5 1 8l14 88l-223 1110h219l102 -785l82 785h203z" />
<glyph unicode="&#x424;" horiz-adv-x="915" d="M356 0v150h-96q-48 0 -82.5 15t-52 36t-27.5 52.5t-12 53t-2 49.5v805q0 55 12.5 95.5t29.5 61t43 33t46 15t45 2.5h96v94h203v-94h103q40 0 71 -12.5t48.5 -34.5t28.5 -43t15 -49t5 -40.5t1 -27.5v-805q0 -55 -12.5 -95.5t-30 -61t-43 -32.5t-43.5 -14.5t-40 -2.5h-103 v-150h-203zM356 281v956q-34 4 -51.5 -18.5t-17.5 -63.5v-797q0 -13 2 -23.5t7.5 -24.5t21 -22t38.5 -7zM559 1237v-956q23 -1 38.5 7t21.5 22t8 24.5t2 23.5v797q0 41 -18 63.5t-52 18.5z" />
<glyph unicode="&#x425;" horiz-adv-x="667" d="M37 0l135 731l-135 703h213l74 -570l63 570h213l-125 -703l156 -731h-213l-94 598l-74 -598h-213z" />
<glyph unicode="&#x426;" horiz-adv-x="659" d="M84 0v1434h203v-1297h94v1297h203v-1297h51v-377h-203v240h-348z" />
<glyph unicode="&#x427;" horiz-adv-x="643" d="M356 0v541h-112q-25 0 -44 1.5t-47.5 11.5t-47 27t-32.5 51.5t-14 82.5v719h203v-684q0 -72 66 -72h28v756h203v-1434h-203z" />
<glyph unicode="&#x428;" horiz-adv-x="964" d="M84 0v1434h203v-1297h94v1297h203v-1297h94v1297h203v-1434h-797z" />
<glyph unicode="&#x429;" horiz-adv-x="956" d="M84 0v1434h203v-1297h94v1297h203v-1297h94v1297h203v-1297h51v-377h-201v240h-647z" />
<glyph unicode="&#x42a;" horiz-adv-x="749" d="M180 0v1296h-155v138h358v-543h104q40 0 71.5 -8.5t51 -20t33.5 -31t20.5 -34.5t10 -38t4 -33.5t0.5 -29.5v-495q0 -20 -0.5 -31t-4 -35t-10 -39t-20.5 -35.5t-34 -32t-52 -20t-72 -8.5h-305zM383 137h41q22 0 36.5 18t14.5 48v467q0 84 -53 84h-39v-617z" />
<glyph unicode="&#x42b;" horiz-adv-x="958" d="M84 0v1434h203v-543h106q40 0 71.5 -8.5t51 -20t33.5 -31t20.5 -34.5t10 -38t4 -33.5t0.5 -29.5v-495q0 -20 -0.5 -31t-4 -35t-10 -39t-20.5 -35.5t-34 -32t-52 -20t-72 -8.5h-307zM287 137h41q24 0 38.5 18t14.5 48v467q0 84 -55 84h-39v-617zM672 0v1434h202v-1434 h-202z" />
<glyph unicode="&#x42c;" horiz-adv-x="655" d="M84 0v1434h203v-543h108q39 0 69.5 -8t50 -20t33.5 -31t21 -34.5t10.5 -38t4 -34t0.5 -29.5v-495q0 -20 -0.5 -31t-4 -35t-10 -39t-20.5 -35.5t-34 -32t-52 -20t-72 -8.5h-307zM287 137h41q24 0 38.5 18t14.5 48v467q0 84 -55 84h-39v-617z" />
<glyph unicode="&#x42d;" horiz-adv-x="657" d="M72 502h202v-330q0 -19 17 -30t33 -11q17 0 32 11t15 30v514h-168v131h168v440q0 19 -15.5 32.5t-31.5 13.5q-15 0 -32.5 -12t-17.5 -34v-282h-202v233q0 82 15 121q40 105 187 105h119q50 0 86 -17t53.5 -39t27.5 -58t11.5 -59t1.5 -57v-983q0 -62 -14 -106.5t-32 -66 t-47 -33.5t-45.5 -13.5t-41.5 -1.5h-119q-32 0 -52 1.5t-52 13.5t-50.5 33.5t-33 65.5t-14.5 107v281z" />
<glyph unicode="&#x42e;" horiz-adv-x="968" d="M287 825h98v377q0 32 2 57t12.5 60t29 58t54 40t84.5 17h135q25 0 45 -3t47.5 -16.5t46 -37t31.5 -68.5t13 -107v-985q0 -24 -0.5 -38t-4 -39.5t-10 -42t-20 -37t-32.5 -32t-48.5 -20t-67.5 -8.5h-137q-37 0 -66.5 8t-48 19t-32 30.5t-20 35t-9.5 41t-3.5 38.5t-0.5 38v7 v471h-98v-688h-203v1434h203v-609zM588 1253v-1073q0 -21 12.5 -35t32.5 -14q22 0 35.5 17t13.5 32v1073q0 19 -16 34.5t-33 15.5q-15 0 -30 -15t-15 -35z" />
<glyph unicode="&#x42f;" horiz-adv-x="663" d="M37 0l164 553q-29 3 -51.5 14.5t-35 29.5t-20 34t-10.5 39.5t-3.5 33.5t-0.5 27v502q0 20 0.5 30.5t3.5 34.5t9.5 39.5t20 35.5t32.5 32t49.5 20.5t68.5 8.5h316v-1434h-203v547h-10l-119 -547h-211zM377 1296h-37q-24 0 -40.5 -17.5t-16.5 -53.5v-490q0 -37 18 -55 t47 -18h29v634z" />
<glyph unicode="&#x430;" d="M72 803v194q0 150 161 150h117q62 0 105 -40.5t43 -109.5v-997h-172v57q-56 -69 -148 -69q-34 0 -56 13t-32.5 37.5t-14 49t-3.5 59.5v320q0 108 114 170q7 4 33 17.5t34.5 18.5t27 18.5t25.5 25t13.5 29t6.5 38.5v203q0 14 -8 23t-16.5 11.5t-16.5 2.5q-13 0 -27 -10 t-14 -27v-184h-172zM326 610q-32 -18 -49 -31.5t-24 -30.5t-8 -26t-1 -35v-311q0 -17 12 -31t27 -14q16 0 29.5 11t13.5 34v434z" />
<glyph unicode="&#x431;" d="M498 1434v-123h-170q-35 0 -59.5 -29.5t-24.5 -69.5v-143q70 90 149 90q29 0 49.5 -10.5t31 -24.5t16.5 -37.5t7 -41.5t1 -44v-827q0 -50 -13 -85.5t-29 -52t-42.5 -25.5t-40 -10t-35.5 -1h-113q-23 0 -39 1.5t-39.5 11t-38 27t-25.5 51.5t-11 81v1036q0 23 2 43 t14.5 56.5t35 62t69 45t110.5 19.5h195zM244 975v-813q0 -16 14.5 -27.5t28.5 -11.5t26.5 8.5t12.5 30.5v813q0 22 -12.5 31.5t-26.5 9.5q-15 0 -29 -13t-14 -28z" />
<glyph unicode="&#x432;" d="M72 0v1147h262q75 0 119.5 -40.5t44.5 -109.5v-256q0 -59 -40.5 -92t-80.5 -33h-29v-12h27q123 0 123 -147v-307q0 -150 -168 -150h-258zM244 1024v-365q29 -1 47 8.5t25 28.5t8.5 30.5t1.5 27.5v223q0 21 -9.5 32t-19.5 13t-25 2h-28zM244 123h28q24 0 39 14t15 41v287 q0 80 -52 80h-30v-422z" />
<glyph unicode="&#x433;" horiz-adv-x="546" d="M487 401v-227q0 -49 -10.5 -83.5t-24.5 -51.5t-37.5 -26.5t-39 -11t-39.5 -1.5h-123q-41 0 -71.5 12.5t-46 29.5t-24 43t-10.5 45t-2 44v211q0 78 13.5 110t56.5 77q7 6 10 10l117 120q59 63 59 113v168q0 18 -13.5 29.5t-29.5 11.5q-14 0 -27.5 -12t-13.5 -29v-209h-172 v213q0 71 20 104q35 56 132 56h119q44 0 74.5 -10.5t46.5 -24.5t24.5 -38.5t10 -42.5t1.5 -46v-184v-21.5v-20t-0.5 -16.5t-2 -17t-4 -14.5t-6.5 -16.5t-9.5 -15.5t-13 -18t-17.5 -18.5l-155 -160q-48 -48 -48 -110v-207q0 -15 12.5 -29t30.5 -14q16 0 28.5 12.5t12.5 30.5 v235h172z" />
<glyph unicode="&#x434;" d="M498 1147v-1309q0 -28 -1 -47.5t-10 -53t-24.5 -55t-48.5 -38.5t-78 -17h-105q-159 0 -159 176v54h172v-93q0 -14 13 -24t32 -10q17 0 26 7t10 13t1 14v308q-56 -72 -142 -72q-112 0 -112 178v815q0 34 3 57t14 51t38 43t68 15q73 0 131 -61v49h172zM244 977v-817 q0 -16 14 -26.5t29 -10.5q7 0 15 2.5t16 11.5t8 23v817q0 39 -39 39q-15 0 -29 -10.5t-14 -28.5z" />
<glyph unicode="&#x435;" d="M326 401h172v-231q0 -47 -12 -80.5t-28.5 -50.5t-42 -26.5t-42 -11t-39.5 -1.5h-107q-43 0 -73.5 12.5t-46 29t-24 42.5t-10 43t-1.5 41v809q0 75 37.5 122.5t117.5 47.5h107q77 0 120.5 -47t43.5 -121v-463h-254v-358q0 -13 10 -24t27 -11q19 0 32 10t13 25v243z M244 631h82v358q0 15 -13 25t-32 10q-17 0 -27 -11t-10 -24v-358z" />
<glyph unicode="&#x436;" horiz-adv-x="854" d="M342 0v516l-137 -516h-168l153 582l-118 565h178l92 -535v535h172v-535l92 535h178l-116 -565l149 -582h-166l-137 516v-516h-172z" />
<glyph unicode="&#x437;" horiz-adv-x="544" d="M47 401h172v-231q0 -47 45 -47q37 0 37 47v299q0 15 -2.5 26t-9.5 23.5t-23.5 19.5t-42.5 7h-57v114h57q27 0 44 8.5t23.5 24.5t8.5 27.5t2 28.5v237q0 18 -11 28.5t-26 10.5q-16 0 -30.5 -9t-14.5 -26v-201h-172v189q0 26 2 45t11 44.5t25.5 41.5t48.5 27.5t77 11.5h113 q22 0 38 -2t38.5 -11t37 -26t25 -49.5t10.5 -77.5v-240q0 -21 -3 -37t-13 -39t-36.5 -37t-66.5 -18v-12q34 1 58 -9.5t35.5 -24t17.5 -35.5t7 -34.5t1 -31.5v-293q0 -36 -6 -63.5t-13.5 -45.5t-22.5 -30t-25.5 -18t-29 -9t-27.5 -3.5t-27 -0.5h-111q-46 0 -79 12.5t-49 29 t-24.5 43.5t-10 43.5t-1.5 41.5v231z" />
<glyph unicode="&#x438;" d="M498 1147v-1147h-172v47q-70 -59 -156 -59q-28 0 -47.5 10.5t-29.5 23.5t-15 37t-5.5 38.5t-0.5 39.5v1010h172v-975q0 -13 10.5 -27t28.5 -14t30.5 10t12.5 31v975h172z" />
<glyph unicode="&#x439;" d="M498 1147v-1147h-172v47q-70 -59 -156 -59q-28 0 -47.5 10.5t-29.5 23.5t-15 37t-5.5 38.5t-0.5 39.5v1010h172v-975q0 -13 10.5 -27t28.5 -14t30.5 10t12.5 31v975h172zM86 1434h147v-93q0 -17 14.5 -34t37.5 -17q24 0 37.5 15t13.5 36v93h147v-86q0 -64 -39.5 -96.5 t-101.5 -32.5h-117q-60 0 -99.5 32.5t-39.5 96.5v86z" />
<glyph unicode="&#x43a;" horiz-adv-x="583" d="M72 0v1147h172v-518l90 518h176l-117 -555l154 -592h-180l-123 532v-532h-172z" />
<glyph unicode="&#x43b;" horiz-adv-x="602" d="M31 0v123q30 2 51.5 21t21.5 51v952h426v-1147h-172v1024h-82v-854q0 -47 -16 -81t-36 -50.5t-49.5 -26t-46 -11t-34.5 -1.5h-63z" />
<glyph unicode="&#x43c;" horiz-adv-x="854" d="M426 377l162 770h194v-1147h-172v672l-114 -672h-138l-114 672v-672h-172v1147h194z" />
<glyph unicode="&#x43d;" d="M72 0v1147h172v-488h82v488h172v-1147h-172v537h-82v-537h-172z" />
<glyph unicode="&#x43e;" d="M336 0h-105q-25 0 -41.5 1.5t-41 11t-39.5 27t-26 52.5t-11 84v782q0 20 1.5 37t10 47.5t23.5 51t46.5 37t75.5 16.5h109q43 0 74.5 -15.5t47.5 -36.5t25 -50t11 -48t2 -39v-782q0 -49 -11.5 -84t-26.5 -52.5t-40.5 -27t-42 -11t-41.5 -1.5zM244 985v-823q0 -18 14 -28.5 t27 -10.5q14 0 27.5 8.5t13.5 30.5v823q0 22 -13.5 30.5t-27.5 8.5q-13 0 -27 -10.5t-14 -28.5z" />
<glyph unicode="&#x43f;" d="M72 0v1147h172v-47q70 59 153 59q30 0 50.5 -12.5t30 -26.5t14.5 -40t5.5 -37t0.5 -33v-1010h-172v975q0 23 -13 32t-24 9q-14 0 -29.5 -12.5t-15.5 -28.5v-975h-172z" />
<glyph unicode="&#x440;" d="M72 -373v1520h172v-45q26 26 62.5 41.5t64.5 15.5q127 0 127 -170v-833q0 -34 -3 -56.5t-14 -51.5t-39 -44.5t-71 -15.5q-65 0 -127 59v-420h-172zM244 977v-807q0 -17 12.5 -28t26.5 -11q13 0 28 10t15 29v807q0 16 -12 27.5t-31 11.5q-20 0 -29.5 -12t-9.5 -27z" />
<glyph unicode="&#x441;" d="M326 401h172v-223q0 -38 -5.5 -66.5t-12.5 -47.5t-21.5 -31.5t-25 -19t-31 -9.5t-31 -3.5t-33.5 -0.5h-111q-20 0 -30.5 0.5t-29.5 3.5t-30 9.5t-25 19.5t-21.5 31t-13 46.5t-5.5 65.5v787q0 52 10 88.5t22.5 55t36.5 28t40 11t44 1.5h113q28 0 43.5 -1t41 -10.5 t39.5 -27t25 -53t11 -86.5v-209h-172v223q0 41 -43 41q-14 0 -26.5 -11t-12.5 -30v-823q0 -14 13 -25.5t26 -11.5q15 0 29 9t14 28v241z" />
<glyph unicode="&#x442;" horiz-adv-x="827" d="M72 0v1147h172v-57q30 33 70.5 51t72.5 18q80 0 107 -67q42 42 78 54.5t77 12.5q58 0 82.5 -36t24.5 -134v-989h-172v975q0 17 -13 29t-30 12q-19 0 -30 -11t-11 -30v-975h-172v979q0 16 -11.5 26.5t-23.5 10.5q-16 0 -32.5 -11.5t-16.5 -25.5v-979h-172z" />
<glyph unicode="&#x443;" d="M498 1147v-1309q0 -28 -1 -47.5t-10 -53t-24.5 -55t-48.5 -38.5t-78 -17h-105q-159 0 -159 176v54h172v-93q0 -14 13 -24t32 -10q17 0 26 7t10 13t1 14v308q-56 -72 -142 -72q-112 0 -112 178v969h172v-985q0 -18 14 -28.5t29 -10.5q39 0 39 39v985h172z" />
<glyph unicode="&#x444;" horiz-adv-x="823" d="M498 -373h-172v400q-63 -39 -144 -39q-29 0 -50.5 11t-32.5 26.5t-17.5 39.5t-8 43t-1.5 44v843q0 32 3.5 56t14.5 51t36 42t64 15q35 0 74.5 -13t61.5 -34v322h172v-322q23 21 61.5 34t73.5 13q39 0 64.5 -15t36.5 -42t14.5 -51t3.5 -56v-843q0 -32 -3.5 -56t-13.5 -51 t-34 -42t-60 -15q-80 0 -143 39v-400zM498 979v-811q0 -14 11 -25.5t30 -11.5t30 11.5t11 25.5v811q0 15 -13 26t-28 11t-28 -11t-13 -26zM326 168v811q0 15 -13 26t-28 11t-28 -11t-13 -26v-811q0 -14 11 -25.5t30 -11.5t30 11.5t11 25.5z" />
<glyph unicode="&#x445;" horiz-adv-x="581" d="M37 0l123 602l-105 545h178l58 -514l57 514h178l-104 -545l123 -602h-180l-74 537l-74 -537h-180z" />
<glyph unicode="&#x446;" horiz-adv-x="595" d="M498 1147v-1024h77v-324h-149v201h-100v47q-70 -59 -156 -59q-28 0 -47.5 10.5t-29.5 23.5t-15 37t-5.5 38.5t-0.5 39.5v1010h172v-975q0 -17 12.5 -29t26.5 -12q15 0 29 10t14 31v975h172z" />
<glyph unicode="&#x447;" horiz-adv-x="552" d="M309 0v516q-75 -70 -141 -70q-17 0 -33.5 5t-35.5 18.5t-30.5 44.5t-11.5 76v557h172v-531q0 -13 10.5 -24.5t28.5 -11.5q19 0 30 11.5t11 24.5v531h172v-1147h-172z" />
<glyph unicode="&#x448;" horiz-adv-x="827" d="M756 1147v-1147h-172v57q-32 -34 -72 -52.5t-72 -18.5q-91 0 -108 69q-73 -67 -154 -67q-30 0 -51.5 13t-32 29t-16 42.5t-6 41t-0.5 38.5v6v989h172v-975q0 -15 13 -28t30 -13q15 0 28 11t13 30v975h172v-977q0 -13 10.5 -26t26.5 -13q18 0 32.5 12.5t14.5 26.5v977h172 z" />
<glyph unicode="&#x449;" horiz-adv-x="903" d="M756 1147v-1024h75v-324h-149v201h-98v57q-30 -33 -71 -51t-73 -18q-92 0 -108 67q-73 -67 -154 -67q-30 0 -51.5 13t-32 29t-16 42.5t-6 41t-0.5 38.5v6v989h172v-975q0 -15 13 -28t30 -13q15 0 28 11t13 30v975h172v-979q0 -14 12 -25.5t25 -11.5q17 0 32 11.5t15 25.5 v979h172z" />
<glyph unicode="&#x44a;" horiz-adv-x="632" d="M156 0v1024h-136v123h308v-430h96q22 0 37 -1t40 -10t40.5 -24.5t28 -47.5t12.5 -77v-407q0 -25 -4.5 -46t-10 -36t-17.5 -26.5t-19 -18.5t-24 -12t-22.5 -7t-24 -3t-19.5 -1h-17h-268zM328 123h28q54 0 54 72v331q0 68 -52 68h-30v-471z" />
<glyph unicode="&#x44b;" horiz-adv-x="808" d="M72 0v1147h172v-430h96q23 0 38 -1.5t40.5 -10t40.5 -24t27 -47.5t12 -77v-407q0 -40 -11 -69.5t-26 -44.5t-38.5 -23.5t-41.5 -10.5t-41 -2h-268zM244 123h30q24 0 36 12.5t14 25t2 34.5v331q0 68 -50 68h-32v-471zM565 0v1147h172v-1147h-172z" />
<glyph unicode="&#x44c;" horiz-adv-x="548" d="M72 0v1147h172v-430h96q23 0 38 -1.5t40.5 -10t40.5 -24t27 -47.5t12 -77v-407q0 -40 -11 -69.5t-26 -44.5t-38.5 -23.5t-41.5 -10.5t-41 -2h-268zM244 123h30q24 0 36 12.5t14 25t2 34.5v331q0 68 -52 68h-30v-471z" />
<glyph unicode="&#x44d;" d="M72 401h172v-239q0 -18 14 -28.5t29 -10.5q39 0 39 39v383h-148v114h148v328q0 14 -8 23t-16.5 11.5t-16.5 2.5q-13 0 -27 -10t-14 -27v-199h-172v168v28t3 32.5t8.5 37.5t17 34t27.5 31t42 19.5t59 8.5h117q37 0 64.5 -9.5t43.5 -28.5t25.5 -36t13.5 -43t4.5 -37.5 t0.5 -31.5v-789q0 -49 -10.5 -84t-23.5 -51.5t-36 -25.5t-37 -10t-38 -1h-7h-117h-5q-24 0 -38.5 1t-39 10t-38.5 25.5t-25 50.5t-11 83v231z" />
<glyph unicode="&#x44e;" horiz-adv-x="825" d="M244 662h82v296q0 189 161 189h105q162 0 162 -189v-782q0 -49 -11 -84t-26 -52.5t-40 -27t-42 -11t-43 -1.5h-105q-25 0 -41.5 1.5t-41.5 11t-40 27t-26.5 52.5t-11.5 84v363h-82v-539h-172v1147h172v-485zM498 985v-823q0 -18 14 -28.5t29 -10.5q16 0 28.5 11t12.5 28 v823q0 17 -12.5 28t-28.5 11q-15 0 -29 -10.5t-14 -28.5z" />
<glyph unicode="&#x44f;" horiz-adv-x="524" d="M25 0l114 467q-112 17 -112 151v349q0 37 5.5 66.5t13 48t22 31.5t25.5 19.5t30 10t29.5 4t29.5 0.5h271v-1147h-172v467h-7l-86 -467h-163zM281 557v467h-33q-49 0 -49 -72v-323q0 -39 15.5 -55.5t33.5 -16.5h33z" />
<glyph unicode="&#x451;" d="M326 401h172v-231q0 -47 -12 -80.5t-28.5 -50.5t-42 -26.5t-42 -11t-39.5 -1.5h-107q-43 0 -73.5 12.5t-46 29t-24 42.5t-10 43t-1.5 41v809q0 75 37.5 122.5t117.5 47.5h107q77 0 120.5 -47t43.5 -121v-463h-254v-358q0 -13 10 -24t27 -11q19 0 32 10t13 25v243z M244 631h82v358q0 15 -13 25t-32 10q-17 0 -27 -11t-10 -24v-358zM72 1268v166h170v-166h-170zM326 1268v166h172v-166h-172z" />
<glyph unicode="&#x452;" d="M72 0v1264h-72v100h72v70h172v-70h159v-100h-159v-162q77 57 153 57q101 0 101 -147v-1205q0 -25 -2 -43.5t-14 -46.5t-32.5 -45.5t-62 -31t-98.5 -13.5h-86v129h22q35 0 57.5 10t31 28.5t10.5 31.5t2 33v1116q0 22 -13 31.5t-26 9.5t-28 -13.5t-15 -27.5v-975h-172z" />
<glyph unicode="&#x453;" horiz-adv-x="546" d="M487 401v-227q0 -49 -10.5 -83.5t-24.5 -51.5t-37.5 -26.5t-39 -11t-39.5 -1.5h-123q-41 0 -71.5 12.5t-46 29.5t-24 43t-10.5 45t-2 44v211q0 78 13.5 110t56.5 77q7 6 10 10l117 120q59 63 59 113v168q0 18 -13.5 29.5t-29.5 11.5q-14 0 -27.5 -12t-13.5 -29v-209h-172 v213q0 71 20 104q35 56 132 56h119q44 0 74.5 -10.5t46.5 -24.5t24.5 -38.5t10 -42.5t1.5 -46v-184v-21.5v-20t-0.5 -16.5t-2 -17t-4 -14.5t-6.5 -16.5t-9.5 -15.5t-13 -18t-17.5 -18.5l-155 -160q-48 -48 -48 -110v-207q0 -15 12.5 -29t30.5 -14q16 0 28.5 12.5t12.5 30.5 v235h172zM487 1434l-192 -215h-107l107 215h192z" />
<glyph unicode="&#x454;" d="M498 401v-231q0 -36 -6.5 -64.5t-14.5 -46t-24.5 -30t-26.5 -18t-31.5 -8.5t-28 -3h-26.5h-117q-62 0 -88 13q-63 33 -63 159v789q0 25 0.5 39.5t8.5 46t22 50t45 34.5t75 16h117q38 0 67 -9.5t45.5 -29t26.5 -36.5t13.5 -43.5t4.5 -39t1 -33.5v-168h-172v199q0 14 -8 23 t-16.5 11.5t-16.5 2.5q-13 0 -27 -10t-14 -27v-328h149v-114h-149v-383q0 -18 14 -28.5t27 -10.5q14 0 27.5 8.5t13.5 30.5v239h172z" />
<glyph unicode="&#x455;" horiz-adv-x="544" d="M59 401h172v-235q0 -19 12 -31t27 -12q18 0 30.5 14t12.5 29v207q0 63 -47 110l-153 160q-9 9 -16 17.5t-12.5 15t-9.5 15.5t-6.5 13t-4.5 14.5t-3 13t-1.5 15.5t-0.5 15.5v18.5v20v184q0 28 1.5 46t10.5 42.5t24.5 38.5t46.5 24.5t75 10.5h96q50 0 85 -13t51.5 -28.5 t25.5 -43t9.5 -40t0.5 -35.5v-213h-172v209q0 15 -11.5 28t-27.5 13t-29.5 -12t-13.5 -29v-168q0 -25 14 -45t37.5 -39.5t30.5 -28.5l95 -120q11 -14 28 -33.5t23 -28.5t13.5 -27.5t10 -43.5t2.5 -64v-211q0 -48 -12.5 -82.5t-29.5 -51.5t-43.5 -27t-44.5 -11.5t-42 -1.5 h-102q-24 0 -40 1.5t-39.5 11t-37.5 26.5t-24.5 51.5t-10.5 83.5v227z" />
<glyph unicode="&#x456;" horiz-adv-x="315" d="M72 0v1147h172v-1147h-172zM72 1262v172h172v-172h-172z" />
<glyph unicode="&#x457;" horiz-adv-x="454" d="M141 0v1147h172v-1147h-172zM31 1268v166h170v-166h-170zM254 1268v166h170v-166h-170z" />
<glyph unicode="&#x458;" horiz-adv-x="315" d="M72 -373v1520h172v-1520h-172zM72 1262v172h172v-172h-172z" />
<glyph unicode="&#x459;" horiz-adv-x="833" d="M31 0v123q30 2 51.5 21t21.5 51v952h426v-430h95q22 0 36.5 -1t40 -10t41 -24.5t27.5 -47.5t12 -77v-407q0 -40 -11 -69.5t-26 -44.5t-38 -23.5t-41 -10.5t-41 -2h-267v1024h-82v-854q0 -47 -16 -81t-36 -50.5t-49.5 -26t-46 -11t-34.5 -1.5h-63zM530 123h29 q24 0 36 12.5t13.5 24.5t1.5 35v331q0 68 -51 68h-29v-471z" />
<glyph unicode="&#x45a;" horiz-adv-x="802" d="M72 0v1147h172v-430h82v430h172v-430h96q23 0 38 -1.5t40.5 -10t40.5 -24t27 -47.5t12 -77v-407v-26.5t-3 -27t-8 -29.5t-16.5 -25t-28 -22.5t-42.5 -13.5t-60 -6h-268v594h-82v-594h-172zM498 123h30q52 0 52 72v331q0 68 -52 68h-30v-471z" />
<glyph unicode="&#x45b;" d="M72 0v1264h-72v100h72v70h172v-70h159v-100h-159v-162q77 57 153 57q101 0 101 -147v-1012h-172v975q0 22 -13 31.5t-26 9.5t-28 -13.5t-15 -27.5v-975h-172z" />
<glyph unicode="&#x45c;" horiz-adv-x="583" d="M72 0v1147h172v-518l90 518h176l-117 -555l154 -592h-180l-123 532v-532h-172zM487 1434l-192 -215h-107l107 215h192z" />
<glyph unicode="&#x45e;" d="M498 1147v-1309q0 -28 -1 -47.5t-10 -53t-24.5 -55t-48.5 -38.5t-78 -17h-103q-161 0 -161 176v54h172v-93q0 -14 13 -24t32 -10q17 0 26 7t10 13t1 14v308q-56 -72 -142 -72q-112 0 -112 178v969h172v-985q0 -18 14 -28.5t29 -10.5q39 0 39 39v985h172zM86 1434h147v-93 q0 -17 14.5 -34t37.5 -17q24 0 37.5 15t13.5 36v93h147v-86q0 -64 -39.5 -96.5t-101.5 -32.5h-100q-67 0 -111.5 32.5t-44.5 96.5v86z" />
<glyph unicode="&#x45f;" d="M498 1147v-1147h-125v-244h-172v244h-129v1147h172v-1024h82v1024h172z" />
<glyph unicode="&#x490;" horiz-adv-x="520" d="M84 0v1434h240v172h172v-310h-209v-1296h-203z" />
<glyph unicode="&#x491;" horiz-adv-x="507" d="M72 0v1147h233v201h172v-332h-233v-1016h-172z" />
<glyph unicode="&#x2000;" horiz-adv-x="860" />
<glyph unicode="&#x2001;" horiz-adv-x="1720" />
<glyph unicode="&#x2002;" horiz-adv-x="860" />
<glyph unicode="&#x2003;" horiz-adv-x="1720" />
<glyph unicode="&#x2004;" horiz-adv-x="573" />
<glyph unicode="&#x2005;" horiz-adv-x="430" />
<glyph unicode="&#x2006;" horiz-adv-x="286" />
<glyph unicode="&#x2007;" horiz-adv-x="286" />
<glyph unicode="&#x2008;" horiz-adv-x="215" />
<glyph unicode="&#x2009;" horiz-adv-x="344" />
<glyph unicode="&#x200a;" horiz-adv-x="95" />
<glyph unicode="&#x2010;" horiz-adv-x="444" d="M72 545v172h301v-172h-301z" />
<glyph unicode="&#x2011;" horiz-adv-x="444" d="M72 545v172h301v-172h-301z" />
<glyph unicode="&#x2012;" horiz-adv-x="444" d="M72 545v172h301v-172h-301z" />
<glyph unicode="&#x2013;" horiz-adv-x="983" d="M72 653v129h839v-129h-839z" />
<glyph unicode="&#x2014;" horiz-adv-x="983" d="M72 573v115h839v-115h-839z" />
<glyph unicode="&#x2018;" horiz-adv-x="346" d="M268 1255v-196h-196v196q0 94 63 179h139q-72 -62 -77 -179h71z" />
<glyph unicode="&#x2019;" horiz-adv-x="346" d="M78 1237v197h196v-197q0 -93 -63 -178h-139q75 75 78 178h-72z" />
<glyph unicode="&#x201a;" horiz-adv-x="346" d="M78 0v197h196v-197q0 -93 -63 -178h-139q75 75 78 178h-72z" />
<glyph unicode="&#x201c;" horiz-adv-x="645" d="M567 1255v-196h-196v196q0 94 63 179h139q-74 -74 -77 -179h71zM268 1255v-196h-196v196q0 94 63 179h139q-72 -62 -77 -179h71z" />
<glyph unicode="&#x201d;" horiz-adv-x="645" d="M78 1237v197h196v-197q0 -93 -63 -178h-139q75 75 78 178h-72zM377 1237v197h196v-197q0 -93 -63 -178h-139q74 63 78 178h-72z" />
<glyph unicode="&#x201e;" horiz-adv-x="645" d="M78 0v197h196v-197q0 -93 -63 -178h-139q75 75 78 178h-72zM377 0v197h196v-197q0 -93 -63 -178h-139q74 63 78 178h-72z" />
<glyph unicode="&#x2022;" horiz-adv-x="983" d="M319 717q0 72 50.5 122t122.5 50t122 -50t50 -122t-50 -122t-122 -50t-122.5 50t-50.5 122z" />
<glyph unicode="&#x2026;" horiz-adv-x="1019" d="M72 0v197h196v-197h-196zM412 0v197h196v-197h-196zM752 0v197h196v-197h-196z" />
<glyph unicode="&#x202f;" horiz-adv-x="344" />
<glyph unicode="&#x2039;" horiz-adv-x="395" d="M160 158l-88 430l88 430h164l-91 -430l91 -430h-164z" />
<glyph unicode="&#x203a;" horiz-adv-x="395" d="M236 1018l88 -430l-88 -430h-164l90 430l-90 430h164z" />
<glyph unicode="&#x205f;" horiz-adv-x="430" />
<glyph unicode="&#x20ac;" horiz-adv-x="643" d="M588 1395v-162q-38 41 -125 41q-77 0 -115 -85t-43 -259h238l-31 -137h-215v-74v-70h182l-30 -137h-144q8 -352 156 -352q86 0 127 41v-166q-39 -35 -160 -35q-130 0 -202 120.5t-89 391.5h-104l30 137h62q-2 18 -2 70q0 47 2 74h-92l30 137h70q29 504 297 504 q115 0 158 -39z" />
<glyph unicode="&#x2122;" horiz-adv-x="925" d="M162 717v651h-78v66h258v-66h-78v-651h-102zM395 717v717h148l75 -484l89 484h135v-717h-103v467l-80 -467h-81l-80 467v-467h-103z" />
<glyph unicode="&#x25fc;" horiz-adv-x="1146" d="M0 1147h1147v-1147h-1147v1147z" />
</font>
</defs>
</svg>
