<?xml version="1.0" standalone="no"?>
<!DOCTYPE svg PUBLIC "-//W3C//DTD SVG 1.1//EN" "http://www.w3.org/Graphics/SVG/1.1/DTD/svg11.dtd" >
<svg xmlns="http://www.w3.org/2000/svg">
<metadata></metadata>
<defs>
<font id="compactcbold_italic" horiz-adv-x="710" >
<font-face units-per-em="2048" ascent="1589" descent="-459" />
<missing-glyph horiz-adv-x="477" />
<glyph horiz-adv-x="0" />
<glyph horiz-adv-x="682" />
<glyph unicode=" "  horiz-adv-x="477" />
<glyph unicode="&#x09;" horiz-adv-x="477" />
<glyph unicode="&#xa0;" horiz-adv-x="477" />
<glyph unicode="!" horiz-adv-x="430" d="M195 373l182 1061h287l-269 -1061h-200zM86 0l55 258h258l-55 -258h-258z" />
<glyph unicode="&#x22;" horiz-adv-x="706" d="M616 1434l-149 -377h-102l12 377h239zM940 1434l-147 -377h-103l10 377h240z" />
<glyph unicode="#" horiz-adv-x="1075" d="M332 1001l30 175h156l-29 -175h191l31 175h155l-30 -175h143l-25 -155h-143l-45 -242h143l-24 -155h-144l-36 -191h-156l35 191h-191l-35 -191h-157l35 191h-140l25 155h139l45 242h-141l26 155h142zM420 604h188l45 242h-190z" />
<glyph unicode="$" horiz-adv-x="831" d="M184 473h287l-57 -268q-3 -13 0 -23q10 -24 35 -24q18 0 34.5 13t20.5 34l47 223q10 48 -1.5 72t-45.5 55l-180 162q-52 45 -52 88q0 8 -0.5 23.5t-0.5 25.5t1 24t4 27l58 273q9 40 17 66.5t28.5 66.5t46.5 63.5t71.5 41.5t104.5 18h19l36 172h201l-37 -172h19 q26 0 46 -2t45 -9.5t41.5 -20.5t28 -38t11.5 -59q0 -57 -15 -127l-39 -189h-286l51 240q3 19 -6.5 33t-30.5 14q-42 0 -53 -47l-45 -207q-4 -19 -4 -76q0 -6 4.5 -13t9 -12t14 -13.5t13.5 -12.5l170 -170q51 -51 63 -90q13 -43 0 -111l-55 -268q-16 -79 -45.5 -132.5 t-68 -79t-74.5 -35t-80 -9.5h-19l-45 -215h-201l45 215h-18q-26 0 -46 2t-45.5 9.5t-42.5 20.5t-28.5 38t-11.5 59q0 52 16 127z" />
<glyph unicode="%" horiz-adv-x="1241" d="M190 0l965 1434h201l-965 -1434h-201zM584 831h-187h-16.5h-18t-18 0.5t-18.5 2.5t-16 4.5t-15 7.5t-10.5 11t-8 15.5t-2.5 20.5q0 58 7 90l61 289q7 35 14 55t26 49t55 43.5t89 14.5h187q55 0 86.5 -21t31.5 -45q0 -5 1 -27t0 -36.5t-5 -32.5l-61 -291q-6 -32 -15 -54 t-28 -46.5t-54 -37t-85 -12.5zM545 1280l-64 -295q-3 -15 5.5 -29t27.5 -14q16 0 32 13t19 30l64 295q4 14 -5.5 28.5t-29.5 14.5q-15 0 -30.5 -13t-18.5 -30zM1020 0h-186q-1 0 -20 -0.5t-24.5 0l-22 2t-23.5 6t-17 11t-14 17.5t-4 25q0 54 8 91l61 288q6 27 10.5 43 t17.5 41.5t31 40t50 26t74 11.5h186q121 0 121 -65q0 -5 1 -27t0 -37t-5 -33l-62 -290q-9 -43 -28 -73.5t-36.5 -45t-44.5 -22t-39.5 -8.5t-33.5 -1zM981 449l-63 -295q-4 -13 4 -28t26 -15q17 0 33.5 14t19.5 29l64 295q3 16 -7 29.5t-28 13.5q-17 0 -31.5 -14t-17.5 -29z " />
<glyph unicode="&#x26;" horiz-adv-x="837" d="M791 0h-181h-31.5t-29 3t-31.5 9t-23 19t-20 32q-51 -37 -120.5 -62.5t-118.5 -25.5q-123 0 -123 103q0 57 6 90l78 362q4 21 5.5 27t9.5 32.5t15.5 39.5t23 35t33.5 33t45 19.5t60 8.5l4 14q-50 -4 -84.5 23t-34.5 65q0 61 9 107l51 244q7 38 15.5 66.5t28.5 67t47 63 t72.5 42t104.5 17.5h180q26 0 46 -2t45 -9.5t41.5 -20.5t28 -38t11.5 -59q0 -61 -14 -127l-18 -86h-258l30 137q3 19 -6.5 33t-30.5 14q-44 0 -53 -47l-80 -371q-3 -13 0 -24q7 -23 35 -23q45 0 55 47l19 90h258l-27 -131h101l-35 -158h-101l-88 -417q-7 -31 0 -47 q15 -37 68 -37h14zM471 182l100 477q-90 -12 -108 -92l-82 -385q-2 -10 -2 -24q0 -10 11.5 -17.5t25.5 -7.5q19 0 35.5 15.5t19.5 33.5z" />
<glyph unicode="'" horiz-adv-x="382" d="M616 1434l-149 -377h-102l12 377h239z" />
<glyph unicode="(" horiz-adv-x="389" d="M535 1235l-299 -1409q-3 -18 -3 -31q0 -16 17 -28t41 -11l-29 -129q-189 0 -227 107q-13 34 0 90l299 1413q16 82 90.5 139.5t222.5 57.5l-29 -129q-32 1 -54.5 -19t-28.5 -51z" />
<glyph unicode=")" horiz-adv-x="389" d="M80 -174l299 1409q5 23 0.5 38.5t-16.5 21.5t-20.5 8t-18.5 2l28 129q55 0 97 -9t66.5 -22.5t40.5 -35t21.5 -38t6.5 -39t-0.5 -31.5t-3.5 -22l-299 -1413q-10 -48 -35.5 -84t-57 -57t-72.5 -34t-76 -17.5t-73 -4.5l29 129q28 0 52 16.5t32 53.5z" />
<glyph unicode="*" horiz-adv-x="821" d="M342 1141l94 174l154 -53l37 172h180l-37 -172l174 53l19 -174l-175 -51l72 -142l-168 -104l-71 139l-129 -139l-130 104l136 142z" />
<glyph unicode="+" horiz-adv-x="1218" d="M307 631v172h334v334h172v-334h334v-172h-334v-334h-172v334h-334z" />
<glyph unicode="," horiz-adv-x="401" d="M72 0l55 258h258l-55 -258q-28 -142 -142 -258h-200q138 103 172 258h-88z" />
<glyph unicode="-" horiz-adv-x="487" d="M184 530l43 201h344l-43 -201h-344z" />
<glyph unicode="." horiz-adv-x="401" d="M72 0l55 258h258l-55 -258h-258z" />
<glyph unicode="/" horiz-adv-x="518" d="M92 -373h-172l731 1807h172z" />
<glyph unicode="0" horiz-adv-x="831" d="M139 256l195 922q9 40 17 66.5t28.5 66.5t46.5 63.5t71.5 41.5t104.5 18h238q26 0 46 -2t45 -9.5t41.5 -20.5t28 -38t11.5 -59q0 -57 -15 -127l-194 -922q-17 -79 -46.5 -132.5t-68 -79t-74 -35t-79.5 -9.5h-238q-26 0 -46 2t-45.5 9.5t-42.5 20.5t-28.5 38t-11.5 59 q0 52 16 127zM504 205l219 1024q4 21 -7.5 34t-29.5 13q-44 0 -53 -47l-219 -1024q-3 -13 0 -23q10 -24 35 -24q46 0 55 47z" />
<glyph unicode="1" horiz-adv-x="831" d="M330 0l233 1096q-44 -31 -151 -58l45 213q74 7 132.5 56.5t86.5 126.5h246l-306 -1434h-286z" />
<glyph unicode="2" horiz-adv-x="831" d="M84 0l35 164q26 124 88.5 215t232.5 258q125 123 169 193.5t61 150.5l53 248q4 21 -7.5 34t-29.5 13q-42 0 -53 -47l-49 -225h-287l37 174q9 40 17 66.5t28.5 66.5t46.5 63.5t71.5 41.5t104.5 18h238q26 0 46 -2t45 -9.5t41.5 -20.5t28 -38t11.5 -59q0 -57 -15 -127 l-41 -197q-12 -61 -33.5 -115t-40.5 -89t-56.5 -80.5t-57.5 -66.5t-68 -69q-174 -173 -229 -245.5t-68 -157.5h377l-32 -158h-664z" />
<glyph unicode="3" horiz-adv-x="831" d="M584 1004h-287l37 174q9 40 17 66.5t28.5 66.5t46.5 63.5t71.5 41.5t104.5 18h238q26 0 46 -2t45 -9.5t41.5 -20.5t28 -38t11.5 -59q0 -57 -15 -127l-45 -215q-3 -16 -8 -33.5t-22.5 -50t-41 -56t-66.5 -40.5t-97 -15l-4 -14q41 1 74 -5t59 -27.5t26 -57.5q0 -74 -6 -105 l-63 -303q-17 -79 -46.5 -132.5t-68 -79t-74 -35t-79.5 -9.5h-238q-26 0 -46 2t-45.5 9.5t-42.5 20.5t-28.5 38t-11.5 59q0 52 16 127l43 203h287l-55 -254q-3 -13 0 -23q10 -24 35 -24q46 0 55 47l80 375q3 15 4 22t-1.5 23.5t-11.5 25t-31 16t-55 7.5h-43l33 157h47 q32 0 55.5 6.5t36 14.5t21.5 25.5t12 27.5t8 33l64 291q4 21 -7.5 34t-29.5 13q-42 0 -53 -47z" />
<glyph unicode="4" horiz-adv-x="831" d="M430 0l74 344h-402l35 170l451 920h434l-199 -932h86l-32 -158h-86l-74 -344h-287zM379 502h158l137 645h-10z" />
<glyph unicode="5" horiz-adv-x="833" d="M389 1434h666l-35 -158h-379l-70 -330q136 86 238 86q62 0 94.5 -23t32.5 -79q0 -55 -4 -72l-127 -602q-17 -79 -46.5 -132.5t-68 -79t-74 -35t-79.5 -9.5h-238q-27 0 -47.5 2t-46 9.5t-42.5 20.5t-28.5 38t-11.5 59q0 52 16 127l43 203h287l-55 -254q-3 -13 0 -23 q3 -9 14 -16.5t23 -7.5q46 0 55 47l129 608q5 27 -7 37t-28 10q-17 0 -35 -12.5t-22 -34.5l-21 -96h-286z" />
<glyph unicode="6" horiz-adv-x="831" d="M674 1004l49 225q4 21 -7.5 34t-29.5 13q-42 0 -53 -47l-92 -426q136 86 237 86q125 0 125 -103q0 -54 -4 -71l-96 -459q-17 -79 -46.5 -132.5t-68 -79t-74 -35t-79.5 -9.5h-238q-26 0 -46 2t-45.5 9.5t-42.5 20.5t-28.5 38t-11.5 59q0 52 16 127l195 922q9 40 17 66.5 t28.5 66.5t46.5 63.5t71.5 41.5t104.5 18h238q26 0 46 -2t45 -9.5t41.5 -20.5t28 -38t11.5 -59q0 -57 -15 -127l-36 -174h-287zM504 205l100 465q4 23 -7 35t-30 12q-46 0 -53 -47l-100 -465q-3 -13 0 -23q10 -24 35 -24q46 0 55 47z" />
<glyph unicode="7" horiz-adv-x="831" d="M186 0l557 1276h-401l35 158h688l-35 -158l-557 -1276h-287z" />
<glyph unicode="8" horiz-adv-x="831" d="M535 0h-238q-26 0 -46 2t-45.5 9.5t-42.5 20.5t-28.5 38t-11.5 59q0 52 16 127l64 303q38 197 235 195l4 14q-67 -4 -112 25.5t-45 62.5q0 5 -1 30t0 41.5t5 35.5l45 215q7 38 16 67t29 66.5t47 62.5t72.5 42.5t103.5 17.5h238q26 0 46 -2t45 -9.5t41.5 -20.5t28 -38 t11.5 -59q0 -57 -15 -127l-45 -215q-3 -16 -8 -33.5t-22.5 -50t-41 -56t-66.5 -40.5t-97 -15l-4 -14q41 1 74 -5t59 -27.5t26 -57.5q0 -74 -6 -105l-63 -303q-17 -79 -46.5 -132.5t-68 -79t-74 -35t-79.5 -9.5zM633 1229l-76 -350q-3 -13 0 -23q10 -25 35 -25q46 0 55 48 l76 350q4 21 -7.5 34t-29.5 13q-42 0 -53 -47zM504 205l90 422q4 22 -7 34.5t-28 12.5q-46 0 -55 -47l-90 -422q-3 -13 0 -23q10 -24 35 -24q46 0 55 47z" />
<glyph unicode="9" horiz-adv-x="831" d="M182 459h287l-55 -254q-3 -13 0 -23q10 -24 35 -24q46 0 55 47l96 454q-131 -86 -235 -86q-63 0 -94 23.5t-31 79.5q0 55 4 72l90 430q7 38 16 67t29 66.5t47 62.5t72.5 42.5t103.5 17.5h238q26 0 46 -2t45 -9.5t41.5 -20.5t28 -38t11.5 -59q0 -57 -15 -127l-194 -922 q-17 -79 -46.5 -132.5t-68 -79t-74 -35t-79.5 -9.5h-238q-26 0 -46 2t-45.5 9.5t-42.5 20.5t-28.5 38t-11.5 59q0 52 16 127zM633 1229l-94 -436q-3 -14 0 -25q3 -8 13 -15.5t21 -7.5q46 0 56 48l94 436q4 21 -7.5 34t-29.5 13q-42 0 -53 -47z" />
<glyph unicode=":" horiz-adv-x="401" d="M260 889l55 258h258l-55 -258h-258zM72 0l55 258h258l-55 -258h-258z" />
<glyph unicode=";" horiz-adv-x="401" d="M260 889l55 258h258l-55 -258h-258zM72 0l55 258h258l-55 -258q-28 -142 -142 -258h-200q138 103 172 258h-88z" />
<glyph unicode="&#x3c;" horiz-adv-x="1218" d="M489 717l658 -281v-178l-840 373v172l840 373v-179z" />
<glyph unicode="=" horiz-adv-x="1218" d="M307 803v172h840v-172h-840zM307 459v172h840v-172h-840z" />
<glyph unicode="&#x3e;" horiz-adv-x="1218" d="M965 717l-658 280v179l840 -373v-172l-840 -373v178z" />
<glyph unicode="?" horiz-adv-x="749" d="M326 373l26 127q14 70 44.5 121.5t99.5 140.5q65 78 94 126.5t43 112.5l49 228q4 21 -7.5 34t-29.5 13q-42 0 -53 -47l-49 -225h-258l37 174q9 40 17 66.5t28.5 66.5t46.5 63.5t71.5 41.5t104.5 18h180q26 0 46 -2t45 -9.5t41.5 -20.5t28 -38t11.5 -59q0 -61 -14 -127 l-35 -168q-15 -71 -46 -130t-91 -135q-6 -7 -27 -33.5t-26 -33t-21 -28t-20.5 -30t-15.5 -27t-16 -31t-10.5 -29.5t-9.5 -35l-26 -125h-258zM246 0l55 258h258l-55 -258h-258z" />
<glyph unicode="@" horiz-adv-x="1470" d="M1399 0h-828q-24 0 -41.5 1t-47 6.5t-51 15t-46.5 29.5t-41 47t-26.5 69.5t-10.5 95.5v905q0 53 10.5 95.5t26.5 70t41 47t46.5 29.5t51 15.5t47 6.5t41.5 1h564q39 0 68.5 -3.5t68.5 -18.5t64.5 -42t44 -78.5t18.5 -122.5v-604q0 -77 -17.5 -132.5t-43 -85.5t-66 -47 t-74.5 -21.5t-80 -4.5q-170 0 -217 111q-47 -111 -164 -111q-133 0 -133 150v539q0 34 1.5 56t9.5 54.5t22.5 52t44.5 34t72 14.5q40 0 76.5 -30.5t58.5 -74.5v78h201v-651q0 -30 18 -54t49 -24q70 0 70 114v576q0 43 -1.5 66.5t-7.5 47t-17 34t-32 20t-49.5 12t-72.5 2.5 h-392q-77 0 -100 -7q-63 -20 -76 -120q-4 -31 -4 -69v-754q0 -41 5 -73t12 -52.5t21.5 -35t25.5 -21.5t32.5 -10.5t34 -4t39.5 -0.5h10h744v-143zM805 961v-461q0 -56 41 -56q43 0 43 56v461q0 57 -43 57q-41 0 -41 -57z" />
<glyph unicode="A" horiz-adv-x="843" d="M47 0l457 1434h452l-161 -1434h-279l53 381h-135l-108 -381h-279zM477 539h115l102 718h-14z" />
<glyph unicode="B" horiz-adv-x="831" d="M84 0l305 1434h451q26 0 46 -2t45 -9.5t41.5 -20.5t28 -38t11.5 -59q0 -57 -15 -127l-49 -230q-15 -73 -56 -119.5t-85.5 -61.5t-93.5 -13l-2 -15q41 1 73.5 -5t58 -27.5t25.5 -57.5q0 -6 1 -30t0 -39.5t-5 -34.5l-61 -289q-9 -38 -17.5 -66.5t-29.5 -67t-47.5 -63 t-71.5 -42t-102 -17.5h-451zM403 158h37q25 0 44.5 20.5t25.5 50.5l76 359q8 39 -6 55t-33 16h-37zM545 817h37q22 0 40.5 17t26.5 55l68 315q7 36 -5 54t-34 18h-37z" />
<glyph unicode="C" horiz-adv-x="831" d="M854 502l-51 -246q-17 -79 -46.5 -132.5t-68 -79t-74 -35t-79.5 -9.5h-238q-26 0 -46 2t-45.5 9.5t-42.5 20.5t-28.5 38t-11.5 59q0 52 16 127l195 922q9 40 17 66.5t28.5 66.5t46.5 63.5t71.5 41.5t104.5 18h238q26 0 46 -2t45 -9.5t41.5 -20.5t28 -38t11.5 -59 q0 -57 -15 -127l-43 -203h-286l55 254q3 19 -6.5 33t-30.5 14q-44 0 -53 -47l-219 -1024q-4 -22 7 -34.5t28 -12.5q18 0 34.5 13t20.5 34l63 297h287z" />
<glyph unicode="D" horiz-adv-x="831" d="M84 0l305 1434h451q26 0 46 -2t45 -9.5t41.5 -20.5t28 -38t11.5 -59q0 -57 -15 -127l-194 -922q-17 -79 -46.5 -132.5t-68 -79t-74 -35t-79.5 -9.5h-451zM403 158h37q25 0 44.5 20.5t25.5 50.5l207 975q8 39 -6 55.5t-33 16.5h-37z" />
<glyph unicode="E" horiz-adv-x="724" d="M84 0l305 1434h582l-35 -158h-295l-94 -445h295l-33 -157h-295l-111 -516h308l-33 -158h-594z" />
<glyph unicode="F" horiz-adv-x="675" d="M84 0l305 1434h545l-35 -158h-258l-100 -473h239l-32 -158h-240l-137 -645h-287z" />
<glyph unicode="G" horiz-adv-x="831" d="M897 702l-94 -446q-17 -79 -46.5 -132.5t-68 -79t-74 -35t-79.5 -9.5h-238q-26 0 -46 2t-45.5 9.5t-42.5 20.5t-28.5 38t-11.5 59q0 52 16 127l195 922q9 40 17 66.5t28.5 66.5t46.5 63.5t71.5 41.5t104.5 18h238q26 0 46 -2t45 -9.5t41.5 -20.5t28 -38t11.5 -59 q0 -57 -15 -127l-43 -203h-286l55 254q3 19 -6.5 33t-30.5 14q-44 0 -53 -47l-219 -1024q-3 -13 0 -23q10 -24 35 -24q18 0 34.5 13t20.5 34l74 340h-43l32 157h330z" />
<glyph unicode="H" horiz-adv-x="831" d="M84 0l305 1434h287l-129 -603h90l129 603h287l-305 -1434h-287l143 674h-90l-143 -674h-287z" />
<glyph unicode="I" horiz-adv-x="454" d="M84 0l305 1434h287l-305 -1434h-287z" />
<glyph unicode="J" horiz-adv-x="497" d="M47 0l33 158h29q22 0 40.5 16.5t26.5 54.5l256 1205h287l-250 -1178q-9 -39 -17.5 -66.5t-29 -66.5t-47 -63t-71.5 -42t-103 -18h-154z" />
<glyph unicode="K" horiz-adv-x="837" d="M84 0l305 1434h287l-131 -617h10l225 617h287l-293 -689l17 -745h-287l16 659h-10l-139 -659h-287z" />
<glyph unicode="L" horiz-adv-x="675" d="M84 0l305 1434h287l-273 -1276h259l-33 -158h-545z" />
<glyph unicode="M" horiz-adv-x="1286" d="M733 426l402 1008h372l-305 -1434h-287l191 899h-10l-338 -899h-230l43 899h-10l-190 -899h-287l305 1434h373z" />
<glyph unicode="N" horiz-adv-x="874" d="M84 0l305 1434h287l-25 -691h11l147 691h287l-305 -1434h-287l24 690h-10l-147 -690h-287z" />
<glyph unicode="O" horiz-adv-x="831" d="M139 256l195 922q9 40 17 66.5t28.5 66.5t46.5 63.5t71.5 41.5t104.5 18h238q26 0 46 -2t45 -9.5t41.5 -20.5t28 -38t11.5 -59q0 -57 -15 -127l-194 -922q-17 -79 -46.5 -132.5t-68 -79t-74 -35t-79.5 -9.5h-238q-26 0 -46 2t-45.5 9.5t-42.5 20.5t-28.5 38t-11.5 59 q0 52 16 127zM504 205l219 1024q3 19 -6.5 33t-30.5 14q-44 0 -53 -47l-219 -1024q-3 -13 0 -23q10 -24 35 -24q18 0 34.5 13t20.5 34z" />
<glyph unicode="P" horiz-adv-x="819" d="M84 0l305 1434h451q26 0 46 -2t45 -9.5t41.5 -20.5t28 -38t11.5 -59q0 -57 -15 -127l-92 -435q-9 -40 -17 -67t-28.5 -66t-46.5 -63t-71 -42t-103 -18h-164l-104 -487h-287zM508 645h37q22 0 40.5 17t26.5 55l105 487q7 36 -5 54t-34 18h-37z" />
<glyph unicode="Q" horiz-adv-x="831" d="M242 -258l55 258q-86 -7 -130 32.5t-44 96.5q0 52 16 127l195 922q9 40 17 66.5t28.5 66.5t46.5 63.5t71.5 41.5t104.5 18h238q26 0 46 -2t45 -9.5t41.5 -20.5t28 -38t11.5 -59q0 -57 -15 -127l-194 -922q-7 -35 -16.5 -64.5t-30 -67.5t-47.5 -64t-72.5 -43.5 t-101.5 -16.5l-56 -258h-237zM504 205l219 1024q3 19 -6.5 33t-30.5 14q-44 0 -53 -47l-219 -1024q-4 -22 7 -34.5t28 -12.5q18 0 34.5 13t20.5 34z" />
<glyph unicode="R" horiz-adv-x="831" d="M784 0h-295l15 530h-21l-112 -530h-287l305 1434h451q26 0 46 -2t45 -9.5t41.5 -20.5t28 -38t11.5 -59q0 -57 -15 -127l-94 -445q-26 -131 -141 -174zM516 688h37q25 0 44.5 21t25.5 51l94 444q8 39 -6 55.5t-33 16.5h-37z" />
<glyph unicode="S" horiz-adv-x="831" d="M184 473h287l-57 -268q-4 -22 7 -34.5t28 -12.5q18 0 34.5 13t20.5 34l47 223q10 48 -1.5 72t-45.5 55l-180 162q-52 45 -52 88q0 8 -0.5 23.5t-0.5 25.5t1 24t4 27l58 273q9 40 17 66.5t28.5 66.5t46.5 63.5t71.5 41.5t104.5 18h238q26 0 46 -2t45 -9.5t41.5 -20.5 t28 -38t11.5 -59q0 -57 -15 -127l-39 -189h-286l51 240q3 19 -6.5 33t-30.5 14q-42 0 -53 -47l-45 -207q-4 -19 -4 -76q0 -6 4.5 -13t9 -12t14 -13.5t13.5 -12.5l170 -170q51 -51 63 -90q13 -43 0 -111l-55 -268q-16 -79 -45.5 -132.5t-68 -79t-74.5 -35t-80 -9.5h-238 q-26 0 -46 2t-45.5 9.5t-42.5 20.5t-28.5 38t-11.5 59q0 52 16 127z" />
<glyph unicode="T" horiz-adv-x="724" d="M219 0l270 1276h-172l35 158h631l-35 -158h-172l-270 -1276h-287z" />
<glyph unicode="U" horiz-adv-x="831" d="M389 1434h287l-262 -1229q-4 -22 7 -34.5t28 -12.5q18 0 34.5 13t20.5 34l262 1229h287l-250 -1178q-9 -38 -17.5 -66.5t-29.5 -67t-47.5 -63t-71.5 -42t-102 -17.5h-238q-61 0 -100 20.5t-54 48t-17.5 65.5t1.5 63.5t10 51.5q2 5 2 7z" />
<glyph unicode="V" horiz-adv-x="843" d="M236 0l116 1434h291l-135 -1057h10l293 1057h291l-486 -1434h-380z" />
<glyph unicode="W" horiz-adv-x="1374" d="M893 975l-289 -975h-377l125 1434h295l-143 -1049h10l303 1049h350l-133 -1049h10l293 1049h295l-485 -1434h-377l137 975h-14z" />
<glyph unicode="X" horiz-adv-x="831" d="M47 0l297 731l8 703h293l-41 -502h10l166 502h291l-285 -703l-2 -731h-292l34 516h-10l-176 -516h-293z" />
<glyph unicode="Y" horiz-adv-x="833" d="M274 0l82 387l-4 1047h303l-55 -545h10l183 545h299l-449 -1047l-82 -387h-287z" />
<glyph unicode="Z" horiz-adv-x="679" d="M47 0l39 180l506 1096h-246l35 158h541l-39 -179l-508 -1097h291l-33 -158h-586z" />
<glyph unicode="[" horiz-adv-x="487" d="M-8 -373l385 1807h344l-33 -150h-121l-319 -1507h121l-33 -150h-344z" />
<glyph unicode="\" horiz-adv-x="518" d="M266 -373l39 1807h172l-39 -1807h-172z" />
<glyph unicode="]" horiz-adv-x="487" d="M721 1434l-385 -1807h-344l33 150h120l320 1507h-121l33 150h344z" />
<glyph unicode="^" horiz-adv-x="1187" d="M711 1307l-217 -303h-187l314 430h182l313 -430h-186z" />
<glyph unicode="_" horiz-adv-x="1277" d="M307 -201h899v-172h-899v172z" />
<glyph unicode="`" horiz-adv-x="503" d="M377 1434h252l59 -230h-166z" />
<glyph unicode="a" d="M238 782l34 162q7 35 13 54.5t22.5 52t39 50.5t63 32t94.5 14h192h31t32 -2t36 -7.5t27 -14.5t23 -25.5t7 -38.5q0 -61 -12 -115l-201 -944h-242l11 51q-41 -30 -97.5 -46.5t-105.5 -16.5q-50 0 -80.5 23.5t-30.5 74.5q0 22 12 80l62 291q5 23 13.5 42t26 35.5t30 27 t42 25.5t43 21t51.5 22l21 9q94 42 126 70t44 86l35 163q4 19 -7.5 29t-23.5 10q-16 0 -33 -12t-20 -27l-37 -176h-241zM438 188l78 373q-40 -13 -64 -32.5t-30.5 -34.5t-11.5 -39l-56 -267q-2 -13 5.5 -24.5t29.5 -11.5q43 0 49 36z" />
<glyph unicode="b" d="M618 1434l-71 -338q97 63 205 63t108 -98q0 -22 -12 -80l-174 -815q-7 -33 -16 -58.5t-28 -55.5t-53 -47t-81 -17q-106 0 -172 63l-11 -51h-241l305 1434h241zM516 956l-162 -768q-2 -13 5.5 -24.5t29.5 -11.5q43 0 49 36l162 768q4 18 -7.5 28.5t-25.5 10.5 q-17 0 -32.5 -12.5t-18.5 -26.5z" />
<glyph unicode="c" d="M483 401h242l-43 -198q-8 -36 -14 -58t-22.5 -53t-39 -48.5t-62 -30.5t-91.5 -13h-193h-10q-26 0 -40 0.5t-37 5t-35 13.5t-22 27.5t-10 45.5q0 65 9 111l157 741q7 35 13 54.5t22.5 52t39 50.5t63 32t94.5 14h192h31t32 -2t36 -7.5t27 -14.5t23 -25.5t7 -38.5 q0 -61 -12 -115l-33 -156h-242l35 170q4 19 -7.5 29t-23.5 10q-16 0 -33 -12t-20 -27l-164 -772q-3 -15 7 -25.5t30 -10.5q39 0 47 36z" />
<glyph unicode="d" d="M944 1434l-305 -1434h-242l11 51q-41 -30 -97.5 -46.5t-105.5 -16.5q-50 0 -80.5 23.5t-30.5 74.5q0 22 12 80l175 815q7 33 16 57.5t28 55.5t53.5 48t82.5 17q107 0 170 -63l71 338h242zM438 188l162 768q4 18 -7.5 28.5t-25.5 10.5q-17 0 -32.5 -12.5t-18.5 -26.5 l-162 -768q-2 -6 2 -18q7 -18 33 -18q43 0 49 36z" />
<glyph unicode="e" d="M483 401h242l-43 -198q-8 -36 -14 -58t-22.5 -53t-39 -48.5t-62 -30.5t-91.5 -13h-193h-10q-26 0 -40 0.5t-37 5t-35 13.5t-22 27.5t-10 45.5q0 65 9 111l157 741q7 35 13 54.5t22.5 52t39 50.5t63 32t94.5 14h192h31t32 -2t36 -7.5t27 -14.5t23 -25.5t7 -38.5 q0 -61 -12 -115l-90 -426h-326l-72 -332q-3 -15 7 -25.5t30 -10.5q39 0 47 36zM455 668h84l61 290q4 19 -7.5 29t-23.5 10q-16 0 -33 -12t-20 -27z" />
<glyph unicode="f" horiz-adv-x="516" d="M131 0l213 997h-106l30 150h107l18 84q8 34 13.5 53.5t23.5 52t42 50.5t69 32.5t104 14.5h152l-33 -150h-16q-35 0 -59 -8.5t-36 -24.5t-17 -28t-9 -31l-11 -45h119l-30 -150h-119l-213 -997h-242z" />
<glyph unicode="g" d="M45 -129h242l-13 -55q-2 -7 2 -19q9 -20 33 -20q15 0 30 10t19 29l56 260q-43 -34 -99.5 -55t-103.5 -21q-60 0 -86.5 30.5t-26.5 78.5q0 13 2 25.5t6.5 30t6.5 25.5l168 791q7 33 16 57.5t28 55.5t53.5 48t82.5 17q107 0 170 -63l10 51h242l-281 -1317q-8 -36 -14 -58 t-22.5 -53t-39 -48.5t-62 -30.5t-91.5 -13h-193h-10q-26 0 -40 0.5t-36.5 5t-35 13.5t-22 27.5t-9.5 45.5q0 78 8 111zM516 956l-158 -741q-4 -18 8.5 -28.5t26.5 -10.5q42 0 49 39l158 741q4 18 -7.5 28.5t-25.5 10.5q-17 0 -32.5 -12.5t-18.5 -26.5z" />
<glyph unicode="h" d="M72 0l305 1434h241l-71 -338q97 63 205 63t108 -98q0 -22 -12 -80l-209 -981h-242l203 956q4 18 -7.5 28.5t-25.5 10.5q-17 0 -32.5 -12.5t-18.5 -26.5l-203 -956h-241z" />
<glyph unicode="i" horiz-adv-x="385" d="M72 0l243 1147h242l-244 -1147h-241zM334 1233l43 201h241l-43 -201h-241z" />
<glyph unicode="j" horiz-adv-x="385" d="M-8 -373l323 1520h242l-324 -1520h-241zM334 1233l43 201h241l-43 -201h-241z" />
<glyph unicode="k" horiz-adv-x="698" d="M72 0l305 1434h241l-165 -783h10l192 496h248l-239 -553l10 -594h-246l10 541h-10l-115 -541h-241z" />
<glyph unicode="l" horiz-adv-x="385" d="M72 0l305 1434h241l-305 -1434h-241z" />
<glyph unicode="m" horiz-adv-x="1036" d="M72 0l243 1147h242l-10 -51q42 28 98 45.5t107 17.5q15 0 33 -4t42.5 -21.5t34.5 -46.5q107 72 213 72q109 0 109 -98q0 -32 -10 -80l-209 -981h-242l203 956q4 18 -7.5 28.5t-25.5 10.5q-17 0 -32.5 -12.5t-18.5 -26.5l-203 -956h-242l203 956q4 18 -7.5 28.5 t-25.5 10.5q-17 0 -32.5 -12.5t-18.5 -26.5l-203 -956h-241z" />
<glyph unicode="n" d="M72 0l243 1147h242l-10 -51q97 63 205 63t108 -98q0 -22 -12 -80l-209 -981h-242l203 956q4 18 -7.5 28.5t-25.5 10.5q-17 0 -32.5 -12.5t-18.5 -26.5l-203 -956h-241z" />
<glyph unicode="o" d="M115 203l157 741q7 35 13 54.5t22.5 52t39 50.5t63 32t94.5 14h192h31t32 -2t36 -7.5t27 -14.5t23 -25.5t7 -38.5q0 -61 -12 -115l-158 -741q-8 -36 -14 -58t-22.5 -53t-39 -48.5t-62 -30.5t-91.5 -13h-193h-10q-26 0 -40 0.5t-37 5t-35 13.5t-22 27.5t-10 45.5 q0 65 9 111zM516 958l-164 -772q-3 -15 7 -25.5t30 -10.5q39 0 47 36l164 772q4 19 -7.5 29t-23.5 10q-16 0 -33 -12t-20 -27z" />
<glyph unicode="p" d="M-8 -373l323 1520h242l-10 -51q97 63 205 63t108 -98q0 -22 -12 -80l-174 -815q-7 -33 -16 -58.5t-28 -55.5t-53 -47t-81 -17q-106 0 -172 63l-91 -424h-241zM516 956l-162 -768q-2 -13 5.5 -24.5t29.5 -11.5q43 0 49 36l162 768q4 18 -7.5 28.5t-25.5 10.5 q-17 0 -32.5 -12.5t-18.5 -26.5z" />
<glyph unicode="q" d="M883 1147l-324 -1520h-242l91 424q-41 -30 -97.5 -46.5t-105.5 -16.5q-50 0 -80.5 23.5t-30.5 74.5q0 22 12 80l175 815q7 33 16 57.5t28 55.5t53.5 48t82.5 17q107 0 170 -63l10 51h242zM438 188l162 768q4 18 -7.5 28.5t-25.5 10.5q-17 0 -32.5 -12.5t-18.5 -26.5 l-162 -768q-2 -13 5.5 -24.5t29.5 -11.5q43 0 49 36z" />
<glyph unicode="r" horiz-adv-x="686" d="M315 1147h242l-10 -51q97 63 205 63t108 -98q0 -22 -12 -80l-51 -236h-242l45 211q4 18 -7.5 28.5t-25.5 10.5q-17 0 -32.5 -12.5t-18.5 -26.5l-203 -956h-241z" />
<glyph unicode="s" d="M152 373h241l-41 -187q-2 -6 2 -18q9 -18 35 -18q39 0 47 36l37 170q5 22 5.5 36.5t-5.5 26t-9.5 16.5t-18.5 17.5t-21 18.5l-152 145q-41 41 -41 74q0 57 9 96l32 158q6 34 13.5 58t24 53.5t40 48t63 31t91.5 12.5h192h9q25 0 38.5 -0.5t37 -5t36 -13.5t23 -27.5 t10.5 -45.5q0 -68 -10 -111l-31 -141h-242l33 155q4 19 -7.5 29t-23.5 10q-16 0 -33 -12t-20 -27l-24 -124q-6 -26 3.5 -50t20 -35.5t29.5 -27.5l141 -123q49 -42 49 -86q0 -57 -10 -106l-43 -203q-7 -35 -13 -56t-22.5 -52.5t-38.5 -49.5t-62 -31.5t-93 -13.5h-193h-10 q-25 0 -39 0.5t-37.5 5t-36 13t-23 26.5t-10.5 43q0 66 11 115z" />
<glyph unicode="t" horiz-adv-x="509" d="M238 997l30 150h97l61 287h242l-62 -287h123l-31 -150h-123l-157 -741q-4 -21 -4 -70q0 -7 2 -12t6 -9t8 -6.5t11 -4t12 -2.5t13.5 -1.5t13 -0.5h13h11.5h14l-33 -150h-161q-84 0 -110 7q-54 16 -54 69q0 10 -1 36.5t-0.5 47t5.5 43.5l170 794h-96z" />
<glyph unicode="u" d="M883 1147l-244 -1147h-242l11 51q-41 -30 -97.5 -46.5t-105.5 -16.5q-50 0 -80.5 23.5t-30.5 74.5q0 22 12 80l209 981h242l-203 -959q-2 -13 5.5 -24.5t29.5 -11.5q43 0 49 36l203 959h242z" />
<glyph unicode="v" horiz-adv-x="655" d="M170 0l98 1147h250l-104 -731h8l196 731h256l-401 -1147h-303z" />
<glyph unicode="w" horiz-adv-x="1114" d="M190 0l78 1147h258l-92 -705h10l246 705h221l-45 -707h11l198 707h258l-409 -1147h-258l26 629l-243 -629h-259z" />
<glyph unicode="x" horiz-adv-x="700" d="M37 0l246 600l-2 547h260l-58 -471h11l141 471h256l-229 -547l2 -600h-250l45 510h-10l-164 -510h-248z" />
<glyph unicode="y" d="M883 1147l-281 -1317q-8 -36 -14 -58t-22.5 -53t-39 -48.5t-62 -30.5t-91.5 -13h-193h-10q-26 0 -40 0.5t-36.5 5t-35 13.5t-22 27.5t-9.5 45.5q0 78 8 111l10 41h242l-13 -55q-3 -14 7 -26.5t28 -12.5q15 0 30 10t19 29l56 260q-43 -34 -99.5 -55t-103.5 -21 q-60 0 -86.5 30.5t-26.5 78.5q0 13 2 25.5t6.5 30t6.5 25.5l202 957h242l-199 -932q-4 -18 8.5 -28.5t26.5 -10.5q42 0 49 39l199 932h242z" />
<glyph unicode="z" horiz-adv-x="577" d="M37 0l37 170l415 827h-225l31 150h477l-37 -170l-401 -827h239l-32 -150h-504z" />
<glyph unicode="{" horiz-adv-x="561" d="M420 530q46 -13 59 -59q4 -16 0 -53q-2 -11 -6 -33.5t-6 -34.5l-90 -428q-12 -58 -12 -102q0 -43 53 -43l-33 -150h-47q-105 0 -159 49t-54 123q0 20 8 56l100 477q1 6 4.5 16.5t5 18.5t1.5 16q0 79 -51 72l32 151q15 0 23 2q17 4 29.5 16t20.5 31t12 34.5t9 39.5 l101 477q12 57 40.5 100t61 66.5t73 38t70.5 19t58 4.5h47l-33 -150q-43 -3 -64.5 -36t-37.5 -109l-90 -428q-7 -34 -13.5 -57t-20 -52t-36.5 -47t-55 -25z" />
<glyph unicode="|" horiz-adv-x="575" d="M307 -459v2157h172v-2157h-172z" />
<glyph unicode="}" horiz-adv-x="561" d="M365 530q-26 8 -40 25.5t-18 34.5q-4 16 0 53q2 12 6 34.5t6 33.5l91 428q12 58 12 102q0 14 -14.5 28t-38.5 15l32 150h48q21 0 44.5 -3t55 -14t55.5 -28.5t41 -50.5t17 -76q0 -16 -9 -56l-100 -477q-2 -9 -5 -26t-5 -25q-7 -30 0 -47q16 -28 51 -25l-33 -151 q-24 1 -40.5 -7.5t-26.5 -29t-15 -37.5t-12 -49l-100 -477q-12 -57 -40.5 -100t-61.5 -66.5t-73.5 -38t-70.5 -19t-58 -4.5h-47l33 150q48 4 68.5 39t34.5 106l90 428q6 32 12 52t19 50t36.5 49.5t55.5 28.5z" />
<glyph unicode="~" horiz-adv-x="1243" d="M307 573v201q59 48 128 81.5t128 33.5q37 0 73 -12.5t55 -24.5t50 -35q30 -21 49.5 -33.5t56.5 -25.5t73 -13q101 0 227 115v-201q-143 -114 -256 -114q-37 0 -73 12.5t-55.5 24.5t-49.5 34t-49.5 34t-56 25t-72.5 13q-102 0 -228 -115z" />
<glyph unicode="&#xa9;" horiz-adv-x="1466" d="M1130 0h-559q-24 0 -41.5 1t-47 6.5t-51 15t-46.5 29.5t-41 47t-26.5 69.5t-10.5 95.5v905q0 53 10.5 95.5t26.5 70t41 47t46.5 29.5t51 15.5t47 6.5t41.5 1h559q35 0 61 -2.5t67.5 -17t68.5 -40.5t47.5 -79t20.5 -126v-905q0 -53 -10.5 -95.5t-26.5 -69.5t-41 -47 t-47 -29.5t-51.5 -15t-47 -6.5t-41.5 -1zM659 143h383h10q26 0 39 0.5t34.5 4t33 10.5t26 21.5t21.5 35t12 52.5t5 73v754q0 32 -2.5 58.5t-8 46t-12.5 34.5t-16.5 24.5t-20 16t-23 9.5t-26 5t-27.5 2h-29h-16h-383q-77 0 -100 -7q-63 -20 -76 -120q-4 -31 -4 -69v-754 q0 -41 5 -73t12 -52.5t21.5 -35t25.5 -21.5t32.5 -10.5t34 -4t39.5 -0.5h10zM893 668h201v-199q0 -42 -7.5 -75.5t-17 -54.5t-27.5 -36t-31.5 -22t-37 -10.5t-35 -4t-33.5 -0.5h-108q-30 0 -50 2t-49 13t-46.5 31t-30.5 60.5t-13 96.5v496q0 30 1.5 51t12 52.5t29 51 t56 34.5t90.5 15h108q52 0 88.5 -13.5t56 -32t30 -49t12.5 -53.5t2 -56v-154h-201v172q0 16 -14 26.5t-29 10.5t-28 -11t-13 -26v-530q0 -15 13 -26t28 -11t29 10.5t14 26.5v215z" />
<glyph unicode="&#xab;" horiz-adv-x="745" d="M205 158l-8 430l192 430h201l-195 -430l11 -430h-201zM506 158l-8 430l192 430h201l-195 -430l11 -430h-201z" />
<glyph unicode="&#xad;" horiz-adv-x="487" d="M184 530l43 201h344l-43 -201h-344z" />
<glyph unicode="&#xae;" horiz-adv-x="1490" d="M1128 0h-557q-39 0 -68.5 3.5t-68.5 18.5t-64.5 41.5t-44 78t-18.5 122.5v905q0 71 18.5 122.5t44 78.5t64.5 42t68.5 18.5t68.5 3.5h557q61 0 108 -12.5t74.5 -36t46 -48.5t26 -59t10 -57t2.5 -52v-905q0 -36 -3 -64t-18 -68t-42 -66.5t-79.5 -46t-124.5 -19.5zM659 143 h381q77 0 105 11q77 36 78 186v754q0 32 -3 58.5t-8.5 46t-13 34.5t-17.5 24.5t-21 16t-23.5 9.5t-26 5t-27.5 2h-28h-15h-381q-77 0 -100 -7q-63 -20 -76 -120q-4 -31 -4 -69v-754q0 -41 5 -73t12 -52.5t21.5 -35t25.5 -21.5t32.5 -10.5t34 -4t39.5 -0.5h10zM1116 266h-203 l-94 312h-10v-312h-201v903h297q51 0 87.5 -13.5t56 -32.5t30 -49t13 -53.5t2.5 -55.5v-232q0 -107 -90 -137zM809 727h31q27 0 40 13.5t13 31.5v203q0 18 -13 31.5t-40 13.5h-31v-293z" />
<glyph unicode="&#xbb;" horiz-adv-x="745" d="M791 1018l8 -430l-193 -430h-200l194 430l-10 430h201zM489 1018l9 -430l-193 -430h-201l195 430l-10 430h200z" />
<glyph unicode="&#x401;" horiz-adv-x="724" d="M84 0l305 1434h582l-35 -158h-295l-94 -445h295l-33 -157h-295l-111 -516h308l-33 -158h-594zM424 1520l43 200h238l-43 -200h-238zM752 1520l43 200h237l-43 -200h-237z" />
<glyph unicode="&#x402;" horiz-adv-x="925" d="M190 0l271 1276h-144l35 158h717l-35 -158h-286l-76 -358h164q176 0 176 -130q0 -46 -17 -126l-86 -406q-9 -39 -17.5 -66.5t-29 -66.5t-47 -63t-71.5 -42t-103 -18h-125l33 158q55 5 63 57l101 473q10 72 -35 72h-39l-162 -760h-287z" />
<glyph unicode="&#x403;" horiz-adv-x="677" d="M84 0l305 1434h547l-35 -158h-260l-270 -1276h-287zM885 1720l-248 -215h-158l133 215h273z" />
<glyph unicode="&#x404;" horiz-adv-x="831" d="M854 502l-51 -246q-17 -79 -46.5 -132.5t-68 -79t-74 -35t-79.5 -9.5h-238q-26 0 -46 2t-45.5 9.5t-42.5 20.5t-28.5 38t-11.5 59q0 52 16 127l195 922q9 40 17 66.5t28.5 66.5t46.5 63.5t71.5 41.5t104.5 18h238q26 0 46 -2t45 -9.5t41.5 -20.5t28 -38t11.5 -59 q0 -57 -15 -127l-43 -203h-286l55 254q3 19 -6.5 33t-30.5 14q-44 0 -53 -47l-88 -412h229l-35 -158h-229l-96 -454q-3 -13 0 -23q10 -24 35 -24q18 0 34.5 13t20.5 34l63 297h287z" />
<glyph unicode="&#x405;" horiz-adv-x="831" d="M184 473h287l-57 -268q-4 -22 7 -34.5t28 -12.5q18 0 34.5 13t20.5 34l47 223q10 48 -1.5 72t-45.5 55l-180 162q-52 45 -52 88q0 8 -0.5 23.5t-0.5 25.5t1 24t4 27l58 273q9 40 17 66.5t28.5 66.5t46.5 63.5t71.5 41.5t104.5 18h238q26 0 46 -2t45 -9.5t41.5 -20.5 t28 -38t11.5 -59q0 -57 -15 -127l-39 -189h-286l51 240q3 19 -6.5 33t-30.5 14q-42 0 -53 -47l-45 -207q-4 -19 -4 -76q0 -6 4.5 -13t9 -12t14 -13.5t13.5 -12.5l170 -170q51 -51 63 -90q13 -43 0 -111l-55 -268q-16 -79 -45.5 -132.5t-68 -79t-74.5 -35t-80 -9.5h-238 q-26 0 -46 2t-45.5 9.5t-42.5 20.5t-28.5 38t-11.5 59q0 52 16 127z" />
<glyph unicode="&#x406;" horiz-adv-x="454" d="M84 0l305 1434h287l-305 -1434h-287z" />
<glyph unicode="&#x407;" horiz-adv-x="561" d="M139 0l305 1434h287l-305 -1434h-287zM352 1520l43 200h209l-43 -200h-209zM651 1520l43 200h205l-43 -200h-205z" />
<glyph unicode="&#x408;" horiz-adv-x="497" d="M47 0l33 158h29q22 0 40.5 16.5t26.5 54.5l256 1205h287l-250 -1178q-9 -39 -17.5 -66.5t-29 -66.5t-47 -63t-71.5 -42t-103 -18h-154z" />
<glyph unicode="&#x409;" horiz-adv-x="1241" d="M47 0l33 158h29q22 0 40.5 16.5t26.5 54.5l256 1205h666l-113 -531h162q27 0 47 -2t45.5 -9.5t42 -20.5t28 -38t11.5 -59q0 -61 -14 -127l-82 -391q-7 -37 -16.5 -66.5t-30 -67t-48 -62.5t-73 -42.5t-103.5 -17.5h-448l270 1276h-92l-215 -1020q-9 -39 -17.5 -66.5 t-29 -66.5t-47 -63t-71.5 -42t-103 -18h-154zM825 158h37q25 0 44.5 20.5t25.5 50.5l94 445q8 39 -6 55t-33 16h-37z" />
<glyph unicode="&#x40a;" horiz-adv-x="1196" d="M84 0l305 1434h287l-113 -531h90l113 531h287l-113 -531h164q26 0 46 -2t45 -9.5t41.5 -20.5t28 -38t11.5 -59q0 -61 -14 -127l-82 -391q-17 -79 -46.5 -132.5t-68.5 -79t-74.5 -35t-79.5 -9.5h-450l157 745h-90l-157 -745h-287zM780 158h37q25 0 44.5 20.5t25.5 50.5 l94 445q8 39 -6 55t-33 16h-37z" />
<glyph unicode="&#x40b;" horiz-adv-x="925" d="M190 0l271 1276h-144l35 158h717l-35 -158h-286l-76 -358h164q176 0 176 -130q0 -46 -17 -126l-141 -662h-287l146 688q10 72 -35 72h-39l-162 -760h-287z" />
<glyph unicode="&#x40c;" horiz-adv-x="837" d="M84 0l305 1434h287l-131 -617h10l225 617h287l-293 -689l17 -745h-287l16 659h-10l-139 -659h-287zM965 1720l-248 -215h-158l133 215h273z" />
<glyph unicode="&#x40e;" horiz-adv-x="854" d="M137 0l33 158h47q62 0 93 21.5t48 76.5l25 80l-31 1098h291l-45 -709h10l213 709h291l-469 -1186q-27 -69 -60 -117t-62 -73.5t-68.5 -39t-67.5 -16t-72 -2.5h-176zM516 1720h242l-13 -49q-4 -18 6.5 -34.5t34.5 -16.5t40 16t22 35l12 49h242l-12 -49q-6 -23 -10 -35 t-14 -35.5t-24.5 -37t-36 -29t-54.5 -22.5t-74 -7h-230h-24.5t-26.5 1.5t-29.5 4.5t-25.5 9.5t-23 15t-14 23t-6 32.5q0 57 6 80z" />
<glyph unicode="&#x40f;" horiz-adv-x="831" d="M1053 1434l-305 -1434h-203l-62 -287h-258l62 287h-203l305 1434h287l-273 -1276h91l272 1276h287z" />
<glyph unicode="&#x410;" horiz-adv-x="843" d="M47 0l457 1434h452l-161 -1434h-279l53 381h-135l-108 -381h-279zM477 539h115l102 718h-14z" />
<glyph unicode="&#x411;" horiz-adv-x="831" d="M84 0l305 1434h635l-35 -158h-348l-88 -416h164q27 0 47 -2t45.5 -9.5t42 -20.5t28 -38t11.5 -59q0 -61 -14 -127l-74 -348q-17 -79 -46 -132.5t-67.5 -79t-74.5 -35t-80 -9.5h-451zM403 158h37q25 0 44.5 20.5t25.5 50.5l84 402q7 36 -4.5 53.5t-32.5 17.5h-37z" />
<glyph unicode="&#x412;" horiz-adv-x="831" d="M84 0l305 1434h451q26 0 46 -2t45 -9.5t41.5 -20.5t28 -38t11.5 -59q0 -57 -15 -127l-49 -230q-15 -73 -56 -119.5t-85.5 -61.5t-93.5 -13l-2 -15q41 1 73.5 -5t58 -27.5t25.5 -57.5q0 -6 1 -30t0 -39.5t-5 -34.5l-61 -289q-9 -38 -17.5 -66.5t-29.5 -67t-47.5 -63 t-71.5 -42t-102 -17.5h-451zM403 158h37q25 0 44.5 20.5t25.5 50.5l76 359q8 39 -6 55t-33 16h-37zM545 817h37q22 0 40.5 17t26.5 55l68 315q7 36 -5 54t-34 18h-37z" />
<glyph unicode="&#x413;" horiz-adv-x="677" d="M84 0l305 1434h547l-35 -158h-260l-270 -1276h-287z" />
<glyph unicode="&#x414;" horiz-adv-x="911" d="M809 -258h-258l55 258h-301l-55 -258h-258l88 416h14q28 0 48.5 13.5t33 38.5t19 44.5t12.5 46.5l242 1133h663l-272 -1276h57zM700 1276l-213 -1004q-15 -77 -63 -114h129l238 1118h-91z" />
<glyph unicode="&#x415;" horiz-adv-x="724" d="M84 0l305 1434h582l-35 -158h-295l-94 -445h295l-33 -157h-295l-111 -516h308l-33 -158h-594z" />
<glyph unicode="&#x416;" horiz-adv-x="1220" d="M467 0l139 659h-10l-262 -659h-287l332 745l2 689h287l-37 -617h10l131 617h287l-131 -617h10l225 617h287l-293 -689l17 -745h-287l16 659h-10l-139 -659h-287z" />
<glyph unicode="&#x417;" horiz-adv-x="831" d="M190 502h287l-63 -297q-3 -13 0 -23q10 -24 35 -24q18 0 34.5 13t20.5 34l78 360q4 20 4 32.5t-7 29t-30.5 24.5t-63.5 8h-116l34 158h121q66 0 93.5 23t39.5 84l66 305q3 19 -6.5 33t-30.5 14q-42 0 -53 -47l-55 -254h-287l43 203q9 40 17 66.5t28.5 66.5t46.5 63.5 t71.5 41.5t104.5 18h238q26 0 46 -2t45 -9.5t41.5 -20.5t28 -38t11.5 -59q0 -57 -15 -127l-49 -230q-15 -73 -56 -119.5t-85.5 -61.5t-93.5 -13l-2 -15q41 1 73.5 -5t58 -27.5t25.5 -57.5q0 -6 1 -30t0 -39.5t-5 -34.5l-61 -289q-9 -38 -17.5 -66.5t-29.5 -67t-47.5 -63 t-71.5 -42t-102 -17.5h-238q-26 0 -46 2t-45.5 9.5t-42.5 20.5t-28.5 38t-11.5 59q0 52 16 127z" />
<glyph unicode="&#x418;" horiz-adv-x="870" d="M84 0l305 1434h287l-152 -715h11l270 715h287l-306 -1434h-286l151 715h-10l-270 -715h-287z" />
<glyph unicode="&#x419;" horiz-adv-x="870" d="M84 0l305 1434h287l-152 -715h11l270 715h287l-306 -1434h-286l151 715h-10l-270 -715h-287zM510 1720h240l-13 -49q-5 -18 7 -34.5t34 -16.5q49 0 62 51l12 49h240l-13 -49q-6 -23 -10 -35t-14 -35.5t-24.5 -37t-36.5 -29t-55 -22.5t-75 -7h-223h-24.5t-26.5 1.5 t-29.5 4.5t-25.5 9.5t-23 15t-14 23t-6 32.5q0 57 6 80z" />
<glyph unicode="&#x41a;" horiz-adv-x="837" d="M84 0l305 1434h287l-131 -617h10l225 617h287l-293 -689l17 -745h-287l16 659h-10l-139 -659h-287z" />
<glyph unicode="&#x41b;" horiz-adv-x="876" d="M47 0l33 158h29q22 0 40.5 16.5t26.5 54.5l256 1205h666l-305 -1434h-287l270 1276h-92l-215 -1020q-9 -39 -17.5 -66.5t-29 -66.5t-47 -63t-71.5 -42t-103 -18h-154z" />
<glyph unicode="&#x41c;" horiz-adv-x="1286" d="M733 426l402 1008h372l-305 -1434h-287l191 899h-10l-338 -899h-230l43 899h-10l-190 -899h-287l305 1434h373z" />
<glyph unicode="&#x41d;" horiz-adv-x="831" d="M84 0l305 1434h287l-129 -603h90l129 603h287l-305 -1434h-287l143 674h-90l-143 -674h-287z" />
<glyph unicode="&#x41e;" horiz-adv-x="831" d="M139 256l195 922q9 40 17 66.5t28.5 66.5t46.5 63.5t71.5 41.5t104.5 18h238q26 0 46 -2t45 -9.5t41.5 -20.5t28 -38t11.5 -59q0 -57 -15 -127l-194 -922q-17 -79 -46.5 -132.5t-68 -79t-74 -35t-79.5 -9.5h-238q-26 0 -46 2t-45.5 9.5t-42.5 20.5t-28.5 38t-11.5 59 q0 52 16 127zM504 205l219 1024q3 19 -6.5 33t-30.5 14q-44 0 -53 -47l-219 -1024q-3 -13 0 -23q10 -24 35 -24q18 0 34.5 13t20.5 34z" />
<glyph unicode="&#x41f;" horiz-adv-x="831" d="M84 0l305 1434h664l-305 -1434h-287l270 1276h-90l-270 -1276h-287z" />
<glyph unicode="&#x420;" horiz-adv-x="819" d="M84 0l305 1434h451q26 0 46 -2t45 -9.5t41.5 -20.5t28 -38t11.5 -59q0 -57 -15 -127l-92 -435q-9 -40 -17 -67t-28.5 -66t-46.5 -63t-71 -42t-103 -18h-164l-104 -487h-287zM508 645h37q22 0 40.5 17t26.5 55l105 487q7 36 -5 54t-34 18h-37z" />
<glyph unicode="&#x421;" horiz-adv-x="831" d="M854 502l-51 -246q-17 -79 -46.5 -132.5t-68 -79t-74 -35t-79.5 -9.5h-238q-26 0 -46 2t-45.5 9.5t-42.5 20.5t-28.5 38t-11.5 59q0 52 16 127l195 922q9 40 17 66.5t28.5 66.5t46.5 63.5t71.5 41.5t104.5 18h238q26 0 46 -2t45 -9.5t41.5 -20.5t28 -38t11.5 -59 q0 -57 -15 -127l-43 -203h-286l55 254q3 19 -6.5 33t-30.5 14q-44 0 -53 -47l-219 -1024q-4 -22 7 -34.5t28 -12.5q18 0 34.5 13t20.5 34l63 297h287z" />
<glyph unicode="&#x422;" horiz-adv-x="724" d="M219 0l270 1276h-172l35 158h631l-35 -158h-172l-270 -1276h-287z" />
<glyph unicode="&#x423;" horiz-adv-x="854" d="M137 0l33 158h47q62 0 93 21.5t48 76.5l25 80l-31 1098h295l-49 -709h10l213 709h291l-469 -1186q-27 -69 -60 -117t-62 -73.5t-68.5 -39t-67.5 -16t-72 -2.5h-176z" />
<glyph unicode="&#x424;" horiz-adv-x="1208" d="M461 0l31 143h-164q-27 0 -47 2t-45.5 9.5t-42 20.5t-28 38t-11.5 59q0 61 14 127l151 707q9 39 17.5 66.5t28.5 66.5t46.5 63t71.5 42t103 18h164l22 100h287l-23 -100h164q27 0 47 -2t45.5 -9.5t42 -20.5t28 -38t11.5 -59q0 -61 -14 -127l-152 -707q-9 -40 -17 -67 t-28.5 -66t-46.5 -63t-71 -42t-103 -18h-164l-30 -143h-287zM811 301h37q25 0 44.5 21t25.5 51l161 760q7 31 -5.5 51t-33.5 20h-36zM524 301l193 903h-37q-53 0 -68 -71l-161 -760q-2 -9 -2 -45q0 -11 11.5 -19t26.5 -8h37z" />
<glyph unicode="&#x425;" horiz-adv-x="831" d="M47 0l297 731l8 703h293l-41 -502h10l166 502h291l-285 -703l-2 -731h-292l34 516h-10l-176 -516h-293z" />
<glyph unicode="&#x426;" horiz-adv-x="851" d="M84 0l305 1434h287l-273 -1276h91l272 1276h287l-273 -1276h58l-88 -416h-258l55 258h-463z" />
<glyph unicode="&#x427;" horiz-adv-x="819" d="M449 0l110 516h-164q-27 0 -47 2t-45.5 9.5t-42 20.5t-28 38t-11.5 59q0 57 15 127l141 662h287l-148 -689q-7 -31 5.5 -51t33.5 -20h37l162 760h286l-305 -1434h-286z" />
<glyph unicode="&#x428;" horiz-adv-x="1208" d="M84 0l305 1434h287l-273 -1276h91l272 1276h287l-273 -1276h90l273 1276h287l-306 -1434h-1040z" />
<glyph unicode="&#x429;" horiz-adv-x="1228" d="M84 0l305 1434h287l-273 -1276h91l272 1276h287l-273 -1276h90l273 1276h287l-273 -1276h57l-88 -416h-258l56 258h-840z" />
<glyph unicode="&#x42a;" horiz-adv-x="954" d="M219 0l270 1276h-172l35 158h459l-113 -531h164q174 0 174 -129q0 -52 -16 -127l-82 -391q-7 -37 -16 -66.5t-29 -67t-47.5 -62.5t-72.5 -42.5t-103 -17.5h-451zM539 158h39q6 0 12.5 1.5t18 7.5t21.5 22t15 40l94 445l1 6l1.5 9t1 9.5t-0.5 11t-2 10.5t-4.5 10t-7.5 7.5 t-10.5 5.5t-15.5 2h-38z" />
<glyph unicode="&#x42b;" horiz-adv-x="1208" d="M84 0l305 1434h287l-113 -531h164q26 0 46 -2t45 -9.5t41.5 -20.5t28 -38t11.5 -59q0 -61 -14 -127l-82 -391q-17 -79 -46.5 -132.5t-68 -79t-74 -35t-79.5 -9.5h-451zM403 158h37q25 0 44.5 20.5t25.5 50.5l94 445q8 39 -6 55t-33 16h-37zM838 0l305 1434h287 l-306 -1434h-286z" />
<glyph unicode="&#x42c;" horiz-adv-x="819" d="M84 0l305 1434h287l-113 -531h164q26 0 46 -2t45 -9.5t41.5 -20.5t28 -38t11.5 -59q0 -61 -14 -127l-82 -391q-17 -79 -46.5 -132.5t-68 -79t-74 -35t-79.5 -9.5h-451zM403 158h37q25 0 44.5 20.5t25.5 50.5l94 445q8 39 -6 55t-33 16h-37z" />
<glyph unicode="&#x42d;" horiz-adv-x="831" d="M190 502h287l-63 -297q-3 -13 0 -23q10 -24 35 -24q18 0 34.5 13t20.5 34l96 454h-231l34 158h232l88 412q3 19 -6.5 33t-30.5 14q-42 0 -53 -47l-55 -254h-287l43 203q9 40 17 66.5t28.5 66.5t46.5 63.5t71.5 41.5t104.5 18h238q26 0 46 -2t45 -9.5t41.5 -20.5t28 -38 t11.5 -59q0 -57 -15 -127l-194 -922q-17 -79 -46.5 -132.5t-68 -79t-74 -35t-79.5 -9.5h-238q-26 0 -46 2t-45.5 9.5t-42.5 20.5t-28.5 38t-11.5 59q0 52 16 127z" />
<glyph unicode="&#x42e;" horiz-adv-x="1208" d="M84 0l305 1434h287l-129 -603h90l74 347q9 40 17 66.5t28.5 66.5t46.5 63.5t71.5 41.5t104.5 18h238q26 0 46 -2t45 -9.5t41.5 -20.5t28 -38t11.5 -59q0 -57 -15 -127l-194 -922q-17 -79 -46.5 -132.5t-68.5 -79t-74.5 -35t-79.5 -9.5h-237q-26 0 -46 2t-45.5 9.5 t-42.5 20.5t-28.5 38t-11.5 59q0 52 16 127l88 418h-90l-143 -674h-287zM881 205l219 1024q4 21 -7.5 34t-29.5 13q-44 0 -53 -47l-219 -1024q-3 -13 0 -23q10 -24 34 -24q47 0 56 47z" />
<glyph unicode="&#x42f;" horiz-adv-x="833" d="M47 0l293 559q-16 1 -30.5 5t-34 13.5t-31 30.5t-11.5 51q0 33 9 74l94 445q9 40 17 66.5t28.5 66.5t46.5 63.5t71.5 41.5t104.5 18h451l-305 -1434h-287l117 545h-11l-225 -545h-297zM612 702l121 574h-39q-50 0 -65 -72l-92 -430q-7 -31 0 -45q13 -27 36 -27h39z" />
<glyph unicode="&#x430;" d="M238 782l34 162q7 35 13 54.5t22.5 52t39 50.5t63 32t94.5 14h192h31t32 -2t36 -7.5t27 -14.5t23 -25.5t7 -38.5q0 -61 -12 -115l-201 -944h-242l11 51q-41 -30 -97.5 -46.5t-105.5 -16.5q-50 0 -80.5 23.5t-30.5 74.5q0 22 12 80l62 291q5 23 13.5 42t26 35.5t30 27 t42 25.5t43 21t51.5 22l21 9q94 42 126 70t44 86l35 163q4 19 -7.5 29t-23.5 10q-16 0 -33 -12t-20 -27l-37 -176h-241zM438 188l78 373q-40 -13 -64 -32.5t-30.5 -34.5t-11.5 -39l-56 -267q-2 -13 5.5 -24.5t29.5 -11.5q43 0 49 36z" />
<glyph unicode="&#x431;" d="M944 1434l-37 -170h-241q-30 0 -50.5 -8t-31 -24.5t-15 -30t-8.5 -34.5l-14 -71q97 63 205 63t108 -98q0 -22 -12 -80l-166 -778q-8 -36 -14 -58t-22.5 -53t-39 -48.5t-62 -30.5t-91.5 -13h-193h-10q-26 0 -40 0.5t-37 5t-35 13.5t-22 27.5t-10 45.5q0 65 9 111l207 975 q14 69 45.5 119.5t64 75.5t75.5 40t69.5 18t56.5 3h311zM516 954l-164 -768q-3 -15 7 -25.5t30 -10.5q39 0 47 36l164 770q4 18 -7.5 28.5t-25.5 10.5q-15 0 -31 -11t-20 -30z" />
<glyph unicode="&#x432;" d="M72 0l243 1147h361q91 0 123 -13q49 -21 49 -79q0 -7 1 -25t0.5 -31.5t-3.5 -27.5l-47 -221q-14 -67 -71 -102.5t-126 -37.5l-2 -14q61 -2 98 -21.5t37 -52.5q0 -6 1 -23t0.5 -30t-3.5 -27l-57 -266q-11 -49 -34 -84t-47 -52.5t-58.5 -27t-55 -11t-49.5 -1.5h-360z M346 152h31q24 0 41.5 15.5t23.5 43.5l47 227q18 86 -34 86h-31zM526 997l-69 -323h30q21 0 40.5 20t29.5 62l41 184q7 30 -6.5 43.5t-34.5 13.5h-31z" />
<glyph unicode="&#x433;" d="M719 373l-37 -170q-8 -36 -14 -58t-22.5 -53t-39 -48.5t-62 -30.5t-91.5 -13h-193h-10q-26 0 -40 0.5t-37 5t-35 13.5t-22 27.5t-10 45.5q0 65 9 111l43 203q15 69 41 112.5t82 79.5l194 123q89 57 100 113l25 124q4 19 -7 29t-24 10q-16 0 -33 -12t-20 -27l-33 -155 h-241l30 141q7 35 13 54.5t22.5 52t39 50.5t63 32t94.5 14h192h31t32 -2t36 -7.5t27 -14.5t23 -25.5t7 -38.5q0 -61 -12 -115l-33 -158q-13 -66 -32.5 -99t-74.5 -71l-213 -145q-6 -4 -20 -13.5t-21 -14.5t-18 -15t-17 -19t-12.5 -23t-9.5 -30l-37 -170q-3 -15 7 -25.5 t30 -10.5q39 0 47 36l41 187h242z" />
<glyph unicode="&#x434;" d="M45 -129h242l-13 -55q-3 -14 7 -26.5t28 -12.5q15 0 30 10t19 29l56 260q-43 -34 -99.5 -55t-103.5 -21q-60 0 -86.5 30.5t-26.5 78.5q0 13 2 25.5t6.5 30t6.5 25.5l168 791q7 33 16 57.5t28 55.5t53.5 48t82.5 17q107 0 170 -63l10 51h242l-281 -1317q-8 -36 -14 -58 t-22.5 -53t-39 -48.5t-62 -30.5t-91.5 -13h-193h-10q-26 0 -40 0.5t-36.5 5t-35 13.5t-22 27.5t-9.5 45.5q0 78 8 111zM516 956l-158 -741q-4 -18 8.5 -28.5t26.5 -10.5q42 0 49 39l158 741q4 18 -7.5 28.5t-25.5 10.5q-17 0 -32.5 -12.5t-18.5 -26.5z" />
<glyph unicode="&#x435;" d="M483 401h242l-43 -198q-8 -36 -14 -58t-22.5 -53t-39 -48.5t-62 -30.5t-91.5 -13h-193h-10q-26 0 -40 0.5t-37 5t-35 13.5t-22 27.5t-10 45.5q0 65 9 111l157 741q7 35 13 54.5t22.5 52t39 50.5t63 32t94.5 14h192h31t32 -2t36 -7.5t27 -14.5t23 -25.5t7 -38.5 q0 -61 -12 -115l-90 -426h-326l-72 -332q-3 -15 7 -25.5t30 -10.5q39 0 47 36zM455 668h84l61 290q4 19 -7.5 29t-23.5 10q-16 0 -33 -12t-20 -27z" />
<glyph unicode="&#x436;" horiz-adv-x="1007" d="M383 0l115 541h-11l-217 -541h-245l264 594l-8 553h249l-18 -496h10l105 496h241l-104 -496h10l191 496h249l-241 -553l10 -594h-246l13 541h-11l-114 -541h-242z" />
<glyph unicode="&#x437;" d="M158 401h241l-47 -215q-3 -15 7 -25.5t30 -10.5q39 0 47 36l53 246q7 25 7 39q0 45 -72 45h-82l31 150h82q29 0 49.5 9t30.5 25t14.5 28t7.5 28l43 202q4 19 -7.5 29t-23.5 10q-16 0 -33 -12t-20 -27l-35 -170h-241l32 156q7 35 13 54.5t22.5 52t39 50.5t63 32t94.5 14 h192h31t32 -2t36 -7.5t27 -14.5t23 -25.5t7 -38.5q0 -61 -12 -115l-43 -199q-14 -66 -57 -104.5t-111 -38.5l-2 -14q49 4 80.5 -20t31.5 -50q0 -45 -6 -74l-51 -241q-8 -36 -14 -58t-22.5 -53t-39 -48.5t-62 -30.5t-91.5 -13h-193h-10q-26 0 -40 0.5t-37 5t-35 13.5 t-22 27.5t-10 45.5q0 65 9 111z" />
<glyph unicode="&#x438;" d="M883 1147l-244 -1147h-242l11 51q-41 -30 -97.5 -46.5t-105.5 -16.5q-50 0 -80.5 23.5t-30.5 74.5q0 22 12 80l209 981h242l-203 -959q-2 -13 5.5 -24.5t29.5 -11.5q43 0 49 36l203 959h242z" />
<glyph unicode="&#x439;" d="M883 1147l-244 -1147h-242l11 51q-41 -30 -97.5 -46.5t-105.5 -16.5q-50 0 -80.5 23.5t-30.5 74.5q0 22 12 80l209 981h242l-203 -959q-2 -13 5.5 -24.5t29.5 -11.5q43 0 49 36l203 959h242zM403 1434h215l-14 -64q-4 -17 8 -27t27 -10q8 0 17 2.5t19 11.5t13 23l14 64 h216l-17 -78q-5 -27 -14.5 -48.5t-28.5 -43t-52.5 -33.5t-80.5 -12h-225q-115 0 -115 61q0 7 -1 22.5t-0.5 27.5t3.5 26z" />
<glyph unicode="&#x43a;" horiz-adv-x="698" d="M72 0l243 1147h242l-104 -496h10l192 496h248l-239 -553l10 -594h-246l10 541h-10l-115 -541h-241z" />
<glyph unicode="&#x43b;" horiz-adv-x="735" d="M25 0l32 150h15q60 0 73 71l197 926h565l-243 -1147h-242l213 997h-82l-168 -788q-12 -58 -41 -100t-59.5 -62.5t-70 -32t-59.5 -13t-42 -1.5h-88z" />
<glyph unicode="&#x43c;" horiz-adv-x="1003" d="M600 467l289 680h287l-244 -1147h-242l121 571h-10l-230 -571h-139l12 571h-10l-121 -571h-241l243 1147h287z" />
<glyph unicode="&#x43d;" d="M72 0l243 1147h242l-100 -473h84l100 473h242l-244 -1147h-242l111 524h-84l-111 -524h-241z" />
<glyph unicode="&#x43e;" d="M115 203l157 741q7 35 13 54.5t22.5 52t39 50.5t63 32t94.5 14h192h31t32 -2t36 -7.5t27 -14.5t23 -25.5t7 -38.5q0 -61 -12 -115l-158 -741q-8 -36 -14 -58t-22.5 -53t-39 -48.5t-62 -30.5t-91.5 -13h-193h-10q-26 0 -40 0.5t-37 5t-35 13.5t-22 27.5t-10 45.5 q0 65 9 111zM516 958l-164 -772q-3 -15 7 -25.5t30 -10.5q39 0 47 36l164 772q4 19 -7.5 29t-23.5 10q-16 0 -33 -12t-20 -27z" />
<glyph unicode="&#x43f;" d="M72 0l243 1147h242l-10 -51q97 63 205 63t108 -98q0 -22 -12 -80l-209 -981h-242l203 956q4 18 -7.5 28.5t-25.5 10.5q-17 0 -32.5 -12.5t-18.5 -26.5l-203 -956h-241z" />
<glyph unicode="&#x440;" d="M-8 -373l323 1520h242l-10 -51q97 63 205 63t108 -98q0 -22 -12 -80l-174 -815q-7 -33 -16 -58.5t-28 -55.5t-53 -47t-81 -17q-106 0 -172 63l-91 -424h-241zM516 956l-162 -768q-2 -13 5.5 -24.5t29.5 -11.5q43 0 49 36l162 768q4 18 -7.5 28.5t-25.5 10.5 q-17 0 -32.5 -12.5t-18.5 -26.5z" />
<glyph unicode="&#x441;" d="M483 401h242l-43 -198q-8 -36 -14 -58t-22.5 -53t-39 -48.5t-62 -30.5t-91.5 -13h-193h-10q-26 0 -40 0.5t-37 5t-35 13.5t-22 27.5t-10 45.5q0 65 9 111l157 741q7 35 13 54.5t22.5 52t39 50.5t63 32t94.5 14h192h31t32 -2t36 -7.5t27 -14.5t23 -25.5t7 -38.5 q0 -61 -12 -115l-33 -156h-242l35 170q4 19 -7.5 29t-23.5 10q-16 0 -33 -12t-20 -27l-164 -772q-3 -15 7 -25.5t30 -10.5q39 0 47 36z" />
<glyph unicode="&#x442;" horiz-adv-x="1036" d="M72 0l243 1147h242l-10 -51q42 28 98 45.5t107 17.5q15 0 33 -4t42.5 -21.5t34.5 -46.5q107 72 213 72q109 0 109 -98q0 -32 -10 -80l-209 -981h-242l203 956q3 10 0 19q-3 8 -13 14t-20 6q-17 0 -32.5 -12.5t-18.5 -26.5l-203 -956h-242l203 956q4 18 -7.5 28.5 t-25.5 10.5q-17 0 -32.5 -12.5t-18.5 -26.5l-203 -956h-241z" />
<glyph unicode="&#x443;" d="M883 1147l-281 -1317q-8 -36 -14 -58t-22.5 -53t-39 -48.5t-62 -30.5t-91.5 -13h-193h-10q-26 0 -40 0.5t-36.5 5t-35 13.5t-22 27.5t-9.5 45.5q0 78 8 111l10 41h242l-13 -55q-3 -14 7 -26.5t28 -12.5q15 0 30 10t19 29l56 260q-43 -34 -99.5 -55t-103.5 -21 q-60 0 -86.5 30.5t-26.5 78.5q0 13 2 25.5t6.5 30t6.5 25.5l202 957h242l-199 -932q-4 -18 8.5 -28.5t26.5 -10.5q42 0 49 39l199 932h242z" />
<glyph unicode="&#x444;" horiz-adv-x="1036" d="M702 1434h242l-72 -338q41 30 97.5 46.5t105.5 16.5q50 0 80.5 -23.5t30.5 -74.5q0 -22 -12 -80l-175 -815q-7 -33 -16 -57.5t-28 -55.5t-53.5 -48t-82.5 -17q-107 0 -170 63l-90 -424h-242l91 424q-41 -30 -97.5 -46.5t-105.5 -16.5q-50 0 -80.5 23.5t-30.5 74.5 q0 22 12 80l175 815q7 33 16 57.5t28 55.5t53.5 48t82.5 17q107 0 170 -63zM516 956l-162 -768q-2 -13 5.5 -24.5t29.5 -11.5q43 0 49 36l162 768q4 18 -7.5 28.5t-25.5 10.5q-17 0 -32.5 -12.5t-18.5 -26.5zM842 956l-162 -768q-2 -13 5.5 -24.5t29.5 -11.5q43 0 49 36 l162 768q4 18 -7.5 28.5t-25.5 10.5q-17 0 -32.5 -12.5t-18.5 -26.5z" />
<glyph unicode="&#x445;" horiz-adv-x="700" d="M37 0l246 600l-2 547h260l-58 -471h11l141 471h256l-229 -547l2 -600h-250l45 510h-10l-164 -510h-248z" />
<glyph unicode="&#x446;" horiz-adv-x="735" d="M883 1147l-211 -995h71l-75 -353h-201l43 203h-113l11 49q-41 -30 -97.5 -46.5t-105.5 -16.5q-50 0 -80.5 23.5t-30.5 74.5q0 22 12 80l209 981h242l-203 -959q-2 -13 5.5 -24.5t29.5 -11.5q43 0 49 36l203 959h242z" />
<glyph unicode="&#x447;" d="M397 0l101 473q-102 -74 -203 -74q-111 0 -111 109q0 17 13 80l118 559h242l-113 -535q-4 -17 8 -27t27 -10q7 0 15.5 2t19.5 11t14 24l113 535h242l-244 -1147h-242z" />
<glyph unicode="&#x448;" horiz-adv-x="1036" d="M1208 1147l-243 -1147h-242l10 51q-89 -63 -203 -63q-83 0 -110 71q-104 -71 -215 -71q-50 0 -80.5 23.5t-30.5 74.5q0 22 12 80l209 981h242l-203 -959q-2 -13 5.5 -24.5t29.5 -11.5q43 0 49 36l203 959h242l-203 -959q-2 -13 5.5 -24.5t29.5 -11.5q43 0 49 36l203 959 h241z" />
<glyph unicode="&#x449;" horiz-adv-x="1060" d="M1208 1147l-211 -995h72l-76 -353h-198l43 203h-115l10 49q-89 -63 -203 -63q-83 0 -110 71q-104 -71 -215 -71q-50 0 -80.5 23.5t-30.5 74.5q0 22 12 80l209 981h242l-203 -959q-2 -13 5.5 -24.5t29.5 -11.5q43 0 49 36l203 959h242l-203 -959q-2 -13 5.5 -24.5 t29.5 -11.5q43 0 49 36l203 959h241z" />
<glyph unicode="&#x44a;" horiz-adv-x="813" d="M174 0l213 997h-149l30 150h391l-90 -422h133q3 0 23 0.5t27 0t26 -2.5t27 -5t22 -10t20.5 -16.5t11.5 -24.5t5 -34q0 -53 -6 -84l-80 -373q-11 -49 -31.5 -83.5t-41.5 -52t-52 -27t-52 -11.5t-52 -2h-375zM449 150h30q18 0 31 7t20.5 21t10.5 23t6 24l59 275 q18 75 -37 75h-30z" />
<glyph unicode="&#x44b;" horiz-adv-x="1038" d="M72 0l243 1147h242l-90 -422h133q4 0 20 0.5t24 0t23.5 -1.5t24.5 -3.5t22 -6.5t20.5 -11t15 -16.5t11 -23t3.5 -30.5q0 -43 -8 -84l-80 -373q-11 -49 -30.5 -83.5t-40 -52t-52 -27t-53 -11.5t-54.5 -2h-374zM346 150h31q15 0 26 5.5t17.5 12.5t12 19.5t7 19t4.5 18.5 l60 277q18 76 -37 76h-31zM725 0l244 1147h241l-243 -1147h-242z" />
<glyph unicode="&#x44c;" d="M72 0l243 1147h242l-90 -422h133q4 0 20 0.5t24 0t23.5 -1.5t24.5 -3.5t22 -6.5t20.5 -11t15 -16.5t11 -23t3.5 -30.5q0 -43 -8 -84l-80 -373q-11 -49 -30.5 -83.5t-40 -52t-52 -27t-53 -11.5t-54.5 -2h-374zM346 150h31q15 0 26 5.5t17.5 12.5t12 19.5t7 19t4.5 18.5 l60 275q18 75 -37 75h-31z" />
<glyph unicode="&#x44d;" d="M158 401h241l-47 -215q-3 -15 7 -25.5t30 -10.5q39 0 47 36l72 332h-176l30 150h177l61 290q4 19 -7.5 29t-23.5 10q-16 0 -33 -12t-20 -27l-35 -170h-241l32 156q7 35 13 54.5t22.5 52t39 50.5t63 32t94.5 14h192h31t32 -2t36 -7.5t27 -14.5t23 -25.5t7 -38.5 q0 -61 -12 -115l-158 -741q-8 -36 -14 -58t-22.5 -53t-39 -48.5t-62 -30.5t-91.5 -13h-193h-10q-26 0 -40 0.5t-37 5t-35 13.5t-22 27.5t-10 45.5q0 65 9 111z" />
<glyph unicode="&#x44e;" horiz-adv-x="1036" d="M72 0l243 1147h242l-100 -473h84l57 270q7 33 13.5 55.5t23 53t39.5 49t63 32t92 13.5h191h9q24 0 38 -0.5t37.5 -5t37 -13t24 -26.5t10.5 -43q0 -65 -11 -115l-157 -741q-7 -35 -14.5 -58t-24 -53t-39.5 -48t-62.5 -31t-91.5 -13h-190h-9q-25 0 -38.5 0.5t-37 5 t-36 13.5t-23 27.5t-10.5 45.5q0 68 8 111l68 321h-84l-111 -524h-241zM842 958l-164 -772q-3 -15 7 -25.5t30 -10.5q39 0 47 36l164 772q4 19 -7.5 29t-23.5 10q-16 0 -33 -12t-20 -27z" />
<glyph unicode="&#x44f;" horiz-adv-x="712" d="M63 0l228 446q-51 5 -73.5 36t-22.5 69q0 29 10 74l69 325q5 23 7 31t8.5 31t13.5 34t19.5 30t28.5 29t37.5 21t51 16t64.5 5h381l-244 -1147h-242l95 446h-11l-184 -446h-236zM524 584l88 413h-28q-56 0 -74 -75l-59 -275q-6 -29 7 -46t38 -17h28z" />
<glyph unicode="&#x451;" d="M483 401h242l-43 -198q-8 -36 -14 -58t-22.5 -53t-39 -48.5t-62 -30.5t-91.5 -13h-193h-10q-26 0 -40 0.5t-37 5t-35 13.5t-22 27.5t-10 45.5q0 65 9 111l157 741q7 35 13 54.5t22.5 52t39 50.5t63 32t94.5 14h192h31t32 -2t36 -7.5t27 -14.5t23 -25.5t7 -38.5 q0 -61 -12 -115l-90 -426h-326l-72 -332q-3 -15 7 -25.5t30 -10.5q39 0 47 36zM455 668h84l61 290q4 19 -7.5 29t-23.5 10q-16 0 -33 -12t-20 -27zM334 1233l43 201h241l-43 -201h-241zM659 1233l43 201h242l-43 -201h-242z" />
<glyph unicode="&#x452;" d="M72 0l266 1249h-72l25 115h71l15 70h241l-14 -70h201l-25 -115h-200l-33 -153q97 63 205 63t108 -98q0 -22 -12 -80l-246 -1151q-9 -42 -23 -74.5t-28.5 -53.5t-35.5 -36t-37.5 -22.5t-41.5 -11.5t-40 -4.5t-40 -0.5h-159l32 150h15q38 0 64 10t39 30t17.5 32.5t8.5 35.5 l227 1071q4 18 -7.5 28.5t-25.5 10.5q-17 0 -32.5 -12.5t-18.5 -26.5l-203 -956h-241z" />
<glyph unicode="&#x453;" d="M719 373l-37 -170q-8 -36 -14 -58t-22.5 -53t-39 -48.5t-62 -30.5t-91.5 -13h-193h-10q-26 0 -40 0.5t-37 5t-35 13.5t-22 27.5t-10 45.5q0 65 9 111l43 203q15 69 41 112.5t82 79.5l194 123q89 57 100 113l25 124q4 19 -7 29t-24 10q-16 0 -33 -12t-20 -27l-33 -155 h-241l30 141q7 35 13 54.5t22.5 52t39 50.5t63 32t94.5 14h192h31t32 -2t36 -7.5t27 -14.5t23 -25.5t7 -38.5q0 -61 -12 -115l-33 -158q-13 -66 -32.5 -99t-74.5 -71l-213 -145q-6 -4 -20 -13.5t-21 -14.5t-18 -15t-17 -19t-12.5 -23t-9.5 -30l-37 -170q-3 -15 7 -25.5 t30 -10.5q39 0 47 36l41 187h242zM887 1434l-244 -230h-164l156 230h252z" />
<glyph unicode="&#x454;" d="M725 401l-43 -198q-7 -35 -13 -56t-22.5 -52.5t-38.5 -49.5t-62 -31.5t-93 -13.5h-193h-10q-25 0 -39 0.5t-37.5 5t-36 13t-23 26.5t-10.5 43q0 66 11 115l157 741q8 35 14.5 58t23.5 53.5t39.5 48t62.5 30.5t92 13h192h9q25 0 38.5 -0.5t37 -5t36 -13.5t23 -27.5 t10.5 -45.5q0 -57 -10 -111l-33 -156h-242l35 170q4 19 -7.5 29t-23.5 10q-16 0 -33 -12t-20 -27l-61 -290h176l-31 -150h-176l-72 -332q-3 -15 7 -25.5t30 -10.5q39 0 47 36l47 215h242z" />
<glyph unicode="&#x455;" d="M152 373h241l-41 -187q-2 -6 2 -18q9 -18 35 -18q39 0 47 36l37 170q5 22 5.5 36.5t-5.5 26t-9.5 16.5t-18.5 17.5t-21 18.5l-152 145q-41 41 -41 74q0 57 9 96l32 158q6 34 13.5 58t24 53.5t40 48t63 31t91.5 12.5h192h9q25 0 38.5 -0.5t37 -5t36 -13.5t23 -27.5 t10.5 -45.5q0 -68 -10 -111l-31 -141h-242l33 155q4 19 -7.5 29t-23.5 10q-16 0 -33 -12t-20 -27l-24 -124q-6 -26 3.5 -50t20 -35.5t29.5 -27.5l141 -123q49 -42 49 -86q0 -57 -10 -106l-43 -203q-7 -35 -13 -56t-22.5 -52.5t-38.5 -49.5t-62 -31.5t-93 -13.5h-193h-10 q-25 0 -39 0.5t-37.5 5t-36 13t-23 26.5t-10.5 43q0 66 11 115z" />
<glyph unicode="&#x456;" horiz-adv-x="385" d="M72 0l243 1147h242l-244 -1147h-241zM334 1233l43 201h241l-43 -201h-241z" />
<glyph unicode="&#x457;" horiz-adv-x="557" d="M158 0l243 1147h242l-244 -1147h-241zM299 1233l43 201h201l-43 -201h-201zM582 1233l43 201h200l-43 -201h-200z" />
<glyph unicode="&#x458;" horiz-adv-x="385" d="M-8 -373l323 1520h242l-324 -1520h-241zM334 1233l43 201h241l-43 -201h-241z" />
<glyph unicode="&#x459;" horiz-adv-x="1062" d="M422 0l213 997h-82l-168 -788q-12 -58 -41 -100t-59.5 -62.5t-70 -32t-59.5 -13t-42 -1.5h-88l32 150h15q60 0 73 71l197 926h565l-90 -422h135q3 0 23 0.5t27 0t26 -2.5t27 -5t22 -10t20.5 -16.5t11.5 -24.5t5 -34q0 -53 -6 -84l-80 -373q-11 -49 -31.5 -83.5t-41.5 -52 t-52 -27t-52 -11.5t-52 -2h-377zM696 150h31q53 0 70 75l59 275q12 75 -39 75h-31z" />
<glyph unicode="&#x45a;" horiz-adv-x="1036" d="M397 0l123 575h-84l-123 -575h-241l243 1147h242l-90 -422h84l90 422h242l-90 -422h133q5 0 23 0.5t27 0t26.5 -1.5t27.5 -4t23 -9t20 -14t12 -21t5 -29q0 -59 -3 -72l-86 -399q-11 -49 -31.5 -83.5t-41.5 -52t-52 -27t-52 -11.5t-52 -2h-375zM672 150h30q18 0 31 7 t20.5 21t10.5 23t6 24l59 273q3 15 4 25t-0.5 24t-11.5 21t-28 7h-31z" />
<glyph unicode="&#x45b;" d="M72 0l266 1249h-72l25 115h71l15 70h241l-14 -70h201l-25 -115h-200l-33 -153q97 63 205 63t108 -98q0 -22 -12 -80l-209 -981h-242l203 956q4 18 -7.5 28.5t-25.5 10.5q-17 0 -32.5 -12.5t-18.5 -26.5l-203 -956h-241z" />
<glyph unicode="&#x45c;" horiz-adv-x="698" d="M72 0l243 1147h242l-104 -496h10l192 496h248l-239 -553l10 -594h-246l10 541h-10l-115 -541h-241zM879 1434l-244 -230h-164l156 230h252z" />
<glyph unicode="&#x45e;" d="M883 1147l-281 -1317q-8 -36 -14 -58t-22.5 -53t-39 -48.5t-62 -30.5t-91.5 -13h-193h-10q-26 0 -40 0.5t-36.5 5t-35 13.5t-22 27.5t-9.5 45.5q0 78 8 111l10 41h242l-13 -55q-3 -14 7 -26.5t28 -12.5q15 0 30 10t19 29l56 260q-43 -34 -99.5 -55t-103.5 -21 q-60 0 -86.5 30.5t-26.5 78.5q0 13 2 25.5t6.5 30t6.5 25.5l202 957h242l-199 -932q-4 -18 8.5 -28.5t26.5 -10.5q42 0 49 39l199 932h242zM403 1434h215l-14 -64q-2 -6 2 -18q11 -19 33 -19q8 0 17 2.5t19 11.5t13 23l14 64h216l-17 -78q-5 -27 -14.5 -48.5t-28.5 -43 t-52.5 -33.5t-80.5 -12h-225q-115 0 -115 61q0 7 -1 22.5t-0.5 27.5t3.5 26z" />
<glyph unicode="&#x45f;" d="M883 1147l-244 -1147h-182l-51 -244h-201l51 244h-184l243 1147h242l-211 -997h84l211 997h242z" />
<glyph unicode="&#x490;" horiz-adv-x="735" d="M84 0l305 1434h375l37 172h229l-72 -330h-317l-270 -1276h-287z" />
<glyph unicode="&#x491;" horiz-adv-x="604" d="M72 0l243 1147h301l43 201h201l-74 -351h-260l-213 -997h-241z" />
<glyph unicode="&#x2000;" horiz-adv-x="860" />
<glyph unicode="&#x2001;" horiz-adv-x="1720" />
<glyph unicode="&#x2002;" horiz-adv-x="860" />
<glyph unicode="&#x2003;" horiz-adv-x="1720" />
<glyph unicode="&#x2004;" horiz-adv-x="573" />
<glyph unicode="&#x2005;" horiz-adv-x="430" />
<glyph unicode="&#x2006;" horiz-adv-x="286" />
<glyph unicode="&#x2007;" horiz-adv-x="286" />
<glyph unicode="&#x2008;" horiz-adv-x="215" />
<glyph unicode="&#x2009;" horiz-adv-x="344" />
<glyph unicode="&#x200a;" horiz-adv-x="95" />
<glyph unicode="&#x2010;" horiz-adv-x="487" d="M184 530l43 201h344l-43 -201h-344z" />
<glyph unicode="&#x2011;" horiz-adv-x="487" d="M184 530l43 201h344l-43 -201h-344z" />
<glyph unicode="&#x2012;" horiz-adv-x="487" d="M184 530l43 201h344l-43 -201h-344z" />
<glyph unicode="&#x2013;" horiz-adv-x="983" d="M72 631v172h839v-172h-839z" />
<glyph unicode="&#x2014;" horiz-adv-x="1046" d="M190 559l31 143h903l-30 -143h-904z" />
<glyph unicode="&#x2018;" horiz-adv-x="401" d="M580 1176l-56 -258h-258l56 258q29 143 141 258h201q-138 -103 -172 -258h88z" />
<glyph unicode="&#x2019;" horiz-adv-x="401" d="M322 1176l55 258h258l-55 -258q-28 -142 -142 -258h-200q138 103 172 258h-88z" />
<glyph unicode="&#x201a;" horiz-adv-x="401" d="M72 0l55 258h258l-55 -258q-28 -142 -142 -258h-200q138 103 172 258h-88z" />
<glyph unicode="&#x201c;" horiz-adv-x="745" d="M924 1176l-56 -258h-258l56 258q29 143 141 258h201q-138 -103 -172 -258h88zM580 1176l-56 -258h-258l56 258q29 143 141 258h186q-120 -104 -157 -258h88z" />
<glyph unicode="&#x201d;" horiz-adv-x="745" d="M322 1176l55 258h258l-55 -258q-28 -142 -142 -258h-200q138 103 172 258h-88zM666 1176l55 258h258l-55 -258q-28 -142 -142 -258h-186q121 105 158 258h-88z" />
<glyph unicode="&#x201e;" horiz-adv-x="745" d="M72 0l55 258h258l-55 -258q-28 -142 -142 -258h-200q138 103 172 258h-88zM416 0l55 258h258l-55 -258q-28 -142 -142 -258h-186q121 105 158 258h-88z" />
<glyph unicode="&#x2022;" horiz-adv-x="983" d="M233 717q0 106 76.5 182t182.5 76t182 -76t76 -182t-76 -182t-182 -76t-182.5 76t-76.5 182z" />
<glyph unicode="&#x2026;" horiz-adv-x="1204" d="M72 0l55 258h258l-55 -258h-258zM473 0l55 258h258l-55 -258h-258zM874 0l56 258h258l-55 -258h-259z" />
<glyph unicode="&#x202f;" horiz-adv-x="344" />
<glyph unicode="&#x2039;" horiz-adv-x="444" d="M205 158l-8 430l192 430h201l-195 -430l11 -430h-201z" />
<glyph unicode="&#x203a;" horiz-adv-x="444" d="M489 1018l9 -430l-193 -430h-201l195 430l-10 430h200z" />
<glyph unicode="&#x205f;" horiz-adv-x="430" />
<glyph unicode="&#x20ac;" horiz-adv-x="831" d="M1059 1384l-47 -229q-47 55 -158 55q-85 0 -144 -58t-98 -187h314l-90 -185h-279q-2 -9 -6 -27.5t-6 -27.5q-9 -45 -13 -61h244l-90 -187h-176q-18 -132 16.5 -192t118.5 -60q116 0 180 54l-49 -234q-65 -45 -225 -45q-164 0 -237 115t-50 362h-131l90 187h62q4 27 12 61 q13 50 14 55h-114l90 185h78q150 469 491 469q73 0 127.5 -15t75.5 -35z" />
<glyph unicode="&#x2122;" horiz-adv-x="1097" d="M158 717v616h-86v101h313v-101h-84v-616h-143zM455 717v717h186l100 -473l99 473h186v-717h-143v405l-80 -405h-123l-82 405v-405h-143z" />
<glyph unicode="&#x25fc;" horiz-adv-x="1146" d="M0 1147h1147v-1147h-1147v1147z" />
</font>
</defs>
</svg>
