<?xml version="1.0" standalone="no"?>
<!DOCTYPE svg PUBLIC "-//W3C//DTD SVG 1.1//EN" "http://www.w3.org/Graphics/SVG/1.1/DTD/svg11.dtd" >
<svg xmlns="http://www.w3.org/2000/svg">
<metadata></metadata>
<defs>
<font id="compactcbold" horiz-adv-x="710" >
<font-face units-per-em="2048" ascent="1589" descent="-459" />
<missing-glyph horiz-adv-x="477" />
<glyph horiz-adv-x="0" />
<glyph horiz-adv-x="682" />
<glyph unicode=" "  horiz-adv-x="477" />
<glyph unicode="&#x09;" horiz-adv-x="477" />
<glyph unicode="&#xa0;" horiz-adv-x="477" />
<glyph unicode="!" horiz-adv-x="430" d="M115 373l-43 1061h286l-43 -1061h-200zM86 0v258h258v-258h-258z" />
<glyph unicode="&#x22;" horiz-adv-x="706" d="M311 1434l-69 -377h-103l-67 377h239zM635 1434l-68 -377h-102l-70 377h240z" />
<glyph unicode="#" horiz-adv-x="1075" d="M332 1001l30 175h156l-29 -175h191l31 175h155l-30 -175h143l-25 -155h-143l-45 -242h143l-24 -155h-144l-36 -191h-156l35 191h-191l-35 -191h-157l35 191h-140l25 155h139l45 242h-141l26 155h142zM420 604h188l45 242h-190z" />
<glyph unicode="$" horiz-adv-x="831" d="M84 473h287v-268q0 -25 14.5 -36t30.5 -11q20 0 32.5 14t12.5 33v223q0 32 -11.5 56.5t-24.5 37t-40 33.5l-213 162q-51 37 -69.5 81.5t-18.5 106.5v273q0 38 2.5 66t15 66.5t33.5 63t62.5 42.5t99.5 18h18v172h201v-172h19q58 0 99.5 -18t62.5 -42.5t33.5 -63t15 -66.5 t2.5 -66v-189h-287v240q0 19 -12.5 33t-32.5 14q-16 0 -30.5 -11t-14.5 -36v-207q0 -30 2 -47.5t14 -34t16.5 -20.5t30.5 -25l207 -170q55 -45 81 -88t26 -113v-268q0 -38 -2.5 -66t-15 -66.5t-33.5 -63t-62.5 -42.5t-99.5 -18h-19v-215h-201v215h-18q-58 0 -99.5 18 t-62.5 42.5t-33.5 63t-15 66.5t-2.5 66v217z" />
<glyph unicode="%" horiz-adv-x="1241" d="M190 0l660 1434h201l-660 -1434h-201zM408 831h-187h-28t-28 3t-29 8t-24 16t-22 26.5t-12.5 41t-5.5 57.5v289q0 26 1 42t9 41.5t23 40.5t44.5 26.5t71.5 11.5h187q149 0 149 -162v-291q0 -43 -11.5 -73.5t-25.5 -45t-39 -22t-37.5 -8.5t-35.5 -1zM272 1280v-295 q0 -16 12 -29.5t29 -13.5t30 13t13 30v295q0 15 -12 29t-31 14q-17 0 -29 -13.5t-12 -29.5zM1020 0h-186h-28t-28 3t-29.5 8t-24 16t-22 26.5t-13 41t-5.5 57.5v288q0 25 1.5 41.5t9.5 42t22.5 40.5t44.5 26.5t72 11.5h186q149 0 149 -162v-290q0 -43 -11.5 -73.5t-25.5 -45 t-39 -22t-37.5 -8.5t-35.5 -1zM885 449v-295q0 -16 12 -29.5t29 -13.5t30 13t13 30v295q0 15 -12 29t-31 14q-17 0 -29 -13.5t-12 -29.5z" />
<glyph unicode="&#x26;" horiz-adv-x="837" d="M791 0h-181q-28 0 -39.5 1t-36 5.5t-42 19t-31.5 37.5q-45 -37 -107.5 -62.5t-111.5 -25.5q-28 0 -52 7.5t-50 26.5t-41 59.5t-15 99.5v362v7q0 20 0.5 33.5t4 39t13.5 43.5t26 36.5t43.5 27.5t64.5 8v14q-63 -5 -107.5 41.5t-44.5 153.5v244q0 38 2.5 66t15 66.5 t33.5 63t62.5 42.5t99.5 18h180q58 0 99.5 -18t62.5 -42.5t33.5 -63t15 -66.5t2.5 -66v-86h-258v137q0 19 -12.5 33t-32.5 14q-16 0 -30.5 -11t-14.5 -36v-371q0 -47 45 -47q25 0 35 14.5t10 32.5v90h258v-131h101v-158h-101v-417q0 -29 11 -48t28.5 -26t27 -8.5t19.5 -1.5 h15v-158zM432 182v477q-31 -3 -51 -15.5t-27.5 -29t-9.5 -27t-2 -20.5v-385q0 -26 14.5 -37.5t30.5 -11.5q20 0 32.5 14t12.5 35z" />
<glyph unicode="'" horiz-adv-x="382" d="M311 1434l-69 -377h-103l-67 377h239z" />
<glyph unicode="(" horiz-adv-x="389" d="M272 1235v-1409q0 -32 20 -52t50 -18v-129q-32 0 -61 3t-69.5 15t-69.5 32t-49.5 58t-20.5 89v1413q0 51 20.5 89t49.5 58t69.5 32t69.5 15t61 3v-129q-30 2 -50 -18t-20 -52z" />
<glyph unicode=")" horiz-adv-x="389" d="M117 -174v1409q0 38 -21.5 54t-48.5 16v129q38 0 72.5 -4.5t72 -17.5t64 -34t44 -57t17.5 -84v-1413q0 -48 -17.5 -84t-44 -57t-64 -34t-72 -17.5t-72.5 -4.5v129q27 0 48.5 16t21.5 54z" />
<glyph unicode="*" horiz-adv-x="821" d="M100 1141l58 174l164 -53v172h180v-172l164 53l55 -174l-164 -51l102 -142l-147 -104l-100 139l-101 -139l-149 104l104 142z" />
<glyph unicode="+" horiz-adv-x="983" d="M72 631v172h334v334h172v-334h333v-172h-333v-334h-172v334h-334z" />
<glyph unicode="," horiz-adv-x="401" d="M72 0v258h258v-258q0 -139 -86 -258h-201q55 48 86.5 114.5t30.5 143.5h-88z" />
<glyph unicode="-" horiz-adv-x="487" d="M72 530v201h344v-201h-344z" />
<glyph unicode="." horiz-adv-x="401" d="M72 0v258h258v-258h-258z" />
<glyph unicode="/" horiz-adv-x="518" d="M172 -373h-172l346 1807h172z" />
<glyph unicode="0" horiz-adv-x="831" d="M84 256v922q0 38 2.5 66t15 66.5t33.5 63t62.5 42.5t99.5 18h238q58 0 99.5 -18t62.5 -42.5t33.5 -63t15 -66.5t2.5 -66v-922q0 -38 -2.5 -66t-15 -66.5t-33.5 -63t-62.5 -42.5t-99.5 -18h-238q-58 0 -99.5 18t-62.5 42.5t-33.5 63t-15 66.5t-2.5 66zM461 205v1024 q0 25 -14.5 36t-30.5 11t-30.5 -11t-14.5 -36v-1024q0 -25 14.5 -36t30.5 -11t30.5 11t14.5 36z" />
<glyph unicode="1" horiz-adv-x="831" d="M330 0v1096q-24 -20 -52 -31t-88 -27v213q70 6 120 57t61 126h245v-1434h-286z" />
<glyph unicode="2" horiz-adv-x="831" d="M84 0v164q0 127 48.5 224t172.5 249q94 115 125 186.5t31 157.5v248q0 25 -14.5 36t-30.5 11t-30.5 -11t-14.5 -36v-225h-287v174q0 38 2.5 66t15 66.5t33.5 63t62.5 42.5t99.5 18h238q58 0 99.5 -18t62.5 -42.5t33.5 -63t15 -66.5t2.5 -66v-197q0 -53 -4.5 -96 t-18.5 -83t-23 -64t-35.5 -63t-37.5 -53.5t-47 -60.5q-135 -170 -176 -246t-35 -157h377v-158h-664z" />
<glyph unicode="3" horiz-adv-x="831" d="M84 459h287v-254q0 -25 14.5 -36t30.5 -11t30.5 11t14.5 36v375q0 20 -3.5 34t-14 29t-35 23t-62.5 8h-43v157h47q40 0 64 8t33.5 26t11.5 32t2 41v291q0 25 -14.5 36t-30.5 11t-30.5 -11t-14.5 -36v-225h-287v174q0 38 2.5 66t15 66.5t33.5 63t62.5 42.5t99.5 18h238 q58 0 99.5 -18t62.5 -42.5t33.5 -63t15 -66.5t2.5 -66v-215q0 -62 -21 -105t-54.5 -61t-62.5 -24.5t-57 -4.5v-14q195 4 195 -195v-303q0 -38 -2.5 -66t-15 -66.5t-33.5 -63t-62.5 -42.5t-99.5 -18h-238q-58 0 -99.5 18t-62.5 42.5t-33.5 63t-15 66.5t-2.5 66v203z" />
<glyph unicode="4" horiz-adv-x="831" d="M430 0v344h-401v170l254 920h434v-932h86v-158h-86v-344h-287zM272 502h158v645h-10z" />
<glyph unicode="5" horiz-adv-x="833" d="M84 1434h666v-158h-379v-330q60 43 111 64.5t108 21.5q41 0 72 -13.5t47 -32t26 -44.5t12.5 -45t2.5 -39v-602q0 -38 -2.5 -66t-15 -66.5t-33.5 -63t-62.5 -42.5t-99.5 -18h-238q-58 0 -100 18t-63.5 42.5t-34 63t-15 66.5t-2.5 66v203h287v-254q0 -25 15.5 -36t31.5 -11 t30.5 11t14.5 36v608q0 25 -14.5 36t-30.5 11t-31.5 -11t-15.5 -36v-96h-287v717z" />
<glyph unicode="6" horiz-adv-x="831" d="M461 1004v225q0 25 -14.5 36t-30.5 11t-30.5 -11t-14.5 -36v-426q112 86 219 86q41 0 71.5 -13.5t46.5 -32t25.5 -44.5t12 -45t2.5 -39v-459q0 -38 -2.5 -66t-15 -66.5t-33.5 -63t-62.5 -42.5t-99.5 -18h-238q-58 0 -99.5 18t-62.5 42.5t-33.5 63t-15 66.5t-2.5 66v922 q0 38 2.5 66t15 66.5t33.5 63t62.5 42.5t99.5 18h238q58 0 99.5 -18t62.5 -42.5t33.5 -63t15 -66.5t2.5 -66v-174h-287zM461 205v465q0 27 -14.5 37t-30.5 10q-9 0 -18 -3t-18 -14t-9 -30v-465q0 -25 14.5 -36t30.5 -11t30.5 11t14.5 36z" />
<glyph unicode="7" horiz-adv-x="831" d="M186 0l287 1276h-401v158h688v-158l-287 -1276h-287z" />
<glyph unicode="8" horiz-adv-x="831" d="M535 0h-238q-58 0 -99.5 18t-62.5 42.5t-33.5 63t-15 66.5t-2.5 66v303q0 199 195 195v14q-28 -2 -57 4.5t-62.5 24.5t-54.5 61t-21 105v215q0 38 2.5 66t15 66.5t33.5 63t62.5 42.5t99.5 18h238q58 0 99.5 -18t62.5 -42.5t33.5 -63t15 -66.5t2.5 -66v-215 q0 -62 -21 -105t-54.5 -61t-62.5 -24.5t-57 -4.5v-14q195 4 195 -195v-303q0 -38 -2.5 -66t-15 -66.5t-33.5 -63t-62.5 -42.5t-99.5 -18zM371 1229v-350q0 -25 14.5 -36.5t30.5 -11.5t30.5 11.5t14.5 36.5v350q0 25 -14.5 36t-30.5 11t-30.5 -11t-14.5 -36zM461 205v422 q0 25 -14.5 36t-30.5 11t-30.5 -11t-14.5 -36v-422q0 -25 14.5 -36t30.5 -11t30.5 11t14.5 36z" />
<glyph unicode="9" horiz-adv-x="831" d="M84 459h287v-254q0 -25 14.5 -36t30.5 -11t30.5 11t14.5 36v454q-112 -86 -219 -86q-41 0 -71.5 13.5t-46.5 32.5t-25.5 45t-12 45t-2.5 39v430q0 38 2.5 66t15 66.5t33.5 63t62.5 42.5t99.5 18h238q58 0 99.5 -18t62.5 -42.5t33.5 -63t15 -66.5t2.5 -66v-922 q0 -38 -2.5 -66t-15 -66.5t-33.5 -63t-62.5 -42.5t-99.5 -18h-238q-58 0 -99.5 18t-62.5 42.5t-33.5 63t-15 66.5t-2.5 66v203zM371 1229v-436q0 -27 14.5 -37.5t30.5 -10.5t30.5 10.5t14.5 37.5v436q0 25 -14.5 36t-30.5 11t-30.5 -11t-14.5 -36z" />
<glyph unicode=":" horiz-adv-x="401" d="M72 889v258h258v-258h-258zM72 0v258h258v-258h-258z" />
<glyph unicode=";" horiz-adv-x="401" d="M72 889v258h258v-258h-258zM72 0v258h258v-258q0 -139 -86 -258h-201q55 48 86.5 114.5t30.5 143.5h-88z" />
<glyph unicode="&#x3c;" horiz-adv-x="983" d="M254 717l657 -281v-178l-839 373v172l839 373v-179z" />
<glyph unicode="=" horiz-adv-x="983" d="M72 803v172h839v-172h-839zM72 459v172h839v-172h-839z" />
<glyph unicode="&#x3e;" horiz-adv-x="983" d="M729 717l-657 280v179l839 -373v-172l-839 -373v178z" />
<glyph unicode="?" horiz-adv-x="749" d="M246 373v127q0 92 47 186q14 28 42.5 76t43.5 76.5t28 73t13 89.5v228q0 25 -14.5 36t-30.5 11t-30.5 -11t-14.5 -36v-225h-258v174q0 38 2.5 66t15 66.5t33.5 63t62.5 42.5t99.5 18h180q58 0 99.5 -18t62.5 -42.5t33.5 -63t15 -66.5t2.5 -66v-168q0 -58 -9.5 -101.5 t-39.5 -103.5q-12 -25 -52 -95t-56.5 -116t-16.5 -96v-125h-258zM246 0v258h258v-258h-258z" />
<glyph unicode="@" horiz-adv-x="1234" d="M1163 0h-827q-24 0 -41.5 1t-47 6.5t-51 15t-46.5 29.5t-41 47t-26.5 69.5t-10.5 95.5v905q0 53 10.5 95.5t26.5 70t41 47t46.5 29.5t51 15.5t47 6.5t41.5 1h563q39 0 68.5 -3.5t68.5 -18.5t64.5 -42t44 -78.5t18.5 -122.5v-604q0 -77 -17.5 -132.5t-43 -85.5t-65.5 -47 t-74 -21.5t-80 -4.5q-170 0 -217 111q-47 -111 -164 -111q-133 0 -133 150v539q0 29 1 46.5t5 46t13.5 46t25 36t42.5 27.5t62 9q40 0 76.5 -30.5t58.5 -74.5v78h201v-651q0 -29 18.5 -53.5t49.5 -24.5q41 0 55 31t14 83v576q0 43 -1.5 66.5t-7.5 47t-17 34t-32 20t-49.5 12 t-72.5 2.5h-391q-77 0 -100 -7q-63 -20 -76 -120q-4 -31 -4 -69v-754q0 -41 5 -73t12 -52.5t21.5 -35t25.5 -21.5t32.5 -10.5t34 -4t39.5 -0.5h10h743v-143zM569 961v-461q0 -56 41 -56q43 0 43 56v461q0 57 -43 57q-41 0 -41 -57z" />
<glyph unicode="A" horiz-adv-x="843" d="M47 0l150 1434h450l150 -1434h-281l-27 381h-135l-26 -381h-281zM365 539h114l-49 718h-16z" />
<glyph unicode="B" horiz-adv-x="831" d="M84 0v1434h451q58 0 99.5 -18t62.5 -42.5t33.5 -63t15 -66.5t2.5 -66v-230q0 -56 -18 -96.5t-47.5 -61t-62 -29.5t-67.5 -7v-15q55 1 94 -14.5t58 -36t29.5 -52.5t12 -50t1.5 -41v-289q0 -38 -2.5 -66t-15 -66.5t-33.5 -63t-62.5 -42.5t-99.5 -18h-451zM371 158h37 q24 0 38.5 19t14.5 52v359q0 33 -14.5 52t-38.5 19h-37v-501zM371 817h37q24 0 38.5 19.5t14.5 52.5v315q0 33 -14.5 52.5t-38.5 19.5h-37v-459z" />
<glyph unicode="C" horiz-adv-x="831" d="M748 502v-246q0 -38 -2.5 -66t-15 -66.5t-33.5 -63t-62.5 -42.5t-99.5 -18h-238q-58 0 -99.5 18t-62.5 42.5t-33.5 63t-15 66.5t-2.5 66v922q0 38 2.5 66t15 66.5t33.5 63t62.5 42.5t99.5 18h238q58 0 99.5 -18t62.5 -42.5t33.5 -63t15 -66.5t2.5 -66v-203h-287v254 q0 19 -12.5 33t-32.5 14q-16 0 -30.5 -11t-14.5 -36v-1024q0 -25 14.5 -36t30.5 -11q20 0 32.5 14t12.5 33v297h287z" />
<glyph unicode="D" horiz-adv-x="831" d="M84 0v1434h451q58 0 99.5 -18t62.5 -42.5t33.5 -63t15 -66.5t2.5 -66v-922q0 -38 -2.5 -66t-15 -66.5t-33.5 -63t-62.5 -42.5t-99.5 -18h-451zM371 158h37q24 0 38.5 19t14.5 52v975q0 33 -14.5 52.5t-38.5 19.5h-37v-1118z" />
<glyph unicode="E" horiz-adv-x="724" d="M84 0v1434h582v-158h-295v-445h295v-157h-295v-516h307v-158h-594z" />
<glyph unicode="F" horiz-adv-x="675" d="M84 0v1434h545v-158h-258v-473h239v-158h-239v-645h-287z" />
<glyph unicode="G" horiz-adv-x="831" d="M748 702v-446q0 -38 -2.5 -66t-15 -66.5t-33.5 -63t-62.5 -42.5t-99.5 -18h-238q-58 0 -99.5 18t-62.5 42.5t-33.5 63t-15 66.5t-2.5 66v922q0 38 2.5 66t15 66.5t33.5 63t62.5 42.5t99.5 18h238q58 0 99.5 -18t62.5 -42.5t33.5 -63t15 -66.5t2.5 -66v-203h-287v254 q0 19 -12.5 33t-32.5 14q-16 0 -30.5 -11t-14.5 -36v-1024q0 -25 14.5 -36t30.5 -11q20 0 32.5 14t12.5 33v340h-43v157h330z" />
<glyph unicode="H" horiz-adv-x="831" d="M84 0v1434h287v-603h90v603h287v-1434h-287v674h-90v-674h-287z" />
<glyph unicode="I" horiz-adv-x="454" d="M84 0v1434h287v-1434h-287z" />
<glyph unicode="J" horiz-adv-x="497" d="M47 0v158h29q20 0 35.5 16t15.5 55v1205h287v-1178q0 -38 -2.5 -66t-14.5 -66.5t-33 -63t-63 -42.5t-100 -18h-154z" />
<glyph unicode="K" horiz-adv-x="837" d="M84 0v1434h287v-617h10l94 617h287l-146 -689l175 -745h-287l-123 659h-10v-659h-287z" />
<glyph unicode="L" horiz-adv-x="675" d="M84 0v1434h287v-1276h258v-158h-545z" />
<glyph unicode="M" horiz-adv-x="1286" d="M643 426l186 1008h373v-1434h-287v899h-10l-147 -899h-230l-147 899h-10v-899h-287v1434h373z" />
<glyph unicode="N" horiz-adv-x="874" d="M84 0v1434h287l123 -691h10v691h287v-1434h-287l-123 690h-10v-690h-287z" />
<glyph unicode="O" horiz-adv-x="831" d="M84 256v922q0 38 2.5 66t15 66.5t33.5 63t62.5 42.5t99.5 18h238q58 0 99.5 -18t62.5 -42.5t33.5 -63t15 -66.5t2.5 -66v-922q0 -38 -2.5 -66t-15 -66.5t-33.5 -63t-62.5 -42.5t-99.5 -18h-238q-58 0 -99.5 18t-62.5 42.5t-33.5 63t-15 66.5t-2.5 66zM461 205v1024 q0 19 -12.5 33t-32.5 14q-16 0 -30.5 -11t-14.5 -36v-1024q0 -25 14.5 -36t30.5 -11q20 0 32.5 14t12.5 33z" />
<glyph unicode="P" horiz-adv-x="819" d="M84 0v1434h451q58 0 99.5 -18t62.5 -42.5t33.5 -63t15 -66.5t2.5 -66v-435q0 -38 -2.5 -66t-15 -66.5t-33.5 -63t-62.5 -42.5t-99.5 -18h-164v-487h-287zM371 645h37q24 0 38.5 19.5t14.5 52.5v487q0 33 -14.5 52.5t-38.5 19.5h-37v-631z" />
<glyph unicode="Q" horiz-adv-x="831" d="M297 -258v258q-57 -3 -99 15.5t-63 45t-33.5 66.5t-15 67.5t-2.5 61.5v922q0 38 2.5 66t15 66.5t33.5 63t62.5 42.5t99.5 18h238q58 0 99.5 -18t62.5 -42.5t33.5 -63t15 -66.5t2.5 -66v-922q0 -34 -2.5 -61.5t-15 -67.5t-33.5 -66.5t-63 -45t-99 -15.5v-258h-238z M461 205v1024q0 19 -12.5 33t-32.5 14q-16 0 -30.5 -11t-14.5 -36v-1024q0 -25 14.5 -36t30.5 -11q20 0 32.5 14t12.5 33z" />
<glyph unicode="R" horiz-adv-x="831" d="M784 0h-295l-98 530h-20v-530h-287v1434h451q58 0 99.5 -18t62.5 -42.5t33.5 -63t15 -66.5t2.5 -66v-445q0 -132 -105 -174zM371 688h37q24 0 38.5 19.5t14.5 52.5v444q0 33 -14.5 52.5t-38.5 19.5h-37v-588z" />
<glyph unicode="S" horiz-adv-x="831" d="M84 473h287v-268q0 -25 14.5 -36t30.5 -11q20 0 32.5 14t12.5 33v223q0 32 -11.5 56.5t-24.5 37t-40 33.5l-213 162q-51 37 -69.5 81.5t-18.5 106.5v273q0 38 2.5 66t15 66.5t33.5 63t62.5 42.5t99.5 18h238q58 0 99.5 -18t62.5 -42.5t33.5 -63t15 -66.5t2.5 -66v-189 h-287v240q0 19 -12.5 33t-32.5 14q-16 0 -30.5 -11t-14.5 -36v-207q0 -30 2 -47.5t14 -34t16.5 -20.5t30.5 -25l207 -170q55 -45 81 -88t26 -113v-268q0 -38 -2.5 -66t-15 -66.5t-33.5 -63t-62.5 -42.5t-99.5 -18h-238q-58 0 -99.5 18t-62.5 42.5t-33.5 63t-15 66.5t-2.5 66 v217z" />
<glyph unicode="T" horiz-adv-x="724" d="M219 0v1276h-172v158h631v-158h-172v-1276h-287z" />
<glyph unicode="U" horiz-adv-x="831" d="M84 1434h287v-1229q0 -25 14.5 -36t30.5 -11q20 0 32.5 14t12.5 33v1229h287v-1178q0 -38 -2.5 -66t-15 -66.5t-33.5 -63t-62.5 -42.5t-99.5 -18h-238q-58 0 -99.5 18t-62.5 42.5t-33.5 63t-15 66.5t-2.5 66v1178z" />
<glyph unicode="V" horiz-adv-x="843" d="M231 0l-184 1434h291l78 -1057h12l78 1057h291l-185 -1434h-381z" />
<glyph unicode="W" horiz-adv-x="1374" d="M680 975l-76 -975h-377l-180 1434h295l74 -1049h10l86 1049h350l86 -1049h10l74 1049h295l-180 -1434h-377l-76 975h-14z" />
<glyph unicode="X" horiz-adv-x="829" d="M47 0l148 731l-140 703h291l64 -502h10l63 502h291l-139 -703l147 -731h-293l-69 516h-10l-70 -516h-293z" />
<glyph unicode="Y" horiz-adv-x="835" d="M274 0v387l-227 1047h303l62 -545h12l61 545h303l-227 -1047v-387h-287z" />
<glyph unicode="Z" horiz-adv-x="679" d="M47 0v180l275 1096h-246v158h540v-179l-274 -1097h291v-158h-586z" />
<glyph unicode="[" horiz-adv-x="487" d="M72 -373v1807h344v-150h-121v-1507h121v-150h-344z" />
<glyph unicode="\" horiz-adv-x="518" d="M346 -373l-346 1807h172l346 -1807h-172z" />
<glyph unicode="]" horiz-adv-x="487" d="M416 1434v-1807h-344v150h121v1507h-121v150h344z" />
<glyph unicode="^" horiz-adv-x="952" d="M475 1307l-217 -303h-186l313 430h182l314 -430h-187z" />
<glyph unicode="_" horiz-adv-x="899" d="M0 -201h899v-172h-899v172z" />
<glyph unicode="`" horiz-adv-x="503" d="M72 1434h252l108 -230h-166z" />
<glyph unicode="a" d="M72 782v162q0 56 13 96.5t30 60.5t46 31t49 13t50 2h193q52 0 88.5 -13t55 -31t28.5 -48.5t12 -53t2 -57.5v-944h-242v51q-36 -30 -86.5 -46.5t-99.5 -16.5q-38 0 -65.5 12.5t-41 30t-21.5 44.5t-9.5 46t-1.5 45v291q0 63 40.5 98.5t145.5 83.5q41 20 58 29t40.5 28 t32 42.5t8.5 56.5v163q0 19 -14 29t-27 10q-16 0 -29.5 -11.5t-13.5 -27.5v-176h-241zM397 188v373q-38 -12 -58 -32t-23 -35t-3 -39v-267q0 -13 11 -24.5t32 -11.5q41 0 41 36z" />
<glyph unicode="b" d="M313 1434v-338q83 63 189 63q29 0 52.5 -8.5t37.5 -19t24 -30.5t14.5 -31.5t6.5 -36t2 -29v-23.5v-815q0 -89 -29 -130q-34 -48 -108 -48q-106 0 -189 63v-51h-241v1434h241zM313 956v-768q0 -13 11 -24.5t32 -11.5q41 0 41 36v768q0 19 -14 29t-27 10q-16 0 -29.5 -11.5 t-13.5 -27.5z" />
<glyph unicode="c" d="M397 401h242v-198q0 -35 -2 -57.5t-12 -53t-28.5 -48.5t-55 -31t-88.5 -13h-193q-30 0 -50 2t-49 13t-46 31t-30 60.5t-13 96.5v741q0 56 13 96.5t30 60.5t46 31t49 13t50 2h193q52 0 88.5 -13t55 -31t28.5 -48.5t12 -53t2 -57.5v-156h-242v170q0 19 -14 29t-27 10 q-16 0 -29.5 -11.5t-13.5 -27.5v-772q0 -13 11 -24.5t32 -11.5q41 0 41 36v215z" />
<glyph unicode="d" d="M639 1434v-1434h-242v51q-36 -30 -86.5 -46.5t-99.5 -16.5q-38 0 -65.5 12.5t-41 30t-21.5 44.5t-9.5 46t-1.5 45v815q0 26 1.5 45t9.5 46t21.5 44.5t41 30t65.5 12.5q49 0 99.5 -16.5t86.5 -46.5v338h242zM397 188v768q0 19 -14 29t-27 10q-16 0 -29.5 -11.5 t-13.5 -27.5v-768q0 -13 11 -24.5t32 -11.5q41 0 41 36z" />
<glyph unicode="e" d="M397 401h242v-198q0 -35 -2 -57.5t-12 -53t-28.5 -48.5t-55 -31t-88.5 -13h-193q-30 0 -50 2t-49 13t-46 31t-30 60.5t-13 96.5v741q0 56 13 96.5t30 60.5t46 31t49 13t50 2h193q52 0 88.5 -13t55 -31t28.5 -48.5t12 -53t2 -57.5v-426h-326v-332q0 -13 11 -24.5t32 -11.5 q41 0 41 36v215zM313 668h84v290q0 19 -14 29t-27 10q-16 0 -29.5 -11.5t-13.5 -27.5v-290z" />
<glyph unicode="f" horiz-adv-x="516" d="M131 0v997h-106v150h106v84q0 32 2 53.5t13.5 52.5t32 50t62 33t99.5 14h152v-150h-17q-102 0 -102 -92v-45h119v-150h-119v-997h-242z" />
<glyph unicode="g" d="M72 -129h241v-55q0 -16 13.5 -27.5t29.5 -11.5q13 0 27 10t14 29v260q-37 -34 -87 -55t-99 -21q-40 0 -68 15t-41.5 33.5t-21 48.5t-8 45.5t-0.5 40.5v7v791q0 26 1.5 45t9.5 46t21.5 44.5t41 30t65.5 12.5q49 0 99.5 -16.5t86.5 -46.5v51h242v-1317q0 -35 -2 -57.5 t-12 -53t-28.5 -48.5t-55 -31t-88.5 -13h-193q-30 0 -50 2t-49 13t-46 31t-30 60.5t-13 96.5v41zM313 956v-741q0 -18 14 -28.5t29 -10.5q14 0 27.5 8.5t13.5 30.5v741q0 19 -14 29t-27 10q-16 0 -29.5 -11.5t-13.5 -27.5z" />
<glyph unicode="h" d="M72 0v1434h241v-338q83 63 189 63q29 0 52.5 -8.5t37.5 -19t24 -30.5t14.5 -31.5t6.5 -36t2 -29v-23.5v-981h-242v956q0 19 -14 29t-27 10q-16 0 -29.5 -11.5t-13.5 -27.5v-956h-241z" />
<glyph unicode="i" horiz-adv-x="385" d="M72 0v1147h241v-1147h-241zM72 1233v201h241v-201h-241z" />
<glyph unicode="j" horiz-adv-x="385" d="M72 -373v1520h241v-1520h-241zM72 1233v201h241v-201h-241z" />
<glyph unicode="k" horiz-adv-x="698" d="M72 0v1434h241v-783h11l88 496h247l-122 -553l137 -594h-246l-104 541h-11v-541h-241z" />
<glyph unicode="l" horiz-adv-x="385" d="M72 0v1434h241v-1434h-241z" />
<glyph unicode="m" horiz-adv-x="1036" d="M72 0v1147h241v-51q83 63 189 63q17 0 36.5 -4t47 -21.5t45.5 -46.5q93 72 194 72q140 0 140 -178v-981h-242v956q0 19 -14 29t-27 10q-16 0 -29.5 -11.5t-13.5 -27.5v-956h-242v956q0 19 -14 29t-27 10q-16 0 -29.5 -11.5t-13.5 -27.5v-956h-241z" />
<glyph unicode="n" d="M72 0v1147h241v-51q83 63 189 63q29 0 52.5 -8.5t37.5 -19t24 -30.5t14.5 -31.5t6.5 -36t2 -29v-23.5v-981h-242v956q0 19 -14 29t-27 10q-16 0 -29.5 -11.5t-13.5 -27.5v-956h-241z" />
<glyph unicode="o" d="M72 203v741q0 56 13 96.5t30 60.5t46 31t49 13t50 2h193q52 0 88.5 -13t55 -31t28.5 -48.5t12 -53t2 -57.5v-741q0 -35 -2 -57.5t-12 -53t-28.5 -48.5t-55 -31t-88.5 -13h-193q-30 0 -50 2t-49 13t-46 31t-30 60.5t-13 96.5zM313 958v-772q0 -13 11 -24.5t32 -11.5 q41 0 41 36v772q0 19 -14 29t-27 10q-16 0 -29.5 -11.5t-13.5 -27.5z" />
<glyph unicode="p" d="M72 -373v1520h241v-51q83 63 189 63q29 0 52.5 -8.5t37.5 -19t24 -30.5t14.5 -31.5t6.5 -36t2 -29v-23.5v-815q0 -89 -29 -130q-34 -48 -108 -48q-106 0 -189 63v-424h-241zM313 956v-768q0 -13 11 -24.5t32 -11.5q41 0 41 36v768q0 19 -14 29t-27 10q-16 0 -29.5 -11.5 t-13.5 -27.5z" />
<glyph unicode="q" d="M639 1147v-1520h-242v424q-36 -30 -86.5 -46.5t-99.5 -16.5q-38 0 -65.5 12.5t-41 30t-21.5 44.5t-9.5 46t-1.5 45v815q0 26 1.5 45t9.5 46t21.5 44.5t41 30t65.5 12.5q49 0 99.5 -16.5t86.5 -46.5v51h242zM397 188v768q0 19 -14 29t-27 10q-16 0 -29.5 -11.5 t-13.5 -27.5v-768q0 -13 11 -24.5t32 -11.5q41 0 41 36z" />
<glyph unicode="r" horiz-adv-x="686" d="M72 1147h241v-51q83 63 189 63q29 0 52.5 -8.5t37.5 -19t24 -30.5t14.5 -31.5t6.5 -36t2 -29v-23.5v-236h-242v211q0 19 -14 29t-27 10q-16 0 -29.5 -11.5t-13.5 -27.5v-956h-241v1147z" />
<glyph unicode="s" d="M72 373h241v-187q0 -13 11 -24.5t32 -11.5q41 0 41 36v170q0 22 -2.5 36.5t-11.5 26.5t-13 17t-22 17.5t-24 17.5l-183 145q-32 25 -48 55t-18.5 51.5t-2.5 63.5v158q0 42 7 75.5t17 54.5t28 36t31.5 22t36.5 10.5t34.5 4t33.5 0.5h193q21 0 34 -0.5t35 -4.5t36 -11.5 t31 -22.5t26.5 -36t16.5 -53.5t7 -74.5v-141h-242v155q0 19 -14 29t-27 10q-16 0 -29.5 -11.5t-13.5 -27.5v-124q0 -59 78 -113l168 -123q23 -16 39 -36t24 -36t12 -40t4.5 -38.5t0.5 -41.5v-203q0 -42 -7 -74.5t-16.5 -53.5t-26.5 -36t-31 -22.5t-36 -11.5t-35 -4.5 t-34 -0.5h-193q-22 0 -33.5 0.5t-34.5 4t-36.5 10.5t-31.5 22t-28 36t-17 54.5t-7 75.5v170z" />
<glyph unicode="t" horiz-adv-x="509" d="M25 997v150h96v287h241v-287h123v-150h-123v-741q0 -19 0.5 -29t6.5 -27t16.5 -26t32.5 -16.5t53 -7.5h14v-150h-161q-24 0 -35 0.5t-37 4t-40 10.5t-34 21.5t-30.5 35.5t-18.5 54.5t-8 76.5v794h-96z" />
<glyph unicode="u" d="M639 1147v-1147h-242v51q-36 -30 -86.5 -46.5t-99.5 -16.5q-38 0 -65.5 12.5t-41 30t-21.5 44.5t-9.5 46t-1.5 45v981h241v-959q0 -13 11 -24.5t32 -11.5q41 0 41 36v959h242z" />
<glyph unicode="v" horiz-adv-x="655" d="M176 0l-151 1147h249l50 -731h8l49 731h250l-152 -1147h-303z" />
<glyph unicode="w" horiz-adv-x="1114" d="M190 0l-165 1147h258l53 -705h10l100 705h222l100 -707h10l53 707h259l-166 -1147h-258l-109 629l-108 -629h-259z" />
<glyph unicode="x" horiz-adv-x="702" d="M162 600l-123 547h248l59 -457h12l60 457h248l-125 -547l125 -600h-248l-62 510h-10l-61 -510h-248z" />
<glyph unicode="y" d="M639 1147v-1317q0 -35 -2 -57.5t-12 -53t-28.5 -48.5t-55 -31t-88.5 -13h-193q-30 0 -50 2t-49 13t-46 31t-30 60.5t-13 96.5v41h241v-55q0 -16 13.5 -27.5t29.5 -11.5q13 0 27 10t14 29v260q-37 -34 -87 -55t-99 -21q-40 0 -68 15t-41.5 33.5t-21 48.5t-8 45.5 t-0.5 40.5v7v957h241v-932q0 -18 14 -28.5t29 -10.5q14 0 27.5 8.5t13.5 30.5v932h242z" />
<glyph unicode="z" horiz-adv-x="577" d="M37 0v170l239 827h-225v150h477v-170l-227 -827h240v-150h-504z" />
<glyph unicode="{" horiz-adv-x="561" d="M307 530q30 -7 48.5 -23.5t26 -44.5t9.5 -50.5t2 -61.5v-428q0 -23 0.5 -37t2.5 -33t6.5 -30t12.5 -22t20.5 -16.5t29.5 -6.5v-150h-47q-24 0 -49 3t-64 17t-68.5 36.5t-51 67t-21.5 104.5v477q0 25 -0.5 39.5t-4.5 33.5t-10.5 29t-20 16.5t-32.5 4.5v151q19 -2 32.5 4.5 t20 16.5t10.5 29t4.5 33.5t0.5 39.5v477q0 60 21.5 104.5t51 67t68.5 36.5t64 17t49 3h47v-150q-17 -1 -29.5 -6.5t-20.5 -16.5t-12.5 -22t-6.5 -30t-2.5 -33t-0.5 -37v-428q0 -39 -2 -61.5t-9.5 -51t-26 -45t-48.5 -23.5z" />
<glyph unicode="|" horiz-adv-x="364" d="M96 -459v2157h172v-2157h-172z" />
<glyph unicode="}" horiz-adv-x="561" d="M252 530q-24 7 -40.5 20.5t-25 28t-12.5 39.5t-5 43t-1 50v428q0 30 -0.5 46t-4.5 37t-11.5 32t-21.5 19.5t-34 10.5v150h47q24 0 49 -3t64 -17t68.5 -36.5t51 -67t21.5 -104.5v-477v-34t2 -28.5t6 -27.5t11 -18.5t19.5 -13t29.5 -1.5v-151q-20 2 -34 -5t-20.5 -15 t-9.5 -29.5t-3.5 -33t-0.5 -40.5v-477q0 -60 -21.5 -104.5t-51 -67t-68.5 -36.5t-64 -17t-49 -3h-47v150q20 2 34 10.5t21.5 19.5t11.5 32t4.5 37t0.5 46v428q0 40 2 62t9 49.5t25.5 44t47.5 24.5z" />
<glyph unicode="~" horiz-adv-x="1032" d="M96 573v201q59 48 128 81.5t128 33.5q37 0 73 -12.5t55 -24.5t50 -35q30 -21 49.5 -33.5t56.5 -25.5t73 -13q101 0 227 115v-201q-143 -114 -256 -114q-37 0 -73 12.5t-55.5 24.5t-49.5 34t-49.5 34t-56 25t-72.5 13q-102 0 -228 -115z" />
<glyph unicode="&#xa9;" horiz-adv-x="1230" d="M895 0h-559q-24 0 -41.5 1t-47 6.5t-51 15t-46.5 29.5t-41 47t-26.5 69.5t-10.5 95.5v905q0 53 10.5 95.5t26.5 70t41 47t46.5 29.5t51 15.5t47 6.5t41.5 1h559q24 0 41.5 -1t47 -6.5t51 -15.5t46.5 -29.5t41 -47t26.5 -70t10.5 -95.5v-905q0 -53 -10.5 -95.5 t-26.5 -69.5t-41 -47t-46.5 -29.5t-51 -15t-47 -6.5t-41.5 -1zM424 143h383h10q26 0 39 0.5t34.5 4t32.5 10.5t25.5 21.5t21.5 35t12 52.5t5 73v754q0 32 -2.5 58.5t-7.5 46t-12.5 34.5t-16.5 24.5t-20 16t-23 9.5t-25.5 5t-27.5 2h-29h-16h-383q-77 0 -100 -7 q-63 -20 -76 -120q-4 -31 -4 -69v-754q0 -41 5 -73t12 -52.5t21.5 -35t25.5 -21.5t32.5 -10.5t34 -4t39.5 -0.5h10zM657 668h201v-199q0 -42 -7 -75.5t-17 -54.5t-28 -36t-31.5 -22t-36.5 -10.5t-34.5 -4t-33.5 -0.5h-109q-30 0 -50 2t-49 13t-46 31t-30 60.5t-13 96.5v496 q0 31 1.5 51.5t12 52.5t29 51t55.5 34t90 15h109q52 0 88.5 -13.5t55.5 -32t29.5 -49.5t12.5 -53.5t2 -55.5v-154h-201v172q0 16 -14 26.5t-29 10.5t-28 -11t-13 -26v-530q0 -15 13 -26t28 -11t29 10.5t14 26.5v215z" />
<glyph unicode="&#xab;" horiz-adv-x="745" d="M172 158l-100 430l100 430h201l-103 -430l103 -430h-201zM473 158l-100 430l100 430h201l-103 -430l103 -430h-201z" />
<glyph unicode="&#xad;" horiz-adv-x="487" d="M72 530v201h344v-201h-344z" />
<glyph unicode="&#xae;" horiz-adv-x="1280" d="M918 0h-558q-39 0 -68.5 3.5t-68.5 18.5t-64.5 41.5t-44 78t-18.5 122.5v905q0 71 18.5 122.5t44 78.5t64.5 42t68.5 18.5t68.5 3.5h558q72 0 124.5 -19.5t79 -46t41.5 -67t18 -68.5t3 -64v-905q0 -36 -3 -63.5t-18 -68t-41.5 -67t-79 -46t-124.5 -19.5zM449 143h380 q77 0 105 11q77 36 78 186v754q0 32 -3 58.5t-8.5 46t-13 34.5t-17.5 24.5t-21 16t-23.5 9.5t-26 5t-27.5 2h-28h-15h-380q-77 0 -100 -7q-64 -20 -77 -120q-4 -31 -4 -69v-754q0 -41 5 -73t12 -52.5t22 -35t25.5 -21.5t32.5 -10.5t34.5 -4t39.5 -0.5h10zM905 266h-203 l-94 312h-10v-312h-201v903h297q51 0 87.5 -13.5t56 -32.5t30 -49t13 -53.5t2.5 -55.5v-232q0 -107 -90 -137zM598 727h31q27 0 40 13.5t13 31.5v203q0 18 -13 31.5t-40 13.5h-31v-293z" />
<glyph unicode="&#xbb;" horiz-adv-x="745" d="M573 1018l101 -430l-101 -430h-200l102 430l-102 430h200zM272 1018l101 -430l-101 -430h-200l102 430l-102 430h200z" />
<glyph unicode="&#x401;" horiz-adv-x="724" d="M84 0v1434h582v-158h-295v-445h295v-157h-295v-516h307v-158h-594zM100 1520v200h238v-200h-238zM428 1520v200h238v-200h-238z" />
<glyph unicode="&#x402;" horiz-adv-x="925" d="M190 0v1276h-143v158h717v-158h-287v-358h164q58 0 100 -18t63 -42.5t33 -63t14.5 -66.5t2.5 -66v-406q0 -38 -2.5 -66t-14.5 -66.5t-33 -63t-63 -42.5t-100 -18h-125v158q51 6 51 57v473q0 39 -15.5 55.5t-35.5 16.5h-39v-760h-287z" />
<glyph unicode="&#x403;" horiz-adv-x="677" d="M84 0v1434h547v-158h-260v-1276h-287zM586 1720l-201 -215h-158l86 215h273z" />
<glyph unicode="&#x404;" horiz-adv-x="831" d="M748 502v-246q0 -38 -2.5 -66t-15 -66.5t-33.5 -63t-62.5 -42.5t-99.5 -18h-238q-58 0 -99.5 18t-62.5 42.5t-33.5 63t-15 66.5t-2.5 66v922q0 38 2.5 66t15 66.5t33.5 63t62.5 42.5t99.5 18h238q58 0 99.5 -18t62.5 -42.5t33.5 -63t15 -66.5t2.5 -66v-203h-287v254 q0 19 -12.5 33t-32.5 14q-16 0 -30.5 -11t-14.5 -36v-412h229v-158h-229v-454q0 -25 14.5 -36t30.5 -11q20 0 32.5 14t12.5 33v297h287z" />
<glyph unicode="&#x405;" horiz-adv-x="831" d="M84 473h287v-268q0 -25 14.5 -36t30.5 -11q20 0 32.5 14t12.5 33v223q0 32 -11.5 56.5t-24.5 37t-40 33.5l-213 162q-51 37 -69.5 81.5t-18.5 106.5v273q0 38 2.5 66t15 66.5t33.5 63t62.5 42.5t99.5 18h238q58 0 99.5 -18t62.5 -42.5t33.5 -63t15 -66.5t2.5 -66v-189 h-287v240q0 19 -12.5 33t-32.5 14q-16 0 -30.5 -11t-14.5 -36v-207q0 -30 2 -47.5t14 -34t16.5 -20.5t30.5 -25l207 -170q55 -45 81 -88t26 -113v-268q0 -38 -2.5 -66t-15 -66.5t-33.5 -63t-62.5 -42.5t-99.5 -18h-238q-58 0 -99.5 18t-62.5 42.5t-33.5 63t-15 66.5t-2.5 66 v217z" />
<glyph unicode="&#x406;" horiz-adv-x="454" d="M84 0v1434h287v-1434h-287z" />
<glyph unicode="&#x407;" horiz-adv-x="561" d="M139 0v1434h287v-1434h-287zM29 1520v200h209v-200h-209zM328 1520v200h204v-200h-204z" />
<glyph unicode="&#x408;" horiz-adv-x="497" d="M47 0v158h29q20 0 35.5 16t15.5 55v1205h287v-1178q0 -38 -2.5 -66t-14.5 -66.5t-33 -63t-63 -42.5t-100 -18h-154z" />
<glyph unicode="&#x409;" horiz-adv-x="1241" d="M47 0v158h29q20 0 35.5 16t15.5 55v1205h666v-531h161q58 0 100 -18t63.5 -42.5t34 -63t15 -66.5t2.5 -66v-391q0 -38 -2.5 -66t-15 -66.5t-34 -63t-63.5 -42.5t-100 -18h-448v1276h-92v-1020q0 -38 -2.5 -66t-14.5 -66.5t-33 -63t-63 -42.5t-100 -18h-154zM793 158h36 q24 0 39 19t15 52v445q0 33 -15 52t-39 19h-36v-587z" />
<glyph unicode="&#x40a;" horiz-adv-x="1196" d="M84 0v1434h287v-531h90v531h287v-531h163q58 0 99.5 -18t62.5 -42.5t33.5 -63t15 -66.5t2.5 -66v-391q0 -38 -2.5 -66t-15 -66.5t-33.5 -63t-62.5 -42.5t-99.5 -18h-450v745h-90v-745h-287zM748 158h36q24 0 39 19t15 52v445q0 33 -15 52t-39 19h-36v-587z" />
<glyph unicode="&#x40b;" horiz-adv-x="925" d="M190 0v1276h-143v158h717v-158h-287v-358h164q58 0 100 -18t63 -42.5t33 -63t14.5 -66.5t2.5 -66v-662h-287v688q0 39 -15.5 55.5t-35.5 16.5h-39v-760h-287z" />
<glyph unicode="&#x40c;" horiz-adv-x="837" d="M84 0v1434h287v-617h10l94 617h287l-146 -689l175 -745h-287l-123 659h-10v-659h-287zM680 1720l-201 -215h-157l86 215h272z" />
<glyph unicode="&#x40e;" horiz-adv-x="854" d="M137 0v158h47q38 0 62.5 8t35.5 24t15 30t6 36l8 80l-264 1098h303l94 -709h11l61 709h291l-217 -1186q-12 -69 -34.5 -117t-46 -73.5t-60 -39t-64.5 -16t-72 -2.5h-176zM150 1720h241v-49q0 -21 13.5 -36t37.5 -15q23 0 37.5 17t14.5 34v49h241v-49q0 -45 -13.5 -77.5 t-31 -49t-45 -26t-46 -11.5t-42.5 -2h-229q-48 0 -83 12t-52.5 29t-28 42t-12.5 42.5t-2 40.5v49z" />
<glyph unicode="&#x40f;" horiz-adv-x="831" d="M748 1434v-1434h-203v-287h-258v287h-203v1434h287v-1276h90v1276h287z" />
<glyph unicode="&#x410;" horiz-adv-x="843" d="M47 0l150 1434h450l150 -1434h-281l-27 381h-135l-26 -381h-281zM365 539h114l-49 718h-16z" />
<glyph unicode="&#x411;" horiz-adv-x="831" d="M84 0v1434h635v-158h-348v-416h164q58 0 99.5 -18t62.5 -42.5t33.5 -63t15 -66.5t2.5 -66v-348q0 -38 -2.5 -66t-15 -66.5t-33.5 -63t-62.5 -42.5t-99.5 -18h-451zM371 158h37q24 0 38.5 19t14.5 52v402q0 33 -14.5 52t-38.5 19h-37v-544z" />
<glyph unicode="&#x412;" horiz-adv-x="831" d="M84 0v1434h451q58 0 99.5 -18t62.5 -42.5t33.5 -63t15 -66.5t2.5 -66v-230q0 -56 -18 -96.5t-47.5 -61t-62 -29.5t-67.5 -7v-15q55 1 94 -14.5t58 -36t29.5 -52.5t12 -50t1.5 -41v-289q0 -38 -2.5 -66t-15 -66.5t-33.5 -63t-62.5 -42.5t-99.5 -18h-451zM371 158h37 q24 0 38.5 19t14.5 52v359q0 33 -14.5 52t-38.5 19h-37v-501zM371 817h37q24 0 38.5 19.5t14.5 52.5v315q0 33 -14.5 52.5t-38.5 19.5h-37v-459z" />
<glyph unicode="&#x413;" horiz-adv-x="677" d="M84 0v1434h547v-158h-260v-1276h-287z" />
<glyph unicode="&#x414;" horiz-adv-x="911" d="M807 1434v-1276h57v-416h-258v258h-301v-258h-258v416h14q82 0 82 143v1133h664zM430 1276v-1004q0 -78 -39 -114h129v1118h-90z" />
<glyph unicode="&#x415;" horiz-adv-x="724" d="M84 0v1434h582v-158h-295v-445h295v-157h-295v-516h307v-158h-594z" />
<glyph unicode="&#x416;" horiz-adv-x="1220" d="M467 0v659h-10l-123 -659h-287l174 745l-145 689h286l95 -617h10v617h287v-617h10l94 617h287l-146 -689l175 -745h-287l-123 659h-10v-659h-287z" />
<glyph unicode="&#x417;" horiz-adv-x="831" d="M84 502h287v-297q0 -25 14.5 -36t30.5 -11q20 0 32.5 14t12.5 33v360q0 20 -3.5 34t-14 29t-35 23t-62.5 8h-117v158h121q63 0 87 21.5t24 85.5v305q0 19 -12.5 33t-32.5 14q-16 0 -30.5 -11t-14.5 -36v-254h-287v203q0 38 2.5 66t15 66.5t33.5 63t62.5 42.5t99.5 18h238 q58 0 99.5 -18t62.5 -42.5t33.5 -63t15 -66.5t2.5 -66v-230q0 -56 -18 -96.5t-47.5 -61t-62 -29.5t-67.5 -7v-15q55 1 94 -14.5t58 -36t29.5 -52.5t12 -50t1.5 -41v-289q0 -38 -2.5 -66t-15 -66.5t-33.5 -63t-62.5 -42.5t-99.5 -18h-238q-58 0 -99.5 18t-62.5 42.5t-33.5 63 t-15 66.5t-2.5 66v246z" />
<glyph unicode="&#x418;" horiz-adv-x="870" d="M84 0v1434h287v-715h10l119 715h286v-1434h-286v715h-11l-118 -715h-287z" />
<glyph unicode="&#x419;" horiz-adv-x="870" d="M84 0v1434h287v-715h10l119 715h286v-1434h-286v715h-11l-118 -715h-287zM143 1720h240v-49q0 -22 14.5 -36.5t36.5 -14.5q24 0 37.5 15t13.5 36v49h240v-49q0 -23 -2 -41t-12.5 -43t-28.5 -41.5t-53 -28.5t-84 -12h-223q-48 0 -83 12t-53 29t-28 42t-12.5 43t-2.5 40v49 z" />
<glyph unicode="&#x41a;" horiz-adv-x="837" d="M84 0v1434h287v-617h10l94 617h287l-146 -689l175 -745h-287l-123 659h-10v-659h-287z" />
<glyph unicode="&#x41b;" horiz-adv-x="876" d="M47 0v158h29q20 0 35.5 16t15.5 55v1205h666v-1434h-287v1276h-92v-1020q0 -38 -2.5 -66t-14.5 -66.5t-33 -63t-63 -42.5t-100 -18h-154z" />
<glyph unicode="&#x41c;" horiz-adv-x="1286" d="M643 426l186 1008h373v-1434h-287v899h-10l-147 -899h-230l-147 899h-10v-899h-287v1434h373z" />
<glyph unicode="&#x41d;" horiz-adv-x="831" d="M84 0v1434h287v-603h90v603h287v-1434h-287v674h-90v-674h-287z" />
<glyph unicode="&#x41e;" horiz-adv-x="831" d="M84 256v922q0 38 2.5 66t15 66.5t33.5 63t62.5 42.5t99.5 18h238q58 0 99.5 -18t62.5 -42.5t33.5 -63t15 -66.5t2.5 -66v-922q0 -38 -2.5 -66t-15 -66.5t-33.5 -63t-62.5 -42.5t-99.5 -18h-238q-58 0 -99.5 18t-62.5 42.5t-33.5 63t-15 66.5t-2.5 66zM461 205v1024 q0 19 -12.5 33t-32.5 14q-16 0 -30.5 -11t-14.5 -36v-1024q0 -25 14.5 -36t30.5 -11q20 0 32.5 14t12.5 33z" />
<glyph unicode="&#x41f;" horiz-adv-x="831" d="M84 0v1434h664v-1434h-287v1276h-90v-1276h-287z" />
<glyph unicode="&#x420;" horiz-adv-x="819" d="M84 0v1434h451q58 0 99.5 -18t62.5 -42.5t33.5 -63t15 -66.5t2.5 -66v-435q0 -38 -2.5 -66t-15 -66.5t-33.5 -63t-62.5 -42.5t-99.5 -18h-164v-487h-287zM371 645h37q24 0 38.5 19.5t14.5 52.5v487q0 33 -14.5 52.5t-38.5 19.5h-37v-631z" />
<glyph unicode="&#x421;" horiz-adv-x="831" d="M748 502v-246q0 -38 -2.5 -66t-15 -66.5t-33.5 -63t-62.5 -42.5t-99.5 -18h-238q-58 0 -99.5 18t-62.5 42.5t-33.5 63t-15 66.5t-2.5 66v922q0 38 2.5 66t15 66.5t33.5 63t62.5 42.5t99.5 18h238q58 0 99.5 -18t62.5 -42.5t33.5 -63t15 -66.5t2.5 -66v-203h-287v254 q0 19 -12.5 33t-32.5 14q-16 0 -30.5 -11t-14.5 -36v-1024q0 -25 14.5 -36t30.5 -11q20 0 32.5 14t12.5 33v297h287z" />
<glyph unicode="&#x422;" horiz-adv-x="724" d="M219 0v1276h-172v158h631v-158h-172v-1276h-287z" />
<glyph unicode="&#x423;" horiz-adv-x="854" d="M137 0v158h47q38 0 62.5 8t35.5 24t15 30t6 36l8 80l-264 1098h303l94 -709h11l61 709h291l-217 -1186q-12 -69 -34.5 -117t-46 -73.5t-60 -39t-64.5 -16t-72 -2.5h-176z" />
<glyph unicode="&#x424;" horiz-adv-x="1208" d="M461 0v143h-164q-58 0 -99.5 18t-62.5 42.5t-33.5 63t-15 66.5t-2.5 66v707q0 38 2.5 66t15 66.5t33.5 63t62.5 42.5t99.5 18h164v100h287v-100h163q58 0 99.5 -18t62.5 -42.5t33.5 -63t15 -66.5t2.5 -66v-707q0 -38 -2.5 -66t-15 -66.5t-33.5 -63t-62.5 -42.5t-99.5 -18 h-163v-143h-287zM748 301h36q24 0 39 19.5t15 52.5v760q0 33 -15 52t-39 19h-36v-903zM461 301v903h-37q-53 0 -53 -71v-760q0 -72 53 -72h37z" />
<glyph unicode="&#x425;" horiz-adv-x="829" d="M47 0l148 731l-140 703h291l64 -502h10l63 502h291l-139 -703l147 -731h-293l-69 516h-10l-70 -516h-293z" />
<glyph unicode="&#x426;" horiz-adv-x="851" d="M84 0v1434h287v-1276h90v1276h287v-1276h57v-416h-258v258h-463z" />
<glyph unicode="&#x427;" horiz-adv-x="819" d="M449 0v516h-164q-58 0 -99.5 18t-62.5 42.5t-33.5 63t-15 66.5t-2.5 66v662h286v-689q0 -33 15 -52t39 -19h37v760h286v-1434h-286z" />
<glyph unicode="&#x428;" horiz-adv-x="1208" d="M84 0v1434h287v-1276h90v1276h287v-1276h90v1276h286v-1434h-1040z" />
<glyph unicode="&#x429;" horiz-adv-x="1228" d="M84 0v1434h287v-1276h90v1276h287v-1276h90v1276h286v-1276h58v-416h-258v258h-840z" />
<glyph unicode="&#x42a;" horiz-adv-x="954" d="M219 0v1276h-172v158h459v-531h164q58 0 100 -18t63 -42.5t33 -63t14.5 -66.5t2.5 -66v-391q0 -38 -2.5 -66t-14.5 -66.5t-33 -63t-63 -42.5t-100 -18h-451zM506 158h39q20 0 35.5 16t15.5 55v445q0 39 -15.5 55t-35.5 16h-39v-587z" />
<glyph unicode="&#x42b;" horiz-adv-x="1208" d="M84 0v1434h287v-531h164q58 0 99.5 -18t62.5 -42.5t33.5 -63t15 -66.5t2.5 -66v-391q0 -38 -2.5 -66t-15 -66.5t-33.5 -63t-62.5 -42.5t-99.5 -18h-451zM371 158h37q24 0 38.5 19t14.5 52v445q0 33 -14.5 52t-38.5 19h-37v-587zM838 0v1434h286v-1434h-286z" />
<glyph unicode="&#x42c;" horiz-adv-x="819" d="M84 0v1434h287v-531h164q58 0 99.5 -18t62.5 -42.5t33.5 -63t15 -66.5t2.5 -66v-391q0 -38 -2.5 -66t-15 -66.5t-33.5 -63t-62.5 -42.5t-99.5 -18h-451zM371 158h37q24 0 38.5 19t14.5 52v445q0 33 -14.5 52t-38.5 19h-37v-587z" />
<glyph unicode="&#x42d;" horiz-adv-x="831" d="M84 502h287v-297q0 -25 14.5 -36t30.5 -11q20 0 32.5 14t12.5 33v454h-232v158h232v412q0 19 -12.5 33t-32.5 14q-16 0 -30.5 -11t-14.5 -36v-254h-287v203q0 38 2.5 66t15 66.5t33.5 63t62.5 42.5t99.5 18h238q58 0 99.5 -18t62.5 -42.5t33.5 -63t15 -66.5t2.5 -66v-922 q0 -38 -2.5 -66t-15 -66.5t-33.5 -63t-62.5 -42.5t-99.5 -18h-238q-58 0 -99.5 18t-62.5 42.5t-33.5 63t-15 66.5t-2.5 66v246z" />
<glyph unicode="&#x42e;" horiz-adv-x="1208" d="M84 0v1434h287v-603h90v347q0 38 2.5 66t15 66.5t33.5 63t62.5 42.5t99.5 18h237q58 0 99.5 -18t62.5 -42.5t33.5 -63t15 -66.5t2.5 -66v-922q0 -38 -2.5 -66t-15 -66.5t-33.5 -63t-62.5 -42.5t-99.5 -18h-237q-58 0 -99.5 18t-62.5 42.5t-33.5 63t-15 66.5t-2.5 66v418 h-90v-674h-287zM838 205v1024q0 25 -14.5 36t-30.5 11t-30.5 -11t-14.5 -36v-1024q0 -25 14.5 -36t30.5 -11t30.5 11t14.5 36z" />
<glyph unicode="&#x42f;" horiz-adv-x="833" d="M47 0l174 559q-37 3 -64 19.5t-40 35.5t-21 45t-9 41.5t-1 32.5v445q0 38 2.5 66t15 66.5t33.5 63t62.5 42.5t99.5 18h451v-1434h-287v545h-10l-109 -545h-297zM463 702v574h-39q-20 0 -35.5 -16.5t-15.5 -55.5v-430q0 -39 15.5 -55.5t35.5 -16.5h39z" />
<glyph unicode="&#x430;" d="M72 782v162q0 56 13 96.5t30 60.5t46 31t49 13t50 2h193q52 0 88.5 -13t55 -31t28.5 -48.5t12 -53t2 -57.5v-944h-242v51q-36 -30 -86.5 -46.5t-99.5 -16.5q-38 0 -65.5 12.5t-41 30t-21.5 44.5t-9.5 46t-1.5 45v291q0 63 40.5 98.5t145.5 83.5q41 20 58 29t40.5 28 t32 42.5t8.5 56.5v163q0 19 -14 29t-27 10q-16 0 -29.5 -11.5t-13.5 -27.5v-176h-241zM397 188v373q-38 -12 -58 -32t-23 -35t-3 -39v-267q0 -13 11 -24.5t32 -11.5q41 0 41 36z" />
<glyph unicode="&#x431;" d="M639 1434v-170h-242q-24 0 -41 -6.5t-25 -14.5t-12.5 -23.5t-5 -25t-0.5 -27.5v-71q83 63 189 63q29 0 52.5 -8.5t37.5 -19t24 -30.5t14.5 -31.5t6.5 -36t2 -29v-23.5v-778q0 -35 -2 -57.5t-12 -53t-28.5 -48.5t-55 -31t-88.5 -13h-193q-30 0 -50 2t-49 13t-46 31 t-30 60.5t-13 96.5v975q0 68 20 118t47.5 75.5t66.5 40.5t65.5 18.5t56.5 3.5h311zM313 954v-768q0 -13 11 -24.5t32 -11.5q41 0 41 36v770q0 19 -14 29t-27 10q-16 0 -29.5 -11.5t-13.5 -29.5z" />
<glyph unicode="&#x432;" d="M72 0v1147h360q56 0 96.5 -12.5t61 -30t32.5 -44t14.5 -45.5t2.5 -44v-221q0 -60 -45.5 -99.5t-120.5 -40.5v-14q47 -1 81 -15t49.5 -30.5t24.5 -42t10 -37.5t1 -29v-266q0 -49 -16.5 -84t-37.5 -52.5t-54 -27t-52.5 -11t-46.5 -1.5h-360zM313 152h31q24 0 38.5 15.5 t14.5 43.5v227q0 42 -15.5 64t-37.5 22h-31v-372zM313 997v-323h31q8 0 15.5 3t16.5 10.5t15 25.5t6 43v184q0 23 -10.5 37t-21 17t-21.5 3h-31z" />
<glyph unicode="&#x433;" d="M639 373v-170q0 -35 -2 -57.5t-12 -53t-28.5 -48.5t-55 -31t-88.5 -13h-193q-30 0 -50 2t-49 13t-46 31t-30 60.5t-13 96.5v203q0 31 2 51.5t9.5 47.5t25 50t45.5 43l168 123q75 50 75 113v124q0 19 -14 29t-27 10q-16 0 -29.5 -11.5t-13.5 -27.5v-155h-241v141 q0 56 13 96.5t30 60.5t46 31t49 13t50 2h193q52 0 88.5 -13t55 -31t28.5 -48.5t12 -53t2 -57.5v-158q0 -35 -1 -49.5t-7 -38.5t-21 -42.5t-41 -39.5l-182 -145q-6 -5 -21.5 -16.5t-21.5 -17.5t-15 -18.5t-12.5 -27.5t-3.5 -35v-170q0 -13 11 -24.5t32 -11.5q41 0 41 36v187 h242z" />
<glyph unicode="&#x434;" d="M72 -129h241v-55q0 -16 13.5 -27.5t29.5 -11.5q13 0 27 10t14 29v260q-37 -34 -87 -55t-99 -21q-40 0 -68 15t-41.5 33.5t-21 48.5t-8 45.5t-0.5 40.5v7v791q0 26 1.5 45t9.5 46t21.5 44.5t41 30t65.5 12.5q49 0 99.5 -16.5t86.5 -46.5v51h242v-1317q0 -35 -2 -57.5 t-12 -53t-28.5 -48.5t-55 -31t-88.5 -13h-193q-30 0 -50 2t-49 13t-46 31t-30 60.5t-13 96.5v41zM313 956v-741q0 -18 14 -28.5t29 -10.5q14 0 27.5 8.5t13.5 30.5v741q0 19 -14 29t-27 10q-16 0 -29.5 -11.5t-13.5 -27.5z" />
<glyph unicode="&#x435;" d="M397 401h242v-198q0 -35 -2 -57.5t-12 -53t-28.5 -48.5t-55 -31t-88.5 -13h-193q-30 0 -50 2t-49 13t-46 31t-30 60.5t-13 96.5v741q0 56 13 96.5t30 60.5t46 31t49 13t50 2h193q52 0 88.5 -13t55 -31t28.5 -48.5t12 -53t2 -57.5v-426h-326v-332q0 -13 11 -24.5t32 -11.5 q41 0 41 36v215zM313 668h84v290q0 19 -14 29t-27 10q-16 0 -29.5 -11.5t-13.5 -27.5v-290z" />
<glyph unicode="&#x436;" horiz-adv-x="1007" d="M383 0v541h-10l-103 -541h-245l137 594l-125 553h250l86 -496h10v496h242v-496h10l86 496h250l-125 -553l137 -594h-246l-102 541h-10v-541h-242z" />
<glyph unicode="&#x437;" d="M72 401h241v-215q0 -13 11 -24.5t32 -11.5q41 0 41 36v246q0 20 -1.5 29.5t-8 25t-25.5 22.5t-49 7h-82v150h82q30 0 48.5 8.5t25.5 25t8.5 27.5t1.5 29v202q0 19 -14 29t-27 10q-16 0 -29.5 -11.5t-13.5 -27.5v-170h-241v156q0 56 13 96.5t30 60.5t46 31t49 13t50 2h193 q52 0 88.5 -13t55 -31t28.5 -48.5t12 -53t2 -57.5v-199q0 -63 -36 -103.5t-101 -39.5v-14q38 2 65.5 -10.5t40.5 -29t21 -40t9 -37t1 -27.5v-241q0 -35 -2 -57.5t-12 -53t-28.5 -48.5t-55 -31t-88.5 -13h-193q-30 0 -50 2t-49 13t-46 31t-30 60.5t-13 96.5v198z" />
<glyph unicode="&#x438;" d="M639 1147v-1147h-242v51q-36 -30 -86.5 -46.5t-99.5 -16.5q-38 0 -65.5 12.5t-41 30t-21.5 44.5t-9.5 46t-1.5 45v981h241v-959q0 -13 11 -24.5t32 -11.5q41 0 41 36v959h242z" />
<glyph unicode="&#x439;" d="M639 1147v-1147h-242v51q-36 -30 -86.5 -46.5t-99.5 -16.5q-38 0 -65.5 12.5t-41 30t-21.5 44.5t-9.5 46t-1.5 45v981h241v-959q0 -13 11 -24.5t32 -11.5q41 0 41 36v959h242zM98 1434h215v-64q0 -16 14 -26.5t29 -10.5q8 0 16.5 2.5t16.5 11.5t8 23v64h215v-78 q0 -19 -1.5 -32.5t-9.5 -35t-22 -35t-43 -24t-69 -10.5h-225q-144 0 -144 137v78z" />
<glyph unicode="&#x43a;" horiz-adv-x="698" d="M72 0v1147h241v-496h11l88 496h247l-122 -553l137 -594h-246l-104 541h-11v-541h-241z" />
<glyph unicode="&#x43b;" horiz-adv-x="735" d="M25 0v150h14q36 0 47.5 19t11.5 52v926h566v-1147h-242v997h-82v-788q0 -48 -13 -85.5t-35.5 -59t-46 -36t-52.5 -20t-45.5 -7t-34.5 -1.5h-88z" />
<glyph unicode="&#x43c;" horiz-adv-x="1003" d="M502 467l143 680h287v-1147h-242v571h-10l-109 -571h-139l-108 571h-11v-571h-241v1147h286z" />
<glyph unicode="&#x43d;" d="M72 0v1147h241v-473h84v473h242v-1147h-242v524h-84v-524h-241z" />
<glyph unicode="&#x43e;" d="M72 203v741q0 56 13 96.5t30 60.5t46 31t49 13t50 2h193q52 0 88.5 -13t55 -31t28.5 -48.5t12 -53t2 -57.5v-741q0 -35 -2 -57.5t-12 -53t-28.5 -48.5t-55 -31t-88.5 -13h-193q-30 0 -50 2t-49 13t-46 31t-30 60.5t-13 96.5zM313 958v-772q0 -13 11 -24.5t32 -11.5 q41 0 41 36v772q0 19 -14 29t-27 10q-16 0 -29.5 -11.5t-13.5 -27.5z" />
<glyph unicode="&#x43f;" d="M72 0v1147h241v-51q83 63 189 63q29 0 52.5 -8.5t37.5 -19t24 -30.5t14.5 -31.5t6.5 -36t2 -29v-23.5v-981h-242v956q0 19 -14 29t-27 10q-16 0 -29.5 -11.5t-13.5 -27.5v-956h-241z" />
<glyph unicode="&#x440;" d="M72 -373v1520h241v-51q83 63 189 63q29 0 52.5 -8.5t37.5 -19t24 -30.5t14.5 -31.5t6.5 -36t2 -29v-23.5v-815q0 -89 -29 -130q-34 -48 -108 -48q-106 0 -189 63v-424h-241zM313 956v-768q0 -13 11 -24.5t32 -11.5q41 0 41 36v768q0 19 -14 29t-27 10q-16 0 -29.5 -11.5 t-13.5 -27.5z" />
<glyph unicode="&#x441;" d="M397 401h242v-198q0 -35 -2 -57.5t-12 -53t-28.5 -48.5t-55 -31t-88.5 -13h-193q-30 0 -50 2t-49 13t-46 31t-30 60.5t-13 96.5v741q0 56 13 96.5t30 60.5t46 31t49 13t50 2h193q52 0 88.5 -13t55 -31t28.5 -48.5t12 -53t2 -57.5v-156h-242v170q0 19 -14 29t-27 10 q-16 0 -29.5 -11.5t-13.5 -27.5v-772q0 -13 11 -24.5t32 -11.5q41 0 41 36v215z" />
<glyph unicode="&#x442;" horiz-adv-x="1036" d="M72 0v1147h241v-51q83 63 189 63q17 0 36.5 -4t47 -21.5t45.5 -46.5q93 72 194 72q140 0 140 -178v-981h-242v956q0 19 -14 29t-27 10q-16 0 -29.5 -11.5t-13.5 -27.5v-956h-242v956q0 19 -14 29t-27 10q-16 0 -29.5 -11.5t-13.5 -27.5v-956h-241z" />
<glyph unicode="&#x443;" d="M639 1147v-1317q0 -35 -2 -57.5t-12 -53t-28.5 -48.5t-55 -31t-88.5 -13h-193q-30 0 -50 2t-49 13t-46 31t-30 60.5t-13 96.5v41h241v-55q0 -16 13.5 -27.5t29.5 -11.5q13 0 27 10t14 29v260q-37 -34 -87 -55t-99 -21q-40 0 -68 15t-41.5 33.5t-21 48.5t-8 45.5 t-0.5 40.5v7v957h241v-932q0 -18 14 -28.5t29 -10.5q14 0 27.5 8.5t13.5 30.5v932h242z" />
<glyph unicode="&#x444;" horiz-adv-x="1036" d="M397 1434h242v-338q36 30 86.5 46.5t99.5 16.5q38 0 65.5 -12.5t41.5 -30t22 -44t9.5 -46t1.5 -45.5v-815q0 -26 -1.5 -45.5t-9.5 -46t-22 -44t-41.5 -30t-65.5 -12.5q-49 0 -99.5 16.5t-86.5 46.5v-424h-242v424q-36 -30 -86.5 -46.5t-99.5 -16.5q-38 0 -65.5 12.5 t-41 30t-21.5 44.5t-9.5 46t-1.5 45v815q0 26 1.5 45t9.5 46t21.5 44.5t41 30t65.5 12.5q49 0 99.5 -16.5t86.5 -46.5v338zM313 956v-768q0 -13 11 -24.5t32 -11.5q41 0 41 36v768q0 19 -14 29t-27 10q-16 0 -29.5 -11.5t-13.5 -27.5zM639 956v-768q0 -13 11 -24.5t32 -11.5 q41 0 41 36v768q0 19 -14 29t-27 10q-16 0 -29.5 -11.5t-13.5 -27.5z" />
<glyph unicode="&#x445;" horiz-adv-x="702" d="M162 600l-123 547h248l59 -457h12l60 457h248l-125 -547l125 -600h-248l-62 510h-10l-61 -510h-248z" />
<glyph unicode="&#x446;" horiz-adv-x="735" d="M639 1147v-995h72v-353h-201v203h-113v49q-36 -30 -86.5 -46.5t-99.5 -16.5q-38 0 -65.5 12.5t-41 30t-21.5 44.5t-9.5 46t-1.5 45v981h241v-959q0 -13 11 -24.5t32 -11.5q41 0 41 36v959h242z" />
<glyph unicode="&#x447;" d="M397 0v473q-88 -74 -186 -74q-40 0 -68.5 15t-41.5 33.5t-20.5 48.5t-8 45.5t-0.5 39.5v7v559h241v-535q0 -16 14 -26.5t29 -10.5q8 0 16.5 2.5t16.5 11.5t8 23v535h242v-1147h-242z" />
<glyph unicode="&#x448;" horiz-adv-x="1036" d="M965 1147v-1147h-242v51q-76 -63 -186 -63q-86 0 -129 71q-89 -71 -197 -71q-40 0 -68.5 14.5t-41.5 32t-20.5 46t-8 43t-0.5 36.5v6v981h241v-959q0 -13 11 -24.5t32 -11.5q41 0 41 36v959h242v-959q0 -13 11 -24.5t32 -11.5q41 0 41 36v959h242z" />
<glyph unicode="&#x449;" horiz-adv-x="1060" d="M965 1147v-995h71v-353h-198v203h-115v49q-76 -63 -186 -63q-86 0 -129 71q-89 -71 -197 -71q-40 0 -68.5 14.5t-41.5 32t-20.5 46t-8 43t-0.5 36.5v6v981h241v-959q0 -13 11 -24.5t32 -11.5q41 0 41 36v959h242v-959q0 -13 11 -24.5t32 -11.5q41 0 41 36v959h242z" />
<glyph unicode="&#x44a;" horiz-adv-x="813" d="M174 0v997h-149v150h391v-422h133h6q26 0 42.5 -1t47 -10t48.5 -26t33 -53t15 -86v-373q0 -27 -1.5 -44.5t-12 -45t-29.5 -44t-57 -29.5t-92 -13h-375zM416 150h30q15 0 26 5.5t16 12.5t8 19t3.5 19.5t0.5 18.5v275q0 11 -0.5 18.5t-3.5 19.5t-8 19t-16 12.5t-26 5.5h-30 v-425z" />
<glyph unicode="&#x44b;" horiz-adv-x="1038" d="M72 0v1147h241v-422h133q56 0 95 -13.5t57.5 -29.5t28.5 -45t11 -44.5t1 -43.5v-373q0 -29 -1 -44.5t-11 -44.5t-28.5 -45t-57.5 -29t-95 -13h-374zM313 150h31q19 0 30.5 7t16 21t5.5 23t1 24v277q0 15 -1 24t-5.5 23t-16 21.5t-30.5 7.5h-31v-428zM725 0v1147h242 v-1147h-242z" />
<glyph unicode="&#x44c;" d="M72 0v1147h241v-422h133q56 0 95 -13.5t57.5 -29.5t28.5 -45t11 -44.5t1 -43.5v-373q0 -29 -1 -44.5t-11 -44.5t-28.5 -45t-57.5 -29t-95 -13h-374zM313 150h31q19 0 30.5 7t16 21t5.5 23t1 24v275q0 15 -1 24t-5.5 23t-16 21t-30.5 7h-31v-425z" />
<glyph unicode="&#x44d;" d="M72 401h241v-215q0 -13 11 -24.5t32 -11.5q41 0 41 36v332h-176v150h176v290q0 19 -14 29t-27 10q-16 0 -29.5 -11.5t-13.5 -27.5v-170h-241v156q0 56 13 96.5t30 60.5t46 31t49 13t50 2h193q52 0 88.5 -13t55 -31t28.5 -48.5t12 -53t2 -57.5v-741q0 -35 -2 -57.5 t-12 -53t-28.5 -48.5t-55 -31t-88.5 -13h-193q-30 0 -50 2t-49 13t-46 31t-30 60.5t-13 96.5v198z" />
<glyph unicode="&#x44e;" horiz-adv-x="1036" d="M72 0v1147h241v-473h84v270q0 57 14 98t32 60.5t48 30.5t48 12.5t47 1.5h190q51 0 87.5 -13t56 -31.5t30 -48t13 -53t2.5 -57.5v-741q0 -34 -2.5 -57.5t-13 -53t-30 -48t-56 -31.5t-87.5 -13h-190q-29 0 -47 1.5t-48 12.5t-48 30.5t-32 60.5t-14 98v321h-84v-524h-241z M639 958v-772q0 -13 11 -24.5t32 -11.5q41 0 41 36v772q0 19 -14 29t-27 10q-16 0 -29.5 -11.5t-13.5 -27.5z" />
<glyph unicode="&#x44f;" horiz-adv-x="712" d="M63 0l134 446q-125 14 -125 179v325q0 32 1.5 50t11 50t28 50t56 32.5t91.5 14.5h381v-1147h-242v446h-10l-90 -446h-236zM399 584v413h-28q-23 0 -40.5 -17t-17.5 -58v-275q0 -30 16 -46.5t42 -16.5h28z" />
<glyph unicode="&#x451;" d="M397 401h242v-198q0 -35 -2 -57.5t-12 -53t-28.5 -48.5t-55 -31t-88.5 -13h-193q-30 0 -50 2t-49 13t-46 31t-30 60.5t-13 96.5v741q0 56 13 96.5t30 60.5t46 31t49 13t50 2h193q52 0 88.5 -13t55 -31t28.5 -48.5t12 -53t2 -57.5v-426h-326v-332q0 -13 11 -24.5t32 -11.5 q41 0 41 36v215zM313 668h84v290q0 19 -14 29t-27 10q-16 0 -29.5 -11.5t-13.5 -27.5v-290zM72 1233v201h241v-201h-241zM397 1233v201h242v-201h-242z" />
<glyph unicode="&#x452;" d="M72 0v1249h-72v115h72v70h241v-70h201v-115h-201v-153q83 63 189 63q29 0 52.5 -8.5t37.5 -19t24 -30.5t14.5 -31.5t6.5 -36t2 -29v-23.5v-1151q0 -34 -5 -61.5t-11.5 -47.5t-19.5 -35.5t-22.5 -25.5t-28 -16.5t-28.5 -10t-31 -5t-29 -1.5h-28h-160v150h15q37 0 60.5 10 t32.5 30t11 33t2 35v1071q0 19 -14 29t-27 10q-16 0 -29.5 -11.5t-13.5 -27.5v-956h-241z" />
<glyph unicode="&#x453;" d="M639 373v-170q0 -35 -2 -57.5t-12 -53t-28.5 -48.5t-55 -31t-88.5 -13h-193q-30 0 -50 2t-49 13t-46 31t-30 60.5t-13 96.5v203q0 31 2 51.5t9.5 47.5t25 50t45.5 43l168 123q75 50 75 113v124q0 19 -14 29t-27 10q-16 0 -29.5 -11.5t-13.5 -27.5v-155h-241v141 q0 56 13 96.5t30 60.5t46 31t49 13t50 2h193q52 0 88.5 -13t55 -31t28.5 -48.5t12 -53t2 -57.5v-158q0 -35 -1 -49.5t-7 -38.5t-21 -42.5t-41 -39.5l-182 -145q-6 -5 -21.5 -16.5t-21.5 -17.5t-15 -18.5t-12.5 -27.5t-3.5 -35v-170q0 -13 11 -24.5t32 -11.5q41 0 41 36v187 h242zM584 1434l-195 -230h-164l107 230h252z" />
<glyph unicode="&#x454;" d="M639 401v-198q0 -42 -7 -74.5t-16.5 -53.5t-26.5 -36t-31 -22.5t-36 -11.5t-35 -4.5t-34 -0.5h-193q-22 0 -33.5 0.5t-34.5 4t-36.5 10.5t-31.5 22t-28 36t-17 54.5t-7 75.5v741q0 42 7 75.5t17 54.5t28 36t31.5 22t36.5 10.5t34.5 4t33.5 0.5h193q21 0 34 -0.5t35 -4.5 t36 -11.5t31 -22.5t26.5 -36t16.5 -53.5t7 -74.5v-156h-242v170q0 19 -14 29t-27 10q-16 0 -29.5 -11.5t-13.5 -27.5v-290h176v-150h-176v-332q0 -13 11 -24.5t32 -11.5q41 0 41 36v215h242z" />
<glyph unicode="&#x455;" d="M72 373h241v-187q0 -13 11 -24.5t32 -11.5q41 0 41 36v170q0 22 -2.5 36.5t-11.5 26.5t-13 17t-22 17.5t-24 17.5l-183 145q-32 25 -48 55t-18.5 51.5t-2.5 63.5v158q0 42 7 75.5t17 54.5t28 36t31.5 22t36.5 10.5t34.5 4t33.5 0.5h193q21 0 34 -0.5t35 -4.5t36 -11.5 t31 -22.5t26.5 -36t16.5 -53.5t7 -74.5v-141h-242v155q0 19 -14 29t-27 10q-16 0 -29.5 -11.5t-13.5 -27.5v-124q0 -59 78 -113l168 -123q23 -16 39 -36t24 -36t12 -40t4.5 -38.5t0.5 -41.5v-203q0 -42 -7 -74.5t-16.5 -53.5t-26.5 -36t-31 -22.5t-36 -11.5t-35 -4.5 t-34 -0.5h-193q-22 0 -33.5 0.5t-34.5 4t-36.5 10.5t-31.5 22t-28 36t-17 54.5t-7 75.5v170z" />
<glyph unicode="&#x456;" horiz-adv-x="385" d="M72 0v1147h241v-1147h-241zM72 1233v201h241v-201h-241z" />
<glyph unicode="&#x457;" horiz-adv-x="557" d="M158 0v1147h241v-1147h-241zM37 1233v201h201v-201h-201zM319 1233v201h201v-201h-201z" />
<glyph unicode="&#x458;" horiz-adv-x="385" d="M72 -373v1520h241v-1520h-241zM72 1233v201h241v-201h-241z" />
<glyph unicode="&#x459;" horiz-adv-x="1062" d="M422 0v997h-82v-788q0 -48 -13 -85.5t-35.5 -59t-46 -36t-52.5 -20t-45.5 -7t-34.5 -1.5h-88v150h14q36 0 47.5 19t11.5 52v926h566v-422h135h6q26 0 42.5 -1t47 -10t48.5 -26t33 -53t15 -86v-373q0 -27 -1.5 -44.5t-12 -45t-29.5 -44t-57 -29.5t-92 -13h-377zM664 150 h30q56 0 56 75v275q0 75 -56 75h-30v-425z" />
<glyph unicode="&#x45a;" horiz-adv-x="1036" d="M397 0v575h-84v-575h-241v1147h241v-422h84v422h242v-422h133q60 0 100.5 -12t59.5 -34.5t26 -46.5t7 -57v-399q0 -26 -2 -44t-12.5 -45.5t-29.5 -44.5t-57 -29.5t-92 -12.5h-375zM639 150h31q19 0 30.5 7t16 21t5.5 23t1 24v273q0 16 -1 25t-5.5 23.5t-16 21.5t-30.5 7 h-31v-425z" />
<glyph unicode="&#x45b;" d="M72 0v1249h-72v115h72v70h241v-70h201v-115h-201v-153q83 63 189 63q29 0 52.5 -8.5t37.5 -19t24 -30.5t14.5 -31.5t6.5 -36t2 -29v-23.5v-981h-242v956q0 19 -14 29t-27 10q-16 0 -29.5 -11.5t-13.5 -27.5v-956h-241z" />
<glyph unicode="&#x45c;" horiz-adv-x="698" d="M72 0v1147h241v-496h11l88 496h247l-122 -553l137 -594h-246l-104 541h-11v-541h-241zM610 1434l-194 -230h-164l106 230h252z" />
<glyph unicode="&#x45e;" d="M639 1147v-1317q0 -35 -2 -57.5t-12 -53t-28.5 -48.5t-55 -31t-88.5 -13h-193q-30 0 -50 2t-49 13t-46 31t-30 60.5t-13 96.5v41h241v-55q0 -16 13.5 -27.5t29.5 -11.5q13 0 27 10t14 29v260q-37 -34 -87 -55t-99 -21q-40 0 -68 15t-41.5 33.5t-21 48.5t-8 45.5 t-0.5 40.5v7v957h241v-932q0 -18 14 -28.5t29 -10.5q14 0 27.5 8.5t13.5 30.5v932h242zM98 1434h215v-64q0 -16 14 -26.5t29 -10.5q8 0 16.5 2.5t16.5 11.5t8 23v64h215v-78q0 -19 -1.5 -32.5t-9.5 -35t-22 -35t-43 -24t-69 -10.5h-225q-144 0 -144 137v78z" />
<glyph unicode="&#x45f;" d="M639 1147v-1147h-184v-244h-199v244h-184v1147h241v-997h84v997h242z" />
<glyph unicode="&#x490;" horiz-adv-x="735" d="M84 0v1434h375v172h229v-330h-317v-1276h-287z" />
<glyph unicode="&#x491;" horiz-adv-x="604" d="M72 0v1147h301v201h200v-351h-260v-997h-241z" />
<glyph unicode="&#x2000;" horiz-adv-x="860" />
<glyph unicode="&#x2001;" horiz-adv-x="1720" />
<glyph unicode="&#x2002;" horiz-adv-x="860" />
<glyph unicode="&#x2003;" horiz-adv-x="1720" />
<glyph unicode="&#x2004;" horiz-adv-x="573" />
<glyph unicode="&#x2005;" horiz-adv-x="430" />
<glyph unicode="&#x2006;" horiz-adv-x="286" />
<glyph unicode="&#x2007;" horiz-adv-x="286" />
<glyph unicode="&#x2008;" horiz-adv-x="215" />
<glyph unicode="&#x2009;" horiz-adv-x="344" />
<glyph unicode="&#x200a;" horiz-adv-x="95" />
<glyph unicode="&#x2010;" horiz-adv-x="487" d="M72 530v201h344v-201h-344z" />
<glyph unicode="&#x2011;" horiz-adv-x="487" d="M72 530v201h344v-201h-344z" />
<glyph unicode="&#x2012;" horiz-adv-x="487" d="M72 530v201h344v-201h-344z" />
<glyph unicode="&#x2013;" horiz-adv-x="983" d="M72 631v172h839v-172h-839z" />
<glyph unicode="&#x2014;" horiz-adv-x="1046" d="M72 559v143h903v-143h-903z" />
<glyph unicode="&#x2018;" horiz-adv-x="401" d="M330 1176v-258h-258v258q0 139 86 258h200q-119 -104 -116 -258h88z" />
<glyph unicode="&#x2019;" horiz-adv-x="401" d="M72 1176v258h258v-258q0 -139 -86 -258h-201q55 48 86.5 114.5t30.5 143.5h-88z" />
<glyph unicode="&#x201a;" horiz-adv-x="401" d="M72 0v258h258v-258q0 -139 -86 -258h-201q55 48 86.5 114.5t30.5 143.5h-88z" />
<glyph unicode="&#x201c;" horiz-adv-x="745" d="M674 1176v-258h-258v258q0 139 86 258h200q-119 -104 -116 -258h88zM330 1176v-258h-258v258q0 139 86 258h186q-102 -107 -102 -258h88z" />
<glyph unicode="&#x201d;" horiz-adv-x="745" d="M72 1176v258h258v-258q0 -139 -86 -258h-201q55 48 86.5 114.5t30.5 143.5h-88zM416 1176v258h258v-258q0 -139 -86 -258h-187q103 108 103 258h-88z" />
<glyph unicode="&#x201e;" horiz-adv-x="745" d="M72 0v258h258v-258q0 -139 -86 -258h-201q55 48 86.5 114.5t30.5 143.5h-88zM416 0v258h258v-258q0 -139 -86 -258h-187q103 108 103 258h-88z" />
<glyph unicode="&#x2022;" horiz-adv-x="983" d="M233 717q0 106 76.5 182t182.5 76t182 -76t76 -182t-76 -182t-182 -76t-182.5 76t-76.5 182z" />
<glyph unicode="&#x2026;" horiz-adv-x="1204" d="M72 0v258h258v-258h-258zM473 0v258h258v-258h-258zM874 0v258h259v-258h-259z" />
<glyph unicode="&#x202f;" horiz-adv-x="344" />
<glyph unicode="&#x2039;" horiz-adv-x="444" d="M172 158l-100 430l100 430h201l-103 -430l103 -430h-201z" />
<glyph unicode="&#x203a;" horiz-adv-x="444" d="M272 1018l101 -430l-101 -430h-200l102 430l-102 430h200z" />
<glyph unicode="&#x205f;" horiz-adv-x="430" />
<glyph unicode="&#x20ac;" horiz-adv-x="831" d="M766 1384v-225q-59 55 -172 55q-87 0 -134 -58.5t-59 -190.5h320l-51 -185h-285q0 -8 -1 -27t-1 -28q0 -10 1 -31t1 -30h250l-51 -185h-183q10 -136 58.5 -197t134.5 -61q119 0 172 53v-229q-53 -45 -215 -45q-163 0 -260.5 115.5t-126.5 363.5h-133l51 185h63 q-2 16 -2 61q0 37 2 55h-114l51 185h78q54 469 391 469q74 0 132 -15t83 -35z" />
<glyph unicode="&#x2122;" horiz-adv-x="1097" d="M158 717v616h-86v101h313v-101h-84v-616h-143zM455 717v717h186l100 -473l99 473h186v-717h-143v405l-80 -405h-123l-82 405v-405h-143z" />
<glyph unicode="&#x25fc;" horiz-adv-x="1146" d="M0 1147h1147v-1147h-1147v1147z" />
</font>
</defs>
</svg>
