<?xml version="1.0" encoding="utf-8"?>
<!-- Generator: Adobe Illustrator 21.1.0, SVG Export Plug-In . SVG Version: 6.00 Build 0)  -->
<svg  version="1.1" id="Слой_1" xmlns="http://www.w3.org/2000/svg" xmlns:xlink="http://www.w3.org/1999/xlink" x="0px" y="0px"
	 viewBox="0 0 1510 339" style="enable-background:new 0 0 1510 339;" xml:space="preserve">
<path class="st0" d="M213.5,200.5V55.3h16.9v145.2H213.5z"/>
<path class="st0" d="M393.6,200.4h-19.3L295.9,78.6c0,0-0.1,27.4-0.1,39.3v82.5h-15.6V55.3h19.1l78.6,121.4c0,0-0.2-33.9-0.1-38
	V55.3h15.8V200.4z"/>
<path class="st0" d="M488.6,200.5h-16.9V70.3h-46v-15h108.9v15h-46L488.6,200.5z"/>
<path class="st0" d="M647.5,200.5h-80.9V55.3h80.9v15h-64.1v46.8h60.2V132h-60.2v53.4h64L647.5,200.5z"/>
<path class="st0" d="M706.8,140.1v60.4h-16.9V55.3h39.8c17.8,0,31,3.4,39.5,10.2s12.8,17.1,12.8,30.8c0,19.2-9.7,32.2-29.2,38.9
	l39.4,65.3h-20L737,140.1H706.8z M706.8,125.6h23.1c11.9,0,20.7-2.4,26.2-7.1c5.6-4.7,8.3-11.8,8.3-21.3c0-9.6-2.8-16.5-8.5-20.8
	c-5.7-4.2-14.7-6.4-27.3-6.4h-22V125.6z"/>
<path class="st0" d="M908.7,55.3h18.2l-52.3,145.2h-16.7l-52-145.2h17.9l33.3,93.9c3.7,10.3,6.7,20.8,9.1,31.5
	c2.4-10.9,5.5-21.6,9.3-32.1L908.7,55.3z"/>
<path class="st0" d="M1081.1,127.7c0,22.6-5.7,40.3-17.1,53.2c-11.4,12.9-27.3,19.4-47.6,19.4c-20.8,0-36.8-6.3-48-19
	s-16.9-30.6-16.9-53.8c0-22.9,5.7-40.7,17-53.4c11.3-12.6,27.4-18.9,48.2-18.9c20.2,0,36,6.4,47.4,19.3S1081.1,105.1,1081.1,127.7z
	 M967.4,127.7c0,19.6,4.2,34.5,12.5,44.7s20.5,15.2,36.4,15.2c16.1,0,28.2-5.1,36.4-15.2c8.2-10.1,12.3-25,12.3-44.7
	c0-19.5-4.1-34.3-12.2-44.4s-20.2-15.1-36.2-15.1c-16.1,0-28.3,5.1-36.6,15.2S967.4,108.4,967.4,127.7L967.4,127.7z"/>
<path class="st0" d="M1125.6,200.5V55.3h16.9v129.9h64.1v15.3L1125.6,200.5z"/>
<path class="st0" d="M1304.8,124.5h47.9v68.6c-7.4,2.4-15.1,4.2-22.8,5.4c-8.9,1.3-17.8,1.9-26.8,1.8c-21.3,0-38-6.3-49.9-19.1
	c-11.9-12.7-17.9-30.5-17.8-53.4c0-14.7,2.9-27.5,8.8-38.5c5.7-10.8,14.6-19.6,25.4-25.3c11.1-5.8,24-8.7,38.9-8.7
	c14.4-0.1,28.7,2.7,42.1,8.3l-6.4,14.5c-12.7-5.4-25-8.1-36.8-8.1c-17.2,0-30.6,5.1-40.2,15.3s-14.5,24.4-14.5,42.5
	c0,19,4.6,33.5,13.9,43.3c9.3,9.8,22.9,14.8,40.9,14.8c9.7,0,19.3-1.1,28.7-3.4v-43.4h-31.5V124.5z"/>
<path class="st0" d="M1490.4,200.5l-18-46h-58l-17.8,46h-17l57.2-145.3h14.2l56.9,145.3H1490.4z M1467.2,139.4l-16.8-44.8
	c-2.2-5.7-4.4-12.6-6.7-20.9c-1.7,7.1-3.8,14-6.2,20.9l-17,44.8H1467.2z"/>
</svg>
